<svg width="1920" height="1080" viewBox="0 0 1920 1080" fill="none" xmlns="http://www.w3.org/2000/svg">
<path d="M-547.516 181.924L-468.031 221.983C-426.217 242.326 -369 260.153 -352.376 225.982C-323.175 165.959 -495.001 116.839 -470.831 67.1569C-459.019 42.8776 -418.462 50.3757 -383.392 67.4372C-329.438 93.6856 -318.016 115.924 -330.593 141.776L-327.221 143.417L-307.972 103.851L-382.736 66.0883C-424.326 45.8552 -473.303 35.0943 -489.381 68.141C-517.598 126.141 -347.6 171.591 -373.958 225.769C-386.426 251.398 -432.08 237.805 -467.375 220.634C-493.677 207.838 -544.818 183.237 -525.569 143.67L-528.267 142.358L-547.516 181.924ZM-144.438 354.945C-158.571 361.136 -177.248 360.668 -190.961 353.997L-282.683 309.375L-242.545 226.87L-152.172 270.836C-141.156 276.195 -133.428 287.74 -132.511 300.141L-132.505 300.7L-131.38 301.246L-114.866 267.3L-115.99 266.754L-116.433 267.094C-126.756 274.026 -140.61 275.071 -151.625 269.712L-241.998 225.746L-207.219 154.257L-115.497 198.88C-101.784 205.551 -89.8873 219.957 -86.0353 234.898L-84.5225 240.36L-83.3984 240.907L-72.4616 218.426L-236.122 138.806L-236.669 139.93L-225.428 145.398L-300.892 300.516L-312.133 295.047L-312.68 296.171L-149.02 375.792L-138.083 353.311L-139.207 352.764L-144.438 354.945ZM-12.4818 247.606L-13.0287 248.73L-1.78828 254.199L-77.2525 409.316L-88.4929 403.848L-89.0397 404.972L4.03069 450.25C117.559 505.481 194.117 348.116 80.5886 292.885L-12.4818 247.606ZM80.0418 294.009C168.166 336.881 93.0303 491.324 4.57754 449.126L-59.0431 418.175L16.4212 263.057L80.0418 294.009ZM221.893 419.734L223.017 420.281L229.142 407.692C233.954 397.8 243.754 394.228 253.871 399.149L254.32 399.368L254.867 398.244L254.418 398.025C244.301 393.104 241.063 383.188 245.875 373.296L251.781 361.157L250.657 360.61L244.751 372.749C239.939 382.641 229.913 386.104 220.022 381.292L219.797 381.182L219.25 382.306L219.475 382.416C229.367 387.228 232.83 397.253 228.018 407.145L221.893 419.734ZM196.228 424.485L195.681 425.609L206.922 431.078L161.096 525.272L149.856 519.804L149.309 520.928L190.224 540.833L190.771 539.709L179.306 534.131L225.131 439.937L236.596 445.514L237.143 444.39L196.228 424.485ZM318.977 434.994C335.115 428.11 356.362 428.438 372.099 436.094L399.75 449.546L324.286 604.663L313.045 599.195L312.499 600.319L353.414 620.224L353.96 619.1L342.495 613.522L417.96 458.405L444.037 471.092C459.774 478.747 473.256 495.037 477.691 512.208L478.159 514.103L479.283 514.65L490.22 492.169L327.01 412.768L316.073 435.249L317.197 435.796L318.977 434.994ZM546.45 577.631L547.574 578.177L553.699 565.588C558.511 555.697 568.312 552.124 578.428 557.046L578.878 557.264L579.425 556.14L578.975 555.922C568.859 551 565.62 541.084 570.432 531.193L576.338 519.053L575.214 518.506L569.308 530.646C564.496 540.537 554.471 544 544.579 539.188L544.355 539.079L543.808 540.203L544.033 540.312C553.924 545.124 557.387 555.15 552.575 565.041L546.45 577.631ZM520.786 582.382L520.239 583.506L531.479 588.974L485.654 683.169L474.414 677.7L473.867 678.824L514.782 698.729L515.329 697.605L503.863 692.027L549.689 597.833L561.154 603.411L561.701 602.287L520.786 582.382ZM666.409 773.886C790.278 834.148 867.03 674.097 744.51 614.491C620.641 554.229 543.888 714.28 666.409 773.886ZM726.234 609.77C825.659 653.414 783.212 821.813 685.244 778.601C586.717 735.394 629.165 566.994 726.234 609.77Z" fill="#131F29"/>
<path d="M-582.273 481.951L-502.788 522.011C-460.974 542.353 -403.757 560.18 -387.133 526.01C-357.932 465.986 -529.758 416.867 -505.588 367.184C-493.776 342.905 -453.219 350.403 -418.149 367.464C-364.195 393.713 -352.773 415.951 -365.35 441.804L-361.978 443.444L-342.729 403.878L-417.493 366.116C-459.082 345.882 -508.06 335.122 -524.137 368.168C-552.354 426.169 -382.357 471.618 -408.715 525.797C-421.183 551.425 -466.837 537.833 -502.132 520.662C-528.434 507.866 -579.575 483.264 -560.326 443.698L-563.024 442.385L-582.273 481.951ZM-179.195 654.973C-193.328 661.164 -212.005 660.696 -225.718 654.024L-317.44 609.402L-277.302 526.898L-186.929 570.864C-175.913 576.223 -168.185 587.767 -167.267 600.168L-167.261 600.727L-166.137 601.274L-149.623 567.328L-150.747 566.781L-151.19 567.121C-161.513 574.054 -175.366 575.099 -186.382 569.74L-276.755 525.773L-241.976 454.285L-150.254 498.907C-136.541 505.578 -124.644 519.985 -120.792 534.925L-119.279 540.387L-118.155 540.934L-107.218 518.454L-270.879 438.833L-271.425 439.957L-260.185 445.426L-335.649 600.543L-346.89 595.075L-347.436 596.199L-183.776 675.819L-172.839 653.338L-173.964 652.791L-179.195 654.973ZM-47.2387 547.634L-47.7855 548.758L-36.5451 554.226L-112.009 709.343L-123.25 703.875L-123.797 704.999L-30.7261 750.278C82.8018 805.509 159.36 648.143 45.8318 592.912L-47.2387 547.634ZM45.2849 594.036C133.41 636.909 58.2735 791.352 -30.1793 749.153L-93.7999 718.202L-18.3357 563.085L45.2849 594.036ZM187.136 719.761L188.26 720.308L194.385 707.719C199.197 697.828 208.998 694.255 219.114 699.177L219.563 699.395L220.11 698.271L219.661 698.053C209.544 693.131 206.306 683.215 211.118 673.323L217.024 661.184L215.9 660.637L209.994 672.777C205.182 682.668 195.157 686.131 185.265 681.319L185.04 681.21L184.493 682.334L184.718 682.443C194.61 687.255 198.073 697.281 193.261 707.172L187.136 719.761ZM161.471 724.513L160.925 725.637L172.165 731.105L126.34 825.3L115.099 819.831L114.552 820.955L155.467 840.86L156.014 839.736L144.549 834.158L190.374 739.964L201.84 745.542L202.386 744.418L161.471 724.513ZM284.22 735.021C300.358 728.137 321.605 728.465 337.342 736.121L364.993 749.573L289.529 904.691L278.289 899.222L277.742 900.346L318.657 920.251L319.204 919.127L307.738 913.55L383.203 758.432L409.28 771.119C425.017 778.775 438.499 795.064 442.934 812.235L443.402 814.131L444.526 814.678L455.463 792.197L292.253 712.795L281.316 735.276L282.44 735.823L284.22 735.021ZM511.694 877.658L512.818 878.205L518.942 865.615C523.755 855.724 533.555 852.151 543.671 857.073L544.121 857.292L544.668 856.168L544.218 855.949C534.102 851.027 530.863 841.111 535.676 831.22L541.582 819.08L540.458 818.533L534.552 830.673C529.739 840.565 519.714 844.028 509.823 839.216L509.598 839.106L509.051 840.23L509.276 840.34C519.167 845.152 522.63 855.177 517.818 865.069L511.694 877.658ZM486.029 882.409L485.482 883.533L496.722 889.001L450.897 983.196L439.657 977.728L439.11 978.852L480.025 998.757L480.572 997.633L469.107 992.055L514.932 897.86L526.397 903.438L526.944 902.314L486.029 882.409ZM631.652 1073.91C755.521 1134.17 832.273 974.124 709.753 914.518C585.884 854.256 509.132 1014.31 631.652 1073.91ZM691.477 909.797C790.903 953.441 748.455 1121.84 650.487 1078.63C551.961 1035.42 594.408 867.022 691.477 909.797Z" fill="#131F29"/>
<path d="M-617.03 781.983L-537.545 822.042C-495.731 842.384 -438.514 860.212 -421.89 826.041C-392.689 766.017 -564.515 716.898 -540.344 667.215C-528.533 642.936 -487.976 650.434 -452.906 667.496C-398.952 693.744 -387.53 715.982 -400.107 741.835L-396.735 743.476L-377.486 703.909L-452.25 666.147C-493.839 645.914 -542.817 635.153 -558.894 668.2C-587.111 726.2 -417.114 771.649 -443.472 825.828C-455.94 851.456 -501.594 837.864 -536.889 820.693C-563.191 807.897 -614.332 783.295 -595.083 743.729L-597.781 742.417L-617.03 781.983ZM-213.952 955.004C-228.084 961.195 -246.762 960.727 -260.475 954.056L-352.197 909.433L-312.058 826.929L-221.686 870.895C-210.67 876.254 -202.942 887.798 -202.024 900.199L-202.018 900.758L-200.894 901.305L-184.38 867.359L-185.504 866.812L-185.947 867.152C-196.27 874.085 -210.123 875.13 -221.139 869.771L-311.512 825.805L-276.732 754.316L-185.011 798.938C-171.298 805.61 -159.401 820.016 -155.549 834.956L-154.036 840.419L-152.912 840.966L-141.975 818.485L-305.635 738.865L-306.182 739.989L-294.942 745.457L-370.406 900.574L-381.646 895.106L-382.193 896.23L-218.533 975.85L-207.596 953.369L-208.72 952.823L-213.952 955.004ZM-81.9955 847.665L-82.5423 848.789L-71.302 854.257L-146.766 1009.37L-158.007 1003.91L-158.553 1005.03L-65.483 1050.31C48.045 1105.54 124.603 948.174 11.0749 892.943L-81.9955 847.665ZM10.5281 894.067C98.6528 936.94 23.5166 1091.38 -64.9361 1049.18L-128.557 1018.23L-53.0925 863.116L10.5281 894.067ZM152.379 1019.79L153.503 1020.34L159.628 1007.75C164.44 997.859 174.241 994.286 184.357 999.208L184.807 999.427L185.353 998.303L184.904 998.084C174.788 993.162 171.549 983.246 176.361 973.355L182.267 961.215L181.143 960.668L175.237 972.808C170.425 982.699 160.4 986.163 150.508 981.35L150.283 981.241L149.737 982.365L149.961 982.474C159.853 987.287 163.316 997.312 158.504 1007.2L152.379 1019.79ZM126.715 1024.54L126.168 1025.67L137.408 1031.14L91.5828 1125.33L80.3424 1119.86L79.7955 1120.99L120.711 1140.89L121.257 1139.77L109.792 1134.19L155.618 1040L167.083 1045.57L167.63 1044.45L126.715 1024.54ZM249.463 1035.05C265.601 1028.17 286.848 1028.5 302.585 1036.15L330.236 1049.6L254.772 1204.72L243.532 1199.25L242.985 1200.38L283.9 1220.28L284.447 1219.16L272.982 1213.58L348.446 1058.46L374.524 1071.15C390.26 1078.81 403.742 1095.1 408.178 1112.27L408.645 1114.16L409.77 1114.71L420.706 1092.23L257.496 1012.83L246.559 1035.31L247.683 1035.85L249.463 1035.05ZM476.937 1177.69L478.061 1178.24L484.185 1165.65C488.998 1155.76 498.798 1152.18 508.915 1157.1L509.364 1157.32L509.911 1156.2L509.461 1155.98C499.345 1151.06 496.107 1141.14 500.919 1131.25L506.825 1119.11L505.701 1118.56L499.795 1130.7C494.983 1140.6 484.957 1144.06 475.066 1139.25L474.841 1139.14L474.294 1140.26L474.519 1140.37C484.41 1145.18 487.874 1155.21 483.061 1165.1L476.937 1177.69ZM451.272 1182.44L450.725 1183.56L461.966 1189.03L416.14 1283.23L404.9 1277.76L404.353 1278.88L445.268 1298.79L445.815 1297.66L434.35 1292.09L480.175 1197.89L491.64 1203.47L492.187 1202.35L451.272 1182.44ZM596.895 1373.94C720.764 1434.21 797.516 1274.16 674.996 1214.55C551.127 1154.29 474.375 1314.34 596.895 1373.94ZM656.72 1209.83C756.146 1253.47 713.698 1421.87 615.73 1378.66C517.204 1335.45 559.652 1167.05 656.72 1209.83Z" fill="#131F29"/>
<path d="M826.509 850.385L905.994 890.444C947.808 910.787 1005.03 928.614 1021.65 894.443C1050.85 834.42 879.024 785.3 903.195 735.618C915.006 711.339 955.563 718.837 990.633 735.898C1044.59 762.147 1056.01 784.384 1043.43 810.237L1046.8 811.878L1066.05 772.312L991.289 734.549C949.7 714.316 900.722 703.555 884.645 736.602C856.428 794.602 1026.43 840.052 1000.07 894.23C987.6 919.858 941.945 906.266 906.65 889.095C880.348 876.299 829.207 851.697 848.456 812.131L845.758 810.819L826.509 850.385ZM1229.59 1023.41C1215.45 1029.6 1196.78 1029.13 1183.06 1022.46L1091.34 977.836L1131.48 895.331L1221.85 939.297C1232.87 944.656 1240.6 956.201 1241.51 968.602L1241.52 969.161L1242.64 969.707L1259.16 935.761L1258.04 935.215L1257.59 935.555C1247.27 942.487 1233.42 943.532 1222.4 938.173L1132.03 894.207L1166.81 822.718L1258.53 867.341C1272.24 874.012 1284.14 888.418 1287.99 903.359L1289.5 908.821L1290.63 909.368L1301.56 886.887L1137.9 807.267L1137.36 808.391L1148.6 813.859L1073.13 968.977L1061.89 963.508L1061.35 964.632L1225.01 1044.25L1235.94 1021.77L1234.82 1021.22L1229.59 1023.41ZM1361.54 916.067L1361 917.191L1372.24 922.66L1296.77 1077.78L1285.53 1072.31L1284.99 1073.43L1378.06 1118.71C1491.58 1173.94 1568.14 1016.58 1454.61 961.346L1361.54 916.067ZM1454.07 962.47C1542.19 1005.34 1467.06 1159.79 1378.6 1117.59L1314.98 1086.64L1390.45 931.518L1454.07 962.47ZM1595.92 1088.2L1597.04 1088.74L1603.17 1076.15C1607.98 1066.26 1617.78 1062.69 1627.9 1067.61L1628.35 1067.83L1628.89 1066.7L1628.44 1066.49C1618.33 1061.56 1615.09 1051.65 1619.9 1041.76L1625.81 1029.62L1624.68 1029.07L1618.78 1041.21C1613.96 1051.1 1603.94 1054.56 1594.05 1049.75L1593.82 1049.64L1593.28 1050.77L1593.5 1050.88C1603.39 1055.69 1606.86 1065.71 1602.04 1075.61L1595.92 1088.2ZM1570.25 1092.95L1569.71 1094.07L1580.95 1099.54L1535.12 1193.73L1523.88 1188.26L1523.33 1189.39L1564.25 1209.29L1564.8 1208.17L1553.33 1202.59L1599.16 1108.4L1610.62 1113.98L1611.17 1112.85L1570.25 1092.95ZM1693 1103.45C1709.14 1096.57 1730.39 1096.9 1746.12 1104.55L1773.78 1118.01L1698.31 1273.12L1687.07 1267.66L1686.52 1268.78L1727.44 1288.69L1727.99 1287.56L1716.52 1281.98L1791.98 1126.87L1818.06 1139.55C1833.8 1147.21 1847.28 1163.5 1851.72 1180.67L1852.18 1182.56L1853.31 1183.11L1864.25 1160.63L1701.03 1081.23L1690.1 1103.71L1691.22 1104.26L1693 1103.45ZM1920.48 1246.09L1921.6 1246.64L1927.72 1234.05C1932.54 1224.16 1942.34 1220.58 1952.45 1225.51L1952.9 1225.73L1953.45 1224.6L1953 1224.38C1942.88 1219.46 1939.65 1209.55 1944.46 1199.65L1950.36 1187.51L1949.24 1186.97L1943.33 1199.11C1938.52 1209 1928.5 1212.46 1918.6 1207.65L1918.38 1207.54L1917.83 1208.66L1918.06 1208.77C1927.95 1213.59 1931.41 1223.61 1926.6 1233.5L1920.48 1246.09ZM1894.81 1250.84L1894.26 1251.97L1905.5 1257.44L1859.68 1351.63L1848.44 1346.16L1847.89 1347.29L1888.81 1367.19L1889.35 1366.07L1877.89 1360.49L1923.71 1266.29L1935.18 1271.87L1935.73 1270.75L1894.81 1250.84ZM2040.43 1442.35C2164.3 1502.61 2241.06 1342.56 2118.54 1282.95C1994.67 1222.69 1917.91 1382.74 2040.43 1442.35ZM2100.26 1278.23C2199.68 1321.87 2157.24 1490.27 2059.27 1447.06C1960.74 1403.85 2003.19 1235.46 2100.26 1278.23Z" fill="#131F29"/>
<path d="M791.752 1150.41L871.236 1190.47C913.051 1210.81 970.267 1228.64 986.891 1194.47C1016.09 1134.45 844.266 1085.33 868.437 1035.65C880.249 1011.37 920.805 1018.86 955.875 1035.93C1009.83 1062.17 1021.25 1084.41 1008.67 1110.26L1012.05 1111.91L1031.3 1072.34L956.531 1034.58C914.942 1014.34 865.964 1003.58 849.887 1036.63C821.67 1094.63 991.668 1140.08 965.31 1194.26C952.842 1219.89 907.187 1206.29 871.893 1189.12C845.59 1176.33 794.449 1151.72 813.698 1112.16L811 1110.85L791.752 1150.41ZM1194.83 1323.43C1180.7 1329.62 1162.02 1329.16 1148.31 1322.49L1056.58 1277.86L1096.72 1195.36L1187.1 1239.32C1198.11 1244.68 1205.84 1256.23 1206.76 1268.63L1206.76 1269.19L1207.89 1269.73L1224.4 1235.79L1223.28 1235.24L1222.83 1235.58C1212.51 1242.51 1198.66 1243.56 1187.64 1238.2L1097.27 1194.23L1132.05 1122.75L1223.77 1167.37C1237.48 1174.04 1249.38 1188.45 1253.23 1203.39L1254.75 1208.85L1255.87 1209.4L1266.81 1186.91L1103.15 1107.29L1102.6 1108.42L1113.84 1113.89L1038.38 1269L1027.13 1263.54L1026.59 1264.66L1190.25 1344.28L1201.18 1321.8L1200.06 1321.25L1194.83 1323.43ZM1326.79 1216.09L1326.24 1217.22L1337.48 1222.69L1262.02 1377.8L1250.77 1372.34L1250.23 1373.46L1343.3 1418.74C1456.83 1473.97 1533.38 1316.6 1419.86 1261.37L1326.79 1216.09ZM1419.31 1262.5C1507.43 1305.37 1432.3 1459.81 1343.85 1417.61L1280.22 1386.66L1355.69 1231.55L1419.31 1262.5ZM1561.16 1388.22L1562.28 1388.77L1568.41 1376.18C1573.22 1366.29 1583.02 1362.72 1593.14 1367.64L1593.59 1367.86L1594.13 1366.73L1593.69 1366.51C1583.57 1361.59 1580.33 1351.68 1585.14 1341.78L1591.05 1329.64L1589.92 1329.1L1584.02 1341.24C1579.21 1351.13 1569.18 1354.59 1559.29 1349.78L1559.06 1349.67L1558.52 1350.79L1558.74 1350.9C1568.63 1355.72 1572.1 1365.74 1567.29 1375.63L1561.16 1388.22ZM1535.5 1392.97L1534.95 1394.1L1546.19 1399.57L1500.36 1493.76L1489.12 1488.29L1488.58 1489.42L1529.49 1509.32L1530.04 1508.2L1518.57 1502.62L1564.4 1408.42L1575.86 1414L1576.41 1412.88L1535.5 1392.97ZM1658.24 1403.48C1674.38 1396.6 1695.63 1396.93 1711.37 1404.58L1739.02 1418.03L1663.55 1573.15L1652.31 1567.68L1651.77 1568.81L1692.68 1588.71L1693.23 1587.59L1681.76 1582.01L1757.23 1426.89L1783.3 1439.58C1799.04 1447.24 1812.52 1463.53 1816.96 1480.7L1817.43 1482.59L1818.55 1483.14L1829.49 1460.66L1666.28 1381.26L1655.34 1403.74L1656.46 1404.28L1658.24 1403.48ZM1885.72 1546.12L1886.84 1546.67L1892.97 1534.08C1897.78 1524.18 1907.58 1520.61 1917.7 1525.53L1918.15 1525.75L1918.69 1524.63L1918.24 1524.41C1908.13 1519.49 1904.89 1509.57 1909.7 1499.68L1915.61 1487.54L1914.48 1486.99L1908.58 1499.13C1903.76 1509.03 1893.74 1512.49 1883.85 1507.68L1883.62 1507.57L1883.08 1508.69L1883.3 1508.8C1893.19 1513.61 1896.65 1523.64 1891.84 1533.53L1885.72 1546.12ZM1860.05 1550.87L1859.51 1551.99L1870.75 1557.46L1824.92 1651.66L1813.68 1646.19L1813.13 1647.31L1854.05 1667.22L1854.6 1666.09L1843.13 1660.52L1888.96 1566.32L1900.42 1571.9L1900.97 1570.78L1860.05 1550.87ZM2005.68 1742.37C2129.55 1802.64 2206.3 1642.58 2083.78 1582.98C1959.91 1522.72 1883.16 1682.77 2005.68 1742.37ZM2065.5 1578.26C2164.93 1621.9 2122.48 1790.3 2024.51 1747.09C1925.98 1703.88 1968.43 1535.48 2065.5 1578.26Z" fill="#131F29"/>
<path d="M-512.759 -118.103L-433.274 -78.044C-391.46 -57.7015 -334.243 -39.8742 -317.619 -74.045C-288.418 -134.069 -460.244 -183.188 -436.074 -232.87C-424.262 -257.15 -383.706 -249.652 -348.635 -232.59C-294.682 -206.342 -283.259 -184.104 -295.836 -158.251L-292.464 -156.61L-273.216 -196.177L-347.979 -233.939C-389.569 -254.172 -438.547 -264.933 -454.624 -231.886C-482.841 -173.886 -312.843 -128.437 -339.201 -74.2579C-351.669 -48.6298 -397.323 -62.222 -432.618 -79.3929C-458.921 -92.189 -510.061 -116.791 -490.813 -156.357L-493.51 -157.669L-512.759 -118.103ZM-109.681 54.9179C-123.814 61.1091 -142.491 60.6411 -156.204 53.9696L-247.926 9.3473L-207.788 -73.1572L-117.415 -29.191C-106.4 -23.832 -98.6711 -12.2877 -97.7537 0.113254L-97.7477 0.672238L-96.6236 1.21908L-80.109 -32.7269L-81.233 -33.2737L-81.6766 -32.9335C-91.9996 -26.001 -105.853 -24.956 -116.868 -30.3151L-207.241 -74.2812L-172.462 -145.77L-80.7403 -101.148C-67.027 -94.4763 -55.1305 -80.0702 -51.2785 -65.1295L-49.7656 -59.6672L-48.6416 -59.1204L-37.7048 -81.6012L-201.365 -161.221L-201.912 -160.097L-190.671 -154.629L-266.136 0.488461L-277.376 -4.97996L-277.923 -3.85592L-114.263 75.7643L-103.326 53.2835L-104.45 52.7367L-109.681 54.9179ZM22.275 -52.4212L21.7282 -51.2971L32.9686 -45.8287L-42.4957 109.289L-53.7361 103.82L-54.2829 104.944L38.7875 150.223C152.315 205.454 228.873 48.0884 115.345 -7.14262L22.275 -52.4212ZM114.799 -6.01859C202.923 36.8538 127.787 191.297 39.3344 149.099L-24.2862 118.148L51.178 -36.9699L114.799 -6.01859ZM256.65 119.707L257.774 120.254L263.898 107.664C268.711 97.7729 278.511 94.2003 288.628 99.1219L289.077 99.3406L289.624 98.2166L289.174 97.9979C279.058 93.0763 275.82 83.1604 280.632 73.2688L286.538 61.1292L285.414 60.5824L279.508 72.722C274.696 82.6135 264.67 86.0767 254.779 81.2645L254.554 81.1551L254.007 82.2791L254.232 82.3885C264.123 87.2007 267.587 97.226 262.774 107.118L256.65 119.707ZM230.985 124.458L230.438 125.582L241.679 131.05L195.853 225.245L184.613 219.776L184.066 220.9L224.981 240.806L225.528 239.682L214.063 234.104L259.888 139.909L271.353 145.487L271.9 144.363L230.985 124.458ZM353.734 134.966C369.872 128.082 391.119 128.411 406.856 136.066L434.507 149.519L359.043 304.636L347.802 299.168L347.255 300.292L388.17 320.197L388.717 319.073L377.252 313.495L452.716 158.378L478.794 171.064C494.531 178.72 508.013 195.01 512.448 212.18L512.916 214.076L514.04 214.623L524.977 192.142L361.766 112.741L350.83 135.221L351.954 135.768L353.734 134.966ZM581.207 277.603L582.331 278.15L588.456 265.561C593.268 255.669 603.069 252.097 613.185 257.018L613.635 257.237L614.181 256.113L613.732 255.894C603.616 250.973 600.377 241.057 605.189 231.165L611.095 219.026L609.971 218.479L604.065 230.618C599.253 240.51 589.228 243.973 579.336 239.161L579.111 239.052L578.565 240.176L578.789 240.285C588.681 245.097 592.144 255.122 587.332 265.014L581.207 277.603ZM555.543 282.354L554.996 283.478L566.236 288.947L520.411 383.141L509.17 377.673L508.624 378.797L549.539 398.702L550.085 397.578L538.62 392L584.446 297.806L595.911 303.383L596.458 302.259L555.543 282.354ZM701.166 473.858C825.035 534.12 901.787 374.069 779.267 314.463C655.398 254.201 578.645 414.252 701.166 473.858ZM760.99 309.742C860.416 353.386 817.968 521.786 720.001 478.573C621.474 435.367 663.922 266.967 760.99 309.742Z" fill="#131F29"/>
<path d="M861.266 550.358L940.751 590.417C982.565 610.759 1039.78 628.587 1056.41 594.416C1085.61 534.392 913.781 485.273 937.951 435.59C949.763 411.311 990.32 418.809 1025.39 435.871C1079.34 462.119 1090.77 484.357 1078.19 510.21L1081.56 511.851L1100.81 472.284L1026.05 434.522C984.457 414.289 935.479 403.528 919.402 436.575C891.185 494.575 1061.18 540.024 1034.82 594.203C1022.36 619.831 976.702 606.239 941.407 589.068C915.105 576.272 863.964 551.67 883.213 512.104L880.515 510.792L861.266 550.358ZM1264.34 723.379C1250.21 729.57 1231.53 729.102 1217.82 722.431L1126.1 677.808L1166.24 595.304L1256.61 639.27C1267.63 644.629 1275.35 656.173 1276.27 668.574L1276.28 669.133L1277.4 669.68L1293.92 635.734L1292.79 635.187L1292.35 635.527C1282.03 642.46 1268.17 643.505 1257.16 638.146L1166.78 594.18L1201.56 522.691L1293.29 567.313C1307 573.985 1318.89 588.391 1322.75 603.331L1324.26 608.794L1325.38 609.341L1336.32 586.86L1172.66 507.24L1172.11 508.364L1183.35 513.832L1107.89 668.949L1096.65 663.481L1096.1 664.605L1259.76 744.225L1270.7 721.744L1269.58 721.198L1264.34 723.379ZM1396.3 616.04L1395.75 617.164L1406.99 622.632L1331.53 777.75L1320.29 772.281L1319.74 773.405L1412.81 818.684C1526.34 873.915 1602.9 716.549 1489.37 661.318L1396.3 616.04ZM1488.82 662.442C1576.95 705.315 1501.81 859.758 1413.36 817.56L1349.74 786.608L1425.2 631.491L1488.82 662.442ZM1630.68 788.168L1631.8 788.715L1637.92 776.125C1642.74 766.234 1652.54 762.661 1662.65 767.583L1663.1 767.802L1663.65 766.678L1663.2 766.459C1653.08 761.537 1649.85 751.621 1654.66 741.73L1660.56 729.59L1659.44 729.043L1653.53 741.183C1648.72 751.074 1638.7 754.538 1628.8 749.725L1628.58 749.616L1628.03 750.74L1628.26 750.849C1638.15 755.662 1641.61 765.687 1636.8 775.578L1630.68 788.168ZM1605.01 792.919L1604.46 794.043L1615.7 799.511L1569.88 893.706L1558.64 888.237L1558.09 889.361L1599.01 909.266L1599.55 908.142L1588.09 902.565L1633.91 808.37L1645.38 813.948L1645.93 812.824L1605.01 792.919ZM1727.76 803.427C1743.9 796.543 1765.14 796.872 1780.88 804.527L1808.53 817.98L1733.07 973.097L1721.83 967.629L1721.28 968.753L1762.2 988.658L1762.74 987.534L1751.28 981.956L1826.74 826.838L1852.82 839.525C1868.56 847.181 1882.04 863.471 1886.47 880.641L1886.94 882.537L1888.07 883.084L1899 860.603L1735.79 781.201L1724.85 803.682L1725.98 804.229L1727.76 803.427ZM1955.23 946.064L1956.36 946.611L1962.48 934.022C1967.29 924.13 1977.09 920.558 1987.21 925.479L1987.66 925.698L1988.21 924.574L1987.76 924.355C1977.64 919.434 1974.4 909.518 1979.21 899.626L1985.12 887.487L1984 886.94L1978.09 899.079C1973.28 908.971 1963.25 912.434 1953.36 907.622L1953.14 907.512L1952.59 908.636L1952.81 908.746C1962.71 913.558 1966.17 923.583 1961.36 933.475L1955.23 946.064ZM1929.57 950.815L1929.02 951.939L1940.26 957.408L1894.44 1051.6L1883.2 1046.13L1882.65 1047.26L1923.56 1067.16L1924.11 1066.04L1912.65 1060.46L1958.47 966.267L1969.94 971.844L1970.48 970.72L1929.57 950.815ZM2075.19 1142.32C2199.06 1202.58 2275.81 1042.53 2153.29 982.924C2029.42 922.662 1952.67 1082.71 2075.19 1142.32ZM2135.02 978.203C2234.44 1021.85 2191.99 1190.25 2094.03 1147.03C1995.5 1103.83 2037.95 935.428 2135.02 978.203Z" fill="#131F29"/>
<path d="M-478.002 -418.131L-398.518 -378.071C-356.703 -357.729 -299.487 -339.902 -282.863 -374.072C-253.661 -434.096 -425.488 -483.215 -401.317 -532.898C-389.505 -557.177 -348.949 -549.679 -313.879 -532.618C-259.925 -506.369 -248.502 -484.131 -261.08 -458.278L-257.708 -456.638L-238.459 -496.204L-313.222 -533.966C-354.812 -554.2 -403.79 -564.96 -419.867 -531.914C-448.084 -473.913 -278.086 -428.464 -304.444 -374.285C-316.912 -348.657 -362.566 -362.249 -397.861 -379.42C-424.164 -392.216 -475.305 -416.818 -456.056 -456.384L-458.753 -457.697L-478.002 -418.131ZM-74.9244 -245.109C-89.057 -238.918 -107.734 -239.386 -121.448 -246.058L-213.169 -290.68L-173.031 -373.185L-82.6583 -329.218C-71.6427 -323.859 -63.9143 -312.315 -62.9969 -299.914L-62.9908 -299.355L-61.8668 -298.808L-45.3522 -332.754L-46.4762 -333.301L-46.9197 -332.961C-57.2428 -326.028 -71.0959 -324.983 -82.1115 -330.342L-172.484 -374.309L-137.705 -445.797L-45.9834 -401.175C-32.2702 -394.504 -20.3737 -380.098 -16.5217 -365.157L-15.0088 -359.695L-13.8848 -359.148L-2.94792 -381.629L-166.608 -461.249L-167.155 -460.125L-155.914 -454.656L-231.379 -299.539L-242.619 -305.007L-243.166 -303.883L-79.5058 -224.263L-68.569 -246.744L-69.693 -247.291L-74.9244 -245.109ZM57.0318 -352.449L56.485 -351.324L67.7254 -345.856L-7.73883 -190.739L-18.9792 -196.207L-19.5261 -195.083L73.5444 -149.804C187.072 -94.5734 263.63 -251.939 150.102 -307.17L57.0318 -352.449ZM149.555 -306.046C237.68 -263.173 162.544 -108.731 74.0912 -150.929L10.4706 -181.88L85.9348 -336.997L149.555 -306.046ZM291.407 -180.321L292.531 -179.774L298.655 -192.363C303.468 -202.254 313.268 -205.827 323.384 -200.905L323.834 -200.687L324.381 -201.811L323.931 -202.029C313.815 -206.951 310.576 -216.867 315.389 -226.759L321.295 -238.898L320.171 -239.445L314.265 -227.305C309.452 -217.414 299.427 -213.951 289.536 -218.763L289.311 -218.872L288.764 -217.748L288.989 -217.639C298.88 -212.827 302.343 -202.801 297.531 -192.91L291.407 -180.321ZM265.742 -175.569L265.195 -174.445L276.435 -168.977L230.61 -74.7825L219.37 -80.2509L218.823 -79.1269L259.738 -59.2218L260.285 -60.3458L248.82 -65.9236L294.645 -160.118L306.11 -154.54L306.657 -155.664L265.742 -175.569ZM388.491 -165.061C404.628 -171.945 425.876 -171.617 441.612 -163.961L469.264 -150.509L393.8 4.60876L382.559 -0.859663L382.012 0.264376L422.927 20.1694L423.474 19.0454L412.009 13.4676L487.473 -141.65L513.551 -128.963C529.287 -121.307 542.77 -105.018 547.205 -87.847L547.673 -85.9514L548.797 -85.4045L559.734 -107.885L396.523 -187.287L385.586 -164.806L386.71 -164.259L388.491 -165.061ZM615.964 -22.4241L617.088 -21.8773L623.213 -34.4665C628.025 -44.3581 637.825 -47.9306 647.942 -43.009L648.391 -42.7903L648.938 -43.9144L648.489 -44.1331C638.372 -49.0547 635.134 -58.9706 639.946 -68.8621L645.852 -81.0017L644.728 -81.5486L638.822 -69.409C634.01 -59.5174 623.985 -56.0542 614.093 -60.8665L613.868 -60.9758L613.321 -59.8518L613.546 -59.7424C623.438 -54.9302 626.901 -44.9049 622.089 -35.0134L615.964 -22.4241ZM590.299 -17.673L589.753 -16.549L600.993 -11.0805L555.168 83.1139L543.927 77.6455L543.38 78.7695L584.295 98.6746L584.842 97.5506L573.377 91.9728L619.202 -2.2217L630.668 3.35609L631.214 2.23206L590.299 -17.673ZM735.922 173.831C859.791 234.093 936.544 74.0418 814.024 14.436C690.154 -45.826 613.402 114.225 735.922 173.831ZM795.747 9.71486C895.173 53.359 852.725 221.759 754.758 178.546C656.231 135.339 698.679 -33.0604 795.747 9.71486Z" fill="#131F29"/>
<path d="M896.023 250.326L975.508 290.386C1017.32 310.728 1074.54 328.555 1091.16 294.385C1120.36 234.361 948.538 185.242 972.708 135.559C984.52 111.28 1025.08 118.778 1060.15 135.839C1114.1 162.088 1125.52 184.326 1112.95 210.179L1116.32 211.819L1135.57 172.253L1060.8 134.491C1019.21 114.257 970.236 103.497 954.158 136.543C925.941 194.544 1095.94 239.993 1069.58 294.172C1057.11 319.8 1011.46 306.208 976.164 289.037C949.862 276.241 898.721 251.639 917.97 212.073L915.272 210.76L896.023 250.326ZM1299.1 423.348C1284.97 429.539 1266.29 429.071 1252.58 422.399L1160.86 377.777L1200.99 295.273L1291.37 339.239C1302.38 344.598 1310.11 356.142 1311.03 368.543L1311.03 369.102L1312.16 369.649L1328.67 335.703L1327.55 335.156L1327.11 335.496C1316.78 342.429 1302.93 343.474 1291.91 338.115L1201.54 294.148L1236.32 222.66L1328.04 267.282C1341.76 273.953 1353.65 288.36 1357.5 303.3L1359.02 308.762L1360.14 309.309L1371.08 286.829L1207.42 207.208L1206.87 208.332L1218.11 213.801L1142.65 368.918L1131.41 363.45L1130.86 364.574L1294.52 444.194L1305.46 421.713L1304.33 421.166L1299.1 423.348ZM1431.06 316.009L1430.51 317.133L1441.75 322.601L1366.29 477.718L1355.05 472.25L1354.5 473.374L1447.57 518.653C1561.1 573.884 1637.66 416.518 1524.13 361.287L1431.06 316.009ZM1523.58 362.411C1611.71 405.284 1536.57 559.727 1448.12 517.528L1384.5 486.577L1459.96 331.46L1523.58 362.411ZM1665.43 488.136L1666.56 488.683L1672.68 476.094C1677.49 466.203 1687.29 462.63 1697.41 467.552L1697.86 467.77L1698.41 466.646L1697.96 466.428C1687.84 461.506 1684.6 451.59 1689.41 441.698L1695.32 429.559L1694.2 429.012L1688.29 441.152C1683.48 451.043 1673.45 454.506 1663.56 449.694L1663.34 449.585L1662.79 450.709L1663.01 450.818C1672.91 455.63 1676.37 465.656 1671.56 475.547L1665.43 488.136ZM1639.77 492.888L1639.22 494.012L1650.46 499.48L1604.64 593.675L1593.4 588.206L1592.85 589.33L1633.76 609.235L1634.31 608.111L1622.84 602.533L1668.67 508.339L1680.14 513.917L1680.68 512.793L1639.77 492.888ZM1762.52 503.396C1778.65 496.512 1799.9 496.84 1815.64 504.496L1843.29 517.948L1767.82 673.066L1756.58 667.597L1756.04 668.721L1796.95 688.626L1797.5 687.502L1786.03 681.925L1861.5 526.807L1887.58 539.494C1903.31 547.15 1916.8 563.439 1921.23 580.61L1921.7 582.506L1922.82 583.053L1933.76 560.572L1770.55 481.17L1759.61 503.651L1760.74 504.198L1762.52 503.396ZM1989.99 646.033L1991.11 646.58L1997.24 633.99C2002.05 624.099 2011.85 620.526 2021.97 625.448L2022.42 625.667L2022.96 624.543L2022.51 624.324C2012.4 619.402 2009.16 609.486 2013.97 599.595L2019.88 587.455L2018.75 586.908L2012.85 599.048C2008.04 608.94 1998.01 612.403 1988.12 607.591L1987.89 607.481L1987.35 608.605L1987.57 608.715C1997.46 613.527 2000.93 623.552 1996.11 633.444L1989.99 646.033ZM1964.32 650.784L1963.78 651.908L1975.02 657.376L1929.19 751.571L1917.95 746.103L1917.41 747.227L1958.32 767.132L1958.87 766.008L1947.4 760.43L1993.23 666.235L2004.69 671.813L2005.24 670.689L1964.32 650.784ZM2109.95 842.288C2233.82 902.55 2310.57 742.499 2188.05 682.893C2064.18 622.631 1987.43 782.682 2109.95 842.288ZM2169.77 678.172C2269.2 721.816 2226.75 890.216 2128.78 847.003C2030.26 803.796 2072.7 635.397 2169.77 678.172Z" fill="#131F29"/>
<path d="M930.78 -49.7009L1010.26 -9.64167C1052.08 10.7009 1109.3 28.5281 1125.92 -5.64268C1155.12 -65.6664 983.295 -114.786 1007.47 -164.468C1019.28 -188.747 1059.83 -181.249 1094.9 -164.188C1148.86 -137.939 1160.28 -115.701 1147.7 -89.8486L1151.07 -88.208L1170.32 -127.774L1095.56 -165.537C1053.97 -185.77 1004.99 -196.531 988.915 -163.484C960.698 -105.484 1130.7 -60.0342 1104.34 -5.85553C1091.87 19.7726 1046.22 6.18033 1010.92 -10.9905C984.618 -23.7866 933.478 -48.3885 952.727 -87.9546L950.029 -89.267L930.78 -49.7009ZM1333.86 123.32C1319.73 129.511 1301.05 129.043 1287.33 122.372L1195.61 77.7496L1235.75 -4.75482L1326.12 39.2113C1337.14 44.5704 1344.87 56.1147 1345.79 68.5156L1345.79 69.0746L1346.92 69.6214L1363.43 35.6754L1362.31 35.1286L1361.86 35.4689C1351.54 42.4014 1337.69 43.4463 1326.67 38.0873L1236.3 -5.87885L1271.08 -77.3677L1362.8 -32.7454C1376.51 -26.0739 1388.41 -11.6678 1392.26 3.27285L1393.77 8.73512L1394.9 9.28196L1405.83 -13.1988L1242.17 -92.819L1241.63 -91.695L1252.87 -86.2266L1177.4 68.8908L1166.16 63.4224L1165.62 64.5464L1329.28 144.167L1340.21 121.686L1339.09 121.139L1333.86 123.32ZM1465.81 15.9812L1465.27 17.1052L1476.51 22.5736L1401.04 177.691L1389.8 172.223L1389.26 173.347L1482.33 218.625C1595.85 273.856 1672.41 116.491 1558.88 61.2597L1465.81 15.9812ZM1558.34 62.3838C1646.46 105.256 1571.33 259.699 1482.87 217.501L1419.25 186.55L1494.72 31.4325L1558.34 62.3838ZM1700.19 188.109L1701.31 188.656L1707.44 176.067C1712.25 166.175 1722.05 162.603 1732.17 167.524L1732.62 167.743L1733.16 166.619L1732.71 166.4C1722.6 161.479 1719.36 151.563 1724.17 141.671L1730.08 129.532L1728.95 128.985L1723.05 141.124C1718.23 151.016 1708.21 154.479 1698.32 149.667L1698.09 149.557L1697.55 150.681L1697.77 150.791C1707.66 155.603 1711.13 165.628 1706.31 175.52L1700.19 188.109ZM1674.52 192.86L1673.98 193.984L1685.22 199.453L1639.39 293.647L1628.15 288.179L1627.61 289.303L1668.52 309.208L1669.07 308.084L1657.6 302.506L1703.43 208.312L1714.89 213.889L1715.44 212.765L1674.52 192.86ZM1797.27 203.369C1813.41 196.485 1834.66 196.813 1850.39 204.469L1878.05 217.921L1802.58 373.038L1791.34 367.57L1790.79 368.694L1831.71 388.599L1832.26 387.475L1820.79 381.897L1896.26 226.78L1922.33 239.467C1938.07 247.122 1951.55 263.412 1955.99 280.583L1956.46 282.478L1957.58 283.025L1968.52 260.544L1805.31 181.143L1794.37 203.624L1795.49 204.171L1797.27 203.369ZM2024.75 346.006L2025.87 346.552L2032 333.963C2036.81 324.072 2046.61 320.499 2056.72 325.421L2057.17 325.639L2057.72 324.515L2057.27 324.297C2047.15 319.375 2043.92 309.459 2048.73 299.568L2054.63 287.428L2053.51 286.881L2047.6 299.021C2042.79 308.912 2032.77 312.375 2022.88 307.563L2022.65 307.454L2022.1 308.578L2022.33 308.687C2032.22 313.499 2035.68 323.525 2030.87 333.416L2024.75 346.006ZM1999.08 350.757L1998.53 351.881L2009.78 357.349L1963.95 451.544L1952.71 446.075L1952.16 447.199L1993.08 467.104L1993.62 465.98L1982.16 460.402L2027.98 366.208L2039.45 371.786L2040 370.662L1999.08 350.757ZM2144.7 542.261C2268.57 602.523 2345.33 442.472 2222.81 382.866C2098.94 322.604 2022.18 482.655 2144.7 542.261ZM2204.53 378.145C2303.96 421.789 2261.51 590.188 2163.54 546.976C2065.01 503.769 2107.46 335.369 2204.53 378.145Z" fill="#131F29"/>
<path d="M965.537 -349.728L1045.02 -309.669C1086.84 -289.326 1144.05 -271.499 1160.68 -305.67C1189.88 -365.694 1018.05 -414.813 1042.22 -464.495C1054.03 -488.775 1094.59 -481.277 1129.66 -464.215C1183.61 -437.967 1195.04 -415.729 1182.46 -389.876L1185.83 -388.235L1205.08 -427.802L1130.32 -465.564C1088.73 -485.797 1039.75 -496.558 1023.67 -463.511C995.455 -405.511 1165.45 -360.062 1139.09 -305.883C1126.63 -280.255 1080.97 -293.847 1045.68 -311.018C1019.38 -323.814 968.235 -348.416 987.483 -387.982L984.786 -389.294L965.537 -349.728ZM1368.61 -176.707C1354.48 -170.516 1335.8 -170.984 1322.09 -177.655L1230.37 -222.278L1270.51 -304.782L1360.88 -260.816C1371.9 -255.457 1379.62 -243.913 1380.54 -231.512L1380.55 -230.953L1381.67 -230.406L1398.19 -264.352L1397.06 -264.899L1396.62 -264.558C1386.3 -257.626 1372.44 -256.581 1361.43 -261.94L1271.05 -305.906L1305.83 -377.395L1397.56 -332.773C1411.27 -326.101 1423.17 -311.695 1427.02 -296.754L1428.53 -291.292L1429.65 -290.745L1440.59 -313.226L1276.93 -392.846L1276.38 -391.722L1287.62 -386.254L1212.16 -231.137L1200.92 -236.605L1200.37 -235.481L1364.03 -155.861L1374.97 -178.341L1373.85 -178.888L1368.61 -176.707ZM1500.57 -284.046L1500.02 -282.922L1511.26 -277.454L1435.8 -122.336L1424.56 -127.805L1424.01 -126.681L1517.08 -81.4022C1630.61 -26.1711 1707.17 -183.537 1593.64 -238.768L1500.57 -284.046ZM1593.09 -237.644C1681.22 -194.771 1606.08 -40.3282 1517.63 -82.5262L1454.01 -113.477L1529.47 -268.595L1593.09 -237.644ZM1734.95 -111.918L1736.07 -111.371L1742.19 -123.961C1747.01 -133.852 1756.81 -137.425 1766.92 -132.503L1767.37 -132.284L1767.92 -133.408L1767.47 -133.627C1757.35 -138.549 1754.12 -148.465 1758.93 -158.356L1764.83 -170.496L1763.71 -171.043L1757.8 -158.903C1752.99 -149.011 1742.97 -145.548 1733.07 -150.361L1732.85 -150.47L1732.3 -149.346L1732.53 -149.236C1742.42 -144.424 1745.88 -134.399 1741.07 -124.507L1734.95 -111.918ZM1709.28 -107.167L1708.73 -106.043L1719.97 -100.575L1674.15 -6.38013L1662.91 -11.8486L1662.36 -10.7245L1703.28 9.18054L1703.82 8.0565L1692.36 2.47871L1738.18 -91.7158L1749.65 -86.138L1750.2 -87.262L1709.28 -107.167ZM1832.03 -96.6588C1848.17 -103.543 1869.41 -103.214 1885.15 -95.5586L1912.8 -82.1063L1837.34 73.0111L1826.1 67.5427L1825.55 68.6667L1866.47 88.5718L1867.01 87.4477L1855.55 81.8699L1931.01 -73.2474L1957.09 -60.5607C1972.83 -52.9049 1986.31 -36.6153 1990.74 -19.4447L1991.21 -17.549L1992.34 -17.0022L2003.27 -39.483L1840.06 -118.884L1829.13 -96.4037L1830.25 -95.8568L1832.03 -96.6588ZM2059.5 45.9782L2060.63 46.525L2066.75 33.9358C2071.56 24.0443 2081.36 20.4717 2091.48 25.3933L2091.93 25.612L2092.48 24.488L2092.03 24.2693C2081.91 19.3477 2078.67 9.43176 2083.49 -0.459786L2089.39 -12.5994L2088.27 -13.1462L2082.36 -1.00663C2077.55 8.88492 2067.52 12.3481 2057.63 7.53589L2057.41 7.42652L2056.86 8.55055L2057.09 8.65992C2066.98 13.4721 2070.44 23.4974 2065.63 33.389L2059.5 45.9782ZM2033.84 50.7293L2033.29 51.8534L2044.53 57.3218L1998.71 151.516L1987.47 146.048L1986.92 147.172L2027.83 167.077L2028.38 165.953L2016.92 160.375L2062.74 66.1806L2074.21 71.7584L2074.75 70.6344L2033.84 50.7293ZM2179.46 242.233C2303.33 302.495 2380.08 142.444 2257.56 82.8384C2133.69 22.5763 2056.94 182.627 2179.46 242.233ZM2239.29 78.1172C2338.71 121.761 2296.26 290.161 2198.3 246.948C2099.77 203.742 2142.22 35.3419 2239.29 78.1172Z" fill="#131F29"/>
<path d="M1000.29 -649.756L1079.78 -609.696C1121.59 -589.354 1178.81 -571.527 1195.43 -605.697C1224.63 -665.721 1052.81 -714.84 1076.98 -764.523C1088.79 -788.802 1129.35 -781.304 1164.42 -764.243C1218.37 -737.994 1229.79 -715.756 1217.22 -689.903L1220.59 -688.263L1239.84 -727.829L1165.07 -765.591C1123.48 -785.825 1074.51 -796.585 1058.43 -763.539C1030.21 -705.538 1200.21 -660.089 1173.85 -605.91C1161.38 -580.282 1115.73 -593.874 1080.43 -611.045C1054.13 -623.841 1002.99 -648.443 1022.24 -688.009L1019.54 -689.322L1000.29 -649.756ZM1403.37 -476.734C1389.24 -470.543 1370.56 -471.011 1356.85 -477.683L1265.13 -522.305L1305.26 -604.81L1395.64 -560.843C1406.65 -555.484 1414.38 -543.94 1415.3 -531.539L1415.31 -530.98L1416.43 -530.433L1432.94 -564.379L1431.82 -564.926L1431.38 -564.586C1421.05 -557.653 1407.2 -556.608 1396.18 -561.967L1305.81 -605.934L1340.59 -677.422L1432.31 -632.8C1446.03 -626.129 1457.92 -611.723 1461.77 -596.782L1463.29 -591.32L1464.41 -590.773L1475.35 -613.254L1311.69 -692.874L1311.14 -691.75L1322.38 -686.281L1246.92 -531.164L1235.68 -536.632L1235.13 -535.508L1398.79 -455.888L1409.73 -478.369L1408.6 -478.916L1403.37 -476.734ZM1535.33 -584.074L1534.78 -582.949L1546.02 -577.481L1470.56 -422.364L1459.32 -427.832L1458.77 -426.708L1551.84 -381.429C1665.37 -326.198 1741.93 -483.564 1628.4 -538.795L1535.33 -584.074ZM1627.85 -537.671C1715.98 -494.798 1640.84 -340.356 1552.39 -382.554L1488.77 -413.505L1564.23 -568.622L1627.85 -537.671ZM1769.7 -411.946L1770.83 -411.399L1776.95 -423.988C1781.76 -433.879 1791.56 -437.452 1801.68 -432.53L1802.13 -432.312L1802.68 -433.436L1802.23 -433.654C1792.11 -438.576 1788.87 -448.492 1793.68 -458.384L1799.59 -470.523L1798.47 -471.07L1792.56 -458.93C1787.75 -449.039 1777.72 -445.576 1767.83 -450.388L1767.61 -450.497L1767.06 -449.373L1767.28 -449.264C1777.18 -444.452 1780.64 -434.426 1775.83 -424.535L1769.7 -411.946ZM1744.04 -407.194L1743.49 -406.07L1754.73 -400.602L1708.91 -306.407L1697.67 -311.876L1697.12 -310.752L1738.03 -290.847L1738.58 -291.971L1727.12 -297.549L1772.94 -391.743L1784.41 -386.165L1784.95 -387.289L1744.04 -407.194ZM1866.79 -396.686C1882.92 -403.57 1904.17 -403.242 1919.91 -395.586L1947.56 -382.134L1872.1 -227.016L1860.86 -232.485L1860.31 -231.361L1901.22 -211.456L1901.77 -212.58L1890.3 -218.157L1965.77 -373.275L1991.85 -360.588C2007.58 -352.932 2021.07 -336.643 2025.5 -319.472L2025.97 -317.576L2027.09 -317.03L2038.03 -339.51L1874.82 -418.912L1863.88 -396.431L1865.01 -395.884L1866.79 -396.686ZM2094.26 -254.049L2095.38 -253.502L2101.51 -266.092C2106.32 -275.983 2116.12 -279.556 2126.24 -274.634L2126.69 -274.415L2127.23 -275.539L2126.78 -275.758C2116.67 -280.68 2113.43 -290.596 2118.24 -300.487L2124.15 -312.627L2123.02 -313.174L2117.12 -301.034C2112.31 -291.142 2102.28 -287.679 2092.39 -292.491L2092.16 -292.601L2091.62 -291.477L2091.84 -291.367C2101.73 -286.555 2105.2 -276.53 2100.38 -266.638L2094.26 -254.049ZM2068.6 -249.298L2068.05 -248.174L2079.29 -242.706L2033.46 -148.511L2022.22 -153.979L2021.68 -152.855L2062.59 -132.95L2063.14 -134.074L2051.67 -139.652L2097.5 -233.847L2108.96 -228.269L2109.51 -229.393L2068.6 -249.298ZM2214.22 -57.7942C2338.09 2.46783 2414.84 -157.583 2292.32 -217.189C2168.45 -277.451 2091.7 -117.4 2214.22 -57.7942ZM2274.04 -221.91C2373.47 -178.266 2331.02 -9.86633 2233.05 -53.0791C2134.53 -96.2858 2176.97 -264.685 2274.04 -221.91Z" fill="#131F29"/>
</svg>
