<svg width="498" height="500" viewBox="0 0 498 500" fill="none" xmlns="http://www.w3.org/2000/svg">
<circle cx="248.021" cy="247.112" r="171.381" stroke="#5A5A5A"/>
<path d="M359.943 246.417L355.656 263.327C353.541 272.192 352.561 283.898 359.806 285.626C372.531 288.663 374.628 253.699 385.161 256.212C390.309 257.441 390.597 265.519 388.823 272.955C386.094 284.393 382.324 287.524 376.843 286.216L376.672 286.931L385.061 288.933L389.109 273.023C391.213 264.205 391.191 254.377 384.185 252.705C371.888 249.771 370.416 284.229 358.929 281.488C353.496 280.191 354.156 270.878 355.942 263.396C357.273 257.819 359.807 246.989 368.195 248.99L368.332 248.418L359.943 246.417Z" fill="white"/>
<path d="M351.734 305.465C349.964 303.843 348.771 301.155 348.735 298.729L348.729 298.59L348.548 298.425L344.244 303.121L344.425 303.287L344.563 303.281C346.984 303.106 349.765 304.059 351.535 305.682L371.151 323.658L341.093 320.703L340.927 320.884L348.152 348.973L323.37 326.263L325.026 324.456L324.845 324.291L318.853 330.83L319.034 330.995L320.689 329.189L345.615 352.031L343.96 353.837L344.141 354.003L348.478 349.271L342.195 324.505L369.003 326.873L373.836 321.598L373.655 321.433L371.603 323.673L351.734 305.465Z" fill="white"/>
<path d="M305.66 348.625C305.835 346.328 306.963 343.642 308.498 341.955L309.09 341.278L309.008 341.047L301.848 343.581L301.93 343.812L302.335 343.929C304.344 344.465 305.539 346.225 305.421 348.242L305.168 351.346L286.091 358.099L279.527 351.741L281.975 350.875L281.893 350.644L272.978 353.799L273.06 354.03L275.785 353.066L303.166 379.76L303.489 379.645L305.66 348.625ZM305.158 351.61L303.512 375.011L286.265 358.297L305.158 351.61Z" fill="white"/>
<path d="M256.287 392.325L253.857 392.014L258.145 358.477L260.575 358.788L260.606 358.545L251.76 357.414L251.729 357.657L254.208 357.974L249.92 391.511L230.478 389.026C222.702 388.031 224.561 373.104 232.386 374.104L245.606 375.794L245.638 375.551L234.799 374.165C224.197 372.859 236.17 355.322 222.756 353.607C222.221 353.539 221.632 353.513 221.042 353.487L221.017 353.681C231.309 355.096 219.16 370.141 231.931 373.799L231.883 373.793C219.434 372.25 217.434 387.506 229.864 389.194L256.256 392.568L256.287 392.325Z" fill="white"/>
<path d="M191.179 375.973C187.86 376.87 183.745 376.227 180.899 374.312L175.899 370.947L194.774 342.897L196.807 344.264L196.944 344.061L189.545 339.082L189.408 339.286L191.481 340.681L172.606 368.731L167.89 365.558C165.044 363.643 162.871 360.114 162.479 356.66L162.44 356.279L162.236 356.142L159.501 360.208L189.015 380.068L191.75 376.003L191.547 375.866L191.179 375.973Z" fill="white"/>
<path d="M146.028 304.128C148.322 304.328 150.996 305.487 152.665 307.04L153.336 307.639L153.568 307.56L151.114 300.372L150.882 300.452L150.761 300.855C150.202 302.858 148.429 304.033 146.413 303.892L143.312 303.605L136.776 284.452L143.207 277.96L144.045 280.418L144.277 280.339L141.223 271.389L140.991 271.468L141.925 274.204L114.923 301.282L115.034 301.606L146.028 304.128ZM143.049 303.591L119.668 301.682L136.576 284.624L143.049 303.591Z" fill="white"/>
<path d="M136.821 252.937C134.964 254.447 132.078 255.21 129.703 254.86L103.332 250.972L141.684 222.302L141.72 222.059L114.815 218.094C112.44 217.743 109.945 216.187 108.554 214.199L108.472 214.088L108.229 214.052L107.3 220.354L107.543 220.39L107.654 220.307C109.559 218.805 112.397 218.034 114.772 218.384L136.441 221.579L103.485 246.24L102.313 254.19L102.555 254.226L102.998 251.22L129.66 255.151C132.035 255.501 134.53 257.057 135.921 259.045L136.004 259.156L136.246 259.192L137.175 252.89L136.933 252.855L136.821 252.937Z" fill="white"/>
<path d="M116.695 184.203L116.892 184.348L118.348 182.378L145.543 202.466L144.087 204.436L144.285 204.582L156.337 188.265C171.039 168.361 143.45 147.982 128.748 167.886L116.695 184.203ZM128.945 168.031C140.357 152.581 167.434 172.581 156.14 188.119L147.901 199.273L120.706 179.185L128.945 168.031Z" fill="white"/>
<path d="M193.791 149.066L210.724 144.868C219.539 142.551 230.322 137.893 228.428 130.69C225.102 118.037 193.284 132.683 190.531 122.209C189.186 117.091 196.173 113.026 203.566 111.082C214.939 108.092 219.478 109.939 220.911 115.389L221.622 115.202L219.429 106.862L203.491 110.798C194.724 113.102 186.068 117.759 187.9 124.725C191.113 136.952 222.191 121.994 225.193 133.415C226.613 138.817 218.09 142.628 210.65 144.584C205.105 146.042 194.36 148.917 192.167 140.576L191.599 140.725L193.791 149.066Z" fill="white"/>
<path d="M250.815 130.602C249.47 132.472 247.108 134.178 244.92 134.819L244.062 135.089L244.011 135.328L251.443 136.894L251.494 136.654L251.209 136.343C249.773 134.839 249.67 132.714 250.82 131.054L252.653 128.535L272.455 132.706L274.749 141.551L272.208 141.016L272.157 141.256L281.411 143.205L281.462 142.965L278.633 142.369L269.159 105.322L268.823 105.251L250.815 130.602ZM252.799 128.316L266.39 109.195L272.41 132.446L252.799 128.316Z" fill="white"/>
<path d="M325.671 148.597C327.565 150.073 328.509 152.609 327.996 154.942L327.836 155.625L328.029 155.776L333.359 148.934L333.166 148.783L332.542 149.105C330.406 150.174 327.715 149.88 325.821 148.404L310.242 136.27L320.63 122.933L336.441 135.248C338.838 137.115 340.533 140.361 340.634 143.421L340.694 144.461L340.887 144.611L343.898 140.745L315.717 118.795L315.566 118.989L317.499 120.494L296.723 147.168L294.79 145.662L294.64 145.856L301.675 151.336L301.826 151.142L299.854 149.607L310.092 136.463L325.671 148.597Z" fill="white"/>
<path d="M352.99 205.149C350.053 204.425 347.205 202.124 345.869 199.45L336.933 181.566L353.019 173.528L361.824 191.149C362.897 193.296 362.721 196.014 361.384 198.051L361.318 198.139L361.428 198.358L368.047 195.051L367.937 194.832L367.828 194.831C365.395 194.677 363.117 193.187 362.043 191.039L353.238 173.418L367.177 166.453L376.113 184.337C377.45 187.011 377.58 190.67 376.396 193.453L375.979 194.483L376.089 194.702L380.472 192.512L364.527 160.602L364.308 160.711L365.403 162.903L335.159 178.016L334.064 175.824L333.844 175.934L349.79 207.844L354.173 205.653L354.063 205.434L352.99 205.149Z" fill="white"/>
<path d="M452.148 257.473C454.257 255.731 457.549 254.834 460.267 255.213L490.438 259.424L446.86 292.526L446.821 292.803L477.603 297.1C480.321 297.479 483.185 299.236 484.792 301.496L484.888 301.622L485.165 301.661L486.171 294.451L485.894 294.412L485.768 294.507C483.603 296.241 480.367 297.146 477.649 296.767L452.858 293.307L490.305 264.834L491.575 255.738L491.297 255.699L490.817 259.138L460.313 254.88C457.595 254.501 454.731 252.744 453.124 250.484L453.028 250.358L452.751 250.319L451.745 257.529L452.022 257.568L452.148 257.473Z" fill="white"/>
<path d="M432.318 346.725C430.813 343.614 430.76 339.429 432.137 336.303L441.351 315.395L460.158 323.683L451.08 344.284C449.973 346.795 447.454 348.622 444.686 348.932L444.561 348.938L444.448 349.194L452.186 352.604L452.299 352.348L452.219 352.252C450.58 350 450.229 346.908 451.336 344.397L460.414 323.796L476.71 330.977L467.496 351.885C466.119 355.011 462.995 357.796 459.683 358.784L458.473 359.169L458.36 359.425L463.484 361.683L479.924 324.377L479.668 324.264L478.539 326.826L443.18 311.245L444.309 308.682L444.053 308.569L427.613 345.876L432.738 348.134L432.85 347.878L432.318 346.725Z" fill="white"/>
<path d="M412.091 370.64L411.832 370.934L429.321 402.9L394.553 390.491L394.294 390.784L410.117 422.1C411.291 424.408 411.692 427.676 411.095 430.212L410.842 431.259L411.052 431.445L416.799 424.94L416.589 424.754L416.51 424.759C414.01 425.39 411.556 424.193 410.381 421.885L397.126 395.529L431.593 408.195L432.223 407.481L414.911 375.822L449.403 387.613L447.438 389.838L447.648 390.023L454.803 381.923L454.594 381.738L452.406 384.214L412.091 370.64Z" fill="white"/>
<path d="M367.14 456.666C365.994 460.425 362.874 464.02 359.293 465.614L353 468.415L337.287 433.115L339.845 431.976L339.731 431.72L330.42 435.865L330.534 436.121L333.143 434.959L348.856 470.26L342.922 472.901C339.341 474.496 334.604 474.459 331.021 472.743L330.629 472.55L330.373 472.664L332.65 477.78L369.792 461.247L367.515 456.131L367.259 456.245L367.14 456.666Z" fill="white"/>
<path d="M311.711 485.364L308.943 485.783L303.161 447.578L305.93 447.159L305.888 446.882L295.81 448.407L295.852 448.684L298.676 448.257L304.458 486.462L282.31 489.813C273.451 491.154 270.823 474.164 279.737 472.815L294.798 470.536L294.756 470.259L282.409 472.128C270.346 474.01 278.02 450.986 262.738 453.299C262.129 453.391 261.473 453.547 260.817 453.703L260.85 453.924C272.605 452.259 263.959 472.597 279.142 472.622L279.086 472.63C264.92 474.831 267.496 492.225 281.687 490.191L311.753 485.641L311.711 485.364Z" fill="white"/>
<path d="M243.281 461.135C244.624 458.871 247.142 456.692 249.568 455.742L250.518 455.348L250.552 455.07L241.933 454.036L241.9 454.314L242.256 454.639C244.042 456.207 244.373 458.615 243.23 460.621L241.397 463.673L218.434 460.916L214.934 451.077L217.88 451.43L217.914 451.152L207.183 449.864L207.15 450.142L210.43 450.536L224.94 491.759L225.329 491.806L243.281 461.135ZM241.252 463.937L227.702 487.071L218.512 461.207L241.252 463.937Z" fill="white"/>
<path d="M190.162 446.495C191.317 448.974 191.359 452.386 190.309 454.921L178.652 483.066L157.562 432.569L157.303 432.462L145.41 461.176C144.36 463.711 141.94 466.043 139.349 467.03L139.202 467.091L139.095 467.35L145.821 470.135L145.928 469.877L145.867 469.73C144.734 467.2 144.67 463.84 145.72 461.305L155.299 438.178L173.449 481.578L181.934 485.093L182.041 484.834L178.833 483.505L190.619 455.05C191.669 452.514 194.09 450.183 196.681 449.195L196.827 449.135L196.934 448.876L190.208 446.09L190.101 446.349L190.162 446.495Z" fill="white"/>
<path d="M118.56 456.832L118.735 456.614L116.552 454.861L140.737 424.726L142.921 426.479L143.096 426.26L125.015 411.749C102.96 394.048 78.4239 424.62 100.479 442.321L118.56 456.832ZM100.654 442.102C83.5343 428.362 107.615 398.358 124.84 411.967L137.2 421.887L113.014 452.022L100.654 442.102Z" fill="white"/>
<path d="M59.3123 382.497L59.1577 382.264L56.5432 383.996C54.4889 385.356 52.1915 384.93 50.8 382.829L50.7381 382.736L50.5047 382.89L50.5665 382.984C51.9581 385.085 51.4542 387.366 49.3999 388.727L46.8788 390.397L47.0334 390.63L49.5545 388.96C51.6088 387.6 53.9371 388.073 55.2977 390.127L55.3287 390.174L55.5621 390.019L55.5312 389.972C54.1706 387.918 54.6435 385.59 56.6978 384.229L59.3123 382.497ZM64.8045 384.502L65.038 384.347L63.4918 382.013L83.0541 369.056L84.6002 371.391L84.8337 371.236L79.2057 362.739L78.9723 362.893L80.5493 365.275L60.987 378.231L59.41 375.85L59.1765 376.005L64.8045 384.502Z" fill="white"/>
<path d="M67.5558 346.19C66.5911 348.749 64.1809 351.164 61.6341 352.186L33.3597 363.526L54.7235 313.144L54.6192 312.884L25.7731 324.454C23.2263 325.476 19.8674 325.375 17.3497 324.213L17.2041 324.151L16.9442 324.255L19.6543 331.012L19.9142 330.907L19.9765 330.762C20.9931 328.182 23.3514 325.788 25.8982 324.766L49.131 315.448L30.7866 358.766L34.2056 367.29L34.4654 367.186L33.1729 363.963L61.7592 352.497C64.306 351.476 67.6649 351.577 70.1826 352.739L70.3282 352.801L70.5881 352.697L67.878 345.94L67.6181 346.045L67.5558 346.19Z" fill="white"/>
<path d="M45.6602 250.976C45.7968 242.129 42.074 236.583 36.5877 232.802L36.188 233.3C40.794 236.059 43.1695 241.809 43.0752 247.912C42.9187 258.047 35.9706 269.141 21.4683 268.917C13.6853 268.797 6.92152 264.324 6.6826 254.407C6.4798 245.779 11.1164 239.297 17.2785 235.584L14.5901 231.958C10.1087 235.641 6.03811 241.739 5.90669 250.25C5.43028 281.103 45.189 281.492 45.6602 250.976Z" fill="white"/>
<path d="M8.24792 209.926L9.03135 207.238L46.128 218.049L45.3446 220.737L45.6134 220.816L48.4651 211.031L48.1963 210.952L47.3972 213.694L10.3005 202.883L16.568 181.378C19.075 172.775 35.596 177.532 33.0733 186.188L28.8115 200.811L29.0803 200.89L32.5744 188.901C35.9364 177.165 53.6023 193.804 57.9269 178.965C58.0992 178.374 58.2335 177.713 58.3678 177.052L58.1527 176.99C54.7234 188.356 39.9024 171.962 33.4989 185.729L33.5145 185.675C37.472 171.896 20.606 166.922 16.4872 180.654L7.9791 209.848L8.24792 209.926Z" fill="white"/>
<path d="M27.4447 147.607L27.6831 147.754L29.122 145.418L58.2707 142.191L71.479 150.325L70.0108 152.709L70.2492 152.856L75.5936 144.178L75.3552 144.031L73.8576 146.463L59.5525 137.654L52.3049 120.695C51.2564 118.339 50.5934 115.037 50.5759 112.395L50.5581 110.609L50.3197 110.462L45.592 118.139L45.8304 118.286L46.168 118.165C48.6629 117.531 51.0032 118.643 52.0517 120.999L59.226 137.65L32.0878 140.602L33.4386 138.408L33.2002 138.261L27.4447 147.607Z" fill="white"/>
<path d="M89.6097 121.915L96.9463 114.84L96.7519 114.639L94.6961 116.621L81.4796 102.916L94.5403 90.321C107.24 77.9971 93.5969 63.7689 80.781 75.9718L62.3993 93.6975L62.5936 93.8991L64.6092 91.9555L91.4309 119.77L89.4154 121.714L89.6097 121.915ZM80.4916 76.6398C89.36 68.088 102.811 81.9563 93.9025 90.5471L81.2852 102.714L67.8743 88.8068L80.4916 76.6398Z" fill="white"/>
<path d="M109.543 57.1516C110.323 53.2997 113.082 49.4209 116.493 47.4896L122.487 44.0961L141.524 77.7211L139.088 79.1005L139.226 79.3442L148.095 74.3228L147.957 74.0792L145.472 75.4863L126.434 41.8613L132.087 38.6608C135.499 36.7295 140.217 36.3107 143.948 37.6731L144.357 37.8276L144.601 37.6896L141.842 32.8164L106.463 52.8467L109.222 57.7199L109.465 57.582L109.543 57.1516Z" fill="white"/>
<path d="M192.843 55.7999C222.772 48.2961 212.886 9.78416 183.282 17.2063C153.352 24.7101 163.239 63.222 192.843 55.7999ZM179.467 19.0288C202.81 12.195 219.784 47.1979 196.753 53.8958C173.627 60.6752 156.654 25.6722 179.467 19.0288Z" fill="white"/>
<path d="M268.746 48.3841L269.13 48.4604L287.947 17.257L294.726 53.5455L295.11 53.6219L314.204 24.1863C315.607 22.01 318.23 20.0188 320.722 19.2578L321.754 18.9489L321.808 18.6743L313.295 16.9829L313.24 17.2576L313.284 17.3234C315.087 19.1662 315.289 21.8896 313.886 24.0659L297.784 48.7862L291.379 12.629L290.445 12.4435L271.803 43.3392L264.63 7.60028L267.541 8.17862L267.596 7.90399L256.995 5.79794L256.94 6.07257L260.181 6.71639L268.746 48.3841Z" fill="white"/>
<path d="M342.903 71.7137C369.698 87.0146 389.22 52.3763 362.717 37.242C335.922 21.9411 316.4 56.5793 342.903 71.7137ZM358.702 35.9165C380.279 47.1417 368.301 84.1533 347.043 73.0461C325.66 61.9319 337.638 24.9204 358.702 35.9165Z" fill="white"/>
<path d="M401.801 62.2097L403.752 64.2182L376.035 91.1408L374.084 89.1324L373.884 89.3275L380.985 96.6383L381.186 96.4432L379.196 94.3945L406.913 67.4719L422.52 83.5396C428.763 89.9667 416.47 101.985 410.188 95.5182L399.575 84.5922L399.374 84.7873L408.075 93.745C416.621 102.463 393.429 109.611 404.198 120.697C404.628 121.139 405.136 121.582 405.644 122.025L405.805 121.869C397.614 113.275 419.187 108.48 410.377 96.115L410.416 96.1552C420.445 106.399 433.097 94.1879 423.189 83.8265L402.002 62.0146L401.801 62.2097Z" fill="white"/>
<path d="M446.833 111.332L448.213 113.768L414.588 132.806L413.208 130.369L412.964 130.507L429.932 160.477L434.805 157.718L434.667 157.474L433.703 157.248C430.156 156.553 426.589 154.004 424.823 150.885L416.822 136.753L450.447 117.716L451.854 120.201L452.098 120.063L447.077 111.194L446.833 111.332Z" fill="white"/>
<path d="M474.482 160.897L474.212 160.969L474.934 163.674L437.601 173.639L436.879 170.934L436.608 171.006L442.587 193.406C449.88 220.729 487.754 210.62 480.461 183.296L474.482 160.897ZM480.191 183.369C485.852 204.578 448.681 214.5 442.858 193.334L438.771 178.022L476.103 168.057L480.191 183.369Z" fill="white"/>
</svg>
