<svg width="602" height="71" viewBox="0 0 602 71" fill="none" xmlns="http://www.w3.org/2000/svg">
<path d="M2.83122e-07 0.613276H74V20.6133H22V25.6133H74V45.6133H22V70.6133H2.83122e-07V0.613276ZM101.531 0.613276H123.531V35.6133C123.531 43.0799 127.698 47.7799 136.031 49.7133C138.431 50.3133 140.931 50.6133 143.531 50.6133C151.131 50.6133 156.698 48.7133 160.231 44.9133C162.431 42.4466 163.565 39.3466 163.631 35.6133L163.531 0.613276H185.531L185.631 35.6133C185.631 51.0133 178.565 61.4799 164.431 67.0133C158.098 69.4133 151.131 70.6133 143.531 70.6133C131.931 70.6133 122.365 68.0466 114.831 62.9133C106.031 56.7799 101.598 47.6799 101.531 35.6133V0.613276ZM213.023 0.613276H287.023V20.6133H261.023V70.6133H239.023V20.6133H213.023V0.613276ZM314.555 0.613276H336.555V35.6133C336.555 43.0799 340.721 47.7799 349.055 49.7133C351.455 50.3133 353.955 50.6133 356.555 50.6133C364.155 50.6133 369.721 48.7133 373.255 44.9133C375.455 42.4466 376.588 39.3466 376.655 35.6133L376.555 0.613276H398.555L398.655 35.6133C398.655 51.0133 391.588 61.4799 377.455 67.0133C371.121 69.4133 364.155 70.6133 356.555 70.6133C344.955 70.6133 335.388 68.0466 327.855 62.9133C319.055 56.7799 314.621 47.6799 314.555 35.6133V0.613276ZM426.047 0.613276H470.047C478.514 0.613276 485.514 2.61328 491.047 6.61328C497.047 11.0133 500.047 17.3466 500.047 25.6133C499.98 35.6133 495.747 42.7133 487.347 46.9133C493.947 53.3133 498.18 61.2133 500.047 70.6133H477.147C473.414 60.6799 464.68 54.3799 450.947 51.7133C449.947 51.5133 448.98 51.3466 448.047 51.2133V70.6133H426.047V0.613276ZM448.047 20.6133V30.6133H473.047C475.18 30.6133 476.714 29.6466 477.647 27.7133C477.914 27.0466 478.047 26.3799 478.047 25.7133C478.114 23.5133 477.147 21.9466 475.147 21.0133C474.48 20.7466 473.814 20.6133 473.147 20.6133H448.047ZM527.578 0.613276H601.578V20.6133H549.578V25.6133H601.578V45.6133H549.578V50.6133H601.578V70.6133H527.578V0.613276Z" fill="#1E2832"/>
</svg>
