<svg width="538" height="540" viewBox="0 0 538 540" fill="none" xmlns="http://www.w3.org/2000/svg">
<path fill-rule="evenodd" clip-rule="evenodd" d="M109.861 0.649446C61.0768 6.69345 30.5708 25.6074 14.3388 59.8734C7.72181 73.8414 5.63881 82.6574 5.54681 97.0944C5.48581 106.537 5.94881 110.905 7.71981 117.594C12.6678 136.283 23.4918 153.228 42.9218 172.706L55.5028 185.318L51.1698 196.706C21.6658 274.249 5.65181 334.985 0.786809 387.793C-0.756191 404.543 0.088809 441.11 2.28981 452.856C9.84281 493.15 26.7058 517.81 56.1398 531.604C68.6458 537.464 79.9268 539.948 93.8608 539.908C115.331 539.847 132.953 533.261 154.474 517.253C161.418 512.088 180.656 493.578 186.957 486L190.361 481.907L208.861 488.739C301.726 523.032 370.775 537.435 428.006 534.451C479.709 531.754 515 511.677 530 476.426C539.425 454.278 540.001 432.905 531.786 410.2C525.674 393.308 511.991 374.377 493.09 356.663L482.573 346.806L494.392 315.45C515.937 258.289 526.112 220.944 532.497 175.594C535.004 157.783 535.043 115.968 532.564 102.594C528.169 78.8844 520.45 59.0744 510.476 45.9104C499.196 31.0224 482.566 18.9564 465.123 13.0034C442.631 5.32645 423.521 6.10044 402.48 15.5414C388.511 21.8084 368.419 37.1314 357.334 49.9714L352.595 55.4604L347.478 53.3994C328.558 45.7784 277.117 26.8394 264.977 23.0234C234.317 13.3874 200.024 5.59245 172.621 2.02845C158.171 0.149446 120.567 -0.676554 109.861 0.649446ZM178.189 29.6784C192.197 30.9254 214.09 34.4724 227.861 37.7264L237.361 39.9704L225.797 41.1544C181.831 45.6544 152.23 61.1474 133.8 89.3044C124.154 104.041 119.895 117.618 118.998 136.495L118.361 149.895L114.861 147.04C80.5658 119.06 67.6118 94.8504 74.4538 71.5264C83.7958 39.6844 121.179 24.6034 178.189 29.6784ZM310.861 72.5224C318.286 73.6834 326.706 75.1864 329.573 75.8634L334.784 77.0944L324.274 92.5944C310.778 112.497 295.245 138.486 274.368 176.094C265.209 192.594 257.326 206.494 256.85 206.982C255.033 208.848 220.766 182.533 209.303 170.469C191.603 151.841 183.849 133.97 186.571 118.079C187.94 110.087 192.211 100.788 197.664 93.9324C206.145 83.2664 224.437 74.3784 244.703 71.0744C257.524 68.9845 293.223 69.7664 310.861 72.5224ZM465.244 77.9444C478.846 82.8814 487.618 90.7884 494.794 104.583C508.577 131.074 509.287 177.894 496.706 230.594L494.438 240.094L493.644 230.594C490.642 194.663 478.982 166.362 459.591 147.942C450.266 139.084 445.046 135.502 433.479 130.023C420.865 124.048 409.241 121.41 395.634 121.434C383.098 121.457 383.213 122.675 394.498 109.397C407.532 94.0604 424.066 81.5494 436.591 77.5464C445.137 74.8144 457.079 74.9804 465.244 77.9444ZM420.73 190.047C438.981 194.904 452.401 208.776 459.269 229.884C465.531 249.129 466.613 283.936 461.886 314.094C460.679 321.794 459.565 328.221 459.411 328.375C459.257 328.53 452.208 324.018 443.746 318.347C425.304 305.989 399.243 290.301 369.361 273.572C357.261 266.798 344.008 259.372 339.91 257.071C335.812 254.77 332.322 252.477 332.154 251.974C331.706 250.629 348.152 229.073 357.153 219.208C370.828 204.22 385.984 193.541 398.429 190.126C404.994 188.325 414.138 188.292 420.73 190.047ZM93.1048 212.456C112.157 225.192 136.468 239.608 175.861 261.526C194.836 272.084 210.761 281.116 211.249 281.597C212.311 282.641 201.39 298.131 190.067 311.642C172.714 332.347 154.487 345.852 138.15 350.107C125.985 353.276 110.962 351.402 99.4388 345.279C71.7688 330.576 63.4218 286.799 75.4738 219.594C77.2438 209.727 78.7458 203.594 79.3928 203.594C79.6438 203.594 85.8138 207.582 93.1048 212.456ZM40.8878 323.188C42.7698 343.598 47.9068 363.786 54.6038 377.094C70.5598 408.801 102 427.567 137.288 426.447L148.568 426.089L143.464 431.965C137.107 439.285 123.237 451.006 115.038 455.987C102.16 463.809 88.9508 466.579 75.5488 464.266C50.8038 459.996 36.6678 443.477 31.2848 412.541C29.2278 400.719 29.8118 363.642 32.2988 348.094C34.4728 334.503 39.0688 311.469 39.5178 311.918C39.7178 312.118 40.3348 317.19 40.8878 323.188ZM294.772 333.259C324.072 355.133 341.34 375.622 347.249 395.526C349.768 404.012 349.383 416.838 346.318 426.542C338.762 450.46 317.088 462.494 278.361 464.274C261.421 465.052 234.063 462.606 214.135 458.531L208.91 457.462L216.85 445.611C228.02 428.938 245.868 398.992 264.838 365.094C285.648 327.909 285.831 327.594 286.564 327.594C286.904 327.594 290.598 330.143 294.772 333.259ZM441.292 403.415C458.454 422.742 465.186 441.392 461.59 459.649C457.611 479.845 445.249 493.23 424.361 499.958C411.708 504.035 391.957 505.706 370.822 504.489C353.724 503.505 346.833 502.583 324.861 498.336L308.361 495.147L314.861 494.356C342.393 491.009 353.541 488.618 367.091 483.154C377.449 478.976 388.06 472.213 396.116 464.653C407.964 453.535 414.893 442.401 420.422 425.594C422.982 417.813 423.225 415.775 423.29 401.491L423.361 385.887L429.361 391.312C432.661 394.295 438.03 399.742 441.292 403.415Z" fill="black"/>
</svg>
