<svg width="210" height="210" viewBox="0 0 210 210" fill="none" xmlns="http://www.w3.org/2000/svg">
<path fill-rule="evenodd" clip-rule="evenodd" d="M72.8891 50.8221C63.0313 52.038 56.8669 55.8432 53.5869 62.7369C52.2498 65.5471 51.8289 67.3207 51.8103 70.2252C51.798 72.125 51.8915 73.0037 52.2494 74.3495C53.2492 78.1094 55.4365 81.5184 59.3627 85.4371L60.169 86.2418C61.2248 87.2956 61.5619 88.872 61.0294 90.2655C55.0675 105.866 51.8315 118.085 50.8484 128.709C50.5366 132.079 50.7074 139.435 51.1522 141.799C52.6784 149.905 56.0859 154.866 62.0337 157.641C64.5608 158.82 66.8403 159.32 69.656 159.312C73.9945 159.3 77.5554 157.975 81.9041 154.754C83.3073 153.715 87.1947 149.991 88.468 148.467C88.8805 147.973 89.5589 147.791 90.1629 148.013L92.8942 149.018C111.659 155.917 125.612 158.814 137.177 158.214C147.625 157.672 154.756 153.632 157.787 146.54C159.692 142.085 159.808 137.785 158.148 133.217C156.913 129.819 154.148 126.01 150.329 122.446C149.043 121.247 148.61 119.389 149.233 117.745L150.592 114.155C154.945 102.655 157.001 95.1418 158.292 86.0181C158.798 82.4348 158.806 74.0223 158.305 71.3317C157.417 66.5616 155.857 62.5762 153.842 59.9278C151.562 56.9326 148.202 54.5051 144.677 53.3075C140.132 51.763 136.271 51.9187 132.019 53.8181C129.196 55.0789 125.136 58.1616 122.896 60.7448L122.668 61.0075C122.232 61.5112 121.523 61.6827 120.905 61.4345C117.081 59.9013 106.687 56.0911 104.234 55.3233C98.0381 53.3847 91.1085 51.8165 85.5711 51.0995C82.6512 50.7215 75.0525 50.5553 72.8891 50.8221ZM86.6962 56.6622C89.5268 56.9131 93.9508 57.6267 96.7335 58.2813C97.097 58.3668 97.0628 58.8949 96.6913 58.9328L96.3164 58.971C87.4322 59.8763 81.4507 62.9933 77.7265 68.658C75.7773 71.6228 74.9167 74.3543 74.7355 78.152L74.6502 79.9378C74.6322 80.3151 74.1927 80.5116 73.8995 80.2735C66.9695 74.6444 64.3518 69.7737 65.7344 65.0813C67.6222 58.6753 75.1762 55.6412 86.6962 56.6622ZM113.505 65.2817C115.006 65.5153 116.707 65.8177 117.287 65.9539C117.794 66.0732 118.024 66.6646 117.731 67.0956L116.216 69.3199C113.489 73.324 110.35 78.5526 106.131 86.1187C104.28 89.4382 102.688 92.2347 102.591 92.3328C102.224 92.7082 95.2998 87.4141 92.9835 84.987C89.4068 81.2394 87.84 77.644 88.39 74.447C88.6666 72.8392 89.5297 70.9684 90.6316 69.5891C92.3453 67.4432 96.0416 65.6551 100.137 64.9904C102.728 64.5699 109.941 64.7273 113.505 65.2817ZM144.702 66.3725C147.45 67.3658 149.223 68.9565 150.673 71.7319C153.458 77.0614 153.602 86.4808 151.059 97.0832L151.048 97.1293C150.966 97.4702 150.47 97.4325 150.441 97.0832C149.834 89.8545 147.478 84.1608 143.559 80.455C141.675 78.6729 140.62 77.9522 138.283 76.85C135.734 75.6479 133.385 75.1172 130.636 75.122C128.102 75.1266 128.126 75.3717 130.406 72.7004C133.04 69.6148 136.381 67.0978 138.912 66.2925C140.639 65.7428 143.052 65.7762 144.702 66.3725ZM135.707 88.9258C139.395 89.9029 142.107 92.6938 143.494 96.9403C144.76 100.812 144.978 107.815 144.023 113.882C143.779 115.431 143.554 116.724 143.523 116.755C143.492 116.786 142.068 115.879 140.358 114.738C136.631 112.251 131.365 109.095 125.327 105.73C122.881 104.367 120.203 102.873 119.375 102.41C118.547 101.947 117.842 101.486 117.808 101.384C117.718 101.114 121.041 96.7772 122.86 94.7925C125.623 91.7772 128.686 89.6287 131.2 88.9417C132.527 88.5794 134.375 88.5727 135.707 88.9258ZM69.5032 93.4341C73.3531 95.9964 78.2656 98.8966 86.2258 103.306C90.0601 105.43 93.2781 107.247 93.3767 107.344C93.5913 107.554 91.3845 110.67 89.0964 113.389C85.5899 117.554 81.9067 120.271 78.6055 121.127C76.1473 121.765 73.1116 121.388 70.7831 120.156C65.1918 117.198 63.5052 108.391 65.9405 94.8702C66.2982 92.8851 66.6017 91.6512 66.7324 91.6512C66.7832 91.6512 68.0299 92.4535 69.5032 93.4341ZM58.9517 115.712C59.332 119.818 60.37 123.879 61.7233 126.557C64.9475 132.935 71.3007 136.711 78.4313 136.486L79.1426 136.463C79.7394 136.444 80.0718 137.146 79.6793 137.596C78.3948 139.068 75.592 141.426 73.9353 142.428C71.333 144.002 68.6638 144.559 65.9557 144.094C60.9554 143.235 58.099 139.912 57.0112 133.688C56.5955 131.309 56.7136 123.85 57.2161 120.722C57.6554 117.988 58.5841 113.354 58.6749 113.444C58.7153 113.484 58.8399 114.505 58.9517 115.712ZM110.254 117.738C116.175 122.138 119.664 126.26 120.858 130.265C121.367 131.972 121.29 134.552 120.67 136.505C119.143 141.317 114.764 143.738 106.938 144.096C103.515 144.252 97.9867 143.76 93.9599 142.94C93.4568 142.838 93.219 142.257 93.5056 141.831L94.5085 140.341C96.7656 136.987 100.372 130.962 104.205 124.142C108.411 116.661 108.448 116.598 108.596 116.598C108.664 116.598 109.411 117.111 110.254 117.738ZM139.862 131.852C143.33 135.74 144.69 139.492 143.963 143.165C143.159 147.228 140.661 149.921 136.44 151.275C133.884 152.095 129.893 152.431 125.622 152.186C122.167 151.988 120.774 151.803 116.334 150.948L114.299 150.557C114.067 150.512 114.079 150.176 114.314 150.148C119.877 149.474 122.13 148.993 124.868 147.894C126.961 147.053 129.105 145.693 130.733 144.172C133.127 141.935 134.527 139.695 135.644 136.314C136.162 134.749 136.211 134.339 136.224 131.465L136.231 129.957C136.234 129.326 136.982 128.995 137.451 129.417C138.118 130.017 139.203 131.113 139.862 131.852Z" fill="url(#paint0_radial_407_5)"/>
<path d="M210 105C210 162.99 162.99 210 105 210C47.0101 210 0 162.99 0 105C0 47.0101 47.0101 0 105 0C162.99 0 210 47.0101 210 105ZM4.27133 105C4.27133 160.631 49.3691 205.729 105 205.729C160.631 205.729 205.729 160.631 205.729 105C205.729 49.3691 160.631 4.27133 105 4.27133C49.3691 4.27133 4.27133 49.3691 4.27133 105Z" fill="white"/>
<defs>
<radialGradient id="paint0_radial_407_5" cx="0" cy="0" r="1" gradientUnits="userSpaceOnUse" gradientTransform="translate(105 105.002) scale(54.3103)">
<stop stop-color="white"/>
<stop offset="1" stop-color="#DEDEDE"/>
</radialGradient>
</defs>
</svg>
