<svg width="1400" height="236" viewBox="0 0 1400 236" fill="none" xmlns="http://www.w3.org/2000/svg">
<path d="M4.24683e-07 -7.15256e-06H33L85.5 54.45L138 -7.15256e-06H171V105H138V47.55L85.5 101.85L33 47.55V105H4.24683e-07V-7.15256e-06ZM258.709 -7.15256e-06H309.709L356.209 105H320.059C314.059 97.1 304.809 93.1 292.309 93H253.609L248.359 105H212.209L258.709 -7.15256e-06ZM284.209 23.85L266.959 63H292.309C295.509 63 298.659 63.2 301.759 63.6L284.209 23.85ZM397.465 -7.15256e-06H430.465V105H397.465V-7.15256e-06ZM471.686 -7.15256e-06H519.986L564.686 53.55V-7.15256e-06H597.686V105H564.686L504.686 33.15V105H471.686V-7.15256e-06ZM4.24683e-07 131H63C79.2 131 92.95 134.5 104.25 141.5C118.65 150.7 125.9 164.7 126 183.5C126 206.6 115.45 222.25 94.35 230.45C84.85 234.15 74.4 236 63 236H4.24683e-07V131ZM33 161V206H63C74.3 206 82.6 203.15 87.9 197.45C91.3 193.65 93 189 93 183.5C93 172.4 86.75 165.35 74.25 162.35C70.55 161.45 66.8 161 63 161H33ZM167.238 131H200.238V236H167.238V131ZM241.459 131H307.459C320.159 131 330.659 134 338.959 140C347.959 146.6 352.459 156.1 352.459 168.5C352.359 183.5 346.009 194.15 333.409 200.45C343.309 210.05 349.659 221.9 352.459 236H318.109C312.509 221.1 299.409 211.65 278.809 207.65C277.309 207.35 275.859 207.1 274.459 206.9V236H241.459V131ZM274.459 161V176H311.959C315.159 176 317.459 174.55 318.859 171.65C319.259 170.65 319.459 169.65 319.459 168.65C319.559 165.35 318.109 163 315.109 161.6C314.109 161.2 313.109 161 312.109 161H274.459ZM393.756 131H504.756V161H426.756V168.5H504.756V198.5H426.756V206H504.756V236H393.756V131ZM609.053 131C624.653 131 638.053 134.3 649.253 140.9C662.353 148.9 669.853 160.6 671.753 176H637.853C634.853 167.6 627.003 162.7 614.303 161.3C612.503 161.1 610.753 161 609.053 161C598.353 161 590.303 163.65 584.903 168.95C581.003 172.75 579.053 177.6 579.053 183.5C579.053 186.6 579.553 189.4 580.553 191.9C581.653 194.3 582.953 196.3 584.453 197.9C585.953 199.4 587.803 200.7 590.003 201.8C592.203 202.9 594.153 203.7 595.853 204.2C597.653 204.7 599.653 205.1 601.853 205.4C604.053 205.7 605.553 205.9 606.353 206C607.253 206 608.153 206 609.053 206C620.353 206 628.653 203.15 633.953 197.45C635.753 195.55 637.103 193.4 638.003 191H671.753C669.453 211.2 657.903 224.75 637.103 231.65C628.403 234.55 619.053 236 609.053 236C591.653 236 577.303 232.1 566.003 224.3C552.803 215.1 546.153 201.5 546.053 183.5C546.053 160.5 556.653 144.85 577.853 136.55C587.453 132.85 597.853 131 609.053 131ZM712.852 131H823.852V161H784.852V236H751.852V161H712.852V131ZM865.148 131H898.148V236H865.148V131ZM1002.37 131C1017.97 131 1031.37 134.3 1042.57 140.9C1057.77 150.1 1065.42 164.3 1065.52 183.5C1065.52 206.6 1054.92 222.25 1033.72 230.45C1024.22 234.15 1013.77 236 1002.37 236C984.969 236 970.619 232.1 959.319 224.3C946.119 215.1 939.469 201.5 939.369 183.5C939.369 160.5 949.969 144.85 971.169 136.55C980.769 132.85 991.169 131 1002.37 131ZM1002.37 161C991.669 161 983.619 163.65 978.219 168.95C974.319 172.75 972.369 177.6 972.369 183.5C972.369 186.6 972.869 189.4 973.869 191.9C974.969 194.3 976.269 196.3 977.769 197.9C979.269 199.4 981.119 200.7 983.319 201.8C985.519 202.9 987.469 203.7 989.169 204.2C990.969 204.7 992.969 205.1 995.169 205.4C997.369 205.7 998.869 205.9 999.669 206C1000.57 206 1001.47 206 1002.37 206C1013.77 206 1022.12 203.15 1027.42 197.45C1030.72 193.65 1032.42 189 1032.52 183.5C1032.52 172.5 1026.22 165.45 1013.62 162.35C1009.92 161.45 1006.17 161 1002.37 161ZM1106.61 131H1154.91L1199.61 184.55V131H1232.61V236H1199.61L1139.61 164.15V236H1106.61V131ZM1314.05 131H1359.65C1371.65 131 1381.4 133.95 1388.9 139.85C1396.1 145.85 1399.75 154.15 1399.85 164.75H1366.85C1366.75 162.85 1365.75 161.65 1363.85 161.15C1363.55 161.05 1363.3 161 1363.1 161H1310.6C1308.7 161 1307.5 161.9 1307 163.7C1307 164.1 1306.95 164.45 1306.85 164.75C1306.85 166.65 1307.8 167.85 1309.7 168.35C1310 168.45 1310.3 168.5 1310.6 168.5H1359.5C1372.6 168.5 1382.85 171.8 1390.25 178.4C1396.75 184.2 1400 192.15 1400 202.25C1400 218.15 1392.25 228.55 1376.75 233.45C1371.35 235.15 1365.65 236 1359.65 236H1314.35C1302.25 236 1292.5 233.05 1285.1 227.15C1277.8 221.25 1274.1 212.95 1274 202.25H1307.15C1307.15 203.95 1307.95 205.1 1309.55 205.7C1310.05 205.9 1310.45 206 1310.75 206H1363.25C1365.15 206 1366.35 205.1 1366.85 203.3C1366.95 202.9 1367 202.55 1367 202.25C1367 200.35 1366.1 199.15 1364.3 198.65C1363.9 198.55 1363.55 198.5 1363.25 198.5H1314.35C1301.35 198.5 1291.15 195.25 1283.75 188.75C1277.15 182.85 1273.85 174.85 1273.85 164.75C1273.85 148.85 1281.65 138.45 1297.25 133.55C1302.55 131.85 1308.15 131 1314.05 131Z" fill="white"/>
</svg>
