<svg width="1213" height="88" viewBox="0 0 1213 88" fill="none" xmlns="http://www.w3.org/2000/svg">
<path d="M0.72 1.4H4.68L10.98 7.934L17.28 1.4H21.24V14H17.28V7.106L10.98 13.622L4.68 7.106V14H0.72V1.4ZM31.7651 1.4H37.8851L43.4651 14H39.1271C38.4071 13.052 37.2971 12.572 35.7971 12.56H31.1531L30.5231 14H26.1851L31.7651 1.4ZM34.8251 4.262L32.7551 8.96H35.7971C36.1811 8.96 36.5591 8.984 36.9311 9.032L34.8251 4.262ZM48.4158 1.4H56.3358C57.8598 1.4 59.1198 1.76 60.1158 2.48C61.1958 3.272 61.7358 4.412 61.7358 5.9C61.7238 7.7 60.9618 8.978 59.4498 9.734C60.6378 10.886 61.3998 12.308 61.7358 14H57.6138C56.9418 12.212 55.3698 11.078 52.8978 10.598C52.7178 10.562 52.5438 10.532 52.3758 10.508V14H48.4158V1.4ZM52.3758 5V6.8H56.8758C57.2598 6.8 57.5358 6.626 57.7038 6.278C57.7518 6.158 57.7758 6.038 57.7758 5.918C57.7878 5.522 57.6138 5.24 57.2538 5.072C57.1338 5.024 57.0138 5 56.8938 5H52.3758ZM66.6914 1.4H70.6514V6.872C71.2154 6.932 71.7554 7.016 72.2714 7.124L75.4214 1.472L75.4754 1.4H80.0114L76.0514 8.492C78.2234 9.752 79.5434 11.588 80.0114 14H75.8894C75.2174 12.212 73.6454 11.078 71.1734 10.598C70.9934 10.562 70.8194 10.532 70.6514 10.508V14H66.6914V1.4ZM84.967 1.4H98.287V5H88.927V5.9H98.287V9.5H88.927V10.4H98.287V14H84.967V1.4ZM103.243 1.4H116.563V5H111.883V14H107.923V5H103.243V1.4ZM121.518 1.4H129.438C130.962 1.4 132.222 1.76 133.218 2.48C134.286 3.272 134.826 4.412 134.838 5.9C134.838 8 133.836 9.38 131.832 10.04C131.088 10.28 130.29 10.4 129.438 10.4H125.478V14H121.518V1.4ZM125.478 5V6.8H129.978C130.362 6.8 130.632 6.626 130.788 6.278C130.848 6.158 130.878 6.038 130.878 5.918C130.89 5.522 130.716 5.24 130.356 5.072C130.236 5.024 130.116 5 129.996 5H125.478ZM139.776 1.4H143.736V10.4H153.096V14H139.776V1.4ZM163.632 1.4H169.752L175.332 14H170.994C170.274 13.052 169.164 12.572 167.664 12.56H163.02L162.39 14H158.052L163.632 1.4ZM166.692 4.262L164.622 8.96H167.664C168.048 8.96 168.426 8.984 168.798 9.032L166.692 4.262ZM187.843 1.4C189.715 1.4 191.323 1.796 192.667 2.588C194.239 3.548 195.139 4.952 195.367 6.8H191.299C190.939 5.792 189.997 5.204 188.473 5.036C188.257 5.012 188.047 5 187.843 5C186.559 5 185.593 5.318 184.945 5.954C184.477 6.41 184.243 6.992 184.243 7.7C184.243 8.072 184.303 8.408 184.423 8.708C184.555 8.996 184.711 9.236 184.891 9.428C185.071 9.608 185.293 9.764 185.557 9.896C185.821 10.028 186.055 10.124 186.259 10.184C186.475 10.244 186.715 10.292 186.979 10.328C187.243 10.364 187.423 10.388 187.519 10.4C187.627 10.4 187.735 10.4 187.843 10.4C189.199 10.4 190.195 10.058 190.831 9.374C191.047 9.146 191.209 8.888 191.317 8.6H195.367C195.091 11.024 193.705 12.65 191.209 13.478C190.165 13.826 189.043 14 187.843 14C185.755 14 184.033 13.532 182.677 12.596C181.093 11.492 180.295 9.86 180.283 7.7C180.283 4.94 181.555 3.062 184.099 2.066C185.251 1.622 186.499 1.4 187.843 1.4ZM200.299 1.4H213.619V5H204.259V5.9H213.619V9.5H204.259V10.4H213.619V14H200.299V1.4ZM226.584 1.4H230.922L235.224 11.138L237.384 6.278L235.224 1.4H239.544L243.864 11.138L248.166 1.4H252.504L246.924 14H240.804L239.544 11.156L238.284 14H232.164L226.584 1.4ZM257.428 1.4H261.388V14H257.428V1.4ZM266.335 1.4H270.295V10.4H279.655V14H266.335V1.4ZM284.61 1.4H288.57V10.4H297.93V14H284.61V1.4ZM316.476 1.4H322.596L328.176 14H323.838C323.118 13.052 322.008 12.572 320.508 12.56H315.864L315.234 14H310.896L316.476 1.4ZM319.536 4.262L317.466 8.96H320.508C320.892 8.96 321.27 8.984 321.642 9.032L319.536 4.262ZM333.127 1.4H337.087V10.4H346.447V14H333.127V1.4ZM351.402 1.4H355.362V10.4H364.722V14H351.402V1.4ZM377.238 1.4C379.11 1.4 380.718 1.796 382.062 2.588C383.886 3.692 384.804 5.396 384.816 7.7C384.816 10.472 383.544 12.35 381 13.334C379.86 13.778 378.606 14 377.238 14C375.15 14 373.428 13.532 372.072 12.596C370.488 11.492 369.69 9.86 369.678 7.7C369.678 4.94 370.95 3.062 373.494 2.066C374.646 1.622 375.894 1.4 377.238 1.4ZM377.238 5C375.954 5 374.988 5.318 374.34 5.954C373.872 6.41 373.638 6.992 373.638 7.7C373.638 8.072 373.698 8.408 373.818 8.708C373.95 8.996 374.106 9.236 374.286 9.428C374.466 9.608 374.688 9.764 374.952 9.896C375.216 10.028 375.45 10.124 375.654 10.184C375.87 10.244 376.11 10.292 376.374 10.328C376.638 10.364 376.818 10.388 376.914 10.4C377.022 10.4 377.13 10.4 377.238 10.4C378.606 10.4 379.608 10.058 380.244 9.374C380.64 8.918 380.844 8.36 380.856 7.7C380.856 6.38 380.1 5.534 378.588 5.162C378.144 5.054 377.694 5 377.238 5ZM389.746 1.4H394.084L398.386 11.138L400.546 6.278L398.386 1.4H402.706L407.026 11.138L411.328 1.4H415.666L410.086 14H403.966L402.706 11.156L401.446 14H395.326L389.746 1.4ZM428.6 1.4H432.56V7.7C432.56 9.044 433.31 9.89 434.81 10.238C435.242 10.346 435.692 10.4 436.16 10.4C437.528 10.4 438.53 10.058 439.166 9.374C439.562 8.93 439.766 8.372 439.778 7.7L439.76 1.4H443.72L443.738 7.7C443.738 10.472 442.466 12.356 439.922 13.352C438.782 13.784 437.528 14 436.16 14C434.072 14 432.35 13.538 430.994 12.614C429.41 11.51 428.612 9.872 428.6 7.7V1.4ZM453.493 1.4H458.965C460.405 1.4 461.575 1.754 462.475 2.462C463.339 3.182 463.777 4.178 463.789 5.45H459.829C459.817 5.222 459.697 5.078 459.469 5.018C459.433 5.006 459.403 5 459.379 5H453.079C452.851 5 452.707 5.108 452.647 5.324C452.647 5.372 452.641 5.414 452.629 5.45C452.629 5.678 452.743 5.822 452.971 5.882C453.007 5.894 453.043 5.9 453.079 5.9H458.947C460.519 5.9 461.749 6.296 462.637 7.088C463.417 7.784 463.807 8.738 463.807 9.95C463.807 11.858 462.877 13.106 461.017 13.694C460.369 13.898 459.685 14 458.965 14H453.529C452.077 14 450.907 13.646 450.019 12.938C449.143 12.23 448.699 11.234 448.687 9.95H452.665C452.665 10.154 452.761 10.292 452.953 10.364C453.013 10.388 453.061 10.4 453.097 10.4H459.397C459.625 10.4 459.769 10.292 459.829 10.076C459.841 10.028 459.847 9.986 459.847 9.95C459.847 9.722 459.739 9.578 459.523 9.518C459.475 9.506 459.433 9.5 459.397 9.5H453.529C451.969 9.5 450.745 9.11 449.857 8.33C449.065 7.622 448.669 6.662 448.669 5.45C448.669 3.542 449.605 2.294 451.477 1.706C452.113 1.502 452.785 1.4 453.493 1.4ZM468.755 1.4H482.075V5H472.715V5.9H482.075V9.5H472.715V10.4H482.075V14H468.755V1.4ZM487.031 1.4H494.951C496.475 1.4 497.735 1.76 498.731 2.48C499.811 3.272 500.351 4.412 500.351 5.9C500.339 7.7 499.577 8.978 498.065 9.734C499.253 10.886 500.015 12.308 500.351 14H496.229C495.557 12.212 493.985 11.078 491.513 10.598C491.333 10.562 491.159 10.532 490.991 10.508V14H487.031V1.4ZM490.991 5V6.8H495.491C495.875 6.8 496.151 6.626 496.319 6.278C496.367 6.158 496.391 6.038 496.391 5.918C496.403 5.522 496.229 5.24 495.869 5.072C495.749 5.024 495.629 5 495.509 5H490.991ZM510.13 1.4H515.602C517.042 1.4 518.212 1.754 519.112 2.462C519.976 3.182 520.414 4.178 520.426 5.45H516.466C516.454 5.222 516.334 5.078 516.106 5.018C516.07 5.006 516.04 5 516.016 5H509.716C509.488 5 509.344 5.108 509.284 5.324C509.284 5.372 509.278 5.414 509.266 5.45C509.266 5.678 509.38 5.822 509.608 5.882C509.644 5.894 509.68 5.9 509.716 5.9H515.584C517.156 5.9 518.386 6.296 519.274 7.088C520.054 7.784 520.444 8.738 520.444 9.95C520.444 11.858 519.514 13.106 517.654 13.694C517.006 13.898 516.322 14 515.602 14H510.166C508.714 14 507.544 13.646 506.656 12.938C505.78 12.23 505.336 11.234 505.324 9.95H509.302C509.302 10.154 509.398 10.292 509.59 10.364C509.65 10.388 509.698 10.4 509.734 10.4H516.034C516.262 10.4 516.406 10.292 516.466 10.076C516.478 10.028 516.484 9.986 516.484 9.95C516.484 9.722 516.376 9.578 516.16 9.518C516.112 9.506 516.07 9.5 516.034 9.5H510.166C508.606 9.5 507.382 9.11 506.494 8.33C505.702 7.622 505.306 6.662 505.306 5.45C505.306 3.542 506.242 2.294 508.114 1.706C508.75 1.502 509.422 1.4 510.13 1.4ZM533.403 1.4H546.723V5H542.043V14H538.083V5H533.403V1.4ZM559.238 1.4C561.11 1.4 562.718 1.796 564.062 2.588C565.886 3.692 566.804 5.396 566.816 7.7C566.816 10.472 565.544 12.35 563 13.334C561.86 13.778 560.606 14 559.238 14C557.15 14 555.428 13.532 554.072 12.596C552.488 11.492 551.69 9.86 551.678 7.7C551.678 4.94 552.95 3.062 555.494 2.066C556.646 1.622 557.894 1.4 559.238 1.4ZM559.238 5C557.954 5 556.988 5.318 556.34 5.954C555.872 6.41 555.638 6.992 555.638 7.7C555.638 8.072 555.698 8.408 555.818 8.708C555.95 8.996 556.106 9.236 556.286 9.428C556.466 9.608 556.688 9.764 556.952 9.896C557.216 10.028 557.45 10.124 557.654 10.184C557.87 10.244 558.11 10.292 558.374 10.328C558.638 10.364 558.818 10.388 558.914 10.4C559.022 10.4 559.13 10.4 559.238 10.4C560.606 10.4 561.608 10.058 562.244 9.374C562.64 8.918 562.844 8.36 562.856 7.7C562.856 6.38 562.1 5.534 560.588 5.162C560.144 5.054 559.694 5 559.238 5ZM587.317 1.4C589.189 1.4 590.797 1.796 592.141 2.588C593.713 3.548 594.613 4.952 594.841 6.8H590.773C590.413 5.792 589.471 5.204 587.947 5.036C587.731 5.012 587.521 5 587.317 5C586.033 5 585.067 5.318 584.419 5.954C583.951 6.41 583.717 6.992 583.717 7.7C583.717 8.072 583.777 8.408 583.897 8.708C584.029 8.996 584.185 9.236 584.365 9.428C584.545 9.608 584.767 9.764 585.031 9.896C585.295 10.028 585.529 10.124 585.733 10.184C585.949 10.244 586.189 10.292 586.453 10.328C586.717 10.364 586.897 10.388 586.993 10.4C587.101 10.4 587.209 10.4 587.317 10.4C588.673 10.4 589.669 10.058 590.305 9.374C590.521 9.146 590.683 8.888 590.791 8.6H594.841C594.565 11.024 593.179 12.65 590.683 13.478C589.639 13.826 588.517 14 587.317 14C585.229 14 583.507 13.532 582.151 12.596C580.567 11.492 579.769 9.86 579.757 7.7C579.757 4.94 581.029 3.062 583.573 2.066C584.725 1.622 585.973 1.4 587.317 1.4ZM599.773 1.4H607.693C609.217 1.4 610.477 1.76 611.473 2.48C612.553 3.272 613.093 4.412 613.093 5.9C613.081 7.7 612.319 8.978 610.807 9.734C611.995 10.886 612.757 12.308 613.093 14H608.971C608.299 12.212 606.727 11.078 604.255 10.598C604.075 10.562 603.901 10.532 603.733 10.508V14H599.773V1.4ZM603.733 5V6.8H608.233C608.617 6.8 608.893 6.626 609.061 6.278C609.109 6.158 609.133 6.038 609.133 5.918C609.145 5.522 608.971 5.24 608.611 5.072C608.491 5.024 608.371 5 608.251 5H603.733ZM618.048 1.4H631.368V5H622.008V5.9H631.368V9.5H622.008V10.4H631.368V14H618.048V1.4ZM641.904 1.4H648.024L653.604 14H649.266C648.546 13.052 647.436 12.572 645.936 12.56H641.292L640.662 14H636.324L641.904 1.4ZM644.964 4.262L642.894 8.96H645.936C646.32 8.96 646.698 8.984 647.07 9.032L644.964 4.262ZM658.555 1.4H671.875V5H667.195V14H663.235V5H658.555V1.4ZM676.83 1.4H690.15V5H680.79V5.9H690.15V9.5H680.79V10.4H690.15V14H676.83V1.4ZM708.696 1.4H714.816L720.396 14H716.058C715.338 13.052 714.228 12.572 712.728 12.56H708.084L707.454 14H703.116L708.696 1.4ZM711.756 4.262L709.686 8.96H712.728C713.112 8.96 713.49 8.984 713.862 9.032L711.756 4.262ZM725.347 1.4H731.143L736.507 7.826V1.4H740.467V14H736.507L729.307 5.378V14H725.347V1.4ZM745.415 1.4H752.975C754.919 1.4 756.569 1.82 757.925 2.66C759.653 3.764 760.523 5.444 760.535 7.7C760.535 10.472 759.269 12.35 756.737 13.334C755.597 13.778 754.343 14 752.975 14H745.415V1.4ZM749.375 5V10.4H752.975C754.331 10.4 755.327 10.058 755.963 9.374C756.371 8.918 756.575 8.36 756.575 7.7C756.575 6.368 755.825 5.522 754.325 5.162C753.881 5.054 753.431 5 752.975 5H749.375ZM773.494 1.4H783.16C783.976 1.424 784.726 1.658 785.41 2.102C786.334 2.714 786.802 3.602 786.814 4.766C786.814 5.21 786.76 5.618 786.652 5.99C786.556 6.35 786.43 6.632 786.274 6.836C786.13 7.04 785.98 7.214 785.824 7.358C785.68 7.49 785.554 7.58 785.446 7.628L785.302 7.7C785.302 7.7 785.434 7.784 785.698 7.952C786.43 8.54 786.802 9.428 786.814 10.616C786.814 12.152 786.046 13.19 784.51 13.73C783.97 13.91 783.478 14 783.034 14H773.494V1.4ZM777.454 5V5.9H782.404C782.584 5.888 782.716 5.804 782.8 5.648C782.86 5.504 782.86 5.366 782.8 5.234C782.704 5.09 782.572 5.012 782.404 5H777.454ZM777.454 9.5V10.4C777.478 10.4 778.474 10.4 780.442 10.4C781.21 10.4 781.864 10.4 782.404 10.4C782.548 10.388 782.668 10.328 782.764 10.22C782.872 10.04 782.866 9.854 782.746 9.662C782.65 9.566 782.536 9.512 782.404 9.5H782.386H782.368H782.35H782.332H782.314H782.296H782.278H782.26H782.242H782.224H782.206H782.188H782.17H782.152H782.134H782.116H782.098H782.08H782.062H782.044H782.026H782.008H781.99H781.972H781.954H781.936H781.918H781.9H781.882H781.864H781.846H781.828H781.81H781.792H781.774H781.756H781.738H781.72H781.702H781.684H781.666H781.648H781.63H781.612H781.594H781.576H781.558H781.54H781.522H781.504H781.486H781.468H781.45H781.432H781.414H781.396H781.378H781.36H781.342H781.324H781.306H781.288H781.27H781.252H781.234H781.216H781.198H781.18H781.162H781.144H781.126H781.108H781.09H781.072H781.054H781.036H781.018H781H780.982H780.964H780.946H780.928H780.91H780.892H780.874H780.856H780.838H780.82H780.802H780.784H780.766H780.748H780.73H780.712H780.694H780.676H780.658H780.64H780.622H780.604H780.586H780.568H780.55H780.532H780.514H780.496H780.478H780.46H780.442H780.424H780.406H780.388H780.37H780.352H780.334H780.316H780.298H780.28H780.262H780.244H780.226H780.208H780.19H780.172H780.154H780.136H780.118H780.1H780.082H780.064H780.046H780.028H780.01H779.992H779.974H779.956H779.938H779.92H779.902H779.884H779.866H779.848H779.83H779.812H779.794H779.776H779.758H779.74H779.722H779.704H779.686H779.668H779.65H779.632H779.614H779.596H779.578H779.56H779.542H779.524H779.506H779.488H779.47H779.452H779.434H779.416H779.398H779.38H779.362H779.344H779.326H779.308H779.29H779.272H779.254H779.236H779.218H779.2H779.182H779.164H779.146H779.128H779.11H779.092H779.074H779.056H779.038H779.02H779.002H778.984H778.966H778.948H778.93H778.912H778.894H778.876H778.858H778.84H778.822H778.804H778.786H778.768H778.75H778.732H778.714H778.696H778.678H778.66H778.642H778.624H778.606H778.588H778.57H778.552H778.534H778.516H778.498H778.48H778.462H778.444H778.426H778.408H778.39H778.372H778.354H778.336H778.318H778.3H778.282H778.264H778.246H778.228H778.21H778.192H778.174H778.156H778.138H778.12H778.102H778.084H778.066H778.048H778.03H778.012H777.994H777.976H777.958H777.94H777.922H777.904H777.886H777.868H777.85H777.832H777.814H777.796H777.778H777.76H777.742H777.724H777.706H777.688H777.67H777.652H777.634H777.616H777.598H777.58H777.562H777.544H777.526H777.508H777.49H777.472H777.454ZM791.752 1.4H795.712V7.7C795.712 9.044 796.462 9.89 797.962 10.238C798.394 10.346 798.844 10.4 799.312 10.4C800.68 10.4 801.682 10.058 802.318 9.374C802.714 8.93 802.918 8.372 802.93 7.7L802.912 1.4H806.872L806.89 7.7C806.89 10.472 805.618 12.356 803.074 13.352C801.934 13.784 800.68 14 799.312 14C797.224 14 795.502 13.538 794.146 12.614C792.562 11.51 791.764 9.872 791.752 7.7V1.4ZM811.82 1.4H816.878L820.982 6.53L825.068 1.4H830.144L822.962 10.4V14H819.002V10.4L811.82 1.4ZM840.867 1.148L836.079 14H834.531L839.319 1.148H840.867ZM850.858 1.4H856.978L862.558 14H858.22C857.5 13.052 856.39 12.572 854.89 12.56H850.246L849.616 14H845.278L850.858 1.4ZM853.918 4.262L851.848 8.96H854.89C855.274 8.96 855.652 8.984 856.024 9.032L853.918 4.262ZM867.509 1.4H871.469V7.7C871.469 9.044 872.219 9.89 873.719 10.238C874.151 10.346 874.601 10.4 875.069 10.4C876.437 10.4 877.439 10.058 878.075 9.374C878.471 8.93 878.675 8.372 878.687 7.7L878.669 1.4H882.629L882.647 7.7C882.647 10.472 881.375 12.356 878.831 13.352C877.691 13.784 876.437 14 875.069 14C872.981 14 871.259 13.538 869.903 12.614C868.319 11.51 867.521 9.872 867.509 7.7V1.4ZM895.137 1.4C897.009 1.4 898.617 1.796 899.961 2.588C901.533 3.548 902.433 4.952 902.661 6.8H898.593C898.233 5.792 897.291 5.204 895.767 5.036C895.551 5.012 895.341 5 895.137 5C893.853 5 892.887 5.318 892.239 5.954C891.771 6.41 891.537 6.992 891.537 7.7C891.537 8.072 891.597 8.408 891.717 8.708C891.849 8.996 892.005 9.236 892.185 9.428C892.365 9.608 892.587 9.764 892.851 9.896C893.115 10.028 893.349 10.124 893.553 10.184C893.769 10.244 894.009 10.292 894.273 10.328C894.537 10.364 894.717 10.388 894.813 10.4C894.921 10.4 895.029 10.4 895.137 10.4C896.493 10.4 897.489 10.058 898.125 9.374C898.341 9.146 898.503 8.888 898.611 8.6H902.661C902.385 11.024 900.999 12.65 898.503 13.478C897.459 13.826 896.337 14 895.137 14C893.049 14 891.327 13.532 889.971 12.596C888.387 11.492 887.589 9.86 887.577 7.7C887.577 4.94 888.849 3.062 891.393 2.066C892.545 1.622 893.793 1.4 895.137 1.4ZM907.593 1.4H920.913V5H916.233V14H912.273V5H907.593V1.4ZM925.869 1.4H929.829V14H925.869V1.4ZM942.335 1.4C944.207 1.4 945.815 1.796 947.159 2.588C948.983 3.692 949.901 5.396 949.913 7.7C949.913 10.472 948.641 12.35 946.097 13.334C944.957 13.778 943.703 14 942.335 14C940.247 14 938.525 13.532 937.169 12.596C935.585 11.492 934.787 9.86 934.775 7.7C934.775 4.94 936.047 3.062 938.591 2.066C939.743 1.622 940.991 1.4 942.335 1.4ZM942.335 5C941.051 5 940.085 5.318 939.437 5.954C938.969 6.41 938.735 6.992 938.735 7.7C938.735 8.072 938.795 8.408 938.915 8.708C939.047 8.996 939.203 9.236 939.383 9.428C939.563 9.608 939.785 9.764 940.049 9.896C940.313 10.028 940.547 10.124 940.751 10.184C940.967 10.244 941.207 10.292 941.471 10.328C941.735 10.364 941.915 10.388 942.011 10.4C942.119 10.4 942.227 10.4 942.335 10.4C943.703 10.4 944.705 10.058 945.341 9.374C945.737 8.918 945.941 8.36 945.953 7.7C945.953 6.38 945.197 5.534 943.685 5.162C943.241 5.054 942.791 5 942.335 5ZM954.844 1.4H960.64L966.004 7.826V1.4H969.964V14H966.004L958.804 5.378V14H954.844V1.4ZM982.922 1.4H996.242V5H991.562V14H987.602V5H982.922V1.4ZM1001.2 1.4H1005.16V5.9H1007.21C1008.39 5.9 1009.5 6.104 1010.56 6.512V1.4H1014.52V14H1010.56V10.94C1009.84 9.98 1008.72 9.5 1007.21 9.5H1005.16V14H1001.2V1.4ZM1019.47 1.4H1032.79V5H1023.43V5.9H1032.79V9.5H1023.43V10.4H1032.79V14H1019.47V1.4ZM1037.75 1.4H1041.71V14H1037.75V1.4ZM1046.66 1.4H1054.58C1056.1 1.4 1057.36 1.76 1058.36 2.48C1059.44 3.272 1059.98 4.412 1059.98 5.9C1059.96 7.7 1059.2 8.978 1057.69 9.734C1058.88 10.886 1059.64 12.308 1059.98 14H1055.85C1055.18 12.212 1053.61 11.078 1051.14 10.598C1050.96 10.562 1050.78 10.532 1050.62 10.508V14H1046.66V1.4ZM1050.62 5V6.8H1055.12C1055.5 6.8 1055.78 6.626 1055.94 6.278C1055.99 6.158 1056.02 6.038 1056.02 5.918C1056.03 5.522 1055.85 5.24 1055.49 5.072C1055.37 5.024 1055.25 5 1055.13 5H1050.62ZM1080.5 1.4C1082.37 1.4 1083.98 1.796 1085.33 2.588C1087.15 3.692 1088.07 5.396 1088.08 7.7C1088.08 10.472 1086.81 12.35 1084.26 13.334C1083.12 13.778 1081.87 14 1080.5 14C1078.41 14 1076.69 13.532 1075.34 12.596C1073.75 11.492 1072.95 9.86 1072.94 7.7C1072.94 4.94 1074.21 3.062 1076.76 2.066C1077.91 1.622 1079.16 1.4 1080.5 1.4ZM1080.5 5C1079.22 5 1078.25 5.318 1077.6 5.954C1077.14 6.41 1076.9 6.992 1076.9 7.7C1076.9 8.072 1076.96 8.408 1077.08 8.708C1077.21 8.996 1077.37 9.236 1077.55 9.428C1077.73 9.608 1077.95 9.764 1078.22 9.896C1078.48 10.028 1078.71 10.124 1078.92 10.184C1079.13 10.244 1079.37 10.292 1079.64 10.328C1079.9 10.364 1080.08 10.388 1080.18 10.4C1080.29 10.4 1080.39 10.4 1080.5 10.4C1081.87 10.4 1082.87 10.058 1083.51 9.374C1083.9 8.918 1084.11 8.36 1084.12 7.7C1084.12 6.38 1083.36 5.534 1081.85 5.162C1081.41 5.054 1080.96 5 1080.5 5ZM1093.01 1.4H1097.35L1101.65 11.138L1103.81 6.278L1101.65 1.4H1105.97L1110.29 11.138L1114.59 1.4H1118.93L1113.35 14H1107.23L1105.97 11.156L1104.71 14H1098.59L1093.01 1.4ZM1123.85 1.4H1129.65L1135.01 7.826V1.4H1138.97V14H1135.01L1127.81 5.378V14H1123.85V1.4ZM1151.93 1.4H1157.73L1163.09 7.826V1.4H1167.05V14H1163.09L1155.89 5.378V14H1151.93V1.4ZM1172 1.4H1185.32V5H1175.96V5.9H1185.32V9.5H1175.96V14H1172V1.4ZM1190.28 1.4H1203.6V5H1198.92V14H1194.96V5H1190.28V1.4ZM1209.13 13.028C1209.13 12.584 1209.24 12.272 1209.45 12.092C1209.67 11.912 1209.93 11.822 1210.23 11.822C1210.54 11.822 1210.8 11.912 1211.02 12.092C1211.25 12.272 1211.36 12.584 1211.36 13.028C1211.36 13.46 1211.25 13.772 1211.02 13.964C1210.8 14.156 1210.54 14.252 1210.23 14.252C1209.93 14.252 1209.67 14.156 1209.45 13.964C1209.24 13.772 1209.13 13.46 1209.13 13.028Z" fill="white"/>
<path d="M1.72 72.4H5.68V85H1.72V72.4ZM10.6265 72.4H16.4225L21.7865 78.826V72.4H25.7465V85H21.7865L14.5865 76.378V85H10.6265V72.4ZM38.7051 72.4H52.0251V76H42.6651V76.9H52.0251V80.5H42.6651V81.4H52.0251V85H38.7051V72.4ZM62.5607 72.4H68.6807L74.2607 85H69.9227C69.2027 84.052 68.0927 83.572 66.5927 83.56H61.9487L61.3187 85H56.9807L62.5607 72.4ZM65.6207 75.262L63.5507 79.96H66.5927C66.9767 79.96 67.3547 79.984 67.7267 80.032L65.6207 75.262ZM86.7714 72.4C88.6434 72.4 90.2514 72.796 91.5954 73.588C93.1674 74.548 94.0674 75.952 94.2954 77.8H90.2274C89.8674 76.792 88.9254 76.204 87.4014 76.036C87.1854 76.012 86.9754 76 86.7714 76C85.4874 76 84.5214 76.318 83.8734 76.954C83.4054 77.41 83.1714 77.992 83.1714 78.7C83.1714 79.072 83.2314 79.408 83.3514 79.708C83.4834 79.996 83.6394 80.236 83.8194 80.428C83.9994 80.608 84.2214 80.764 84.4854 80.896C84.7494 81.028 84.9834 81.124 85.1874 81.184C85.4034 81.244 85.6434 81.292 85.9074 81.328C86.1714 81.364 86.3514 81.388 86.4474 81.4C86.5554 81.4 86.6634 81.4 86.7714 81.4C88.1274 81.4 89.1234 81.058 89.7594 80.374C89.9754 80.146 90.1374 79.888 90.2454 79.6H94.2954C94.0194 82.024 92.6334 83.65 90.1374 84.478C89.0934 84.826 87.9714 85 86.7714 85C84.6834 85 82.9614 84.532 81.6054 83.596C80.0214 82.492 79.2234 80.86 79.2114 78.7C79.2114 75.94 80.4834 74.062 83.0274 73.066C84.1794 72.622 85.4274 72.4 86.7714 72.4ZM99.2273 72.4H103.187V76.9H105.239C106.415 76.9 107.531 77.104 108.587 77.512V72.4H112.547V85H108.587V81.94C107.867 80.98 106.751 80.5 105.239 80.5H103.187V85H99.2273V72.4ZM125.513 72.4H138.833V76H134.153V85H130.193V76H125.513V72.4ZM143.789 72.4H151.709C153.233 72.4 154.493 72.76 155.489 73.48C156.569 74.272 157.109 75.412 157.109 76.9C157.097 78.7 156.335 79.978 154.823 80.734C156.011 81.886 156.773 83.308 157.109 85H152.987C152.315 83.212 150.743 82.078 148.271 81.598C148.091 81.562 147.917 81.532 147.749 81.508V85H143.789V72.4ZM147.749 76V77.8H152.249C152.633 77.8 152.909 77.626 153.077 77.278C153.125 77.158 153.149 77.038 153.149 76.918C153.161 76.522 152.987 76.24 152.627 76.072C152.507 76.024 152.387 76 152.267 76H147.749ZM167.644 72.4H173.764L179.344 85H175.006C174.286 84.052 173.176 83.572 171.676 83.56H167.032L166.402 85H162.064L167.644 72.4ZM170.704 75.262L168.634 79.96H171.676C172.06 79.96 172.438 79.984 172.81 80.032L170.704 75.262ZM184.295 72.4H191.855C193.799 72.4 195.449 72.82 196.805 73.66C198.533 74.764 199.403 76.444 199.415 78.7C199.415 81.472 198.149 83.35 195.617 84.334C194.477 84.778 193.223 85 191.855 85H184.295V72.4ZM188.255 76V81.4H191.855C193.211 81.4 194.207 81.058 194.843 80.374C195.251 79.918 195.455 79.36 195.455 78.7C195.455 77.368 194.705 76.522 193.205 76.162C192.761 76.054 192.311 76 191.855 76H188.255ZM204.363 72.4H217.683V76H208.323V76.9H217.683V80.5H208.323V81.4H217.683V85H204.363V72.4ZM225.375 83.11C225.219 83.746 224.991 84.442 224.691 85.198C224.403 85.966 224.115 86.674 223.827 87.322H222.657C222.825 86.638 222.993 85.888 223.161 85.072C223.341 84.256 223.473 83.536 223.557 82.912H225.249L225.375 83.11ZM238.975 72.4H252.295V76H247.615V85H243.655V76H238.975V72.4ZM257.251 72.4H261.211V76.9H263.263C264.439 76.9 265.555 77.104 266.611 77.512V72.4H270.571V85H266.611V81.94C265.891 80.98 264.775 80.5 263.263 80.5H261.211V85H257.251V72.4ZM275.527 72.4H288.847V76H279.487V76.9H288.847V80.5H279.487V81.4H288.847V85H275.527V72.4ZM301.812 72.4H315.132V76H310.452V85H306.492V76H301.812V72.4ZM320.088 72.4H328.008C329.532 72.4 330.792 72.76 331.788 73.48C332.868 74.272 333.408 75.412 333.408 76.9C333.396 78.7 332.634 79.978 331.122 80.734C332.31 81.886 333.072 83.308 333.408 85H329.286C328.614 83.212 327.042 82.078 324.57 81.598C324.39 81.562 324.216 81.532 324.048 81.508V85H320.088V72.4ZM324.048 76V77.8H328.548C328.932 77.8 329.208 77.626 329.376 77.278C329.424 77.158 329.448 77.038 329.448 76.918C329.46 76.522 329.286 76.24 328.926 76.072C328.806 76.024 328.686 76 328.566 76H324.048ZM343.944 72.4H350.064L355.644 85H351.306C350.586 84.052 349.476 83.572 347.976 83.56H343.332L342.702 85H338.364L343.944 72.4ZM347.004 75.262L344.934 79.96H347.976C348.36 79.96 348.738 79.984 349.11 80.032L347.004 75.262ZM360.594 72.4H366.39L371.754 78.826V72.4H375.714V85H371.754L364.554 76.378V85H360.594V72.4ZM385.487 72.4H390.959C392.399 72.4 393.569 72.754 394.469 73.462C395.333 74.182 395.771 75.178 395.783 76.45H391.823C391.811 76.222 391.691 76.078 391.463 76.018C391.427 76.006 391.397 76 391.373 76H385.073C384.845 76 384.701 76.108 384.641 76.324C384.641 76.372 384.635 76.414 384.623 76.45C384.623 76.678 384.737 76.822 384.965 76.882C385.001 76.894 385.037 76.9 385.073 76.9H390.941C392.513 76.9 393.743 77.296 394.631 78.088C395.411 78.784 395.801 79.738 395.801 80.95C395.801 82.858 394.871 84.106 393.011 84.694C392.363 84.898 391.679 85 390.959 85H385.523C384.071 85 382.901 84.646 382.013 83.938C381.137 83.23 380.693 82.234 380.681 80.95H384.659C384.659 81.154 384.755 81.292 384.947 81.364C385.007 81.388 385.055 81.4 385.091 81.4H391.391C391.619 81.4 391.763 81.292 391.823 81.076C391.835 81.028 391.841 80.986 391.841 80.95C391.841 80.722 391.733 80.578 391.517 80.518C391.469 80.506 391.427 80.5 391.391 80.5H385.523C383.963 80.5 382.739 80.11 381.851 79.33C381.059 78.622 380.663 77.662 380.663 76.45C380.663 74.542 381.599 73.294 383.471 72.706C384.107 72.502 384.779 72.4 385.487 72.4ZM406.329 72.4H412.449L418.029 85H413.691C412.971 84.052 411.861 83.572 410.361 83.56H405.717L405.087 85H400.749L406.329 72.4ZM409.389 75.262L407.319 79.96H410.361C410.745 79.96 411.123 79.984 411.495 80.032L409.389 75.262ZM430.54 72.4C432.412 72.4 434.02 72.796 435.364 73.588C436.936 74.548 437.836 75.952 438.064 77.8H433.996C433.636 76.792 432.694 76.204 431.17 76.036C430.954 76.012 430.744 76 430.54 76C429.256 76 428.29 76.318 427.642 76.954C427.174 77.41 426.94 77.992 426.94 78.7C426.94 79.072 427 79.408 427.12 79.708C427.252 79.996 427.408 80.236 427.588 80.428C427.768 80.608 427.99 80.764 428.254 80.896C428.518 81.028 428.752 81.124 428.956 81.184C429.172 81.244 429.412 81.292 429.676 81.328C429.94 81.364 430.12 81.388 430.216 81.4C430.324 81.4 430.432 81.4 430.54 81.4C431.896 81.4 432.892 81.058 433.528 80.374C433.744 80.146 433.906 79.888 434.014 79.6H438.064C437.788 82.024 436.402 83.65 433.906 84.478C432.862 84.826 431.74 85 430.54 85C428.452 85 426.73 84.532 425.374 83.596C423.79 82.492 422.992 80.86 422.98 78.7C422.98 75.94 424.252 74.062 426.796 73.066C427.948 72.622 429.196 72.4 430.54 72.4ZM442.996 72.4H456.316V76H451.636V85H447.676V76H442.996V72.4ZM461.271 72.4H465.231V85H461.271V72.4ZM477.738 72.4C479.61 72.4 481.218 72.796 482.562 73.588C484.386 74.692 485.304 76.396 485.316 78.7C485.316 81.472 484.044 83.35 481.5 84.334C480.36 84.778 479.106 85 477.738 85C475.65 85 473.928 84.532 472.572 83.596C470.988 82.492 470.19 80.86 470.178 78.7C470.178 75.94 471.45 74.062 473.994 73.066C475.146 72.622 476.394 72.4 477.738 72.4ZM477.738 76C476.454 76 475.488 76.318 474.84 76.954C474.372 77.41 474.138 77.992 474.138 78.7C474.138 79.072 474.198 79.408 474.318 79.708C474.45 79.996 474.606 80.236 474.786 80.428C474.966 80.608 475.188 80.764 475.452 80.896C475.716 81.028 475.95 81.124 476.154 81.184C476.37 81.244 476.61 81.292 476.874 81.328C477.138 81.364 477.318 81.388 477.414 81.4C477.522 81.4 477.63 81.4 477.738 81.4C479.106 81.4 480.108 81.058 480.744 80.374C481.14 79.918 481.344 79.36 481.356 78.7C481.356 77.38 480.6 76.534 479.088 76.162C478.644 76.054 478.194 76 477.738 76ZM490.246 72.4H496.042L501.406 78.826V72.4H505.366V85H501.406L494.206 76.378V85H490.246V72.4ZM518.325 72.4H522.285V85H518.325V72.4ZM532.055 72.4H537.527C538.967 72.4 540.137 72.754 541.037 73.462C541.901 74.182 542.339 75.178 542.351 76.45H538.391C538.379 76.222 538.259 76.078 538.031 76.018C537.995 76.006 537.965 76 537.941 76H531.641C531.413 76 531.269 76.108 531.209 76.324C531.209 76.372 531.203 76.414 531.191 76.45C531.191 76.678 531.305 76.822 531.533 76.882C531.569 76.894 531.605 76.9 531.641 76.9H537.509C539.081 76.9 540.311 77.296 541.199 78.088C541.979 78.784 542.369 79.738 542.369 80.95C542.369 82.858 541.439 84.106 539.579 84.694C538.931 84.898 538.247 85 537.527 85H532.091C530.639 85 529.469 84.646 528.581 83.938C527.705 83.23 527.261 82.234 527.249 80.95H531.227C531.227 81.154 531.323 81.292 531.515 81.364C531.575 81.388 531.623 81.4 531.659 81.4H537.959C538.187 81.4 538.331 81.292 538.391 81.076C538.403 81.028 538.409 80.986 538.409 80.95C538.409 80.722 538.301 80.578 538.085 80.518C538.037 80.506 537.995 80.5 537.959 80.5H532.091C530.531 80.5 529.307 80.11 528.419 79.33C527.627 78.622 527.231 77.662 527.231 76.45C527.231 74.542 528.167 73.294 530.039 72.706C530.675 72.502 531.347 72.4 532.055 72.4ZM562.888 72.4C564.76 72.4 566.368 72.796 567.712 73.588C569.284 74.548 570.184 75.952 570.412 77.8H566.344C565.984 76.792 565.042 76.204 563.518 76.036C563.302 76.012 563.092 76 562.888 76C561.604 76 560.638 76.318 559.99 76.954C559.522 77.41 559.288 77.992 559.288 78.7C559.288 79.072 559.348 79.408 559.468 79.708C559.6 79.996 559.756 80.236 559.936 80.428C560.116 80.608 560.338 80.764 560.602 80.896C560.866 81.028 561.1 81.124 561.304 81.184C561.52 81.244 561.76 81.292 562.024 81.328C562.288 81.364 562.468 81.388 562.564 81.4C562.672 81.4 562.78 81.4 562.888 81.4C564.244 81.4 565.24 81.058 565.876 80.374C566.092 80.146 566.254 79.888 566.362 79.6H570.412C570.136 82.024 568.75 83.65 566.254 84.478C565.21 84.826 564.088 85 562.888 85C560.8 85 559.078 84.532 557.722 83.596C556.138 82.492 555.34 80.86 555.328 78.7C555.328 75.94 556.6 74.062 559.144 73.066C560.296 72.622 561.544 72.4 562.888 72.4ZM575.343 72.4H579.303V76.9H581.355C582.531 76.9 583.647 77.104 584.703 77.512V72.4H588.663V85H584.703V81.94C583.983 80.98 582.867 80.5 581.355 80.5H579.303V85H575.343V72.4ZM599.199 72.4H605.319L610.899 85H606.561C605.841 84.052 604.731 83.572 603.231 83.56H598.587L597.957 85H593.619L599.199 72.4ZM602.259 75.262L600.189 79.96H603.231C603.615 79.96 603.993 79.984 604.365 80.032L602.259 75.262ZM615.85 72.4H623.77C625.294 72.4 626.554 72.76 627.55 73.48C628.63 74.272 629.17 75.412 629.17 76.9C629.158 78.7 628.396 79.978 626.884 80.734C628.072 81.886 628.834 83.308 629.17 85H625.048C624.376 83.212 622.804 82.078 620.332 81.598C620.152 81.562 619.978 81.532 619.81 81.508V85H615.85V72.4ZM619.81 76V77.8H624.31C624.694 77.8 624.97 77.626 625.138 77.278C625.186 77.158 625.21 77.038 625.21 76.918C625.222 76.522 625.048 76.24 624.688 76.072C624.568 76.024 624.448 76 624.328 76H619.81ZM641.685 72.4C643.557 72.4 645.165 72.796 646.509 73.588C648.081 74.548 648.981 75.952 649.209 77.8H645.141C644.781 76.792 643.839 76.204 642.315 76.036C642.099 76.012 641.889 76 641.685 76C640.401 76 639.435 76.318 638.787 76.954C638.319 77.41 638.085 77.992 638.085 78.7C638.085 79.072 638.145 79.408 638.265 79.708C638.397 79.996 638.553 80.236 638.733 80.428C638.913 80.608 639.135 80.764 639.399 80.896C639.663 81.028 639.897 81.124 640.101 81.184C640.317 81.244 640.557 81.292 640.821 81.328C641.085 81.364 641.265 81.388 641.361 81.4C641.469 81.4 641.577 81.4 641.685 81.4C642.945 81.388 643.899 81.088 644.547 80.5H641.757V78.7H649.263C649.263 81.472 647.991 83.35 645.447 84.334C644.307 84.778 643.053 85 641.685 85C639.597 85 637.875 84.532 636.519 83.596C634.935 82.492 634.137 80.86 634.125 78.7C634.125 75.94 635.397 74.062 637.941 73.066C639.093 72.622 640.341 72.4 641.685 72.4ZM654.194 72.4H667.514V76H658.154V76.9H667.514V80.5H658.154V81.4H667.514V85H654.194V72.4ZM672.47 72.4H680.03C681.974 72.4 683.624 72.82 684.98 73.66C686.708 74.764 687.578 76.444 687.59 78.7C687.59 81.472 686.324 83.35 683.792 84.334C682.652 84.778 681.398 85 680.03 85H672.47V72.4ZM676.43 76V81.4H680.03C681.386 81.4 682.382 81.058 683.018 80.374C683.426 79.918 683.63 79.36 683.63 78.7C683.63 77.368 682.88 76.522 681.38 76.162C680.936 76.054 680.486 76 680.03 76H676.43ZM706.128 72.4H712.248L717.828 85H713.49C712.77 84.052 711.66 83.572 710.16 83.56H705.516L704.886 85H700.548L706.128 72.4ZM709.188 75.262L707.118 79.96H710.16C710.544 79.96 710.922 79.984 711.294 80.032L709.188 75.262ZM736.459 85H734.911V76.018C734.911 75.502 734.917 75.088 734.929 74.776C734.941 74.464 734.959 74.14 734.983 73.804C734.791 73.996 734.617 74.158 734.461 74.29C734.305 74.422 734.107 74.59 733.867 74.794L732.499 75.91L731.671 74.848L735.145 72.148H736.459V85ZM748.83 77.116C750.15 77.116 751.2 77.446 751.98 78.106C752.76 78.766 753.15 79.696 753.15 80.896C753.15 82.228 752.724 83.278 751.872 84.046C751.032 84.802 749.856 85.18 748.344 85.18C747.684 85.18 747.06 85.12 746.472 85C745.896 84.88 745.41 84.706 745.014 84.478V82.984C745.446 83.248 745.968 83.458 746.58 83.614C747.204 83.758 747.798 83.83 748.362 83.83C749.31 83.83 750.072 83.608 750.648 83.164C751.236 82.708 751.53 82.006 751.53 81.058C751.53 80.218 751.272 79.576 750.756 79.132C750.24 78.676 749.424 78.448 748.308 78.448C747.972 78.448 747.588 78.478 747.156 78.538C746.724 78.598 746.376 78.658 746.112 78.718L745.32 78.214L745.806 72.148H752.25V73.588H747.156L746.85 77.314C747.054 77.278 747.33 77.236 747.678 77.188C748.026 77.14 748.41 77.116 748.83 77.116ZM761.2 71.968C762.088 71.968 762.76 72.322 763.216 73.03C763.672 73.726 763.9 74.71 763.9 75.982C763.9 77.254 763.678 78.25 763.234 78.97C762.802 79.678 762.124 80.032 761.2 80.032C760.348 80.032 759.694 79.678 759.238 78.97C758.794 78.25 758.572 77.254 758.572 75.982C758.572 74.71 758.782 73.726 759.202 73.03C759.622 72.322 760.288 71.968 761.2 71.968ZM769.426 72.148L762.298 85H760.912L768.04 72.148H769.426ZM761.2 73.084C760.744 73.084 760.408 73.33 760.192 73.822C759.988 74.302 759.886 75.022 759.886 75.982C759.886 76.942 759.988 77.668 760.192 78.16C760.408 78.652 760.744 78.898 761.2 78.898C762.124 78.898 762.586 77.926 762.586 75.982C762.586 74.05 762.124 73.084 761.2 73.084ZM769.066 77.116C769.942 77.116 770.608 77.47 771.064 78.178C771.532 78.874 771.766 79.858 771.766 81.13C771.766 82.402 771.544 83.398 771.1 84.118C770.668 84.826 769.99 85.18 769.066 85.18C768.214 85.18 767.56 84.826 767.104 84.118C766.66 83.398 766.438 82.402 766.438 81.13C766.438 79.858 766.648 78.874 767.068 78.178C767.488 77.47 768.154 77.116 769.066 77.116ZM769.066 78.25C768.61 78.25 768.274 78.49 768.058 78.97C767.854 79.45 767.752 80.17 767.752 81.13C767.752 82.102 767.854 82.834 768.058 83.326C768.274 83.806 768.61 84.046 769.066 84.046C769.99 84.046 770.452 83.074 770.452 81.13C770.452 79.21 769.99 78.25 769.066 78.25ZM784.889 72.4H798.209V76H788.849V76.9H798.209V80.5H788.849V85H784.889V72.4ZM803.165 72.4H816.485V76H807.125V76.9H816.485V80.5H807.125V81.4H816.485V85H803.165V72.4ZM821.441 72.4H834.761V76H825.401V76.9H834.761V80.5H825.401V81.4H834.761V85H821.441V72.4ZM842.452 83.11C842.296 83.746 842.068 84.442 841.768 85.198C841.48 85.966 841.192 86.674 840.904 87.322H839.734C839.902 86.638 840.07 85.888 840.238 85.072C840.418 84.256 840.55 83.536 840.634 82.912H842.326L842.452 83.11ZM856.053 72.4H860.391L864.693 82.138L866.853 77.278L864.693 72.4H869.013L873.333 82.138L877.635 72.4H881.973L876.393 85H870.273L869.013 82.156L867.753 85H861.633L856.053 72.4ZM886.897 72.4H890.857V76.9H892.909C894.085 76.9 895.201 77.104 896.257 77.512V72.4H900.217V85H896.257V81.94C895.537 80.98 894.421 80.5 892.909 80.5H890.857V85H886.897V72.4ZM905.172 72.4H909.132V85H905.172V72.4ZM921.639 72.4C923.511 72.4 925.119 72.796 926.463 73.588C928.035 74.548 928.935 75.952 929.163 77.8H925.095C924.735 76.792 923.793 76.204 922.269 76.036C922.053 76.012 921.843 76 921.639 76C920.355 76 919.389 76.318 918.741 76.954C918.273 77.41 918.039 77.992 918.039 78.7C918.039 79.072 918.099 79.408 918.219 79.708C918.351 79.996 918.507 80.236 918.687 80.428C918.867 80.608 919.089 80.764 919.353 80.896C919.617 81.028 919.851 81.124 920.055 81.184C920.271 81.244 920.511 81.292 920.775 81.328C921.039 81.364 921.219 81.388 921.315 81.4C921.423 81.4 921.531 81.4 921.639 81.4C922.995 81.4 923.991 81.058 924.627 80.374C924.843 80.146 925.005 79.888 925.113 79.6H929.163C928.887 82.024 927.501 83.65 925.005 84.478C923.961 84.826 922.839 85 921.639 85C919.551 85 917.829 84.532 916.473 83.596C914.889 82.492 914.091 80.86 914.079 78.7C914.079 75.94 915.351 74.062 917.895 73.066C919.047 72.622 920.295 72.4 921.639 72.4ZM934.095 72.4H938.055V76.9H940.107C941.283 76.9 942.399 77.104 943.455 77.512V72.4H947.415V85H943.455V81.94C942.735 80.98 941.619 80.5 940.107 80.5H938.055V85H934.095V72.4ZM960.38 72.4H964.34V85H960.38V72.4ZM974.111 72.4H979.583C981.023 72.4 982.193 72.754 983.093 73.462C983.957 74.182 984.395 75.178 984.407 76.45H980.447C980.435 76.222 980.315 76.078 980.087 76.018C980.051 76.006 980.021 76 979.997 76H973.697C973.469 76 973.325 76.108 973.265 76.324C973.265 76.372 973.259 76.414 973.247 76.45C973.247 76.678 973.361 76.822 973.589 76.882C973.625 76.894 973.661 76.9 973.697 76.9H979.565C981.137 76.9 982.367 77.296 983.255 78.088C984.035 78.784 984.425 79.738 984.425 80.95C984.425 82.858 983.495 84.106 981.635 84.694C980.987 84.898 980.303 85 979.583 85H974.147C972.695 85 971.525 84.646 970.637 83.938C969.761 83.23 969.317 82.234 969.305 80.95H973.283C973.283 81.154 973.379 81.292 973.571 81.364C973.631 81.388 973.679 81.4 973.715 81.4H980.015C980.243 81.4 980.387 81.292 980.447 81.076C980.459 81.028 980.465 80.986 980.465 80.95C980.465 80.722 980.357 80.578 980.141 80.518C980.093 80.506 980.051 80.5 980.015 80.5H974.147C972.587 80.5 971.363 80.11 970.475 79.33C969.683 78.622 969.287 77.662 969.287 76.45C969.287 74.542 970.223 73.294 972.095 72.706C972.731 72.502 973.403 72.4 974.111 72.4ZM1002.21 72.4H1007.68C1009.12 72.4 1010.29 72.754 1011.19 73.462C1012.05 74.182 1012.49 75.178 1012.5 76.45H1008.54C1008.53 76.222 1008.41 76.078 1008.18 76.018C1008.15 76.006 1008.12 76 1008.09 76H1001.79C1001.56 76 1001.42 76.108 1001.36 76.324C1001.36 76.372 1001.35 76.414 1001.34 76.45C1001.34 76.678 1001.46 76.822 1001.68 76.882C1001.72 76.894 1001.76 76.9 1001.79 76.9H1007.66C1009.23 76.9 1010.46 77.296 1011.35 78.088C1012.13 78.784 1012.52 79.738 1012.52 80.95C1012.52 82.858 1011.59 84.106 1009.73 84.694C1009.08 84.898 1008.4 85 1007.68 85H1002.24C1000.79 85 999.621 84.646 998.733 83.938C997.857 83.23 997.413 82.234 997.401 80.95H1001.38C1001.38 81.154 1001.47 81.292 1001.67 81.364C1001.73 81.388 1001.77 81.4 1001.81 81.4H1008.11C1008.34 81.4 1008.48 81.292 1008.54 81.076C1008.55 81.028 1008.56 80.986 1008.56 80.95C1008.56 80.722 1008.45 80.578 1008.24 80.518C1008.19 80.506 1008.15 80.5 1008.11 80.5H1002.24C1000.68 80.5 999.459 80.11 998.571 79.33C997.779 78.622 997.383 77.662 997.383 76.45C997.383 74.542 998.319 73.294 1000.19 72.706C1000.83 72.502 1001.5 72.4 1002.21 72.4ZM1017.47 72.4H1025.39C1026.91 72.4 1028.17 72.76 1029.17 73.48C1030.24 74.272 1030.78 75.412 1030.79 76.9C1030.79 79 1029.79 80.38 1027.78 81.04C1027.04 81.28 1026.24 81.4 1025.39 81.4H1021.43V85H1017.47V72.4ZM1021.43 76V77.8H1025.93C1026.31 77.8 1026.58 77.626 1026.74 77.278C1026.8 77.158 1026.83 77.038 1026.83 76.918C1026.84 76.522 1026.67 76.24 1026.31 76.072C1026.19 76.024 1026.07 76 1025.95 76H1021.43ZM1035.73 72.4H1039.69V81.4H1049.05V85H1035.73V72.4ZM1054 72.4H1057.96V85H1054V72.4ZM1062.91 72.4H1076.23V76H1071.55V85H1067.59V76H1062.91V72.4ZM1097.35 75.154C1097.35 76.018 1097.11 76.708 1096.63 77.224C1096.15 77.728 1095.5 78.064 1094.68 78.232V78.304C1095.72 78.424 1096.48 78.748 1096.99 79.276C1097.49 79.804 1097.74 80.494 1097.74 81.346C1097.74 82.09 1097.57 82.756 1097.22 83.344C1096.87 83.92 1096.33 84.37 1095.6 84.694C1094.88 85.018 1093.95 85.18 1092.81 85.18C1092.14 85.18 1091.52 85.126 1090.94 85.018C1090.36 84.922 1089.81 84.742 1089.28 84.478V83.002C1089.82 83.266 1090.41 83.476 1091.03 83.632C1091.65 83.776 1092.25 83.848 1092.83 83.848C1093.98 83.848 1094.81 83.626 1095.31 83.182C1095.83 82.726 1096.09 82.102 1096.09 81.31C1096.09 80.506 1095.77 79.93 1095.13 79.582C1094.51 79.222 1093.63 79.042 1092.49 79.042H1091.25V77.692H1092.51C1093.56 77.692 1094.36 77.47 1094.9 77.026C1095.45 76.582 1095.73 75.994 1095.73 75.262C1095.73 74.638 1095.52 74.158 1095.1 73.822C1094.68 73.474 1094.11 73.3 1093.39 73.3C1092.69 73.3 1092.1 73.402 1091.61 73.606C1091.11 73.81 1090.63 74.068 1090.15 74.38L1089.36 73.3C1089.81 72.94 1090.38 72.628 1091.05 72.364C1091.73 72.1 1092.51 71.968 1093.37 71.968C1094.71 71.968 1095.71 72.268 1096.36 72.868C1097.02 73.468 1097.35 74.23 1097.35 75.154ZM1111.02 72.4H1115.35L1119.66 82.138L1121.82 77.278L1119.66 72.4H1123.98L1128.3 82.138L1132.6 72.4H1136.94L1131.36 85H1125.24L1123.98 82.156L1122.72 85H1116.6L1111.02 72.4ZM1147.44 72.4H1153.56L1159.14 85H1154.8C1154.08 84.052 1152.97 83.572 1151.47 83.56H1146.83L1146.2 85H1141.86L1147.44 72.4ZM1150.5 75.262L1148.43 79.96H1151.47C1151.86 79.96 1152.23 79.984 1152.61 80.032L1150.5 75.262ZM1164.09 72.4H1169.15L1173.25 77.53L1177.34 72.4H1182.41L1175.23 81.4V85H1171.27V81.4L1164.09 72.4ZM1192.16 72.4H1197.64C1199.08 72.4 1200.25 72.754 1201.15 73.462C1202.01 74.182 1202.45 75.178 1202.46 76.45H1198.5C1198.49 76.222 1198.37 76.078 1198.14 76.018C1198.1 76.006 1198.07 76 1198.05 76H1191.75C1191.52 76 1191.38 76.108 1191.32 76.324C1191.32 76.372 1191.31 76.414 1191.3 76.45C1191.3 76.678 1191.41 76.822 1191.64 76.882C1191.68 76.894 1191.71 76.9 1191.75 76.9H1197.62C1199.19 76.9 1200.42 77.296 1201.31 78.088C1202.09 78.784 1202.48 79.738 1202.48 80.95C1202.48 82.858 1201.55 84.106 1199.69 84.694C1199.04 84.898 1198.36 85 1197.64 85H1192.2C1190.75 85 1189.58 84.646 1188.69 83.938C1187.81 83.23 1187.37 82.234 1187.36 80.95H1191.34C1191.34 81.154 1191.43 81.292 1191.62 81.364C1191.68 81.388 1191.73 81.4 1191.77 81.4H1198.07C1198.3 81.4 1198.44 81.292 1198.5 81.076C1198.51 81.028 1198.52 80.986 1198.52 80.95C1198.52 80.722 1198.41 80.578 1198.19 80.518C1198.15 80.506 1198.1 80.5 1198.07 80.5H1192.2C1190.64 80.5 1189.42 80.11 1188.53 79.33C1187.74 78.622 1187.34 77.662 1187.34 76.45C1187.34 74.542 1188.28 73.294 1190.15 72.706C1190.78 72.502 1191.46 72.4 1192.16 72.4ZM1208 84.028C1208 83.584 1208.11 83.272 1208.33 83.092C1208.54 82.912 1208.8 82.822 1209.1 82.822C1209.41 82.822 1209.68 82.912 1209.89 83.092C1210.12 83.272 1210.23 83.584 1210.23 84.028C1210.23 84.46 1210.12 84.772 1209.89 84.964C1209.68 85.156 1209.41 85.252 1209.1 85.252C1208.8 85.252 1208.54 85.156 1208.33 84.964C1208.11 84.772 1208 84.46 1208 84.028Z" fill="white"/>
</svg>
