<svg width="624" height="88" viewBox="0 0 624 88" fill="none" xmlns="http://www.w3.org/2000/svg">
<path d="M263 5.61328H295.2L325 41.3133V5.61328H347V75.6133H325L285 27.7133V75.6133H263V5.61328ZM374.492 5.61328H448.492V25.6133H396.492V30.6133H448.492V50.6133H396.492V55.6133H448.492V75.6133H374.492V5.61328ZM476.023 5.61328H500.123L524.023 59.7133L536.023 32.7133L524.023 5.61328H548.023L572.023 59.7133L595.923 5.61328H620.023L589.023 75.6133H555.023L548.023 59.8133L541.023 75.6133H507.023L476.023 5.61328Z" fill="#1E2832"/>
<path d="M46 5.61328C56.4 5.61328 65.3333 7.81328 72.8 12.2133C82.9333 18.3466 88.0333 27.8133 88.1 40.6133C88.1 56.0133 81.0333 66.4466 66.9 71.9133C60.5667 74.3799 53.6 75.6133 46 75.6133C34.4 75.6133 24.8333 73.0133 17.3 67.8133C8.5 61.6799 4.06667 52.6133 4 40.6133C4 25.2799 11.0667 14.8466 25.2 9.31328C31.6 6.84661 38.5333 5.61328 46 5.61328ZM46 25.6133C38.8667 25.6133 33.5 27.3799 29.9 30.9133C27.3 33.4466 26 36.6799 26 40.6133C26 42.6799 26.3333 44.5466 27 46.2133C27.7333 47.8133 28.6 49.1466 29.6 50.2133C30.6 51.2133 31.8333 52.0799 33.3 52.8133C34.7667 53.5466 36.0667 54.0799 37.2 54.4133C38.4 54.7466 39.7333 55.0133 41.2 55.2133C42.6667 55.4133 43.6667 55.5466 44.2 55.6133C44.8 55.6133 45.4 55.6133 46 55.6133C53.6 55.6133 59.1667 53.7133 62.7 49.9133C64.9 47.3799 66.0333 44.2799 66.1 40.6133C66.1 33.2799 61.9 28.5799 53.5 26.5133C51.0333 25.9133 48.5333 25.6133 46 25.6133ZM115.492 5.61328H189.492V25.6133H137.492V30.6133H189.492V50.6133H137.492V75.6133H115.492V5.61328Z" fill="#1E2832"/>
</svg>
