<svg width="175" height="705" viewBox="0 0 175 705" fill="none" xmlns="http://www.w3.org/2000/svg">
<path d="M1.75 32C10 23 24 17 36.25 17L172.25 17L-8.70949e-06 190.25L-8.76413e-06 191.5L138.75 191.5C151 191.5 164.75 197.5 173.25 206.5L173.75 207L175 207L175 174.5L173.75 174.5L173.25 175C164.75 184 151 190 138.75 190L27 190L175 41L175 -5.48892e-07L173.75 -6.03531e-07L173.75 15.5L36.25 15.5C24 15.5 10.25 9.49999 1.75 0.499992L1.25 -8.14375e-06L-3.93403e-07 -8.19839e-06L-1.81402e-06 32.5L1.25 32.5L1.75 32ZM86.25 407.348C86.25 419.598 79 431.348 68 436.598L64.75 438.098L64.75 439.348L109 439.348L109 438.098L105.75 436.598C94.75 431.348 87.5 419.598 87.5 407.348L87.5 306.598L173.75 306.598L173.75 408.848C173.75 424.348 166 441.348 154 451.348L150 454.848L150 456.098L175 456.098L175 273.848L173.75 273.848L173.75 286.348L1.24999 286.348L1.24999 273.848L-1.23637e-05 273.848L-1.43525e-05 319.348L1.24999 319.348L1.24999 306.598L86.25 306.598L86.25 407.348ZM151.5 525.299C164.75 536.799 173.75 556.049 173.75 573.549L173.75 604.299L1.24997 604.299L1.24997 591.799L-2.62618e-05 591.799L-2.82506e-05 637.299L1.24997 637.299L1.24997 624.549L173.75 624.549L173.75 653.549C173.75 671.049 165 690.299 151.5 701.799L150 703.049L150 704.299L175 704.299L175 522.799L150 522.799L150 524.049L151.5 525.299Z" fill="#1A242E"/>
</svg>
