<svg width="660" height="15" viewBox="0 0 660 15" fill="none" xmlns="http://www.w3.org/2000/svg">
<path d="M9.36 14H0.864V12.686L4.23 9.284C4.878 8.636 5.424 8.06 5.868 7.556C6.312 7.052 6.648 6.56 6.876 6.08C7.104 5.588 7.218 5.054 7.218 4.478C7.218 3.77 7.008 3.236 6.588 2.876C6.168 2.504 5.622 2.318 4.95 2.318C4.326 2.318 3.774 2.426 3.294 2.642C2.826 2.858 2.346 3.158 1.854 3.542L1.008 2.48C1.512 2.06 2.088 1.706 2.736 1.418C3.396 1.118 4.134 0.967999 4.95 0.967999C6.15 0.967999 7.098 1.274 7.794 1.886C8.49 2.486 8.838 3.32 8.838 4.388C8.838 5.06 8.7 5.69 8.424 6.278C8.148 6.866 7.764 7.448 7.272 8.024C6.78 8.588 6.204 9.194 5.544 9.842L2.862 12.488V12.56H9.36V14ZM17.3208 0.967999C18.2088 0.967999 18.8808 1.322 19.3368 2.03C19.7928 2.726 20.0208 3.71 20.0208 4.982C20.0208 6.254 19.7988 7.25 19.3548 7.97C18.9228 8.678 18.2448 9.032 17.3208 9.032C16.4688 9.032 15.8148 8.678 15.3588 7.97C14.9148 7.25 14.6928 6.254 14.6928 4.982C14.6928 3.71 14.9028 2.726 15.3228 2.03C15.7428 1.322 16.4088 0.967999 17.3208 0.967999ZM25.5468 1.148L18.4188 14H17.0328L24.1608 1.148H25.5468ZM17.3208 2.084C16.8648 2.084 16.5288 2.33 16.3128 2.822C16.1088 3.302 16.0068 4.022 16.0068 4.982C16.0068 5.942 16.1088 6.668 16.3128 7.16C16.5288 7.652 16.8648 7.898 17.3208 7.898C18.2448 7.898 18.7068 6.926 18.7068 4.982C18.7068 3.05 18.2448 2.084 17.3208 2.084ZM25.1868 6.116C26.0628 6.116 26.7288 6.47 27.1848 7.178C27.6528 7.874 27.8868 8.858 27.8868 10.13C27.8868 11.402 27.6648 12.398 27.2208 13.118C26.7888 13.826 26.1108 14.18 25.1868 14.18C24.3348 14.18 23.6808 13.826 23.2248 13.118C22.7808 12.398 22.5588 11.402 22.5588 10.13C22.5588 8.858 22.7688 7.874 23.1888 7.178C23.6088 6.47 24.2748 6.116 25.1868 6.116ZM25.1868 7.25C24.7308 7.25 24.3948 7.49 24.1788 7.97C23.9748 8.45 23.8728 9.17 23.8728 10.13C23.8728 11.102 23.9748 11.834 24.1788 12.326C24.3948 12.806 24.7308 13.046 25.1868 13.046C26.1108 13.046 26.5728 12.074 26.5728 10.13C26.5728 8.21 26.1108 7.25 25.1868 7.25ZM41.0098 1.4H48.9298C50.4538 1.4 51.7138 1.76 52.7098 2.48C53.7898 3.272 54.3298 4.412 54.3298 5.9C54.3178 7.7 53.5558 8.978 52.0438 9.734C53.2318 10.886 53.9938 12.308 54.3298 14H50.2078C49.5358 12.212 47.9638 11.078 45.4918 10.598C45.3118 10.562 45.1378 10.532 44.9698 10.508V14H41.0098V1.4ZM44.9698 5V6.8H49.4698C49.8538 6.8 50.1298 6.626 50.2978 6.278C50.3458 6.158 50.3698 6.038 50.3698 5.918C50.3818 5.522 50.2078 5.24 49.8478 5.072C49.7278 5.024 49.6078 5 49.4878 5H44.9698ZM59.2854 1.4H72.6054V5H63.2454V5.9H72.6054V9.5H63.2454V10.4H72.6054V14H59.2854V1.4ZM77.561 1.4H85.121C87.065 1.4 88.715 1.82 90.071 2.66C91.799 3.764 92.669 5.444 92.681 7.7C92.681 10.472 91.415 12.35 88.883 13.334C87.743 13.778 86.489 14 85.121 14H77.561V1.4ZM81.521 5V10.4H85.121C86.477 10.4 87.473 10.058 88.109 9.374C88.517 8.918 88.721 8.36 88.721 7.7C88.721 6.368 87.971 5.522 86.471 5.162C86.027 5.054 85.577 5 85.121 5H81.521ZM97.6296 1.4H101.59V14H97.6296V1.4ZM111.36 1.4H116.832C118.272 1.4 119.442 1.754 120.342 2.462C121.206 3.182 121.644 4.178 121.656 5.45H117.696C117.684 5.222 117.564 5.078 117.336 5.018C117.3 5.006 117.27 5 117.246 5H110.946C110.718 5 110.574 5.108 110.514 5.324C110.514 5.372 110.508 5.414 110.496 5.45C110.496 5.678 110.61 5.822 110.838 5.882C110.874 5.894 110.91 5.9 110.946 5.9H116.814C118.386 5.9 119.616 6.296 120.504 7.088C121.284 7.784 121.674 8.738 121.674 9.95C121.674 11.858 120.744 13.106 118.884 13.694C118.236 13.898 117.552 14 116.832 14H111.396C109.944 14 108.774 13.646 107.886 12.938C107.01 12.23 106.566 11.234 106.554 9.95H110.532C110.532 10.154 110.628 10.292 110.82 10.364C110.88 10.388 110.928 10.4 110.964 10.4H117.264C117.492 10.4 117.636 10.292 117.696 10.076C117.708 10.028 117.714 9.986 117.714 9.95C117.714 9.722 117.606 9.578 117.39 9.518C117.342 9.506 117.3 9.5 117.264 9.5H111.396C109.836 9.5 108.612 9.11 107.724 8.33C106.932 7.622 106.536 6.662 106.536 5.45C106.536 3.542 107.472 2.294 109.344 1.706C109.98 1.502 110.652 1.4 111.36 1.4ZM126.622 1.4H139.942V5H135.262V14H131.302V5H126.622V1.4ZM144.898 1.4H152.818C154.342 1.4 155.602 1.76 156.598 2.48C157.678 3.272 158.218 4.412 158.218 5.9C158.206 7.7 157.444 8.978 155.932 9.734C157.12 10.886 157.882 12.308 158.218 14H154.096C153.424 12.212 151.852 11.078 149.38 10.598C149.2 10.562 149.026 10.532 148.858 10.508V14H144.898V1.4ZM148.858 5V6.8H153.358C153.742 6.8 154.018 6.626 154.186 6.278C154.234 6.158 154.258 6.038 154.258 5.918C154.27 5.522 154.096 5.24 153.736 5.072C153.616 5.024 153.496 5 153.376 5H148.858ZM163.174 1.4H167.134V14H163.174V1.4ZM172.08 1.4H181.746C182.562 1.424 183.312 1.658 183.996 2.102C184.92 2.714 185.388 3.602 185.4 4.766C185.4 5.21 185.346 5.618 185.238 5.99C185.142 6.35 185.016 6.632 184.86 6.836C184.716 7.04 184.566 7.214 184.41 7.358C184.266 7.49 184.14 7.58 184.032 7.628L183.888 7.7C183.888 7.7 184.02 7.784 184.284 7.952C185.016 8.54 185.388 9.428 185.4 10.616C185.4 12.152 184.632 13.19 183.096 13.73C182.556 13.91 182.064 14 181.62 14H172.08V1.4ZM176.04 5V5.9H180.99C181.17 5.888 181.302 5.804 181.386 5.648C181.446 5.504 181.446 5.366 181.386 5.234C181.29 5.09 181.158 5.012 180.99 5H176.04ZM176.04 9.5V10.4C176.064 10.4 177.06 10.4 179.028 10.4C179.796 10.4 180.45 10.4 180.99 10.4C181.134 10.388 181.254 10.328 181.35 10.22C181.458 10.04 181.452 9.854 181.332 9.662C181.236 9.566 181.122 9.512 180.99 9.5H180.972H180.954H180.936H180.918H180.9H180.882H180.864H180.846H180.828H180.81H180.792H180.774H180.756H180.738H180.72H180.702H180.684H180.666H180.648H180.63H180.612H180.594H180.576H180.558H180.54H180.522H180.504H180.486H180.468H180.45H180.432H180.414H180.396H180.378H180.36H180.342H180.324H180.306H180.288H180.27H180.252H180.234H180.216H180.198H180.18H180.162H180.144H180.126H180.108H180.09H180.072H180.054H180.036H180.018H180H179.982H179.964H179.946H179.928H179.91H179.892H179.874H179.856H179.838H179.82H179.802H179.784H179.766H179.748H179.73H179.712H179.694H179.676H179.658H179.64H179.622H179.604H179.586H179.568H179.55H179.532H179.514H179.496H179.478H179.46H179.442H179.424H179.406H179.388H179.37H179.352H179.334H179.316H179.298H179.28H179.262H179.244H179.226H179.208H179.19H179.172H179.154H179.136H179.118H179.1H179.082H179.064H179.046H179.028H179.01H178.992H178.974H178.956H178.938H178.92H178.902H178.884H178.866H178.848H178.83H178.812H178.794H178.776H178.758H178.74H178.722H178.704H178.686H178.668H178.65H178.632H178.614H178.596H178.578H178.56H178.542H178.524H178.506H178.488H178.47H178.452H178.434H178.416H178.398H178.38H178.362H178.344H178.326H178.308H178.29H178.272H178.254H178.236H178.218H178.2H178.182H178.164H178.146H178.128H178.11H178.092H178.074H178.056H178.038H178.02H178.002H177.984H177.966H177.948H177.93H177.912H177.894H177.876H177.858H177.84H177.822H177.804H177.786H177.768H177.75H177.732H177.714H177.696H177.678H177.66H177.642H177.624H177.606H177.588H177.57H177.552H177.534H177.516H177.498H177.48H177.462H177.444H177.426H177.408H177.39H177.372H177.354H177.336H177.318H177.3H177.282H177.264H177.246H177.228H177.21H177.192H177.174H177.156H177.138H177.12H177.102H177.084H177.066H177.048H177.03H177.012H176.994H176.976H176.958H176.94H176.922H176.904H176.886H176.868H176.85H176.832H176.814H176.796H176.778H176.76H176.742H176.724H176.706H176.688H176.67H176.652H176.634H176.616H176.598H176.58H176.562H176.544H176.526H176.508H176.49H176.472H176.454H176.436H176.418H176.4H176.382H176.364H176.346H176.328H176.31H176.292H176.274H176.256H176.238H176.22H176.202H176.184H176.166H176.148H176.13H176.112H176.094H176.076H176.058H176.04ZM190.338 1.4H194.298V7.7C194.298 9.044 195.048 9.89 196.548 10.238C196.98 10.346 197.43 10.4 197.898 10.4C199.266 10.4 200.268 10.058 200.904 9.374C201.3 8.93 201.504 8.372 201.516 7.7L201.498 1.4H205.458L205.476 7.7C205.476 10.472 204.204 12.356 201.66 13.352C200.52 13.784 199.266 14 197.898 14C195.81 14 194.088 13.538 192.732 12.614C191.148 11.51 190.35 9.872 190.338 7.7V1.4ZM210.407 1.4H223.727V5H219.047V14H215.087V5H210.407V1.4ZM228.682 1.4H242.002V5H232.642V5.9H242.002V9.5H232.642V10.4H242.002V14H228.682V1.4ZM246.958 1.4H254.518C256.462 1.4 258.112 1.82 259.468 2.66C261.196 3.764 262.066 5.444 262.078 7.7C262.078 10.472 260.812 12.35 258.28 13.334C257.14 13.778 255.886 14 254.518 14H246.958V1.4ZM250.918 5V10.4H254.518C255.874 10.4 256.87 10.058 257.506 9.374C257.914 8.918 258.118 8.36 258.118 7.7C258.118 6.368 257.368 5.522 255.868 5.162C255.424 5.054 254.974 5 254.518 5H250.918ZM275.036 1.4H288.356V5H283.676V14H279.716V5H275.036V1.4ZM300.872 1.4C302.744 1.4 304.352 1.796 305.696 2.588C307.52 3.692 308.438 5.396 308.45 7.7C308.45 10.472 307.178 12.35 304.634 13.334C303.494 13.778 302.24 14 300.872 14C298.784 14 297.062 13.532 295.706 12.596C294.122 11.492 293.324 9.86 293.312 7.7C293.312 4.94 294.584 3.062 297.128 2.066C298.28 1.622 299.528 1.4 300.872 1.4ZM300.872 5C299.588 5 298.622 5.318 297.974 5.954C297.506 6.41 297.272 6.992 297.272 7.7C297.272 8.072 297.332 8.408 297.452 8.708C297.584 8.996 297.74 9.236 297.92 9.428C298.1 9.608 298.322 9.764 298.586 9.896C298.85 10.028 299.084 10.124 299.288 10.184C299.504 10.244 299.744 10.292 300.008 10.328C300.272 10.364 300.452 10.388 300.548 10.4C300.656 10.4 300.764 10.4 300.872 10.4C302.24 10.4 303.242 10.058 303.878 9.374C304.274 8.918 304.478 8.36 304.49 7.7C304.49 6.38 303.734 5.534 302.222 5.162C301.778 5.054 301.328 5 300.872 5ZM326.971 1.4H333.091L338.671 14H334.333C333.613 13.052 332.503 12.572 331.003 12.56H326.359L325.729 14H321.391L326.971 1.4ZM330.031 4.262L327.961 8.96H331.003C331.387 8.96 331.765 8.984 332.137 9.032L330.031 4.262ZM343.621 1.4H347.581V10.4H356.941V14H343.621V1.4ZM361.897 1.4H365.857V10.4H375.217V14H361.897V1.4ZM388.183 1.4H401.503V5H392.143V5.9H401.503V9.5H392.143V10.4H401.503V14H388.183V1.4ZM406.458 1.4H411.516L414.018 4.532L416.52 1.4H421.578L416.556 7.7L421.578 14H416.52L414.018 10.868L411.516 14H406.458L411.48 7.7L406.458 1.4ZM426.509 1.4H430.469V14H426.509V1.4ZM440.24 1.4H445.712C447.152 1.4 448.322 1.754 449.222 2.462C450.086 3.182 450.524 4.178 450.536 5.45H446.576C446.564 5.222 446.444 5.078 446.216 5.018C446.18 5.006 446.15 5 446.126 5H439.826C439.598 5 439.454 5.108 439.394 5.324C439.394 5.372 439.388 5.414 439.376 5.45C439.376 5.678 439.49 5.822 439.718 5.882C439.754 5.894 439.79 5.9 439.826 5.9H445.694C447.266 5.9 448.496 6.296 449.384 7.088C450.164 7.784 450.554 8.738 450.554 9.95C450.554 11.858 449.624 13.106 447.764 13.694C447.116 13.898 446.432 14 445.712 14H440.276C438.824 14 437.654 13.646 436.766 12.938C435.89 12.23 435.446 11.234 435.434 9.95H439.412C439.412 10.154 439.508 10.292 439.7 10.364C439.76 10.388 439.808 10.4 439.844 10.4H446.144C446.372 10.4 446.516 10.292 446.576 10.076C446.588 10.028 446.594 9.986 446.594 9.95C446.594 9.722 446.486 9.578 446.27 9.518C446.222 9.506 446.18 9.5 446.144 9.5H440.276C438.716 9.5 437.492 9.11 436.604 8.33C435.812 7.622 435.416 6.662 435.416 5.45C435.416 3.542 436.352 2.294 438.224 1.706C438.86 1.502 439.532 1.4 440.24 1.4ZM455.502 1.4H468.822V5H464.142V14H460.182V5H455.502V1.4ZM473.778 1.4H477.738V14H473.778V1.4ZM482.684 1.4H488.48L493.844 7.826V1.4H497.804V14H493.844L486.644 5.378V14H482.684V1.4ZM510.313 1.4C512.185 1.4 513.793 1.796 515.137 2.588C516.709 3.548 517.609 4.952 517.837 6.8H513.769C513.409 5.792 512.467 5.204 510.943 5.036C510.727 5.012 510.517 5 510.313 5C509.029 5 508.063 5.318 507.415 5.954C506.947 6.41 506.713 6.992 506.713 7.7C506.713 8.072 506.773 8.408 506.893 8.708C507.025 8.996 507.181 9.236 507.361 9.428C507.541 9.608 507.763 9.764 508.027 9.896C508.291 10.028 508.525 10.124 508.729 10.184C508.945 10.244 509.185 10.292 509.449 10.328C509.713 10.364 509.893 10.388 509.989 10.4C510.097 10.4 510.205 10.4 510.313 10.4C511.573 10.388 512.527 10.088 513.175 9.5H510.385V7.7H517.891C517.891 10.472 516.619 12.35 514.075 13.334C512.935 13.778 511.681 14 510.313 14C508.225 14 506.503 13.532 505.147 12.596C503.563 11.492 502.765 9.86 502.753 7.7C502.753 4.94 504.025 3.062 506.569 2.066C507.721 1.622 508.969 1.4 510.313 1.4ZM530.831 1.4H534.791V5.9H536.843C538.019 5.9 539.135 6.104 540.191 6.512V1.4H544.151V14H540.191V10.94C539.471 9.98 538.355 9.5 536.843 9.5H534.791V14H530.831V1.4ZM556.667 1.4C558.539 1.4 560.147 1.796 561.491 2.588C563.315 3.692 564.233 5.396 564.245 7.7C564.245 10.472 562.973 12.35 560.429 13.334C559.289 13.778 558.035 14 556.667 14C554.579 14 552.857 13.532 551.501 12.596C549.917 11.492 549.119 9.86 549.107 7.7C549.107 4.94 550.379 3.062 552.923 2.066C554.075 1.622 555.323 1.4 556.667 1.4ZM556.667 5C555.383 5 554.417 5.318 553.769 5.954C553.301 6.41 553.067 6.992 553.067 7.7C553.067 8.072 553.127 8.408 553.247 8.708C553.379 8.996 553.535 9.236 553.715 9.428C553.895 9.608 554.117 9.764 554.381 9.896C554.645 10.028 554.879 10.124 555.083 10.184C555.299 10.244 555.539 10.292 555.803 10.328C556.067 10.364 556.247 10.388 556.343 10.4C556.451 10.4 556.559 10.4 556.667 10.4C558.035 10.4 559.037 10.058 559.673 9.374C560.069 8.918 560.273 8.36 560.285 7.7C560.285 6.38 559.529 5.534 558.017 5.162C557.573 5.054 557.123 5 556.667 5ZM569.175 1.4H573.135V10.4H582.495V14H569.175V1.4ZM587.451 1.4H595.011C596.955 1.4 598.605 1.82 599.961 2.66C601.689 3.764 602.559 5.444 602.571 7.7C602.571 10.472 601.305 12.35 598.773 13.334C597.633 13.778 596.379 14 595.011 14H587.451V1.4ZM591.411 5V10.4H595.011C596.367 10.4 597.363 10.058 597.999 9.374C598.407 8.918 598.611 8.36 598.611 7.7C598.611 6.368 597.861 5.522 596.361 5.162C595.917 5.054 595.467 5 595.011 5H591.411ZM607.52 1.4H620.84V5H611.48V5.9H620.84V9.5H611.48V10.4H620.84V14H607.52V1.4ZM625.795 1.4H633.715C635.239 1.4 636.499 1.76 637.495 2.48C638.575 3.272 639.115 4.412 639.115 5.9C639.103 7.7 638.341 8.978 636.829 9.734C638.017 10.886 638.779 12.308 639.115 14H634.993C634.321 12.212 632.749 11.078 630.277 10.598C630.097 10.562 629.923 10.532 629.755 10.508V14H625.795V1.4ZM629.755 5V6.8H634.255C634.639 6.8 634.915 6.626 635.083 6.278C635.131 6.158 635.155 6.038 635.155 5.918C635.167 5.522 634.993 5.24 634.633 5.072C634.513 5.024 634.393 5 634.273 5H629.755ZM648.895 1.4H654.367C655.807 1.4 656.977 1.754 657.877 2.462C658.741 3.182 659.179 4.178 659.191 5.45H655.231C655.219 5.222 655.099 5.078 654.871 5.018C654.835 5.006 654.805 5 654.781 5H648.481C648.253 5 648.109 5.108 648.049 5.324C648.049 5.372 648.043 5.414 648.031 5.45C648.031 5.678 648.145 5.822 648.373 5.882C648.409 5.894 648.445 5.9 648.481 5.9H654.349C655.921 5.9 657.151 6.296 658.039 7.088C658.819 7.784 659.209 8.738 659.209 9.95C659.209 11.858 658.279 13.106 656.419 13.694C655.771 13.898 655.087 14 654.367 14H648.931C647.479 14 646.309 13.646 645.421 12.938C644.545 12.23 644.101 11.234 644.089 9.95H648.067C648.067 10.154 648.163 10.292 648.355 10.364C648.415 10.388 648.463 10.4 648.499 10.4H654.799C655.027 10.4 655.171 10.292 655.231 10.076C655.243 10.028 655.249 9.986 655.249 9.95C655.249 9.722 655.141 9.578 654.925 9.518C654.877 9.506 654.835 9.5 654.799 9.5H648.931C647.371 9.5 646.147 9.11 645.259 8.33C644.467 7.622 644.071 6.662 644.071 5.45C644.071 3.542 645.007 2.294 646.879 1.706C647.515 1.502 648.187 1.4 648.895 1.4Z" fill="white"/>
</svg>
