<svg width="338" height="16" viewBox="0 0 338 16" fill="none" xmlns="http://www.w3.org/2000/svg">
<path d="M8.874 4.154C8.874 5.018 8.634 5.708 8.154 6.224C7.674 6.728 7.026 7.064 6.21 7.232V7.304C7.242 7.424 8.01 7.748 8.514 8.276C9.018 8.804 9.27 9.494 9.27 10.346C9.27 11.09 9.096 11.756 8.748 12.344C8.4 12.92 7.86 13.37 7.128 13.694C6.408 14.018 5.478 14.18 4.338 14.18C3.666 14.18 3.042 14.126 2.466 14.018C1.89 13.922 1.338 13.742 0.81 13.478V12.002C1.35 12.266 1.932 12.476 2.556 12.632C3.18 12.776 3.78 12.848 4.356 12.848C5.508 12.848 6.336 12.626 6.84 12.182C7.356 11.726 7.614 11.102 7.614 10.31C7.614 9.506 7.296 8.93 6.66 8.582C6.036 8.222 5.154 8.042 4.014 8.042H2.772V6.692H4.032C5.088 6.692 5.886 6.47 6.426 6.026C6.978 5.582 7.254 4.994 7.254 4.262C7.254 3.638 7.044 3.158 6.624 2.822C6.204 2.474 5.634 2.3 4.914 2.3C4.218 2.3 3.624 2.402 3.132 2.606C2.64 2.81 2.154 3.068 1.674 3.38L0.882 2.3C1.338 1.94 1.902 1.628 2.574 1.364C3.258 1.1 4.032 0.967999 4.896 0.967999C6.24 0.967999 7.236 1.268 7.884 1.868C8.544 2.468 8.874 3.23 8.874 4.154ZM17.3208 0.967999C18.2088 0.967999 18.8808 1.322 19.3368 2.03C19.7928 2.726 20.0208 3.71 20.0208 4.982C20.0208 6.254 19.7988 7.25 19.3548 7.97C18.9228 8.678 18.2448 9.032 17.3208 9.032C16.4688 9.032 15.8148 8.678 15.3588 7.97C14.9148 7.25 14.6928 6.254 14.6928 4.982C14.6928 3.71 14.9028 2.726 15.3228 2.03C15.7428 1.322 16.4088 0.967999 17.3208 0.967999ZM25.5468 1.148L18.4188 14H17.0328L24.1608 1.148H25.5468ZM17.3208 2.084C16.8648 2.084 16.5288 2.33 16.3128 2.822C16.1088 3.302 16.0068 4.022 16.0068 4.982C16.0068 5.942 16.1088 6.668 16.3128 7.16C16.5288 7.652 16.8648 7.898 17.3208 7.898C18.2448 7.898 18.7068 6.926 18.7068 4.982C18.7068 3.05 18.2448 2.084 17.3208 2.084ZM25.1868 6.116C26.0628 6.116 26.7288 6.47 27.1848 7.178C27.6528 7.874 27.8868 8.858 27.8868 10.13C27.8868 11.402 27.6648 12.398 27.2208 13.118C26.7888 13.826 26.1108 14.18 25.1868 14.18C24.3348 14.18 23.6808 13.826 23.2248 13.118C22.7808 12.398 22.5588 11.402 22.5588 10.13C22.5588 8.858 22.7688 7.874 23.1888 7.178C23.6088 6.47 24.2748 6.116 25.1868 6.116ZM25.1868 7.25C24.7308 7.25 24.3948 7.49 24.1788 7.97C23.9748 8.45 23.8728 9.17 23.8728 10.13C23.8728 11.102 23.9748 11.834 24.1788 12.326C24.3948 12.806 24.7308 13.046 25.1868 13.046C26.1108 13.046 26.5728 12.074 26.5728 10.13C26.5728 8.21 26.1108 7.25 25.1868 7.25ZM46.5898 1.4H52.7098L58.2898 14H53.9518C53.2318 13.052 52.1218 12.572 50.6218 12.56H45.9778L45.3478 14H41.0098L46.5898 1.4ZM49.6498 4.262L47.5798 8.96H50.6218C51.0058 8.96 51.3838 8.984 51.7558 9.032L49.6498 4.262ZM63.2405 1.4H70.8005C72.7445 1.4 74.3945 1.82 75.7505 2.66C77.4785 3.764 78.3485 5.444 78.3605 7.7C78.3605 10.472 77.0945 12.35 74.5625 13.334C73.4225 13.778 72.1685 14 70.8005 14H63.2405V1.4ZM67.2005 5V10.4H70.8005C72.1565 10.4 73.1525 10.058 73.7885 9.374C74.1965 8.918 74.4005 8.36 74.4005 7.7C74.4005 6.368 73.6505 5.522 72.1505 5.162C71.7065 5.054 71.2565 5 70.8005 5H67.2005ZM83.3091 1.4H90.8691C92.8131 1.4 94.4631 1.82 95.8191 2.66C97.5471 3.764 98.4171 5.444 98.4291 7.7C98.4291 10.472 97.1631 12.35 94.6311 13.334C93.4911 13.778 92.2371 14 90.8691 14H83.3091V1.4ZM87.2691 5V10.4H90.8691C92.2251 10.4 93.2211 10.058 93.8571 9.374C94.2651 8.918 94.4691 8.36 94.4691 7.7C94.4691 6.368 93.7191 5.522 92.2191 5.162C91.7751 5.054 91.3251 5 90.8691 5H87.2691ZM103.378 1.4H116.698V5H107.338V5.9H116.698V9.5H107.338V10.4H116.698V14H103.378V1.4ZM121.653 1.4H129.213C131.157 1.4 132.807 1.82 134.163 2.66C135.891 3.764 136.761 5.444 136.773 7.7C136.773 10.472 135.507 12.35 132.975 13.334C131.835 13.778 130.581 14 129.213 14H121.653V1.4ZM125.613 5V10.4H129.213C130.569 10.4 131.565 10.058 132.201 9.374C132.609 8.918 132.813 8.36 132.813 7.7C132.813 6.368 132.063 5.522 130.563 5.162C130.119 5.054 129.669 5 129.213 5H125.613ZM149.732 1.4H163.052V5H158.372V14H154.412V5H149.732V1.4ZM175.568 1.4C177.44 1.4 179.048 1.796 180.392 2.588C182.216 3.692 183.134 5.396 183.146 7.7C183.146 10.472 181.874 12.35 179.33 13.334C178.19 13.778 176.936 14 175.568 14C173.48 14 171.758 13.532 170.402 12.596C168.818 11.492 168.02 9.86 168.008 7.7C168.008 4.94 169.28 3.062 171.824 2.066C172.976 1.622 174.224 1.4 175.568 1.4ZM175.568 5C174.284 5 173.318 5.318 172.67 5.954C172.202 6.41 171.968 6.992 171.968 7.7C171.968 8.072 172.028 8.408 172.148 8.708C172.28 8.996 172.436 9.236 172.616 9.428C172.796 9.608 173.018 9.764 173.282 9.896C173.546 10.028 173.78 10.124 173.984 10.184C174.2 10.244 174.44 10.292 174.704 10.328C174.968 10.364 175.148 10.388 175.244 10.4C175.352 10.4 175.46 10.4 175.568 10.4C176.936 10.4 177.938 10.058 178.574 9.374C178.97 8.918 179.174 8.36 179.186 7.7C179.186 6.38 178.43 5.534 176.918 5.162C176.474 5.054 176.024 5 175.568 5ZM196.086 1.4H200.046V10.4H209.406V14H196.086V1.4ZM214.362 1.4H218.322V14H214.362V1.4ZM230.828 1.4C232.7 1.4 234.308 1.796 235.652 2.588C237.476 3.692 238.394 5.396 238.406 7.7C238.394 9.68 237.728 11.216 236.408 12.308C237.284 13.064 237.986 14.108 238.514 15.44H234.176C233.576 14.648 232.712 14.18 231.584 14.036C231.356 14.012 231.104 14 230.828 14C228.8 14 227.108 13.556 225.752 12.668C224.108 11.564 223.28 9.908 223.268 7.7C223.268 4.94 224.54 3.062 227.084 2.066C228.236 1.622 229.484 1.4 230.828 1.4ZM230.828 5C229.544 5 228.578 5.318 227.93 5.954C227.462 6.41 227.228 6.992 227.228 7.7C227.228 9.032 227.978 9.878 229.478 10.238C229.91 10.346 230.36 10.4 230.828 10.4C232.196 10.4 233.198 10.058 233.834 9.374C234.23 8.918 234.434 8.36 234.446 7.7C234.446 6.38 233.69 5.534 232.178 5.162C231.734 5.054 231.284 5 230.828 5ZM243.442 1.4H247.402V7.7C247.402 9.044 248.152 9.89 249.652 10.238C250.084 10.346 250.534 10.4 251.002 10.4C252.37 10.4 253.372 10.058 254.008 9.374C254.404 8.93 254.608 8.372 254.62 7.7L254.602 1.4H258.562L258.58 7.7C258.58 10.472 257.308 12.356 254.764 13.352C253.624 13.784 252.37 14 251.002 14C248.914 14 247.192 13.538 245.836 12.614C244.252 11.51 243.454 9.872 243.442 7.7V1.4ZM263.511 1.4H267.471V14H263.511V1.4ZM272.417 1.4H279.977C281.921 1.4 283.571 1.82 284.927 2.66C286.655 3.764 287.525 5.444 287.537 7.7C287.537 10.472 286.271 12.35 283.739 13.334C282.599 13.778 281.345 14 279.977 14H272.417V1.4ZM276.377 5V10.4H279.977C281.333 10.4 282.329 10.058 282.965 9.374C283.373 8.918 283.577 8.36 283.577 7.7C283.577 6.368 282.827 5.522 281.327 5.162C280.883 5.054 280.433 5 279.977 5H276.377ZM292.486 1.4H296.446V14H292.486V1.4ZM301.392 1.4H314.712V5H310.032V14H306.072V5H301.392V1.4ZM319.668 1.4H324.726L328.83 6.53L332.916 1.4H337.992L330.81 10.4V14H326.85V10.4L319.668 1.4Z" fill="white"/>
</svg>
