<svg width="113" height="15" viewBox="0 0 113 15" fill="none" xmlns="http://www.w3.org/2000/svg">
<path d="M2.448 14L7.722 2.588H0.792V1.148H9.414V2.372L4.194 14H2.448ZM17.3208 0.967999C18.2088 0.967999 18.8808 1.322 19.3368 2.03C19.7928 2.726 20.0208 3.71 20.0208 4.982C20.0208 6.254 19.7988 7.25 19.3548 7.97C18.9228 8.678 18.2448 9.032 17.3208 9.032C16.4688 9.032 15.8148 8.678 15.3588 7.97C14.9148 7.25 14.6928 6.254 14.6928 4.982C14.6928 3.71 14.9028 2.726 15.3228 2.03C15.7428 1.322 16.4088 0.967999 17.3208 0.967999ZM25.5468 1.148L18.4188 14H17.0328L24.1608 1.148H25.5468ZM17.3208 2.084C16.8648 2.084 16.5288 2.33 16.3128 2.822C16.1088 3.302 16.0068 4.022 16.0068 4.982C16.0068 5.942 16.1088 6.668 16.3128 7.16C16.5288 7.652 16.8648 7.898 17.3208 7.898C18.2448 7.898 18.7068 6.926 18.7068 4.982C18.7068 3.05 18.2448 2.084 17.3208 2.084ZM25.1868 6.116C26.0628 6.116 26.7288 6.47 27.1848 7.178C27.6528 7.874 27.8868 8.858 27.8868 10.13C27.8868 11.402 27.6648 12.398 27.2208 13.118C26.7888 13.826 26.1108 14.18 25.1868 14.18C24.3348 14.18 23.6808 13.826 23.2248 13.118C22.7808 12.398 22.5588 11.402 22.5588 10.13C22.5588 8.858 22.7688 7.874 23.1888 7.178C23.6088 6.47 24.2748 6.116 25.1868 6.116ZM25.1868 7.25C24.7308 7.25 24.3948 7.49 24.1788 7.97C23.9748 8.45 23.8728 9.17 23.8728 10.13C23.8728 11.102 23.9748 11.834 24.1788 12.326C24.3948 12.806 24.7308 13.046 25.1868 13.046C26.1108 13.046 26.5728 12.074 26.5728 10.13C26.5728 8.21 26.1108 7.25 25.1868 7.25ZM41.0098 1.4H50.6758C51.4918 1.424 52.2418 1.658 52.9258 2.102C53.8498 2.714 54.3178 3.602 54.3298 4.766C54.3298 5.21 54.2758 5.618 54.1678 5.99C54.0718 6.35 53.9458 6.632 53.7898 6.836C53.6458 7.04 53.4958 7.214 53.3398 7.358C53.1958 7.49 53.0698 7.58 52.9618 7.628L52.8178 7.7C52.8178 7.7 52.9498 7.784 53.2138 7.952C53.9458 8.54 54.3178 9.428 54.3298 10.616C54.3298 12.152 53.5618 13.19 52.0258 13.73C51.4858 13.91 50.9938 14 50.5498 14H41.0098V1.4ZM44.9698 5V5.9H49.9198C50.0998 5.888 50.2318 5.804 50.3158 5.648C50.3758 5.504 50.3758 5.366 50.3158 5.234C50.2198 5.09 50.0878 5.012 49.9198 5H44.9698ZM44.9698 9.5V10.4C44.9938 10.4 45.9898 10.4 47.9578 10.4C48.7258 10.4 49.3798 10.4 49.9198 10.4C50.0638 10.388 50.1838 10.328 50.2798 10.22C50.3878 10.04 50.3818 9.854 50.2618 9.662C50.1658 9.566 50.0518 9.512 49.9198 9.5H49.9018H49.8838H49.8658H49.8478H49.8298H49.8118H49.7938H49.7758H49.7578H49.7398H49.7218H49.7038H49.6858H49.6678H49.6498H49.6318H49.6138H49.5958H49.5778H49.5598H49.5418H49.5238H49.5058H49.4878H49.4698H49.4518H49.4338H49.4158H49.3978H49.3798H49.3618H49.3438H49.3258H49.3078H49.2898H49.2718H49.2538H49.2358H49.2178H49.1998H49.1818H49.1638H49.1458H49.1278H49.1098H49.0918H49.0738H49.0558H49.0378H49.0198H49.0018H48.9838H48.9658H48.9478H48.9298H48.9118H48.8938H48.8758H48.8578H48.8398H48.8218H48.8038H48.7858H48.7678H48.7498H48.7318H48.7138H48.6958H48.6778H48.6598H48.6418H48.6238H48.6058H48.5878H48.5698H48.5518H48.5338H48.5158H48.4978H48.4798H48.4618H48.4438H48.4258H48.4078H48.3898H48.3718H48.3538H48.3358H48.3178H48.2998H48.2818H48.2638H48.2458H48.2278H48.2098H48.1918H48.1738H48.1558H48.1378H48.1198H48.1018H48.0838H48.0658H48.0478H48.0298H48.0118H47.9938H47.9758H47.9578H47.9398H47.9218H47.9038H47.8858H47.8678H47.8498H47.8318H47.8138H47.7958H47.7778H47.7598H47.7418H47.7238H47.7058H47.6878H47.6698H47.6518H47.6338H47.6158H47.5978H47.5798H47.5618H47.5438H47.5258H47.5078H47.4898H47.4718H47.4538H47.4358H47.4178H47.3998H47.3818H47.3638H47.3458H47.3278H47.3098H47.2918H47.2738H47.2558H47.2378H47.2198H47.2018H47.1838H47.1658H47.1478H47.1298H47.1118H47.0938H47.0758H47.0578H47.0398H47.0218H47.0038H46.9858H46.9678H46.9498H46.9318H46.9138H46.8958H46.8778H46.8598H46.8418H46.8238H46.8058H46.7878H46.7698H46.7518H46.7338H46.7158H46.6978H46.6798H46.6618H46.6438H46.6258H46.6078H46.5898H46.5718H46.5538H46.5358H46.5178H46.4998H46.4818H46.4638H46.4458H46.4278H46.4098H46.3918H46.3738H46.3558H46.3378H46.3198H46.3018H46.2838H46.2658H46.2478H46.2298H46.2118H46.1938H46.1758H46.1578H46.1398H46.1218H46.1038H46.0858H46.0678H46.0498H46.0318H46.0138H45.9958H45.9778H45.9598H45.9418H45.9238H45.9058H45.8878H45.8698H45.8518H45.8338H45.8158H45.7978H45.7798H45.7618H45.7438H45.7258H45.7078H45.6898H45.6718H45.6538H45.6358H45.6178H45.5998H45.5818H45.5638H45.5458H45.5278H45.5098H45.4918H45.4738H45.4558H45.4378H45.4198H45.4018H45.3838H45.3658H45.3478H45.3298H45.3118H45.2938H45.2758H45.2578H45.2398H45.2218H45.2038H45.1858H45.1678H45.1498H45.1318H45.1138H45.0958H45.0778H45.0598H45.0418H45.0238H45.0058H44.9878H44.9698ZM59.2678 1.4H63.2278V7.7C63.2278 9.044 63.9778 9.89 65.4778 10.238C65.9098 10.346 66.3598 10.4 66.8278 10.4C68.1958 10.4 69.1978 10.058 69.8338 9.374C70.2298 8.93 70.4338 8.372 70.4458 7.7L70.4278 1.4H74.3878L74.4058 7.7C74.4058 10.472 73.1338 12.356 70.5898 13.352C69.4498 13.784 68.1958 14 66.8278 14C64.7398 14 63.0178 13.538 61.6618 12.614C60.0778 11.51 59.2798 9.872 59.2678 7.7V1.4ZM79.3364 1.4H87.2564C88.7804 1.4 90.0404 1.76 91.0364 2.48C92.1164 3.272 92.6564 4.412 92.6564 5.9C92.6444 7.7 91.8824 8.978 90.3704 9.734C91.5584 10.886 92.3204 12.308 92.6564 14H88.5344C87.8624 12.212 86.2904 11.078 83.8184 10.598C83.6384 10.562 83.4644 10.532 83.2964 10.508V14H79.3364V1.4ZM83.2964 5V6.8H87.7964C88.1804 6.8 88.4564 6.626 88.6244 6.278C88.6724 6.158 88.6964 6.038 88.6964 5.918C88.7084 5.522 88.5344 5.24 88.1744 5.072C88.0544 5.024 87.9344 5 87.8144 5H83.2964ZM97.612 1.4H103.408L108.772 7.826V1.4H112.732V14H108.772L101.572 5.378V14H97.612V1.4Z" fill="white"/>
</svg>
