<svg width="413" height="15" viewBox="0 0 413 15" fill="none" xmlns="http://www.w3.org/2000/svg">
<path d="M3.95 6.116C5.27 6.116 6.32 6.446 7.1 7.106C7.88 7.766 8.27 8.696 8.27 9.896C8.27 11.228 7.844 12.278 6.992 13.046C6.152 13.802 4.976 14.18 3.464 14.18C2.804 14.18 2.18 14.12 1.592 14C1.016 13.88 0.53 13.706 0.134 13.478V11.984C0.566 12.248 1.088 12.458 1.7 12.614C2.324 12.758 2.918 12.83 3.482 12.83C4.43 12.83 5.192 12.608 5.768 12.164C6.356 11.708 6.65 11.006 6.65 10.058C6.65 9.218 6.392 8.576 5.876 8.132C5.36 7.676 4.544 7.448 3.428 7.448C3.092 7.448 2.708 7.478 2.276 7.538C1.844 7.598 1.496 7.658 1.232 7.718L0.44 7.214L0.926 1.148H7.37V2.588H2.276L1.97 6.314C2.174 6.278 2.45 6.236 2.798 6.188C3.146 6.14 3.53 6.116 3.95 6.116ZM16.3208 0.967999C17.2088 0.967999 17.8808 1.322 18.3368 2.03C18.7928 2.726 19.0208 3.71 19.0208 4.982C19.0208 6.254 18.7988 7.25 18.3548 7.97C17.9228 8.678 17.2448 9.032 16.3208 9.032C15.4688 9.032 14.8148 8.678 14.3588 7.97C13.9148 7.25 13.6928 6.254 13.6928 4.982C13.6928 3.71 13.9028 2.726 14.3228 2.03C14.7428 1.322 15.4088 0.967999 16.3208 0.967999ZM24.5468 1.148L17.4188 14H16.0328L23.1608 1.148H24.5468ZM16.3208 2.084C15.8648 2.084 15.5288 2.33 15.3128 2.822C15.1088 3.302 15.0068 4.022 15.0068 4.982C15.0068 5.942 15.1088 6.668 15.3128 7.16C15.5288 7.652 15.8648 7.898 16.3208 7.898C17.2448 7.898 17.7068 6.926 17.7068 4.982C17.7068 3.05 17.2448 2.084 16.3208 2.084ZM24.1868 6.116C25.0628 6.116 25.7288 6.47 26.1848 7.178C26.6528 7.874 26.8868 8.858 26.8868 10.13C26.8868 11.402 26.6648 12.398 26.2208 13.118C25.7888 13.826 25.1108 14.18 24.1868 14.18C23.3348 14.18 22.6808 13.826 22.2248 13.118C21.7808 12.398 21.5588 11.402 21.5588 10.13C21.5588 8.858 21.7688 7.874 22.1888 7.178C22.6088 6.47 23.2748 6.116 24.1868 6.116ZM24.1868 7.25C23.7308 7.25 23.3948 7.49 23.1788 7.97C22.9748 8.45 22.8728 9.17 22.8728 10.13C22.8728 11.102 22.9748 11.834 23.1788 12.326C23.3948 12.806 23.7308 13.046 24.1868 13.046C25.1108 13.046 25.5728 12.074 25.5728 10.13C25.5728 8.21 25.1108 7.25 24.1868 7.25ZM47.5698 1.4C49.4418 1.4 51.0498 1.796 52.3938 2.588C53.9658 3.548 54.8658 4.952 55.0938 6.8H51.0258C50.6658 5.792 49.7238 5.204 48.1998 5.036C47.9838 5.012 47.7738 5 47.5698 5C46.2858 5 45.3198 5.318 44.6718 5.954C44.2038 6.41 43.9698 6.992 43.9698 7.7C43.9698 8.072 44.0298 8.408 44.1498 8.708C44.2818 8.996 44.4378 9.236 44.6178 9.428C44.7978 9.608 45.0198 9.764 45.2838 9.896C45.5478 10.028 45.7818 10.124 45.9858 10.184C46.2018 10.244 46.4418 10.292 46.7058 10.328C46.9698 10.364 47.1498 10.388 47.2458 10.4C47.3538 10.4 47.4618 10.4 47.5698 10.4C48.9258 10.4 49.9218 10.058 50.5578 9.374C50.7738 9.146 50.9358 8.888 51.0438 8.6H55.0938C54.8178 11.024 53.4318 12.65 50.9358 13.478C49.8918 13.826 48.7698 14 47.5698 14C45.4818 14 43.7598 13.532 42.4038 12.596C40.8198 11.492 40.0218 9.86 40.0098 7.7C40.0098 4.94 41.2818 3.062 43.8258 2.066C44.9778 1.622 46.2258 1.4 47.5698 1.4ZM60.0256 1.4H63.9856V5.9H66.0376C67.2136 5.9 68.3296 6.104 69.3856 6.512V1.4H73.3456V14H69.3856V10.94C68.6656 9.98 67.5496 9.5 66.0376 9.5H63.9856V14H60.0256V1.4ZM83.8813 1.4H90.0013L95.5813 14H91.2433C90.5233 13.052 89.4133 12.572 87.9133 12.56H83.2693L82.6393 14H78.3013L83.8813 1.4ZM86.9413 4.262L84.8713 8.96H87.9133C88.2973 8.96 88.6753 8.984 89.0473 9.032L86.9413 4.262ZM100.532 1.4H108.452C109.976 1.4 111.236 1.76 112.232 2.48C113.312 3.272 113.852 4.412 113.852 5.9C113.84 7.7 113.078 8.978 111.566 9.734C112.754 10.886 113.516 12.308 113.852 14H109.73C109.058 12.212 107.486 11.078 105.014 10.598C104.834 10.562 104.66 10.532 104.492 10.508V14H100.532V1.4ZM104.492 5V6.8H108.992C109.376 6.8 109.652 6.626 109.82 6.278C109.868 6.158 109.892 6.038 109.892 5.918C109.904 5.522 109.73 5.24 109.37 5.072C109.25 5.024 109.13 5 109.01 5H104.492ZM118.808 1.4H122.768V14H118.808V1.4ZM127.714 1.4H141.034V5H136.354V14H132.394V5H127.714V1.4ZM145.99 1.4H151.048L155.152 6.53L159.238 1.4H164.314L157.132 10.4V14H153.172V10.4L145.99 1.4ZM182.83 1.4H188.95L194.53 14H190.192C189.472 13.052 188.362 12.572 186.862 12.56H182.218L181.588 14H177.25L182.83 1.4ZM185.89 4.262L183.82 8.96H186.862C187.246 8.96 187.624 8.984 187.996 9.032L185.89 4.262ZM199.481 1.4H205.277L210.641 7.826V1.4H214.601V14H210.641L203.441 5.378V14H199.481V1.4ZM219.549 1.4H227.109C229.053 1.4 230.703 1.82 232.059 2.66C233.787 3.764 234.657 5.444 234.669 7.7C234.669 10.472 233.403 12.35 230.871 13.334C229.731 13.778 228.477 14 227.109 14H219.549V1.4ZM223.509 5V10.4H227.109C228.465 10.4 229.461 10.058 230.097 9.374C230.505 8.918 230.709 8.36 230.709 7.7C230.709 6.368 229.959 5.522 228.459 5.162C228.015 5.054 227.565 5 227.109 5H223.509ZM247.628 1.4H251.588L257.888 7.934L264.188 1.4H268.148V14H264.188V7.106L257.888 13.622L251.588 7.106V14H247.628V1.4ZM278.673 1.4H284.793L290.373 14H286.035C285.315 13.052 284.205 12.572 282.705 12.56H278.061L277.431 14H273.093L278.673 1.4ZM281.733 4.262L279.663 8.96H282.705C283.089 8.96 283.467 8.984 283.839 9.032L281.733 4.262ZM295.324 1.4H303.244C304.768 1.4 306.028 1.76 307.024 2.48C308.104 3.272 308.644 4.412 308.644 5.9C308.632 7.7 307.87 8.978 306.358 9.734C307.546 10.886 308.308 12.308 308.644 14H304.522C303.85 12.212 302.278 11.078 299.806 10.598C299.626 10.562 299.452 10.532 299.284 10.508V14H295.324V1.4ZM299.284 5V6.8H303.784C304.168 6.8 304.444 6.626 304.612 6.278C304.66 6.158 304.684 6.038 304.684 5.918C304.696 5.522 304.522 5.24 304.162 5.072C304.042 5.024 303.922 5 303.802 5H299.284ZM313.599 1.4H317.559V6.872C318.123 6.932 318.663 7.016 319.179 7.124L322.329 1.472L322.383 1.4H326.919L322.959 8.492C325.131 9.752 326.451 11.588 326.919 14H322.797C322.125 12.212 320.553 11.078 318.081 10.598C317.901 10.562 317.727 10.532 317.559 10.508V14H313.599V1.4ZM331.875 1.4H345.195V5H335.835V5.9H345.195V9.5H335.835V10.4H345.195V14H331.875V1.4ZM350.15 1.4H363.47V5H358.79V14H354.83V5H350.15V1.4ZM368.426 1.4H372.386V14H368.426V1.4ZM377.333 1.4H383.129L388.493 7.826V1.4H392.453V14H388.493L381.293 5.378V14H377.333V1.4ZM404.961 1.4C406.833 1.4 408.441 1.796 409.785 2.588C411.357 3.548 412.257 4.952 412.485 6.8H408.417C408.057 5.792 407.115 5.204 405.591 5.036C405.375 5.012 405.165 5 404.961 5C403.677 5 402.711 5.318 402.063 5.954C401.595 6.41 401.361 6.992 401.361 7.7C401.361 8.072 401.421 8.408 401.541 8.708C401.673 8.996 401.829 9.236 402.009 9.428C402.189 9.608 402.411 9.764 402.675 9.896C402.939 10.028 403.173 10.124 403.377 10.184C403.593 10.244 403.833 10.292 404.097 10.328C404.361 10.364 404.541 10.388 404.637 10.4C404.745 10.4 404.853 10.4 404.961 10.4C406.221 10.388 407.175 10.088 407.823 9.5H405.033V7.7H412.539C412.539 10.472 411.267 12.35 408.723 13.334C407.583 13.778 406.329 14 404.961 14C402.873 14 401.151 13.532 399.795 12.596C398.211 11.492 397.413 9.86 397.401 7.7C397.401 4.94 398.673 3.062 401.217 2.066C402.369 1.622 403.617 1.4 404.961 1.4Z" fill="white"/>
</svg>
