<svg width="197" height="189" viewBox="0 0 197 189" fill="none" xmlns="http://www.w3.org/2000/svg">
<path d="M40.984 6.17109L37.896 15.3231L34.808 6.17109H33.336L30.184 15.2751L27.16 6.17109H25.512L29.256 17.3711H30.968L34.024 8.42709L37.08 17.3711H38.76L42.504 6.17109H40.984ZM52.7006 13.1791C52.7006 10.5711 50.9566 8.81109 48.5086 8.81109C46.0606 8.81109 44.2526 10.6191 44.2526 13.1311C44.2526 15.6591 46.0766 17.4671 48.8126 17.4671C50.2206 17.4671 51.3886 16.9871 52.1566 16.0911L51.3086 15.0991C50.6846 15.7871 49.8526 16.1231 48.8606 16.1231C47.1806 16.1231 45.9806 15.1311 45.7886 13.6431H52.6686C52.6846 13.4991 52.7006 13.3071 52.7006 13.1791ZM48.5086 10.1071C49.9966 10.1071 51.0686 11.1151 51.2286 12.5391H45.7886C45.9486 11.0991 47.0366 10.1071 48.5086 10.1071ZM60.7695 8.81109C59.5695 8.81109 58.5135 9.25909 57.8095 10.1711V5.49909H56.2735V17.3711H57.7455V16.0271C58.4335 16.9871 59.5215 17.4671 60.7695 17.4671C63.2495 17.4671 65.0575 15.7231 65.0575 13.1311C65.0575 10.5391 63.2495 8.81109 60.7695 8.81109ZM60.6415 16.1231C59.0255 16.1231 57.7935 14.9391 57.7935 13.1311C57.7935 11.3231 59.0255 10.1551 60.6415 10.1551C62.2735 10.1551 63.5055 11.3231 63.5055 13.1311C63.5055 14.9391 62.2735 16.1231 60.6415 16.1231ZM71.0517 17.4671C73.3077 17.4671 74.7158 16.4911 74.7158 14.9551C74.7158 11.6591 69.3397 13.2911 69.3397 11.2911C69.3397 10.6191 69.9957 10.1231 71.3397 10.1231C72.1718 10.1231 73.0198 10.2991 73.7878 10.7951L74.4437 9.57909C73.7077 9.09909 72.4598 8.81109 71.3558 8.81109C69.1797 8.81109 67.8197 9.83509 67.8197 11.3551C67.8197 14.7311 73.1797 13.0831 73.1797 14.9871C73.1797 15.7071 72.5877 16.1391 71.1637 16.1391C70.0597 16.1391 68.9077 15.7711 68.1877 15.2591L67.5477 16.4751C68.2517 17.0351 69.6437 17.4671 71.0517 17.4671ZM78.8434 7.25909C79.4514 7.25909 79.8834 6.81109 79.8834 6.23509C79.8834 5.69109 79.4354 5.25909 78.8434 5.25909C78.2514 5.25909 77.8034 5.70709 77.8034 6.26709C77.8034 6.82709 78.2514 7.25909 78.8434 7.25909ZM78.0754 17.3711H79.6114V8.89109H78.0754V17.3711ZM88.2721 15.7711C87.9521 16.0271 87.5201 16.1711 87.0721 16.1711C86.2241 16.1711 85.7441 15.6591 85.7441 14.7471V10.1551H88.1761V8.89109H85.7441V7.03509H84.2081V8.89109H82.7681V10.1551H84.2081V14.8111C84.2081 16.5231 85.1841 17.4671 86.8961 17.4671C87.5841 17.4671 88.2881 17.2751 88.7521 16.8751L88.2721 15.7711ZM99.4319 13.1791C99.4319 10.5711 97.6879 8.81109 95.2399 8.81109C92.7919 8.81109 90.9839 10.6191 90.9839 13.1311C90.9839 15.6591 92.8079 17.4671 95.5439 17.4671C96.9519 17.4671 98.1199 16.9871 98.8879 16.0911L98.0399 15.0991C97.4159 15.7871 96.5839 16.1231 95.5919 16.1231C93.9119 16.1231 92.7119 15.1311 92.5199 13.6431H99.3999C99.4159 13.4991 99.4319 13.3071 99.4319 13.1791ZM95.2399 10.1071C96.7279 10.1071 97.7999 11.1151 97.9599 12.5391H92.5199C92.6799 11.0991 93.7679 10.1071 95.2399 10.1071Z" fill="#E9E9E9"/>
<circle cx="7.5" cy="11.8711" r="7" fill="#060A0E" stroke="white"/>
<path d="M28.904 50.3711H30.488V40.5631H34.328V39.1711H25.064V40.5631H28.904V50.3711ZM48.2114 41.8911L45.6834 48.6751L43.1714 41.8911H41.8754L39.3154 48.6431L36.8514 41.8911H35.3954L38.5474 50.3711H40.0194L42.4994 43.9391L44.9474 50.3711H46.4194L49.5874 41.8911H48.2114ZM53.354 40.2591C53.962 40.2591 54.394 39.8111 54.394 39.2351C54.394 38.6911 53.946 38.2591 53.354 38.2591C52.762 38.2591 52.314 38.7071 52.314 39.2671C52.314 39.8271 52.762 40.2591 53.354 40.2591ZM52.586 50.3711H54.122V41.8911H52.586V50.3711ZM62.7828 48.7711C62.4627 49.0271 62.0307 49.1711 61.5827 49.1711C60.7347 49.1711 60.2547 48.6591 60.2547 47.7471V43.1551H62.6867V41.8911H60.2547V40.0351H58.7187V41.8911H57.2787V43.1551H58.7187V47.8111C58.7187 49.5231 59.6947 50.4671 61.4067 50.4671C62.0947 50.4671 62.7987 50.2751 63.2628 49.8751L62.7828 48.7711ZM70.6446 48.7711C70.3246 49.0271 69.8926 49.1711 69.4446 49.1711C68.5966 49.1711 68.1166 48.6591 68.1166 47.7471V43.1551H70.5486V41.8911H68.1166V40.0351H66.5806V41.8911H65.1406V43.1551H66.5806V47.8111C66.5806 49.5231 67.5566 50.4671 69.2686 50.4671C69.9566 50.4671 70.6606 50.2751 71.1246 49.8751L70.6446 48.7711ZM81.8044 46.1791C81.8044 43.5711 80.0604 41.8111 77.6124 41.8111C75.1644 41.8111 73.3564 43.6191 73.3564 46.1311C73.3564 48.6591 75.1804 50.4671 77.9164 50.4671C79.3244 50.4671 80.4924 49.9871 81.2604 49.0911L80.4124 48.0991C79.7884 48.7871 78.9564 49.1231 77.9644 49.1231C76.2844 49.1231 75.0844 48.1311 74.8924 46.6431H81.7724C81.7884 46.4991 81.8044 46.3071 81.8044 46.1791ZM77.6124 43.1071C79.1004 43.1071 80.1724 44.1151 80.3324 45.5391H74.8924C75.0524 44.0991 76.1404 43.1071 77.6124 43.1071ZM86.8492 43.3151V41.8911H85.3772V50.3711H86.9132V46.1471C86.9132 44.2911 87.9372 43.2831 89.5852 43.2831C89.6972 43.2831 89.8092 43.2831 89.9372 43.2991V41.8111C88.4492 41.8111 87.3932 42.3231 86.8492 43.3151Z" fill="#E9E9E9"/>
<circle cx="7.5" cy="44.8711" r="7" fill="#060A0E" stroke="white"/>
<path d="M26.68 83.3711H28.28V72.1711H26.68V83.3711ZM37.3771 74.8111C36.0331 74.8111 34.9451 75.3071 34.3211 76.1711V74.8911H32.8491V83.3711H34.3851V79.0031C34.3851 77.1631 35.4411 76.1871 37.0731 76.1871C38.5291 76.1871 39.3611 77.0031 39.3611 78.6671V83.3711H40.8971V78.4911C40.8971 75.9951 39.4411 74.8111 37.3771 74.8111ZM47.6118 83.4671C49.8678 83.4671 51.2758 82.4911 51.2758 80.9551C51.2758 77.6591 45.8998 79.2911 45.8998 77.2911C45.8998 76.6191 46.5558 76.1231 47.8998 76.1231C48.7318 76.1231 49.5798 76.2991 50.3478 76.7951L51.0038 75.5791C50.2678 75.0991 49.0198 74.8111 47.9158 74.8111C45.7398 74.8111 44.3798 75.8351 44.3798 77.3551C44.3798 80.7311 49.7398 79.0831 49.7398 80.9871C49.7398 81.7071 49.1478 82.1391 47.7238 82.1391C46.6198 82.1391 45.4678 81.7711 44.7478 81.2591L44.1078 82.4751C44.8118 83.0351 46.2038 83.4671 47.6118 83.4671ZM58.9234 81.7711C58.6034 82.0271 58.1714 82.1711 57.7234 82.1711C56.8754 82.1711 56.3954 81.6591 56.3954 80.7471V76.1551H58.8274V74.8911H56.3954V73.0351H54.8594V74.8911H53.4194V76.1551H54.8594V80.8111C54.8594 82.5231 55.8354 83.4671 57.5474 83.4671C58.2354 83.4671 58.9394 83.2751 59.4034 82.8751L58.9234 81.7711ZM65.7884 74.8111C64.4284 74.8111 63.1644 75.1951 62.2844 75.8991L62.9244 77.0511C63.5804 76.4911 64.6044 76.1391 65.6124 76.1391C67.1324 76.1391 67.8844 76.8911 67.8844 78.1871V78.4911H65.4524C62.9244 78.4911 62.0444 79.6111 62.0444 80.9711C62.0444 82.4431 63.2604 83.4671 65.1804 83.4671C66.5084 83.4671 67.4524 83.0191 67.9644 82.2511V83.3711H69.4204V78.2511C69.4204 75.9311 68.1084 74.8111 65.7884 74.8111ZM65.4364 82.2831C64.2684 82.2831 63.5644 81.7551 63.5644 80.9071C63.5644 80.1871 63.9964 79.5951 65.5164 79.5951H67.8844V80.7791C67.5004 81.7551 66.5884 82.2831 65.4364 82.2831ZM80.4058 74.8911V76.2031C79.6858 75.2751 78.5338 74.8111 77.2698 74.8111C74.8218 74.8111 72.9658 76.4591 72.9658 78.9071C72.9658 81.3551 74.8218 83.0191 77.2698 83.0191C78.4858 83.0191 79.5898 82.5871 80.3258 81.7071V82.3791C80.3258 84.2991 79.4138 85.2271 77.4138 85.2271C76.1658 85.2271 74.9338 84.7951 74.1498 84.1231L73.4138 85.3071C74.3418 86.1391 75.9098 86.5711 77.4618 86.5711C80.3418 86.5711 81.8618 85.2111 81.8618 82.2191V74.8911H80.4058ZM77.4458 81.6751C75.7338 81.6751 74.5178 80.5391 74.5178 78.9071C74.5178 77.2591 75.7338 76.1551 77.4458 76.1551C79.1418 76.1551 80.3578 77.2591 80.3578 78.9071C80.3578 80.5391 79.1418 81.6751 77.4458 81.6751ZM87.7086 76.3151V74.8911H86.2366V83.3711H87.7726V79.1471C87.7726 77.2911 88.7966 76.2831 90.4446 76.2831C90.5566 76.2831 90.6686 76.2831 90.7966 76.2991V74.8111C89.3086 74.8111 88.2526 75.3231 87.7086 76.3151ZM97.2021 74.8111C95.8421 74.8111 94.5781 75.1951 93.6981 75.8991L94.3381 77.0511C94.9941 76.4911 96.0181 76.1391 97.0261 76.1391C98.5461 76.1391 99.2981 76.8911 99.2981 78.1871V78.4911H96.8661C94.3381 78.4911 93.4581 79.6111 93.4581 80.9711C93.4581 82.4431 94.6741 83.4671 96.5941 83.4671C97.9221 83.4671 98.8661 83.0191 99.3781 82.2511V83.3711H100.834V78.2511C100.834 75.9311 99.5221 74.8111 97.2021 74.8111ZM96.8501 82.2831C95.6821 82.2831 94.9781 81.7551 94.9781 80.9071C94.9781 80.1871 95.4101 79.5951 96.9301 79.5951H99.2981V80.7791C98.9141 81.7551 98.0021 82.2831 96.8501 82.2831ZM115.725 74.8111C114.285 74.8111 113.101 75.4191 112.461 76.3791C111.901 75.3231 110.813 74.8111 109.517 74.8111C108.237 74.8111 107.197 75.2911 106.589 76.1551V74.8911H105.117V83.3711H106.653V79.0031C106.653 77.1631 107.661 76.1871 109.197 76.1871C110.589 76.1871 111.389 77.0031 111.389 78.6671V83.3711H112.925V79.0031C112.925 77.1631 113.933 76.1871 115.469 76.1871C116.861 76.1871 117.661 77.0031 117.661 78.6671V83.3711H119.197V78.4911C119.197 75.9951 117.789 74.8111 115.725 74.8111Z" fill="#E9E9E9"/>
<circle cx="7.5" cy="77.8711" r="7" fill="#060A0E" stroke="white"/>
<path d="M28.904 116.371H30.488V106.563H34.328V105.171H25.064V106.563H28.904V116.371ZM44.0756 112.179C44.0756 109.571 42.3316 107.811 39.8836 107.811C37.4356 107.811 35.6276 109.619 35.6276 112.131C35.6276 114.659 37.4516 116.467 40.1876 116.467C41.5956 116.467 42.7636 115.987 43.5316 115.091L42.6836 114.099C42.0596 114.787 41.2276 115.123 40.2356 115.123C38.5556 115.123 37.3556 114.131 37.1636 112.643H44.0436C44.0596 112.499 44.0756 112.307 44.0756 112.179ZM39.8836 109.107C41.3716 109.107 42.4436 110.115 42.6036 111.539H37.1636C37.3236 110.099 38.4116 109.107 39.8836 109.107ZM47.6485 116.371H49.1845V104.499H47.6485V116.371ZM61.2213 112.179C61.2213 109.571 59.4773 107.811 57.0293 107.811C54.5812 107.811 52.7732 109.619 52.7732 112.131C52.7732 114.659 54.5972 116.467 57.3333 116.467C58.7413 116.467 59.9093 115.987 60.6772 115.091L59.8292 114.099C59.2053 114.787 58.3733 115.123 57.3812 115.123C55.7012 115.123 54.5012 114.131 54.3092 112.643H61.1892C61.2052 112.499 61.2213 112.307 61.2213 112.179ZM57.0293 109.107C58.5173 109.107 59.5893 110.115 59.7492 111.539H54.3092C54.4692 110.099 55.5572 109.107 57.0293 109.107ZM71.4501 107.891V109.203C70.7301 108.275 69.5781 107.811 68.3141 107.811C65.8661 107.811 64.0101 109.459 64.0101 111.907C64.0101 114.355 65.8661 116.019 68.3141 116.019C69.5301 116.019 70.6341 115.587 71.3701 114.707V115.379C71.3701 117.299 70.4581 118.227 68.4581 118.227C67.2101 118.227 65.9781 117.795 65.1941 117.123L64.4581 118.307C65.3861 119.139 66.9541 119.571 68.5061 119.571C71.3861 119.571 72.9061 118.211 72.9061 115.219V107.891H71.4501ZM68.4901 114.675C66.7781 114.675 65.5621 113.539 65.5621 111.907C65.5621 110.259 66.7781 109.155 68.4901 109.155C70.1861 109.155 71.4021 110.259 71.4021 111.907C71.4021 113.539 70.1861 114.675 68.4901 114.675ZM78.753 109.315V107.891H77.281V116.371H78.817V112.147C78.817 110.291 79.841 109.283 81.489 109.283C81.601 109.283 81.713 109.283 81.841 109.299V107.811C80.353 107.811 79.297 108.323 78.753 109.315ZM88.2465 107.811C86.8865 107.811 85.6225 108.195 84.7425 108.899L85.3825 110.051C86.0385 109.491 87.0625 109.139 88.0705 109.139C89.5905 109.139 90.3425 109.891 90.3425 111.187V111.491H87.9105C85.3825 111.491 84.5025 112.611 84.5025 113.971C84.5025 115.443 85.7185 116.467 87.6385 116.467C88.9665 116.467 89.9105 116.019 90.4225 115.251V116.371H91.8785V111.251C91.8785 108.931 90.5665 107.811 88.2465 107.811ZM87.8945 115.283C86.7265 115.283 86.0225 114.755 86.0225 113.907C86.0225 113.187 86.4545 112.595 87.9745 112.595H90.3425V113.779C89.9585 114.755 89.0465 115.283 87.8945 115.283ZM106.769 107.811C105.329 107.811 104.145 108.419 103.505 109.379C102.945 108.323 101.857 107.811 100.561 107.811C99.281 107.811 98.241 108.291 97.633 109.155V107.891H96.161V116.371H97.697V112.003C97.697 110.163 98.705 109.187 100.241 109.187C101.633 109.187 102.433 110.003 102.433 111.667V116.371H103.969V112.003C103.969 110.163 104.977 109.187 106.513 109.187C107.905 109.187 108.705 110.003 108.705 111.667V116.371H110.241V111.491C110.241 108.995 108.833 107.811 106.769 107.811Z" fill="#E9E9E9"/>
<circle cx="7.5" cy="110.871" r="7" fill="#060A0E" stroke="white"/>
<path d="M31.048 138.171H26.68V149.371H28.28V145.979H31.048C33.96 145.979 35.72 144.507 35.72 142.075C35.72 139.643 33.96 138.171 31.048 138.171ZM31 144.587H28.28V139.563H31C33.048 139.563 34.12 140.475 34.12 142.075C34.12 143.675 33.048 144.587 31 144.587ZM40.618 142.315V140.891H39.146V149.371H40.682V145.147C40.682 143.291 41.706 142.283 43.354 142.283C43.466 142.283 43.578 142.283 43.706 142.299V140.811C42.218 140.811 41.162 141.323 40.618 142.315ZM54.625 145.179C54.625 142.571 52.881 140.811 50.433 140.811C47.985 140.811 46.177 142.619 46.177 145.131C46.177 147.659 48.001 149.467 50.737 149.467C52.145 149.467 53.313 148.987 54.081 148.091L53.233 147.099C52.609 147.787 51.777 148.123 50.785 148.123C49.105 148.123 47.905 147.131 47.713 145.643H54.593C54.609 145.499 54.625 145.307 54.625 145.179ZM50.433 142.107C51.921 142.107 52.993 143.115 53.153 144.539H47.713C47.873 143.099 48.961 142.107 50.433 142.107ZM60.6299 149.467C62.8859 149.467 64.2939 148.491 64.2939 146.955C64.2939 143.659 58.9179 145.291 58.9179 143.291C58.9179 142.619 59.5739 142.123 60.9179 142.123C61.7499 142.123 62.5979 142.299 63.3659 142.795L64.0219 141.579C63.2859 141.099 62.0379 140.811 60.9339 140.811C58.7579 140.811 57.3979 141.835 57.3979 143.355C57.3979 146.731 62.7579 145.083 62.7579 146.987C62.7579 147.707 62.1659 148.139 60.7419 148.139C59.6379 148.139 58.4859 147.771 57.7659 147.259L57.1259 148.475C57.8299 149.035 59.2219 149.467 60.6299 149.467ZM70.7415 140.811C69.3815 140.811 68.1175 141.195 67.2375 141.899L67.8775 143.051C68.5335 142.491 69.5575 142.139 70.5655 142.139C72.0855 142.139 72.8375 142.891 72.8375 144.187V144.491H70.4055C67.8775 144.491 66.9975 145.611 66.9975 146.971C66.9975 148.443 68.2135 149.467 70.1335 149.467C71.4615 149.467 72.4055 149.019 72.9175 148.251V149.371H74.3735V144.251C74.3735 141.931 73.0615 140.811 70.7415 140.811ZM70.3895 148.283C69.2215 148.283 68.5175 147.755 68.5175 146.907C68.5175 146.187 68.9495 145.595 70.4695 145.595H72.8375V146.779C72.4535 147.755 71.5415 148.283 70.3895 148.283ZM78.656 149.371H80.192V137.499H78.656V149.371ZM92.2288 145.179C92.2288 142.571 90.4847 140.811 88.0367 140.811C85.5887 140.811 83.7807 142.619 83.7807 145.131C83.7807 147.659 85.6047 149.467 88.3407 149.467C89.7487 149.467 90.9167 148.987 91.6847 148.091L90.8367 147.099C90.2127 147.787 89.3807 148.123 88.3887 148.123C86.7087 148.123 85.5087 147.131 85.3167 145.643H92.1967C92.2127 145.499 92.2288 145.307 92.2288 145.179ZM88.0367 142.107C89.5247 142.107 90.5967 143.115 90.7567 144.539H85.3167C85.4767 143.099 86.5647 142.107 88.0367 142.107Z" fill="#E9E9E9"/>
<circle cx="7.5" cy="143.871" r="7" fill="#060A0E" stroke="white"/>
<path d="M29.944 182.499C32.904 182.499 34.28 181.027 34.28 179.315C34.28 175.203 27.496 176.915 27.496 174.179C27.496 173.203 28.312 172.403 30.216 172.403C31.208 172.403 32.312 172.691 33.288 173.315L33.816 172.035C32.888 171.395 31.528 171.043 30.216 171.043C27.272 171.043 25.928 172.515 25.928 174.243C25.928 178.403 32.712 176.675 32.712 179.411C32.712 180.387 31.88 181.139 29.944 181.139C28.504 181.139 27.08 180.595 26.248 179.843L25.656 181.091C26.552 181.923 28.232 182.499 29.944 182.499ZM42.3295 173.811C41.0815 173.811 39.9935 174.291 39.3055 175.235V173.891H37.8335V185.475H39.3695V181.091C40.0735 182.003 41.1295 182.467 42.3295 182.467C44.8095 182.467 46.6175 180.739 46.6175 178.131C46.6175 175.539 44.8095 173.811 42.3295 173.811ZM42.2015 181.123C40.5855 181.123 39.3535 179.939 39.3535 178.131C39.3535 176.339 40.5855 175.155 42.2015 175.155C43.8335 175.155 45.0655 176.339 45.0655 178.131C45.0655 179.939 43.8335 181.123 42.2015 181.123ZM51.6518 175.315V173.891H50.1798V182.371H51.7158V178.147C51.7158 176.291 52.7398 175.283 54.3878 175.283C54.4998 175.283 54.6118 175.283 54.7398 175.299V173.811C53.2518 173.811 52.1958 174.323 51.6518 175.315ZM65.6588 178.179C65.6588 175.571 63.9148 173.811 61.4668 173.811C59.0187 173.811 57.2107 175.619 57.2107 178.131C57.2107 180.659 59.0347 182.467 61.7708 182.467C63.1788 182.467 64.3468 181.987 65.1147 181.091L64.2667 180.099C63.6428 180.787 62.8108 181.123 61.8187 181.123C60.1387 181.123 58.9387 180.131 58.7467 178.643H65.6267C65.6427 178.499 65.6588 178.307 65.6588 178.179ZM61.4668 175.107C62.9548 175.107 64.0268 176.115 64.1867 177.539H58.7467C58.9067 176.099 59.9947 175.107 61.4668 175.107ZM72.0853 173.811C70.7253 173.811 69.4613 174.195 68.5813 174.899L69.2213 176.051C69.8773 175.491 70.9013 175.139 71.9093 175.139C73.4293 175.139 74.1813 175.891 74.1813 177.187V177.491H71.7493C69.2213 177.491 68.3413 178.611 68.3413 179.971C68.3413 181.443 69.5573 182.467 71.4773 182.467C72.8053 182.467 73.7493 182.019 74.2613 181.251V182.371H75.7173V177.251C75.7173 174.931 74.4053 173.811 72.0853 173.811ZM71.7333 181.283C70.5653 181.283 69.8613 180.755 69.8613 179.907C69.8613 179.187 70.2933 178.595 71.8133 178.595H74.1813V179.779C73.7973 180.755 72.8853 181.283 71.7333 181.283ZM86.5106 170.499V175.171C85.8066 174.259 84.7506 173.811 83.5506 173.811C81.0706 173.811 79.2626 175.539 79.2626 178.131C79.2626 180.723 81.0706 182.467 83.5506 182.467C84.7986 182.467 85.8866 181.987 86.5746 181.027V182.371H88.0466V170.499H86.5106ZM83.6786 181.123C82.0466 181.123 80.8146 179.939 80.8146 178.131C80.8146 176.323 82.0466 175.155 83.6786 175.155C85.2946 175.155 86.5266 176.323 86.5266 178.131C86.5266 179.939 85.2946 181.123 83.6786 181.123ZM106.722 182.371H108.402L103.314 171.171H101.73L96.6578 182.371H98.3058L99.5378 179.571H105.49L106.722 182.371ZM100.098 178.291L102.514 172.803L104.93 178.291H100.098ZM122.307 173.891L119.779 180.675L117.267 173.891H115.971L113.411 180.643L110.947 173.891H109.491L112.643 182.371H114.115L116.595 175.939L119.043 182.371H120.515L123.683 173.891H122.307ZM129.504 173.811C128.144 173.811 126.88 174.195 126 174.899L126.64 176.051C127.296 175.491 128.32 175.139 129.328 175.139C130.848 175.139 131.6 175.891 131.6 177.187V177.491H129.168C126.64 177.491 125.76 178.611 125.76 179.971C125.76 181.443 126.976 182.467 128.896 182.467C130.224 182.467 131.168 182.019 131.68 181.251V182.371H133.136V177.251C133.136 174.931 131.824 173.811 129.504 173.811ZM129.152 181.283C127.984 181.283 127.28 180.755 127.28 179.907C127.28 179.187 127.712 178.595 129.232 178.595H131.6V179.779C131.216 180.755 130.304 181.283 129.152 181.283ZM138.891 175.315V173.891H137.419V182.371H138.955V178.147C138.955 176.291 139.979 175.283 141.627 175.283C141.739 175.283 141.851 175.283 141.979 175.299V173.811C140.491 173.811 139.435 174.323 138.891 175.315ZM152.898 178.179C152.898 175.571 151.154 173.811 148.706 173.811C146.258 173.811 144.45 175.619 144.45 178.131C144.45 180.659 146.274 182.467 149.01 182.467C150.418 182.467 151.586 181.987 152.354 181.091L151.506 180.099C150.882 180.787 150.05 181.123 149.058 181.123C147.378 181.123 146.178 180.131 145.986 178.643H152.866C152.882 178.499 152.898 178.307 152.898 178.179ZM148.706 175.107C150.194 175.107 151.266 176.115 151.426 177.539H145.986C146.146 176.099 147.234 175.107 148.706 175.107ZM160.998 173.811C159.654 173.811 158.566 174.307 157.942 175.171V173.891H156.47V182.371H158.006V178.003C158.006 176.163 159.062 175.187 160.694 175.187C162.15 175.187 162.982 176.003 162.982 177.667V182.371H164.518V177.491C164.518 174.995 163.062 173.811 160.998 173.811ZM176.512 178.179C176.512 175.571 174.768 173.811 172.32 173.811C169.872 173.811 168.064 175.619 168.064 178.131C168.064 180.659 169.888 182.467 172.624 182.467C174.032 182.467 175.2 181.987 175.968 181.091L175.12 180.099C174.496 180.787 173.664 181.123 172.672 181.123C170.992 181.123 169.792 180.131 169.6 178.643H176.48C176.496 178.499 176.512 178.307 176.512 178.179ZM172.32 175.107C173.808 175.107 174.88 176.115 175.04 177.539H169.6C169.76 176.099 170.848 175.107 172.32 175.107ZM182.517 182.467C184.773 182.467 186.181 181.491 186.181 179.955C186.181 176.659 180.805 178.291 180.805 176.291C180.805 175.619 181.461 175.123 182.805 175.123C183.637 175.123 184.485 175.299 185.253 175.795L185.909 174.579C185.173 174.099 183.925 173.811 182.821 173.811C180.645 173.811 179.285 174.835 179.285 176.355C179.285 179.731 184.645 178.083 184.645 179.987C184.645 180.707 184.053 181.139 182.629 181.139C181.525 181.139 180.373 180.771 179.653 180.259L179.013 181.475C179.717 182.035 181.109 182.467 182.517 182.467ZM191.972 182.467C194.228 182.467 195.636 181.491 195.636 179.955C195.636 176.659 190.26 178.291 190.26 176.291C190.26 175.619 190.916 175.123 192.26 175.123C193.092 175.123 193.94 175.299 194.708 175.795L195.364 174.579C194.628 174.099 193.38 173.811 192.276 173.811C190.1 173.811 188.74 174.835 188.74 176.355C188.74 179.731 194.1 178.083 194.1 179.987C194.1 180.707 193.508 181.139 192.084 181.139C190.98 181.139 189.828 180.771 189.108 180.259L188.468 181.475C189.172 182.035 190.564 182.467 191.972 182.467Z" fill="#E9E9E9"/>
<circle cx="7.5" cy="176.871" r="7" fill="#060A0E" stroke="white"/>
</svg>
