<svg width="1017" height="68" viewBox="0 0 1017 68" fill="none" xmlns="http://www.w3.org/2000/svg">
<path d="M9.264 9.2C10.752 9.2 12.04 9.448 13.128 9.944C14.232 10.44 15.08 11.144 15.672 12.056C16.264 12.968 16.56 14.048 16.56 15.296C16.56 16.528 16.264 17.608 15.672 18.536C15.08 19.448 14.232 20.152 13.128 20.648C12.04 21.128 10.752 21.368 9.264 21.368H5.88V26H1.992V9.2H9.264ZM9.048 18.2C10.216 18.2 11.104 17.952 11.712 17.456C12.32 16.944 12.624 16.224 12.624 15.296C12.624 14.352 12.32 13.632 11.712 13.136C11.104 12.624 10.216 12.368 9.048 12.368H5.88V18.2H9.048ZM36.9038 9.2V26H33.0158V19.112H25.3837V26H21.4957V9.2H25.3837V15.824H33.0158V9.2H36.9038ZM54.1026 22.4H46.3026L44.8146 26H40.8306L48.3186 9.2H52.1586L59.6706 26H55.5906L54.1026 22.4ZM52.8786 19.448L50.2146 13.016L47.5506 19.448H52.8786ZM69.0936 26.288C67.7656 26.288 66.4776 26.112 65.2296 25.76C63.9976 25.392 63.0056 24.92 62.2536 24.344L63.5736 21.416C64.2936 21.944 65.1496 22.368 66.1416 22.688C67.1336 23.008 68.1256 23.168 69.1176 23.168C70.2216 23.168 71.0376 23.008 71.5656 22.688C72.0936 22.352 72.3576 21.912 72.3576 21.368C72.3576 20.968 72.1976 20.64 71.8776 20.384C71.5736 20.112 71.1736 19.896 70.6776 19.736C70.1976 19.576 69.5416 19.4 68.7096 19.208C67.4296 18.904 66.3816 18.6 65.5656 18.296C64.7496 17.992 64.0456 17.504 63.4536 16.832C62.8776 16.16 62.5896 15.264 62.5896 14.144C62.5896 13.168 62.8536 12.288 63.3816 11.504C63.9096 10.704 64.7016 10.072 65.7576 9.608C66.8296 9.144 68.1336 8.912 69.6696 8.912C70.7416 8.912 71.7896 9.04 72.8136 9.296C73.8376 9.552 74.7336 9.92 75.5016 10.4L74.3016 13.352C72.7496 12.472 71.1976 12.032 69.6456 12.032C68.5576 12.032 67.7496 12.208 67.2216 12.56C66.7096 12.912 66.4536 13.376 66.4536 13.952C66.4536 14.528 66.7496 14.96 67.3416 15.248C67.9496 15.52 68.8696 15.792 70.1016 16.064C71.3816 16.368 72.4296 16.672 73.2456 16.976C74.0616 17.28 74.7576 17.76 75.3336 18.416C75.9256 19.072 76.2216 19.96 76.2216 21.08C76.2216 22.04 75.9496 22.92 75.4056 23.72C74.8776 24.504 74.0776 25.128 73.0056 25.592C71.9336 26.056 70.6296 26.288 69.0936 26.288ZM94.0462 22.88V26H81.0382V9.2H93.7343V12.32H84.9022V15.968H92.7022V18.992H84.9022V22.88H94.0462ZM113.681 9.2V26H109.793V12.32H106.433V9.2H113.681Z" fill="white"/>
<path d="M233.264 9.2C234.752 9.2 236.04 9.448 237.128 9.944C238.232 10.44 239.08 11.144 239.672 12.056C240.264 12.968 240.56 14.048 240.56 15.296C240.56 16.528 240.264 17.608 239.672 18.536C239.08 19.448 238.232 20.152 237.128 20.648C236.04 21.128 234.752 21.368 233.264 21.368H229.88V26H225.992V9.2H233.264ZM233.048 18.2C234.216 18.2 235.104 17.952 235.712 17.456C236.32 16.944 236.624 16.224 236.624 15.296C236.624 14.352 236.32 13.632 235.712 13.136C235.104 12.624 234.216 12.368 233.048 12.368H229.88V18.2H233.048ZM260.904 9.2V26H257.016V19.112H249.384V26H245.496V9.2H249.384V15.824H257.016V9.2H260.904ZM278.103 22.4H270.303L268.815 26H264.831L272.319 9.2H276.159L283.671 26H279.591L278.103 22.4ZM276.879 19.448L274.215 13.016L271.551 19.448H276.879ZM293.094 26.288C291.766 26.288 290.478 26.112 289.23 25.76C287.998 25.392 287.006 24.92 286.254 24.344L287.574 21.416C288.294 21.944 289.15 22.368 290.142 22.688C291.134 23.008 292.126 23.168 293.118 23.168C294.222 23.168 295.038 23.008 295.566 22.688C296.094 22.352 296.358 21.912 296.358 21.368C296.358 20.968 296.198 20.64 295.878 20.384C295.574 20.112 295.174 19.896 294.678 19.736C294.198 19.576 293.542 19.4 292.71 19.208C291.43 18.904 290.382 18.6 289.566 18.296C288.75 17.992 288.046 17.504 287.454 16.832C286.878 16.16 286.59 15.264 286.59 14.144C286.59 13.168 286.854 12.288 287.382 11.504C287.91 10.704 288.702 10.072 289.758 9.608C290.83 9.144 292.134 8.912 293.67 8.912C294.742 8.912 295.79 9.04 296.814 9.296C297.838 9.552 298.734 9.92 299.502 10.4L298.302 13.352C296.75 12.472 295.198 12.032 293.646 12.032C292.558 12.032 291.75 12.208 291.222 12.56C290.71 12.912 290.454 13.376 290.454 13.952C290.454 14.528 290.75 14.96 291.342 15.248C291.95 15.52 292.87 15.792 294.102 16.064C295.382 16.368 296.43 16.672 297.246 16.976C298.062 17.28 298.758 17.76 299.334 18.416C299.926 19.072 300.222 19.96 300.222 21.08C300.222 22.04 299.95 22.92 299.406 23.72C298.878 24.504 298.078 25.128 297.006 25.592C295.934 26.056 294.63 26.288 293.094 26.288ZM318.046 22.88V26H305.038V9.2H317.734V12.32H308.902V15.968H316.702V18.992H308.902V22.88H318.046ZM343.753 22.832V26H331.057V23.48L337.537 17.36C338.225 16.704 338.689 16.144 338.929 15.68C339.169 15.2 339.289 14.728 339.289 14.264C339.289 13.592 339.057 13.08 338.593 12.728C338.145 12.36 337.481 12.176 336.601 12.176C335.865 12.176 335.201 12.32 334.609 12.608C334.017 12.88 333.521 13.296 333.121 13.856L330.289 12.032C330.945 11.056 331.849 10.296 333.001 9.752C334.153 9.192 335.473 8.912 336.961 8.912C338.209 8.912 339.297 9.12 340.225 9.536C341.169 9.936 341.897 10.512 342.409 11.264C342.937 12 343.201 12.872 343.201 13.88C343.201 14.792 343.009 15.648 342.625 16.448C342.241 17.248 341.497 18.16 340.393 19.184L336.529 22.832H343.753Z" fill="white"/>
<path d="M457.264 9.2C458.752 9.2 460.04 9.448 461.128 9.944C462.232 10.44 463.08 11.144 463.672 12.056C464.264 12.968 464.56 14.048 464.56 15.296C464.56 16.528 464.264 17.608 463.672 18.536C463.08 19.448 462.232 20.152 461.128 20.648C460.04 21.128 458.752 21.368 457.264 21.368H453.88V26H449.992V9.2H457.264ZM457.048 18.2C458.216 18.2 459.104 17.952 459.712 17.456C460.32 16.944 460.624 16.224 460.624 15.296C460.624 14.352 460.32 13.632 459.712 13.136C459.104 12.624 458.216 12.368 457.048 12.368H453.88V18.2H457.048ZM484.904 9.2V26H481.016V19.112H473.384V26H469.496V9.2H473.384V15.824H481.016V9.2H484.904ZM502.103 22.4H494.303L492.815 26H488.831L496.319 9.2H500.159L507.671 26H503.591L502.103 22.4ZM500.879 19.448L498.215 13.016L495.551 19.448H500.879ZM517.094 26.288C515.766 26.288 514.478 26.112 513.23 25.76C511.998 25.392 511.006 24.92 510.254 24.344L511.574 21.416C512.294 21.944 513.15 22.368 514.142 22.688C515.134 23.008 516.126 23.168 517.118 23.168C518.222 23.168 519.038 23.008 519.566 22.688C520.094 22.352 520.358 21.912 520.358 21.368C520.358 20.968 520.198 20.64 519.878 20.384C519.574 20.112 519.174 19.896 518.678 19.736C518.198 19.576 517.542 19.4 516.71 19.208C515.43 18.904 514.382 18.6 513.566 18.296C512.75 17.992 512.046 17.504 511.454 16.832C510.878 16.16 510.59 15.264 510.59 14.144C510.59 13.168 510.854 12.288 511.382 11.504C511.91 10.704 512.702 10.072 513.758 9.608C514.83 9.144 516.134 8.912 517.67 8.912C518.742 8.912 519.79 9.04 520.814 9.296C521.838 9.552 522.734 9.92 523.502 10.4L522.302 13.352C520.75 12.472 519.198 12.032 517.646 12.032C516.558 12.032 515.75 12.208 515.222 12.56C514.71 12.912 514.454 13.376 514.454 13.952C514.454 14.528 514.75 14.96 515.342 15.248C515.95 15.52 516.87 15.792 518.102 16.064C519.382 16.368 520.43 16.672 521.246 16.976C522.062 17.28 522.758 17.76 523.334 18.416C523.926 19.072 524.222 19.96 524.222 21.08C524.222 22.04 523.95 22.92 523.406 23.72C522.878 24.504 522.078 25.128 521.006 25.592C519.934 26.056 518.63 26.288 517.094 26.288ZM542.046 22.88V26H529.038V9.2H541.734V12.32H532.902V15.968H540.702V18.992H532.902V22.88H542.046ZM563.049 16.04C564.521 16.28 565.649 16.832 566.433 17.696C567.217 18.544 567.609 19.6 567.609 20.864C567.609 21.84 567.353 22.744 566.841 23.576C566.329 24.392 565.545 25.048 564.489 25.544C563.449 26.04 562.169 26.288 560.649 26.288C559.465 26.288 558.297 26.136 557.145 25.832C556.009 25.512 555.041 25.064 554.241 24.488L555.753 21.512C556.393 21.992 557.129 22.368 557.961 22.64C558.809 22.896 559.673 23.024 560.553 23.024C561.529 23.024 562.297 22.84 562.857 22.472C563.417 22.088 563.697 21.552 563.697 20.864C563.697 19.488 562.649 18.8 560.553 18.8H558.777V16.232L562.233 12.32H555.081V9.2H566.841V11.72L563.049 16.04Z" fill="white"/>
<path d="M681.264 9.2C682.752 9.2 684.04 9.448 685.128 9.944C686.232 10.44 687.08 11.144 687.672 12.056C688.264 12.968 688.56 14.048 688.56 15.296C688.56 16.528 688.264 17.608 687.672 18.536C687.08 19.448 686.232 20.152 685.128 20.648C684.04 21.128 682.752 21.368 681.264 21.368H677.88V26H673.992V9.2H681.264ZM681.048 18.2C682.216 18.2 683.104 17.952 683.712 17.456C684.32 16.944 684.624 16.224 684.624 15.296C684.624 14.352 684.32 13.632 683.712 13.136C683.104 12.624 682.216 12.368 681.048 12.368H677.88V18.2H681.048ZM708.904 9.2V26H705.016V19.112H697.384V26H693.496V9.2H697.384V15.824H705.016V9.2H708.904ZM726.103 22.4H718.303L716.815 26H712.831L720.319 9.2H724.159L731.671 26H727.591L726.103 22.4ZM724.879 19.448L722.215 13.016L719.551 19.448H724.879ZM741.094 26.288C739.766 26.288 738.478 26.112 737.23 25.76C735.998 25.392 735.006 24.92 734.254 24.344L735.574 21.416C736.294 21.944 737.15 22.368 738.142 22.688C739.134 23.008 740.126 23.168 741.118 23.168C742.222 23.168 743.038 23.008 743.566 22.688C744.094 22.352 744.358 21.912 744.358 21.368C744.358 20.968 744.198 20.64 743.878 20.384C743.574 20.112 743.174 19.896 742.678 19.736C742.198 19.576 741.542 19.4 740.71 19.208C739.43 18.904 738.382 18.6 737.566 18.296C736.75 17.992 736.046 17.504 735.454 16.832C734.878 16.16 734.59 15.264 734.59 14.144C734.59 13.168 734.854 12.288 735.382 11.504C735.91 10.704 736.702 10.072 737.758 9.608C738.83 9.144 740.134 8.912 741.67 8.912C742.742 8.912 743.79 9.04 744.814 9.296C745.838 9.552 746.734 9.92 747.502 10.4L746.302 13.352C744.75 12.472 743.198 12.032 741.646 12.032C740.558 12.032 739.75 12.208 739.222 12.56C738.71 12.912 738.454 13.376 738.454 13.952C738.454 14.528 738.75 14.96 739.342 15.248C739.95 15.52 740.87 15.792 742.102 16.064C743.382 16.368 744.43 16.672 745.246 16.976C746.062 17.28 746.758 17.76 747.334 18.416C747.926 19.072 748.222 19.96 748.222 21.08C748.222 22.04 747.95 22.92 747.406 23.72C746.878 24.504 746.078 25.128 745.006 25.592C743.934 26.056 742.63 26.288 741.094 26.288ZM766.046 22.88V26H753.038V9.2H765.734V12.32H756.902V15.968H764.702V18.992H756.902V22.88H766.046ZM794.585 22.472H791.849V26H788.057V22.472H779.009V19.856L786.929 9.2H791.009L783.665 19.304H788.177V16.16H791.849V19.304H794.585V22.472Z" fill="white"/>
<line y1="55.5" x2="905" y2="55.5" stroke="white"/>
<circle cx="12" cy="56" r="12" fill="white"/>
<circle cx="236" cy="56" r="11.5" fill="#060A0E" stroke="white"/>
<circle cx="460" cy="56" r="11.5" fill="#060A0D" stroke="white"/>
<circle cx="684" cy="56" r="11.5" fill="#040609" stroke="white"/>
<path d="M905.264 9.2C906.752 9.2 908.04 9.448 909.128 9.944C910.232 10.44 911.08 11.144 911.672 12.056C912.264 12.968 912.56 14.048 912.56 15.296C912.56 16.528 912.264 17.608 911.672 18.536C911.08 19.448 910.232 20.152 909.128 20.648C908.04 21.128 906.752 21.368 905.264 21.368H901.88V26H897.992V9.2H905.264ZM905.048 18.2C906.216 18.2 907.104 17.952 907.712 17.456C908.32 16.944 908.624 16.224 908.624 15.296C908.624 14.352 908.32 13.632 907.712 13.136C907.104 12.624 906.216 12.368 905.048 12.368H901.88V18.2H905.048ZM932.904 9.2V26H929.016V19.112H921.384V26H917.496V9.2H921.384V15.824H929.016V9.2H932.904ZM950.103 22.4H942.303L940.815 26H936.831L944.319 9.2H948.159L955.671 26H951.591L950.103 22.4ZM948.879 19.448L946.215 13.016L943.551 19.448H948.879ZM965.094 26.288C963.766 26.288 962.478 26.112 961.23 25.76C959.998 25.392 959.006 24.92 958.254 24.344L959.574 21.416C960.294 21.944 961.15 22.368 962.142 22.688C963.134 23.008 964.126 23.168 965.118 23.168C966.222 23.168 967.038 23.008 967.566 22.688C968.094 22.352 968.358 21.912 968.358 21.368C968.358 20.968 968.198 20.64 967.878 20.384C967.574 20.112 967.174 19.896 966.678 19.736C966.198 19.576 965.542 19.4 964.71 19.208C963.43 18.904 962.382 18.6 961.566 18.296C960.75 17.992 960.046 17.504 959.454 16.832C958.878 16.16 958.59 15.264 958.59 14.144C958.59 13.168 958.854 12.288 959.382 11.504C959.91 10.704 960.702 10.072 961.758 9.608C962.83 9.144 964.134 8.912 965.67 8.912C966.742 8.912 967.79 9.04 968.814 9.296C969.838 9.552 970.734 9.92 971.502 10.4L970.302 13.352C968.75 12.472 967.198 12.032 965.646 12.032C964.558 12.032 963.75 12.208 963.222 12.56C962.71 12.912 962.454 13.376 962.454 13.952C962.454 14.528 962.75 14.96 963.342 15.248C963.95 15.52 964.87 15.792 966.102 16.064C967.382 16.368 968.43 16.672 969.246 16.976C970.062 17.28 970.758 17.76 971.334 18.416C971.926 19.072 972.222 19.96 972.222 21.08C972.222 22.04 971.95 22.92 971.406 23.72C970.878 24.504 970.078 25.128 969.006 25.592C967.934 26.056 966.63 26.288 965.094 26.288ZM990.046 22.88V26H977.038V9.2H989.734V12.32H980.902V15.968H988.702V18.992H980.902V22.88H990.046ZM1008.96 15.512C1011.33 15.512 1013.07 15.984 1014.19 16.928C1015.33 17.872 1015.9 19.136 1015.9 20.72C1015.9 21.744 1015.64 22.68 1015.13 23.528C1014.62 24.36 1013.83 25.032 1012.78 25.544C1011.74 26.04 1010.45 26.288 1008.91 26.288C1007.73 26.288 1006.56 26.136 1005.41 25.832C1004.27 25.512 1003.3 25.064 1002.5 24.488L1004.04 21.512C1004.68 21.992 1005.42 22.368 1006.25 22.64C1007.08 22.896 1007.94 23.024 1008.82 23.024C1009.79 23.024 1010.56 22.832 1011.12 22.448C1011.68 22.064 1011.96 21.528 1011.96 20.84C1011.96 20.12 1011.66 19.576 1011.07 19.208C1010.5 18.84 1009.49 18.656 1008.05 18.656H1003.75L1004.62 9.2H1014.86V12.32H1007.86L1007.59 15.512H1008.96Z" fill="white"/>
<circle cx="908" cy="56" r="11.5" fill="#040609" stroke="white"/>
</svg>
