<svg width="990" height="69" viewBox="0 0 990 69" fill="none" xmlns="http://www.w3.org/2000/svg">
<path d="M6.752 17.192C10.272 17.192 12.88 14.744 12.88 11.4C12.88 8.056 10.272 5.608 6.752 5.608C3.216 5.608 0.624 8.072 0.624 11.4C0.624 14.728 3.216 17.192 6.752 17.192ZM6.752 14.984C4.752 14.984 3.248 13.528 3.248 11.4C3.248 9.272 4.752 7.816 6.752 7.816C8.752 7.816 10.256 9.272 10.256 11.4C10.256 13.528 8.752 14.984 6.752 14.984ZM22.924 17.192C26.108 17.192 27.996 15.368 27.996 12.072V5.8H25.436V11.976C25.436 14.104 24.524 14.984 22.94 14.984C21.372 14.984 20.444 14.104 20.444 11.976V5.8H17.852V12.072C17.852 15.368 19.74 17.192 22.924 17.192ZM43.5974 17L41.0854 13.4C42.5414 12.776 43.3894 11.544 43.3894 9.864C43.3894 7.352 41.5174 5.8 38.5254 5.8H33.6774V17H36.2694V13.88H38.5254H38.6534L40.8134 17H43.5974ZM40.7654 9.864C40.7654 11.08 39.9654 11.816 38.3814 11.816H36.2694V7.912H38.3814C39.9654 7.912 40.7654 8.632 40.7654 9.864ZM58.5342 17H61.1262V7.912H64.7102V5.8H54.9502V7.912H58.5342V17ZM71.8009 14.92V12.328H77.0009V10.312H71.8009V7.88H77.6889V5.8H69.2249V17H77.8969V14.92H71.8009ZM91.4473 17H94.1673L89.1593 5.8H86.5993L81.6073 17H84.2633L85.2553 14.6H90.4553L91.4473 17ZM86.0873 12.632L87.8633 8.344L89.6393 12.632H86.0873ZM111.073 17L111.041 5.8H108.913L104.785 12.76L100.593 5.8H98.4492V17H100.881V10.424L104.161 15.816H105.329L108.625 10.28L108.641 17H111.073ZM129.926 17.192C133.446 17.192 136.054 14.744 136.054 11.4C136.054 8.056 133.446 5.608 129.926 5.608C126.39 5.608 123.798 8.072 123.798 11.4C123.798 14.728 126.39 17.192 129.926 17.192ZM129.926 14.984C127.926 14.984 126.422 13.528 126.422 11.4C126.422 9.272 127.926 7.816 129.926 7.816C131.926 7.816 133.43 9.272 133.43 11.4C133.43 13.528 131.926 14.984 129.926 14.984ZM149.586 7.88V5.8H141.122V17H143.714V12.92H148.898V10.84H143.714V7.88H149.586ZM166.96 5.8H162.112V17H164.704V13.912H166.96C169.952 13.912 171.824 12.36 171.824 9.864C171.824 7.352 169.952 5.8 166.96 5.8ZM166.816 11.8H164.704V7.912H166.816C168.4 7.912 169.2 8.632 169.2 9.864C169.2 11.08 168.4 11.8 166.816 11.8ZM186.714 17L184.202 13.4C185.658 12.776 186.506 11.544 186.506 9.864C186.506 7.352 184.634 5.8 181.642 5.8H176.794V17H179.386V13.88H181.642H181.77L183.93 17H186.714ZM183.882 9.864C183.882 11.08 183.082 11.816 181.498 11.816H179.386V7.912H181.498C183.082 7.912 183.882 8.632 183.882 9.864ZM197.104 17.192C200.624 17.192 203.232 14.744 203.232 11.4C203.232 8.056 200.624 5.608 197.104 5.608C193.568 5.608 190.976 8.072 190.976 11.4C190.976 14.728 193.568 17.192 197.104 17.192ZM197.104 14.984C195.104 14.984 193.6 13.528 193.6 11.4C193.6 9.272 195.104 7.816 197.104 7.816C199.104 7.816 200.608 9.272 200.608 11.4C200.608 13.528 199.104 14.984 197.104 14.984ZM216.764 7.88V5.8H208.3V17H210.892V12.92H216.076V10.84H210.892V7.88H216.764ZM224.215 14.92V12.328H229.415V10.312H224.215V7.88H230.103V5.8H221.639V17H230.311V14.92H224.215ZM239.173 17.192C242.373 17.192 243.925 15.592 243.925 13.72C243.925 9.608 237.413 11.032 237.413 8.968C237.413 8.264 238.005 7.688 239.541 7.688C240.533 7.688 241.605 7.976 242.645 8.568L243.445 6.6C242.405 5.944 240.965 5.608 239.557 5.608C236.373 5.608 234.837 7.192 234.837 9.096C234.837 13.256 241.349 11.816 241.349 13.912C241.349 14.6 240.725 15.112 239.189 15.112C237.845 15.112 236.437 14.632 235.493 13.944L234.613 15.896C235.605 16.664 237.397 17.192 239.173 17.192ZM252.496 17.192C255.696 17.192 257.248 15.592 257.248 13.72C257.248 9.608 250.736 11.032 250.736 8.968C250.736 8.264 251.328 7.688 252.864 7.688C253.856 7.688 254.928 7.976 255.968 8.568L256.768 6.6C255.728 5.944 254.288 5.608 252.88 5.608C249.696 5.608 248.16 7.192 248.16 9.096C248.16 13.256 254.672 11.816 254.672 13.912C254.672 14.6 254.048 15.112 252.512 15.112C251.168 15.112 249.76 14.632 248.816 13.944L247.936 15.896C248.928 16.664 250.72 17.192 252.496 17.192ZM262.139 17H264.731V5.8H262.139V17ZM275.933 17.192C279.453 17.192 282.061 14.744 282.061 11.4C282.061 8.056 279.453 5.608 275.933 5.608C272.397 5.608 269.805 8.072 269.805 11.4C269.805 14.728 272.397 17.192 275.933 17.192ZM275.933 14.984C273.933 14.984 272.429 13.528 272.429 11.4C272.429 9.272 273.933 7.816 275.933 7.816C277.933 7.816 279.437 9.272 279.437 11.4C279.437 13.528 277.933 14.984 275.933 14.984ZM294.841 5.8V12.6L289.273 5.8H287.129V17H289.689V10.2L295.273 17H297.401V5.8H294.841ZM311.539 17H314.259L309.251 5.8H306.691L301.699 17H304.355L305.347 14.6H310.547L311.539 17ZM306.179 12.632L307.955 8.344L309.731 12.632H306.179ZM318.541 17H326.749V14.888H321.133V5.8H318.541V17ZM334.935 17.192C338.135 17.192 339.687 15.592 339.687 13.72C339.687 9.608 333.175 11.032 333.175 8.968C333.175 8.264 333.767 7.688 335.303 7.688C336.295 7.688 337.367 7.976 338.407 8.568L339.207 6.6C338.167 5.944 336.727 5.608 335.319 5.608C332.135 5.608 330.599 7.192 330.599 9.096C330.599 13.256 337.111 11.816 337.111 13.912C337.111 14.6 336.487 15.112 334.951 15.112C333.607 15.112 332.199 14.632 331.255 13.944L330.375 15.896C331.367 16.664 333.159 17.192 334.935 17.192ZM366.677 5.8L364.069 13.736L361.509 5.8H359.109L356.469 13.672L353.941 5.8H351.253L354.933 17H357.701L360.245 9.416L362.709 17H365.493L369.157 5.8H366.677ZM379.008 17.192C382.528 17.192 385.136 14.744 385.136 11.4C385.136 8.056 382.528 5.608 379.008 5.608C375.472 5.608 372.88 8.072 372.88 11.4C372.88 14.728 375.472 17.192 379.008 17.192ZM379.008 14.984C377.008 14.984 375.504 13.528 375.504 11.4C375.504 9.272 377.008 7.816 379.008 7.816C381.008 7.816 382.512 9.272 382.512 11.4C382.512 13.528 381.008 14.984 379.008 14.984ZM400.124 17L397.612 13.4C399.068 12.776 399.916 11.544 399.916 9.864C399.916 7.352 398.044 5.8 395.052 5.8H390.204V17H392.796V13.88H395.052H395.18L397.34 17H400.124ZM397.292 9.864C397.292 11.08 396.492 11.816 394.908 11.816H392.796V7.912H394.908C396.492 7.912 397.292 8.632 397.292 9.864ZM412.753 17H415.777L410.865 10.792L415.505 5.8H412.625L407.665 11.032V5.8H405.089V17H407.665V14.168L409.169 12.6L412.753 17ZM423.499 17.192C426.699 17.192 428.251 15.592 428.251 13.72C428.251 9.608 421.739 11.032 421.739 8.968C421.739 8.264 422.331 7.688 423.867 7.688C424.859 7.688 425.931 7.976 426.971 8.568L427.771 6.6C426.731 5.944 425.291 5.608 423.883 5.608C420.699 5.608 419.163 7.192 419.163 9.096C419.163 13.256 425.675 11.816 425.675 13.912C425.675 14.6 425.051 15.112 423.515 15.112C422.171 15.112 420.763 14.632 419.819 13.944L418.939 15.896C419.931 16.664 421.723 17.192 423.499 17.192ZM443.113 17H445.705V7.912H449.289V5.8H439.529V7.912H443.113V17ZM459.071 17.192C462.591 17.192 465.199 14.744 465.199 11.4C465.199 8.056 462.591 5.608 459.071 5.608C455.535 5.608 452.943 8.072 452.943 11.4C452.943 14.728 455.535 17.192 459.071 17.192ZM459.071 14.984C457.071 14.984 455.567 13.528 455.567 11.4C455.567 9.272 457.071 7.816 459.071 7.816C461.071 7.816 462.575 9.272 462.575 11.4C462.575 13.528 461.071 14.984 459.071 14.984ZM483.279 17.192C485.231 17.192 486.847 16.488 487.903 15.192L486.239 13.656C485.487 14.536 484.543 14.984 483.423 14.984C481.327 14.984 479.839 13.512 479.839 11.4C479.839 9.288 481.327 7.816 483.423 7.816C484.543 7.816 485.487 8.264 486.239 9.128L487.903 7.592C486.847 6.312 485.231 5.608 483.295 5.608C479.807 5.608 477.215 8.024 477.215 11.4C477.215 14.776 479.807 17.192 483.279 17.192ZM502.693 17L500.181 13.4C501.637 12.776 502.485 11.544 502.485 9.864C502.485 7.352 500.613 5.8 497.621 5.8H492.773V17H495.365V13.88H497.621H497.749L499.909 17H502.693ZM499.861 9.864C499.861 11.08 499.061 11.816 497.477 11.816H495.365V7.912H497.477C499.061 7.912 499.861 8.632 499.861 9.864ZM510.235 14.92V12.328H515.435V10.312H510.235V7.88H516.123V5.8H507.659V17H516.331V14.92H510.235ZM529.881 17H532.601L527.593 5.8H525.033L520.041 17H522.697L523.689 14.6H528.889L529.881 17ZM524.521 12.632L526.297 8.344L528.073 12.632H524.521ZM538.64 17H541.232V7.912H544.816V5.8H535.056V7.912H538.64V17ZM551.907 14.92V12.328H557.107V10.312H551.907V7.88H557.795V5.8H549.331V17H558.003V14.92H551.907ZM576.261 17.192C579.781 17.192 582.389 14.744 582.389 11.4C582.389 8.056 579.781 5.608 576.261 5.608C572.725 5.608 570.133 8.072 570.133 11.4C570.133 14.728 572.725 17.192 576.261 17.192ZM576.261 14.984C574.261 14.984 572.757 13.528 572.757 11.4C572.757 9.272 574.261 7.816 576.261 7.816C578.261 7.816 579.765 9.272 579.765 11.4C579.765 13.528 578.261 14.984 576.261 14.984ZM595.169 5.8V12.6L589.601 5.8H587.457V17H590.017V10.2L595.601 17H597.729V5.8H595.169ZM606.075 14.92V12.328H611.275V10.312H606.075V7.88H611.963V5.8H603.499V17H612.171V14.92H606.075ZM630.428 17.192C633.948 17.192 636.556 14.744 636.556 11.4C636.556 8.056 633.948 5.608 630.428 5.608C626.892 5.608 624.3 8.072 624.3 11.4C624.3 14.728 626.892 17.192 630.428 17.192ZM630.428 14.984C628.428 14.984 626.924 13.528 626.924 11.4C626.924 9.272 628.428 7.816 630.428 7.816C632.428 7.816 633.932 9.272 633.932 11.4C633.932 13.528 632.428 14.984 630.428 14.984ZM650.088 7.88V5.8H641.624V17H644.216V12.92H649.4V10.84H644.216V7.88H650.088ZM664.934 17H667.526V7.912H671.11V5.8H661.35V7.912H664.934V17ZM683.305 5.8V10.216H678.217V5.8H675.625V17H678.217V12.408H683.305V17H685.897V5.8H683.305ZM694.243 14.92V12.328H699.443V10.312H694.243V7.88H700.131V5.8H691.667V17H700.339V14.92H694.243ZM721.396 11.176C722.308 10.696 722.884 9.832 722.884 8.712C722.884 6.968 721.444 5.8 718.644 5.8H713.172V17H718.964C721.908 17 723.444 15.88 723.444 13.944C723.444 12.536 722.644 11.576 721.396 11.176ZM718.324 7.752C719.588 7.752 720.276 8.184 720.276 9.064C720.276 9.944 719.588 10.392 718.324 10.392H715.748V7.752H718.324ZM718.772 15.048H715.748V12.28H718.772C720.116 12.28 720.836 12.728 720.836 13.672C720.836 14.632 720.116 15.048 718.772 15.048ZM731.103 14.92V12.328H736.303V10.312H731.103V7.88H736.991V5.8H728.527V17H737.199V14.92H731.103ZM746.061 17.192C749.261 17.192 750.813 15.592 750.813 13.72C750.813 9.608 744.301 11.032 744.301 8.968C744.301 8.264 744.893 7.688 746.429 7.688C747.421 7.688 748.493 7.976 749.533 8.568L750.333 6.6C749.293 5.944 747.853 5.608 746.445 5.608C743.261 5.608 741.725 7.192 741.725 9.096C741.725 13.256 748.237 11.816 748.237 13.912C748.237 14.6 747.613 15.112 746.077 15.112C744.733 15.112 743.325 14.632 742.381 13.944L741.501 15.896C742.493 16.664 744.285 17.192 746.061 17.192ZM757.868 17H760.46V7.912H764.044V5.8H754.284V7.912H757.868V17ZM781.058 5.8H776.21V17H778.802V13.912H781.058C784.05 13.912 785.922 12.36 785.922 9.864C785.922 7.352 784.05 5.8 781.058 5.8ZM780.914 11.8H778.802V7.912H780.914C782.498 7.912 783.298 8.632 783.298 9.864C783.298 11.08 782.498 11.8 780.914 11.8ZM800.812 17L798.3 13.4C799.756 12.776 800.604 11.544 800.604 9.864C800.604 7.352 798.732 5.8 795.74 5.8H790.892V17H793.484V13.88H795.74H795.868L798.028 17H800.812ZM797.98 9.864C797.98 11.08 797.18 11.816 795.596 11.816H793.484V7.912H795.596C797.18 7.912 797.98 8.632 797.98 9.864ZM811.202 17.192C814.722 17.192 817.33 14.744 817.33 11.4C817.33 8.056 814.722 5.608 811.202 5.608C807.666 5.608 805.074 8.072 805.074 11.4C805.074 14.728 807.666 17.192 811.202 17.192ZM811.202 14.984C809.202 14.984 807.698 13.528 807.698 11.4C807.698 9.272 809.202 7.816 811.202 7.816C813.202 7.816 814.706 9.272 814.706 11.4C814.706 13.528 813.202 14.984 811.202 14.984ZM822.398 17H827.486C831.15 17 833.662 14.792 833.662 11.4C833.662 8.008 831.15 5.8 827.486 5.8H822.398V17ZM824.99 14.872V7.928H827.358C829.582 7.928 831.038 9.256 831.038 11.4C831.038 13.544 829.582 14.872 827.358 14.872H824.99ZM843.713 17.192C846.897 17.192 848.785 15.368 848.785 12.072V5.8H846.225V11.976C846.225 14.104 845.313 14.984 843.729 14.984C842.161 14.984 841.233 14.104 841.233 11.976V5.8H838.641V12.072C838.641 15.368 840.529 17.192 843.713 17.192ZM859.826 17.192C861.778 17.192 863.394 16.488 864.45 15.192L862.786 13.656C862.034 14.536 861.09 14.984 859.97 14.984C857.874 14.984 856.386 13.512 856.386 11.4C856.386 9.288 857.874 7.816 859.97 7.816C861.09 7.816 862.034 8.264 862.786 9.128L864.45 7.592C863.394 6.312 861.778 5.608 859.842 5.608C856.354 5.608 853.762 8.024 853.762 11.4C853.762 14.776 856.354 17.192 859.826 17.192ZM871.531 17H874.123V7.912H877.707V5.8H867.947V7.912H871.531V17ZM885.824 17.192C889.024 17.192 890.576 15.592 890.576 13.72C890.576 9.608 884.064 11.032 884.064 8.968C884.064 8.264 884.656 7.688 886.192 7.688C887.184 7.688 888.256 7.976 889.296 8.568L890.096 6.6C889.056 5.944 887.616 5.608 886.208 5.608C883.024 5.608 881.488 7.192 881.488 9.096C881.488 13.256 888 11.816 888 13.912C888 14.6 887.376 15.112 885.84 15.112C884.496 15.112 883.088 14.632 882.144 13.944L881.264 15.896C882.256 16.664 884.048 17.192 885.824 17.192ZM908.542 17.192C912.062 17.192 914.67 14.744 914.67 11.4C914.67 8.056 912.062 5.608 908.542 5.608C905.006 5.608 902.414 8.072 902.414 11.4C902.414 14.728 905.006 17.192 908.542 17.192ZM908.542 14.984C906.542 14.984 905.038 13.528 905.038 11.4C905.038 9.272 906.542 7.816 908.542 7.816C910.542 7.816 912.046 9.272 912.046 11.4C912.046 13.528 910.542 14.984 908.542 14.984ZM927.45 5.8V12.6L921.882 5.8H919.738V17H922.298V10.2L927.882 17H930.01V5.8H927.45ZM945.751 17H948.343V7.912H951.927V5.8H942.167V7.912H945.751V17ZM964.122 5.8V10.216H959.034V5.8H956.442V17H959.034V12.408H964.122V17H966.714V5.8H964.122ZM975.06 14.92V12.328H980.26V10.312H975.06V7.88H980.948V5.8H972.484V17H981.156V14.92H975.06ZM13.952 40L13.92 28.8H11.792L7.664 35.76L3.472 28.8H1.328V40H3.76V33.424L7.04 38.816H8.208L11.504 33.28L11.52 40H13.952ZM28.0972 40H30.8172L25.8092 28.8H23.2492L18.2572 40H20.9132L21.9052 37.6H27.1052L28.0972 40ZM22.7372 35.632L24.5132 31.344L26.2892 35.632H22.7372ZM45.0192 40L42.5072 36.4C43.9632 35.776 44.8112 34.544 44.8112 32.864C44.8112 30.352 42.9392 28.8 39.9472 28.8H35.0992V40H37.6912V36.88H39.9472H40.0752L42.2352 40H45.0192ZM42.1872 32.864C42.1872 34.08 41.3872 34.816 39.8032 34.816H37.6912V30.912H39.8032C41.3872 30.912 42.1872 31.632 42.1872 32.864ZM57.6489 40H60.6729L55.7609 33.792L60.4009 28.8H57.5209L52.5609 34.032V28.8H49.9849V40H52.5609V37.168L54.0649 35.6L57.6489 40ZM67.5246 37.92V35.328H72.7246V33.312H67.5246V30.88H73.4126V28.8H64.9486V40H73.6206V37.92H67.5246ZM81.123 40H83.715V30.912H87.299V28.8H77.539V30.912H81.123V40ZM92.0504 40.128C92.9144 40.128 93.6024 39.472 93.6024 38.56C93.6024 37.632 92.9144 37.024 92.0504 37.024C91.1864 37.024 90.4984 37.632 90.4984 38.56C90.4984 39.472 91.1864 40.128 92.0504 40.128ZM108.561 40H111.153V30.912H114.737V28.8H104.977V30.912H108.561V40ZM126.932 28.8V33.216H121.844V28.8H119.252V40H121.844V35.408H126.932V40H129.524V28.8H126.932ZM137.87 37.92V35.328H143.07V33.312H137.87V30.88H143.758V28.8H135.294V40H143.966V37.92H137.87ZM160.479 40.192C163.679 40.192 165.231 38.592 165.231 36.72C165.231 32.608 158.719 34.032 158.719 31.968C158.719 31.264 159.311 30.688 160.847 30.688C161.839 30.688 162.911 30.976 163.951 31.568L164.751 29.6C163.711 28.944 162.271 28.608 160.863 28.608C157.679 28.608 156.143 30.192 156.143 32.096C156.143 36.256 162.655 34.816 162.655 36.912C162.655 37.6 162.031 38.112 160.495 38.112C159.151 38.112 157.743 37.632 156.799 36.944L155.919 38.896C156.911 39.664 158.703 40.192 160.479 40.192ZM170.122 40H172.714V28.8H170.122V40ZM180.812 40H183.404V30.912H186.988V28.8H177.228V30.912H180.812V40ZM194.079 37.92V35.328H199.279V33.312H194.079V30.88H199.967V28.8H191.503V40H200.175V37.92H194.079ZM213.009 40H215.601V28.8H213.009V40ZM225.059 40.192C228.259 40.192 229.811 38.592 229.811 36.72C229.811 32.608 223.299 34.032 223.299 31.968C223.299 31.264 223.891 30.688 225.427 30.688C226.419 30.688 227.491 30.976 228.531 31.568L229.331 29.6C228.291 28.944 226.851 28.608 225.443 28.608C222.259 28.608 220.723 30.192 220.723 32.096C220.723 36.256 227.235 34.816 227.235 36.912C227.235 37.6 226.611 38.112 225.075 38.112C223.731 38.112 222.323 37.632 221.379 36.944L220.499 38.896C221.491 39.664 223.283 40.192 225.059 40.192ZM247.329 40.192C250.513 40.192 252.401 38.368 252.401 35.072V28.8H249.841V34.976C249.841 37.104 248.929 37.984 247.345 37.984C245.777 37.984 244.849 37.104 244.849 34.976V28.8H242.257V35.072C242.257 38.368 244.145 40.192 247.329 40.192ZM265.794 28.8V35.6L260.226 28.8H258.082V40H260.642V33.2L266.226 40H268.354V28.8H265.794ZM274.124 40H279.212C282.876 40 285.388 37.792 285.388 34.4C285.388 31.008 282.876 28.8 279.212 28.8H274.124V40ZM276.716 37.872V30.928H279.084C281.308 30.928 282.764 32.256 282.764 34.4C282.764 36.544 281.308 37.872 279.084 37.872H276.716ZM293.039 37.92V35.328H298.239V33.312H293.039V30.88H298.927V28.8H290.463V40H299.135V37.92H293.039ZM314.237 40L311.725 36.4C313.181 35.776 314.029 34.544 314.029 32.864C314.029 30.352 312.157 28.8 309.165 28.8H304.317V40H306.909V36.88H309.165H309.293L311.453 40H314.237ZM311.405 32.864C311.405 34.08 310.605 34.816 309.021 34.816H306.909V30.912H309.021C310.605 30.912 311.405 31.632 311.405 32.864ZM332.214 40.192C334.166 40.192 335.782 39.488 336.838 38.192L335.174 36.656C334.422 37.536 333.478 37.984 332.358 37.984C330.262 37.984 328.774 36.512 328.774 34.4C328.774 32.288 330.262 30.816 332.358 30.816C333.478 30.816 334.422 31.264 335.174 32.128L336.838 30.592C335.782 29.312 334.166 28.608 332.23 28.608C328.742 28.608 326.15 31.024 326.15 34.4C326.15 37.776 328.742 40.192 332.214 40.192ZM346.898 40.192C350.418 40.192 353.026 37.744 353.026 34.4C353.026 31.056 350.418 28.608 346.898 28.608C343.362 28.608 340.77 31.072 340.77 34.4C340.77 37.728 343.362 40.192 346.898 40.192ZM346.898 37.984C344.898 37.984 343.394 36.528 343.394 34.4C343.394 32.272 344.898 30.816 346.898 30.816C348.898 30.816 350.402 32.272 350.402 34.4C350.402 36.528 348.898 37.984 346.898 37.984ZM365.806 28.8V35.6L360.238 28.8H358.094V40H360.654V33.2L366.238 40H368.366V28.8H365.806ZM377.816 40.192C381.016 40.192 382.568 38.592 382.568 36.72C382.568 32.608 376.056 34.032 376.056 31.968C376.056 31.264 376.648 30.688 378.184 30.688C379.176 30.688 380.248 30.976 381.288 31.568L382.088 29.6C381.048 28.944 379.608 28.608 378.2 28.608C375.016 28.608 373.48 30.192 373.48 32.096C373.48 36.256 379.992 34.816 379.992 36.912C379.992 37.6 379.368 38.112 377.832 38.112C376.488 38.112 375.08 37.632 374.136 36.944L373.256 38.896C374.248 39.664 376.04 40.192 377.816 40.192ZM389.623 40H392.215V30.912H395.799V28.8H386.039V30.912H389.623V40ZM410.234 40L407.722 36.4C409.178 35.776 410.026 34.544 410.026 32.864C410.026 30.352 408.154 28.8 405.162 28.8H400.314V40H402.906V36.88H405.162H405.29L407.45 40H410.234ZM407.402 32.864C407.402 34.08 406.602 34.816 405.018 34.816H402.906V30.912H405.018C406.602 30.912 407.402 31.632 407.402 32.864ZM420.175 40.192C423.359 40.192 425.247 38.368 425.247 35.072V28.8H422.687V34.976C422.687 37.104 421.775 37.984 420.191 37.984C418.623 37.984 417.695 37.104 417.695 34.976V28.8H415.103V35.072C415.103 38.368 416.991 40.192 420.175 40.192ZM436.289 40.192C438.241 40.192 439.857 39.488 440.913 38.192L439.249 36.656C438.497 37.536 437.553 37.984 436.433 37.984C434.337 37.984 432.849 36.512 432.849 34.4C432.849 32.288 434.337 30.816 436.433 30.816C437.553 30.816 438.497 31.264 439.249 32.128L440.913 30.592C439.857 29.312 438.241 28.608 436.305 28.608C432.817 28.608 430.225 31.024 430.225 34.4C430.225 37.776 432.817 40.192 436.289 40.192ZM447.994 40H450.586V30.912H454.17V28.8H444.41V30.912H447.994V40ZM458.684 40H461.276V28.8H458.684V40ZM472.478 40.192C475.998 40.192 478.606 37.744 478.606 34.4C478.606 31.056 475.998 28.608 472.478 28.608C468.942 28.608 466.35 31.072 466.35 34.4C466.35 37.728 468.942 40.192 472.478 40.192ZM472.478 37.984C470.478 37.984 468.974 36.528 468.974 34.4C468.974 32.272 470.478 30.816 472.478 30.816C474.478 30.816 475.982 32.272 475.982 34.4C475.982 36.528 474.478 37.984 472.478 37.984ZM491.386 28.8V35.6L485.818 28.8H483.674V40H486.234V33.2L491.818 40H493.946V28.8H491.386ZM500.5 37.024C499.62 37.024 498.948 37.632 498.948 38.56C498.948 39.216 499.284 39.712 499.812 39.92L499.108 42.464H500.692L501.604 40.16C501.972 39.28 502.036 38.976 502.036 38.56C502.036 37.648 501.396 37.024 500.5 37.024ZM527.299 40L527.267 28.8H525.139L521.011 35.76L516.819 28.8H514.675V40H517.107V33.424L520.387 38.816H521.555L524.851 33.28L524.867 40H527.299ZM538.5 40.192C542.02 40.192 544.628 37.744 544.628 34.4C544.628 31.056 542.02 28.608 538.5 28.608C534.964 28.608 532.372 31.072 532.372 34.4C532.372 37.728 534.964 40.192 538.5 40.192ZM538.5 37.984C536.5 37.984 534.996 36.528 534.996 34.4C534.996 32.272 536.5 30.816 538.5 30.816C540.5 30.816 542.004 32.272 542.004 34.4C542.004 36.528 540.5 37.984 538.5 37.984ZM559.616 40L557.104 36.4C558.56 35.776 559.408 34.544 559.408 32.864C559.408 30.352 557.536 28.8 554.544 28.8H549.696V40H552.288V36.88H554.544H554.672L556.832 40H559.616ZM556.784 32.864C556.784 34.08 555.984 34.816 554.4 34.816H552.288V30.912H554.4C555.984 30.912 556.784 31.632 556.784 32.864ZM567.158 37.92V35.328H572.358V33.312H567.158V30.88H573.046V28.8H564.582V40H573.254V37.92H567.158ZM594.455 40H597.175L592.167 28.8H589.607L584.615 40H587.271L588.263 37.6H593.463L594.455 40ZM589.095 35.632L590.871 31.344L592.647 35.632H589.095ZM609.169 28.8V35.6L603.601 28.8H601.457V40H604.017V33.2L609.601 40H611.729V28.8H609.169ZM625.211 28.8V35.6L619.643 28.8H617.499V40H620.059V33.2L625.643 40H627.771V28.8H625.211ZM638.965 40.192C642.485 40.192 645.093 37.744 645.093 34.4C645.093 31.056 642.485 28.608 638.965 28.608C635.429 28.608 632.837 31.072 632.837 34.4C632.837 37.728 635.429 40.192 638.965 40.192ZM638.965 37.984C636.965 37.984 635.461 36.528 635.461 34.4C635.461 32.272 636.965 30.816 638.965 30.816C640.965 30.816 642.469 32.272 642.469 34.4C642.469 36.528 640.965 37.984 638.965 37.984ZM655.137 40.192C658.321 40.192 660.209 38.368 660.209 35.072V28.8H657.649V34.976C657.649 37.104 656.737 37.984 655.153 37.984C653.585 37.984 652.657 37.104 652.657 34.976V28.8H650.065V35.072C650.065 38.368 651.953 40.192 655.137 40.192ZM673.602 28.8V35.6L668.035 28.8H665.891V40H668.451V33.2L674.035 40H676.163V28.8H673.602ZM687.292 40.192C689.244 40.192 690.86 39.488 691.916 38.192L690.252 36.656C689.5 37.536 688.556 37.984 687.436 37.984C685.34 37.984 683.852 36.512 683.852 34.4C683.852 32.288 685.34 30.816 687.436 30.816C688.556 30.816 689.5 31.264 690.252 32.128L691.916 30.592C690.86 29.312 689.244 28.608 687.308 28.608C683.82 28.608 681.228 31.024 681.228 34.4C681.228 37.776 683.82 40.192 687.292 40.192ZM699.363 37.92V35.328H704.563V33.312H699.363V30.88H705.251V28.8H696.787V40H705.459V37.92H699.363ZM723.265 40L723.233 28.8H721.105L716.977 35.76L712.785 28.8H710.641V40H713.073V33.424L716.353 38.816H717.521L720.817 33.28L720.833 40H723.265ZM731.618 37.92V35.328H736.818V33.312H731.618V30.88H737.506V28.8H729.042V40H737.714V37.92H731.618ZM750.609 28.8V35.6L745.041 28.8H742.897V40H745.457V33.2L751.041 40H753.169V28.8H750.609ZM761.259 40H763.851V30.912H767.435V28.8H757.675V30.912H761.259V40ZM775.551 40.192C778.751 40.192 780.303 38.592 780.303 36.72C780.303 32.608 773.791 34.032 773.791 31.968C773.791 31.264 774.383 30.688 775.919 30.688C776.911 30.688 777.983 30.976 779.023 31.568L779.823 29.6C778.783 28.944 777.343 28.608 775.935 28.608C772.751 28.608 771.215 30.192 771.215 32.096C771.215 36.256 777.727 34.816 777.727 36.912C777.727 37.6 777.103 38.112 775.567 38.112C774.223 38.112 772.815 37.632 771.871 36.944L770.991 38.896C771.983 39.664 773.775 40.192 775.551 40.192ZM807.294 28.8L804.686 36.736L802.126 28.8H799.726L797.086 36.672L794.558 28.8H791.87L795.55 40H798.318L800.862 32.416L803.326 40H806.11L809.774 28.8H807.294ZM814.341 40H816.933V28.8H814.341V40ZM822.711 40H830.919V37.888H825.303V28.8H822.711V40ZM835.487 40H843.695V37.888H838.079V28.8H835.487V40ZM864.138 34.176C865.05 33.696 865.626 32.832 865.626 31.712C865.626 29.968 864.186 28.8 861.386 28.8H855.914V40H861.706C864.65 40 866.186 38.88 866.186 36.944C866.186 35.536 865.386 34.576 864.138 34.176ZM861.066 30.752C862.33 30.752 863.018 31.184 863.018 32.064C863.018 32.944 862.33 33.392 861.066 33.392H858.49V30.752H861.066ZM861.514 38.048H858.49V35.28H861.514C862.858 35.28 863.578 35.728 863.578 36.672C863.578 37.632 862.858 38.048 861.514 38.048ZM873.845 37.92V35.328H879.045V33.312H873.845V30.88H879.733V28.8H871.269V40H879.941V37.92H873.845ZM898.134 40.192C900.086 40.192 901.702 39.488 902.758 38.192L901.094 36.656C900.342 37.536 899.398 37.984 898.278 37.984C896.182 37.984 894.694 36.512 894.694 34.4C894.694 32.288 896.182 30.816 898.278 30.816C899.398 30.816 900.342 31.264 901.094 32.128L902.758 30.592C901.702 29.312 900.086 28.608 898.15 28.608C894.662 28.608 892.07 31.024 892.07 34.4C892.07 37.776 894.662 40.192 898.134 40.192ZM912.818 40.192C916.338 40.192 918.946 37.744 918.946 34.4C918.946 31.056 916.338 28.608 912.818 28.608C909.282 28.608 906.69 31.072 906.69 34.4C906.69 37.728 909.282 40.192 912.818 40.192ZM912.818 37.984C910.818 37.984 909.314 36.528 909.314 34.4C909.314 32.272 910.818 30.816 912.818 30.816C914.818 30.816 916.322 32.272 916.322 34.4C916.322 36.528 914.818 37.984 912.818 37.984ZM936.638 40L936.606 28.8H934.478L930.35 35.76L926.158 28.8H924.014V40H926.446V33.424L929.726 38.816H930.894L934.19 33.28L934.206 40H936.638ZM942.415 40H945.007V28.8H942.415V40ZM958.498 28.8V35.6L952.93 28.8H950.786V40H953.346V33.2L958.93 40H961.058V28.8H958.498ZM974.395 37.504C973.739 37.856 973.083 37.984 972.379 37.984C970.235 37.984 968.747 36.496 968.747 34.4C968.747 32.272 970.235 30.816 972.411 30.816C973.547 30.816 974.491 31.216 975.307 32.08L976.971 30.544C975.883 29.28 974.251 28.608 972.283 28.608C968.715 28.608 966.123 31.024 966.123 34.4C966.123 37.776 968.715 40.192 972.235 40.192C973.835 40.192 975.531 39.696 976.763 38.768V34.224H974.395V37.504ZM5.008 63.192C8.208 63.192 9.76 61.592 9.76 59.72C9.76 55.608 3.248 57.032 3.248 54.968C3.248 54.264 3.84 53.688 5.376 53.688C6.368 53.688 7.44 53.976 8.48 54.568L9.28 52.6C8.24 51.944 6.8 51.608 5.392 51.608C2.208 51.608 0.672 53.192 0.672 55.096C0.672 59.256 7.184 57.816 7.184 59.912C7.184 60.6 6.56 61.112 5.024 61.112C3.68 61.112 2.272 60.632 1.328 59.944L0.448 61.896C1.44 62.664 3.232 63.192 5.008 63.192ZM20.0751 63.192C23.5951 63.192 26.2031 60.744 26.2031 57.4C26.2031 54.056 23.5951 51.608 20.0751 51.608C16.5391 51.608 13.9471 54.072 13.9471 57.4C13.9471 60.728 16.5391 63.192 20.0751 63.192ZM20.0751 60.984C18.0751 60.984 16.5711 59.528 16.5711 57.4C16.5711 55.272 18.0751 53.816 20.0751 53.816C22.0751 53.816 23.5791 55.272 23.5791 57.4C23.5791 59.528 22.0751 60.984 20.0751 60.984ZM36.6951 63.192C40.2151 63.192 42.8231 60.744 42.8231 57.4C42.8231 54.056 40.2151 51.608 36.6951 51.608C33.1591 51.608 30.5671 54.072 30.5671 57.4C30.5671 60.728 33.1591 63.192 36.6951 63.192ZM36.6951 60.984C34.6951 60.984 33.1911 59.528 33.1911 57.4C33.1911 55.272 34.6951 53.816 36.6951 53.816C38.6951 53.816 40.1991 55.272 40.1991 57.4C40.1991 59.528 38.6951 60.984 36.6951 60.984ZM55.6031 51.8V58.6L50.0351 51.8H47.8911V63H50.4511V56.2L56.0351 63H58.1631V51.8H55.6031ZM64.701 63.128C65.565 63.128 66.253 62.472 66.253 61.56C66.253 60.632 65.565 60.024 64.701 60.024C63.837 60.024 63.149 60.632 63.149 61.56C63.149 62.472 63.837 63.128 64.701 63.128Z" fill="#E9E9E9"/>
</svg>
