<svg width="203" height="24" viewBox="0 0 203 24" fill="none" xmlns="http://www.w3.org/2000/svg">
<path d="M0.64 5.8H7.68C9.03467 5.8 10.1547 6.12 11.04 6.76C12 7.464 12.48 8.47733 12.48 9.8C12.4693 11.4 11.792 12.536 10.448 13.208C11.504 14.232 12.1813 15.496 12.48 17H8.816C8.21867 15.4107 6.82133 14.4027 4.624 13.976C4.464 13.944 4.30933 13.9173 4.16 13.896V17H0.64V5.8ZM4.16 9V10.6H8.16C8.50133 10.6 8.74667 10.4453 8.896 10.136C8.93867 10.0293 8.96 9.92267 8.96 9.816C8.97067 9.464 8.816 9.21333 8.496 9.064C8.38933 9.02133 8.28267 9 8.176 9H4.16ZM16.885 5.8H28.725V9H20.405V9.8H28.725V13H20.405V13.8H28.725V17H16.885V5.8ZM37.7775 5.8H43.2175L48.1775 17H44.3215C43.6815 16.1573 42.6948 15.7307 41.3615 15.72H37.2335L36.6735 17H32.8175L37.7775 5.8ZM40.4975 8.344L38.6575 12.52H41.3615C41.7028 12.52 42.0388 12.5413 42.3695 12.584L40.4975 8.344ZM52.2656 5.8H58.9856C60.7136 5.8 62.1803 6.17333 63.3856 6.92C64.9216 7.90133 65.695 9.39467 65.7056 11.4C65.7056 13.864 64.5803 15.5333 62.3296 16.408C61.3163 16.8027 60.2016 17 58.9856 17H52.2656V5.8ZM55.7856 9V13.8H58.9856C60.191 13.8 61.0763 13.496 61.6416 12.888C62.0043 12.4827 62.1856 11.9867 62.1856 11.4C62.1856 10.216 61.519 9.464 60.1856 9.144C59.791 9.048 59.391 9 58.9856 9H55.7856ZM77.2244 5.8H80.7444L86.3444 11.608L91.9444 5.8H95.4644V17H91.9444V10.872L86.3444 16.664L80.7444 10.872V17H77.2244V5.8ZM106.58 5.8C108.244 5.8 109.673 6.152 110.868 6.856C112.489 7.83733 113.305 9.352 113.316 11.4C113.316 13.864 112.185 15.5333 109.924 16.408C108.911 16.8027 107.796 17 106.58 17C104.724 17 103.193 16.584 101.988 15.752C100.58 14.7707 99.8707 13.32 99.86 11.4C99.86 8.94667 100.991 7.27733 103.252 6.392C104.276 5.99733 105.385 5.8 106.58 5.8ZM106.58 9C105.439 9 104.58 9.28267 104.004 9.848C103.588 10.2533 103.38 10.7707 103.38 11.4C103.38 11.7307 103.433 12.0293 103.54 12.296C103.657 12.552 103.796 12.7653 103.956 12.936C104.116 13.096 104.313 13.2347 104.548 13.352C104.783 13.4693 104.991 13.5547 105.172 13.608C105.364 13.6613 105.577 13.704 105.812 13.736C106.047 13.768 106.207 13.7893 106.292 13.8C106.388 13.8 106.484 13.8 106.58 13.8C107.796 13.8 108.687 13.496 109.252 12.888C109.604 12.4827 109.785 11.9867 109.796 11.4C109.796 10.2267 109.124 9.47467 107.78 9.144C107.385 9.048 106.985 9 106.58 9ZM117.699 5.8H124.739C126.093 5.8 127.213 6.12 128.099 6.76C129.059 7.464 129.539 8.47733 129.539 9.8C129.528 11.4 128.851 12.536 127.507 13.208C128.563 14.232 129.24 15.496 129.539 17H125.875C125.277 15.4107 123.88 14.4027 121.683 13.976C121.523 13.944 121.368 13.9173 121.219 13.896V17H117.699V5.8ZM121.219 9V10.6H125.219C125.56 10.6 125.805 10.4453 125.955 10.136C125.997 10.0293 126.019 9.92267 126.019 9.816C126.029 9.464 125.875 9.21333 125.555 9.064C125.448 9.02133 125.341 9 125.235 9H121.219ZM133.944 5.8H145.784V9H137.464V9.8H145.784V13H137.464V13.8H145.784V17H133.944V5.8Z" fill="white"/>
<path d="M0 18.6H146.424V19.4H0V18.6Z" fill="white"/>
<path d="M202.061 13.0607C202.646 12.4749 202.646 11.5251 202.061 10.9393L192.515 1.3934C191.929 0.807611 190.979 0.807611 190.393 1.3934C189.808 1.97919 189.808 2.92893 190.393 3.51472L198.879 12L190.393 20.4853C189.808 21.0711 189.808 22.0208 190.393 22.6066C190.979 23.1924 191.929 23.1924 192.515 22.6066L202.061 13.0607ZM158 13.5H201V10.5H158V13.5Z" fill="#E5E5E5"/>
</svg>
