<svg width="1181" height="105" viewBox="0 0 1181 105" fill="none" xmlns="http://www.w3.org/2000/svg">
<path d="M4.24683e-07 -7.15256e-06H66C78.7 -7.15256e-06 89.2 2.99999 97.5 8.99999C106.5 15.6 111 25.1 111 37.5C110.9 52.5 104.55 63.15 91.95 69.45C101.85 79.05 108.2 90.9 111 105H76.65C71.05 90.1 57.95 80.65 37.35 76.65C35.85 76.35 34.4 76.1 33 75.9V105H4.24683e-07V-7.15256e-06ZM33 30V45H70.5C73.7 45 76 43.55 77.4 40.65C77.8 39.65 78 38.65 78 37.65C78.1 34.35 76.65 32 73.65 30.6C72.65 30.2 71.65 30 70.65 30H33ZM215.297 -7.15256e-06C230.897 -7.15256e-06 244.297 3.3 255.497 9.9C270.697 19.1 278.347 33.3 278.447 52.5C278.447 75.6 267.847 91.25 246.647 99.45C237.147 103.15 226.697 105 215.297 105C197.897 105 183.547 101.1 172.247 93.3C159.047 84.1 152.397 70.5 152.297 52.5C152.297 29.5 162.897 13.85 184.097 5.54999C193.697 1.84999 204.097 -7.15256e-06 215.297 -7.15256e-06ZM215.297 30C204.597 30 196.547 32.65 191.147 37.95C187.247 41.75 185.297 46.6 185.297 52.5C185.297 55.6 185.797 58.4 186.797 60.9C187.897 63.3 189.197 65.3 190.697 66.9C192.197 68.4 194.047 69.7 196.247 70.8C198.447 71.9 200.397 72.7 202.097 73.2C203.897 73.7 205.897 74.1 208.097 74.4C210.297 74.7 211.797 74.9 212.597 75C213.497 75 214.397 75 215.297 75C226.697 75 235.047 72.15 240.347 66.45C243.647 62.65 245.347 58 245.447 52.5C245.447 41.5 239.147 34.45 226.547 31.35C222.847 30.45 219.097 30 215.297 30ZM366.035 -7.15256e-06H417.035L463.535 105H427.385C421.385 97.1 412.135 93.1 399.635 93H360.935L355.685 105H319.535L366.035 -7.15256e-06ZM391.535 23.85L374.285 63H399.635C402.835 63 405.985 63.2 409.085 63.6L391.535 23.85ZM504.791 -7.15256e-06H567.791C583.991 -7.15256e-06 597.741 3.49999 609.041 10.5C623.441 19.7 630.691 33.7 630.791 52.5C630.791 75.6 620.241 91.25 599.141 99.45C589.641 103.15 579.191 105 567.791 105H504.791V-7.15256e-06ZM537.791 30V75H567.791C579.091 75 587.391 72.15 592.691 66.45C596.091 62.65 597.791 58 597.791 52.5C597.791 41.4 591.541 34.35 579.041 31.35C575.341 30.45 571.591 30 567.791 30H537.791ZM672.029 -7.15256e-06H705.029L757.529 54.45L810.029 -7.15256e-06H843.029V105H810.029V47.55L757.529 101.85L705.029 47.55V105H672.029V-7.15256e-06ZM930.738 -7.15256e-06H981.738L1028.24 105H992.088C986.088 97.1 976.838 93.1 964.338 93H925.638L920.388 105H884.238L930.738 -7.15256e-06ZM956.238 23.85L938.988 63H964.338C967.538 63 970.688 63.2 973.788 63.6L956.238 23.85ZM1069.49 -7.15256e-06H1135.49C1148.19 -7.15256e-06 1158.69 2.99999 1166.99 8.99999C1175.89 15.6 1180.39 25.1 1180.49 37.5C1180.49 55 1172.14 66.5 1155.44 72C1149.24 74 1142.59 75 1135.49 75H1102.49V105H1069.49V-7.15256e-06ZM1102.49 30V45H1139.99C1143.19 45 1145.44 43.55 1146.74 40.65C1147.24 39.65 1147.49 38.65 1147.49 37.65C1147.59 34.35 1146.14 32 1143.14 30.6C1142.14 30.2 1141.14 30 1140.14 30H1102.49Z" fill="white"/>
</svg>
