<svg width="964" height="105" viewBox="0 0 964 105" fill="none" xmlns="http://www.w3.org/2000/svg">
<path d="M40.2 -7.15256e-06H85.8C97.8 -7.15256e-06 107.55 2.94999 115.05 8.85C122.25 14.85 125.9 23.15 126 33.75H93C92.9 31.85 91.9 30.65 90 30.15C89.7 30.05 89.45 30 89.25 30H36.75C34.85 30 33.65 30.9 33.15 32.7C33.15 33.1 33.1 33.45 33 33.75C33 35.65 33.95 36.85 35.85 37.35C36.15 37.45 36.45 37.5 36.75 37.5H85.65C98.75 37.5 109 40.8 116.4 47.4C122.9 53.2 126.15 61.15 126.15 71.25C126.15 87.15 118.4 97.55 102.9 102.45C97.5 104.15 91.8 105 85.8 105H40.5C28.4 105 18.65 102.05 11.25 96.15C3.95 90.25 0.25 81.95 0.15 71.25H33.3C33.3 72.95 34.1 74.1 35.7 74.7C36.2 74.9 36.6 75 36.9 75H89.4C91.3 75 92.5 74.1 93 72.3C93.1 71.9 93.15 71.55 93.15 71.25C93.15 69.35 92.25 68.15 90.45 67.65C90.05 67.55 89.7 67.5 89.4 67.5H40.5C27.5 67.5 17.3 64.25 9.9 57.75C3.3 51.85 4.24683e-07 43.85 4.24683e-07 33.75C4.24683e-07 17.85 7.8 7.45 23.4 2.55C28.7 0.849994 34.3 -7.15256e-06 40.2 -7.15256e-06ZM175.635 -7.15256e-06H286.635V30H208.635V37.5H286.635V67.5H208.635V75H286.635V105H175.635V-7.15256e-06ZM336.182 -7.15256e-06H399.182C415.382 -7.15256e-06 429.132 3.49999 440.432 10.5C454.832 19.7 462.082 33.7 462.182 52.5C462.182 75.6 451.632 91.25 430.532 99.45C421.032 103.15 410.582 105 399.182 105H336.182V-7.15256e-06ZM369.182 30V75H399.182C410.482 75 418.782 72.15 424.082 66.45C427.482 62.65 429.182 58 429.182 52.5C429.182 41.4 422.932 34.35 410.432 31.35C406.732 30.45 402.982 30 399.182 30H369.182ZM511.67 -7.15256e-06H544.67V105H511.67V-7.15256e-06ZM594.141 -7.15256e-06H705.141V30H666.141V105H633.141V30H594.141V-7.15256e-06ZM754.688 -7.15256e-06H787.688V105H754.688V-7.15256e-06ZM900.158 -7.15256e-06C915.758 -7.15256e-06 929.158 3.3 940.358 9.9C955.558 19.1 963.208 33.3 963.308 52.5C963.308 75.6 952.708 91.25 931.508 99.45C922.008 103.15 911.558 105 900.158 105C882.758 105 868.408 101.1 857.108 93.3C843.908 84.1 837.258 70.5 837.158 52.5C837.158 29.5 847.758 13.85 868.958 5.54999C878.558 1.84999 888.958 -7.15256e-06 900.158 -7.15256e-06ZM900.158 30C889.458 30 881.408 32.65 876.008 37.95C872.108 41.75 870.158 46.6 870.158 52.5C870.158 55.6 870.658 58.4 871.658 60.9C872.758 63.3 874.058 65.3 875.558 66.9C877.058 68.4 878.908 69.7 881.108 70.8C883.308 71.9 885.258 72.7 886.958 73.2C888.758 73.7 890.758 74.1 892.958 74.4C895.158 74.7 896.658 74.9 897.458 75C898.358 75 899.258 75 900.158 75C911.558 75 919.908 72.15 925.208 66.45C928.508 62.65 930.208 58 930.308 52.5C930.308 41.5 924.008 34.45 911.408 31.35C907.708 30.45 903.958 30 900.158 30Z" fill="white"/>
</svg>
