<svg width="1489" height="191" viewBox="0 0 1489 191" fill="none" xmlns="http://www.w3.org/2000/svg">
<path d="M5.43892e-07 189L89 190.25C135.5 190.25 194.75 181.25 194.75 143.25C194.75 76.5 18.75 107.5 18.75 52.25C18.75 25.25 58.5 14.25 97.5 14.25C157.5 14.25 177.5 29.25 177.5 58H181.25V14L97.5 12.75C51.25 12.75 2.5 24.5 2.5 61.25C2.5 125.75 175.25 92.25 175.25 152.5C175.25 181 128.25 188.75 89 188.75C59.75 188.75 3 189 3 145H5.43892e-07V189ZM438.152 168.25C428.152 180 411.152 187.75 395.902 187.75H293.902V96H394.402C406.652 96 418.652 103 424.902 113.75L425.152 114.25H426.402V76.5H425.152L424.902 77C418.652 87.75 406.652 94.75 394.402 94.75H293.902V15.25H395.902C411.152 15.25 428.152 23 438.152 34.75L441.902 39H443.152V14H261.152V15.25H273.652V187.75H261.152V189H443.152V164H441.902L438.152 168.25ZM509.854 14V15.25H522.354V187.75H509.854V189H613.354C739.604 189 739.604 14 613.354 14H509.854ZM613.354 15.25C711.354 15.25 711.354 187 613.354 187.75H542.604V15.25H613.354ZM795.912 66.25H797.162V52.25C797.162 41.25 804.412 33.75 815.662 33.75H816.162V32.5H815.662C804.412 32.5 797.162 25 797.162 14V0.499998H795.912V14C795.912 25 788.412 32.5 777.412 32.5H777.162V33.75H777.412C788.412 33.75 795.912 41.25 795.912 52.25V66.25ZM774.912 81.75V83H787.412V187.75H774.912V189H820.412V187.75H807.662V83H820.412V81.75H774.912ZM889.889 37.5C901.389 24.25 920.639 15.25 938.139 15.25H968.889V187.75H956.389V189H1001.89V187.75H989.139V15.25H1018.14C1035.64 15.25 1054.89 24 1066.39 37.5L1067.64 39H1068.89V14H887.389V39H888.639L889.889 37.5ZM1156.84 66.25H1158.09V52.25C1158.09 41.25 1165.34 33.75 1176.59 33.75H1177.09V32.5H1176.59C1165.34 32.5 1158.09 25 1158.09 14V0.499998H1156.84V14C1156.84 25 1149.34 32.5 1138.34 32.5H1138.09V33.75H1138.34C1149.34 33.75 1156.84 41.25 1156.84 52.25V66.25ZM1135.84 81.75V83H1148.34V187.75H1135.84V189H1181.34V187.75H1168.59V83H1181.34V81.75H1135.84ZM1350.57 190.25C1488.32 190.25 1487.32 12.75 1351.07 12.75C1213.32 12.75 1214.32 190.25 1350.57 190.25ZM1332.57 16.5C1441.07 12.25 1476.57 182.25 1369.57 186.25C1262.07 190.5 1226.57 20.5 1332.57 16.5Z" fill="#1A242E"/>
</svg>
