<svg width="553" height="71" viewBox="0 0 553 71" fill="none" xmlns="http://www.w3.org/2000/svg">
<path d="M27.6711 0.613276H58.0711C66.0711 0.613276 72.5711 2.57994 77.5711 6.51328C82.3711 10.5133 84.8044 16.0466 84.8711 23.1133H62.8711C62.8044 21.8466 62.1378 21.0466 60.8711 20.7133C60.6711 20.6466 60.5044 20.6133 60.3711 20.6133H25.3711C24.1044 20.6133 23.3044 21.2133 22.9711 22.4133C22.9711 22.6799 22.9378 22.9133 22.8711 23.1133C22.8711 24.3799 23.5044 25.1799 24.7711 25.5133C24.9711 25.5799 25.1711 25.6133 25.3711 25.6133H57.9711C66.7044 25.6133 73.5378 27.8133 78.4711 32.2133C82.8044 36.0799 84.9711 41.3799 84.9711 48.1133C84.9711 58.7133 79.8044 65.6466 69.4711 68.9133C65.8711 70.0466 62.0711 70.6133 58.0711 70.6133H27.8711C19.8044 70.6133 13.3044 68.6466 8.37109 64.7133C3.50443 60.7799 1.03776 55.2466 0.971094 48.1133H23.0711C23.0711 49.2466 23.6044 50.0133 24.6711 50.4133C25.0044 50.5466 25.2711 50.6133 25.4711 50.6133H60.4711C61.7378 50.6133 62.5378 50.0133 62.8711 48.8133C62.9378 48.5466 62.9711 48.3133 62.9711 48.1133C62.9711 46.8466 62.3711 46.0466 61.1711 45.7133C60.9044 45.6466 60.6711 45.6133 60.4711 45.6133H27.8711C19.2044 45.6133 12.4044 43.4466 7.47109 39.1133C3.07109 35.1799 0.871094 29.8466 0.871094 23.1133C0.871094 12.5133 6.07109 5.57995 16.4711 2.31328C20.0044 1.17994 23.7378 0.613276 27.6711 0.613276ZM112.461 0.613276H134.461L169.461 36.9133L204.461 0.613276H226.461V70.6133H204.461V32.3133L169.461 68.5133L134.461 32.3133V70.6133H112.461V0.613276ZM284.934 0.613276H318.934L349.934 70.6133H325.834C321.834 65.3466 315.667 62.6799 307.334 62.6133H281.534L278.034 70.6133H253.934L284.934 0.613276ZM301.934 16.5133L290.434 42.6133H307.334C309.467 42.6133 311.567 42.7466 313.634 43.0133L301.934 16.5133ZM377.438 0.613276H421.438C429.904 0.613276 436.904 2.61328 442.438 6.61328C448.438 11.0133 451.438 17.3466 451.438 25.6133C451.371 35.6133 447.138 42.7133 438.738 46.9133C445.338 53.3133 449.571 61.2133 451.438 70.6133H428.537C424.804 60.6799 416.071 54.3799 402.338 51.7133C401.338 51.5133 400.371 51.3466 399.438 51.2133V70.6133H377.438V0.613276ZM399.438 20.6133V30.6133H424.438C426.571 30.6133 428.104 29.6466 429.038 27.7133C429.304 27.0466 429.438 26.3799 429.438 25.7133C429.504 23.5133 428.538 21.9466 426.538 21.0133C425.871 20.7466 425.204 20.6133 424.538 20.6133H399.438ZM478.969 0.613276H552.969V20.6133H526.969V70.6133H504.969V20.6133H478.969V0.613276Z" fill="#1E2832"/>
</svg>
