<svg width="1384" height="70" viewBox="0 0 1384 70" fill="none" xmlns="http://www.w3.org/2000/svg">
<path d="M27.1633 -4.76837e-06H57.5633C65.5633 -4.76837e-06 72.0633 1.96666 77.0633 5.9C81.8633 9.9 84.2966 15.4333 84.3633 22.5H62.3633C62.2966 21.2333 61.63 20.4333 60.3633 20.1C60.1633 20.0333 59.9966 20 59.8633 20H24.8633C23.5966 20 22.7966 20.6 22.4633 21.8C22.4633 22.0667 22.4299 22.3 22.3633 22.5C22.3633 23.7667 22.9966 24.5667 24.2633 24.9C24.4633 24.9667 24.6633 25 24.8633 25H57.4633C66.1966 25 73.03 27.2 77.9633 31.6C82.2966 35.4667 84.4633 40.7667 84.4633 47.5C84.4633 58.1 79.2966 65.0333 68.9633 68.3C65.3633 69.4333 61.5633 70 57.5633 70H27.3633C19.2966 70 12.7966 68.0333 7.86328 64.1C2.99661 60.1667 0.529948 54.6333 0.463281 47.5H22.5633C22.5633 48.6333 23.0966 49.4 24.1633 49.8C24.4966 49.9333 24.7633 50 24.9633 50H59.9633C61.23 50 62.03 49.4 62.3633 48.2C62.4299 47.9333 62.4633 47.7 62.4633 47.5C62.4633 46.2333 61.8633 45.4333 60.6633 45.1C60.3966 45.0333 60.1633 45 59.9633 45H27.3633C18.6966 45 11.8966 42.8333 6.96328 38.5C2.56328 34.5667 0.363282 29.2333 0.363282 22.5C0.363282 11.9 5.56328 4.96667 15.9633 1.7C19.4966 0.566663 23.2299 -4.76837e-06 27.1633 -4.76837e-06ZM130.953 -4.76837e-06H204.953V20H178.953V70H156.953V20H130.953V-4.76837e-06ZM282.484 -4.76837e-06H316.484L347.484 70H323.384C319.384 64.7333 313.218 62.0667 304.884 62H279.084L275.584 70H251.484L282.484 -4.76837e-06ZM299.484 15.9L287.984 42H304.884C307.018 42 309.118 42.1333 311.184 42.4L299.484 15.9ZM393.988 -4.76837e-06H422.088L444.888 28.5L467.588 -4.76837e-06H495.788L455.888 50V70H433.888V50L393.988 -4.76837e-06ZM605.656 -4.76837e-06H629.756L653.656 54.1L665.656 27.1L653.656 -4.76837e-06H677.656L701.656 54.1L725.556 -4.76837e-06H749.656L718.656 70H684.656L677.656 54.2L670.656 70H636.656L605.656 -4.76837e-06ZM796.012 -4.76837e-06H818.012V70H796.012V-4.76837e-06ZM864.492 -4.76837e-06H938.492V20H912.492V70H890.492V20H864.492V-4.76837e-06ZM985.023 -4.76837e-06H1007.02V25H1018.42C1024.96 25 1031.16 26.1333 1037.02 28.4V-4.76837e-06H1059.02V70H1037.02V53C1033.02 47.6667 1026.82 45 1018.42 45H1007.02V70H985.023V-4.76837e-06ZM1169.05 -4.76837e-06H1191.05V35C1191.05 42.4667 1195.22 47.1667 1203.55 49.1C1205.95 49.7 1208.45 50 1211.05 50C1218.65 50 1224.22 48.1 1227.75 44.3C1229.95 41.8333 1231.09 38.7333 1231.15 35L1231.05 -4.76837e-06H1253.05L1253.15 35C1253.15 50.4 1246.09 60.8667 1231.95 66.4C1225.62 68.8 1218.65 70 1211.05 70C1199.45 70 1189.89 67.4333 1182.35 62.3C1173.55 56.1667 1169.12 47.0667 1169.05 35V-4.76837e-06ZM1326.35 -4.76837e-06H1356.75C1364.75 -4.76837e-06 1371.25 1.96666 1376.25 5.9C1381.05 9.9 1383.48 15.4333 1383.55 22.5H1361.55C1361.48 21.2333 1360.81 20.4333 1359.55 20.1C1359.35 20.0333 1359.18 20 1359.05 20H1324.05C1322.78 20 1321.98 20.6 1321.65 21.8C1321.65 22.0667 1321.61 22.3 1321.55 22.5C1321.55 23.7667 1322.18 24.5667 1323.45 24.9C1323.65 24.9667 1323.85 25 1324.05 25H1356.65C1365.38 25 1372.21 27.2 1377.15 31.6C1381.48 35.4667 1383.65 40.7667 1383.65 47.5C1383.65 58.1 1378.48 65.0333 1368.15 68.3C1364.55 69.4333 1360.75 70 1356.75 70H1326.55C1318.48 70 1311.98 68.0333 1307.05 64.1C1302.18 60.1667 1299.71 54.6333 1299.65 47.5H1321.75C1321.75 48.6333 1322.28 49.4 1323.35 49.8C1323.68 49.9333 1323.95 50 1324.15 50H1359.15C1360.41 50 1361.21 49.4 1361.55 48.2C1361.61 47.9333 1361.65 47.7 1361.65 47.5C1361.65 46.2333 1361.05 45.4333 1359.85 45.1C1359.58 45.0333 1359.35 45 1359.15 45H1326.55C1317.88 45 1311.08 42.8333 1306.15 38.5C1301.75 34.5667 1299.55 29.2333 1299.55 22.5C1299.55 11.9 1304.75 4.96667 1315.15 1.7C1318.68 0.566663 1322.41 -4.76837e-06 1326.35 -4.76837e-06Z" fill="white"/>
</svg>
