<svg width="512" height="63" viewBox="0 0 512 63" fill="none" xmlns="http://www.w3.org/2000/svg">
<path d="M6.736 13.128C10.144 13.128 12.672 10.696 12.672 7.4C12.672 4.104 10.144 1.672 6.736 1.672C3.296 1.672 0.768 4.12 0.768 7.4C0.768 10.68 3.296 13.128 6.736 13.128ZM6.736 11.704C4.224 11.704 2.368 9.88 2.368 7.4C2.368 4.92 4.224 3.096 6.736 3.096C9.216 3.096 11.072 4.92 11.072 7.4C11.072 9.88 9.216 11.704 6.736 11.704ZM20.8615 4.44C19.5175 4.44 18.4295 4.936 17.8055 5.8V4.52H16.3335V13H17.8695V8.632C17.8695 6.792 18.9255 5.816 20.5575 5.816C22.0135 5.816 22.8455 6.632 22.8455 8.296V13H24.3815V8.12C24.3815 5.624 22.9255 4.44 20.8615 4.44ZM36.375 8.808C36.375 6.2 34.631 4.44 32.183 4.44C29.735 4.44 27.927 6.248 27.927 8.76C27.927 11.288 29.751 13.096 32.487 13.096C33.895 13.096 35.063 12.616 35.831 11.72L34.983 10.728C34.359 11.416 33.527 11.752 32.535 11.752C30.855 11.752 29.655 10.76 29.463 9.272H36.343C36.359 9.128 36.375 8.936 36.375 8.808ZM32.183 5.736C33.671 5.736 34.743 6.744 34.903 8.168H29.463C29.623 6.728 30.711 5.736 32.183 5.736ZM49.3168 13.096C51.8608 13.096 53.7168 11.288 53.7168 8.76C53.7168 6.232 51.8608 4.44 49.3168 4.44C46.7728 4.44 44.9008 6.232 44.9008 8.76C44.9008 11.288 46.7728 13.096 49.3168 13.096ZM49.3168 11.752C47.6848 11.752 46.4528 10.568 46.4528 8.76C46.4528 6.952 47.6848 5.784 49.3168 5.784C50.9488 5.784 52.1648 6.952 52.1648 8.76C52.1648 10.568 50.9488 11.752 49.3168 11.752ZM60.385 2.296C60.833 2.296 61.249 2.456 61.569 2.696L62.033 1.528C61.601 1.192 60.961 1.032 60.305 1.032C58.497 1.032 57.505 2.12 57.505 3.768V4.52H56.065V5.784H57.505V13H59.041V5.784H61.473V4.52H59.009V3.784C59.009 2.808 59.473 2.296 60.385 2.296ZM74.3865 11.4C74.0665 11.656 73.6345 11.8 73.1865 11.8C72.3385 11.8 71.8585 11.288 71.8585 10.376V5.784H74.2905V4.52H71.8585V2.664H70.3225V4.52H68.8825V5.784H70.3225V10.44C70.3225 12.152 71.2985 13.096 73.0105 13.096C73.6985 13.096 74.4025 12.904 74.8665 12.504L74.3865 11.4ZM82.6915 4.44C81.3955 4.44 80.3395 4.904 79.6995 5.72V1.128H78.1635V13H79.6995V8.632C79.6995 6.792 80.7555 5.816 82.3875 5.816C83.8435 5.816 84.6755 6.632 84.6755 8.296V13H86.2115V8.12C86.2115 5.624 84.7555 4.44 82.6915 4.44ZM98.205 8.808C98.205 6.2 96.461 4.44 94.013 4.44C91.565 4.44 89.757 6.248 89.757 8.76C89.757 11.288 91.581 13.096 94.317 13.096C95.725 13.096 96.893 12.616 97.661 11.72L96.813 10.728C96.189 11.416 95.357 11.752 94.365 11.752C92.685 11.752 91.485 10.76 91.293 9.272H98.173C98.189 9.128 98.205 8.936 98.205 8.808ZM94.013 5.736C95.501 5.736 96.573 6.744 96.733 8.168H91.293C91.453 6.728 92.541 5.736 94.013 5.736ZM115.211 2.888C115.819 2.888 116.251 2.44 116.251 1.864C116.251 1.32 115.803 0.888 115.211 0.888C114.619 0.888 114.171 1.336 114.171 1.896C114.171 2.456 114.619 2.888 115.211 2.888ZM107.739 3.768V4.52H106.299V5.784H107.739V13H109.275V5.784H111.707V4.52H109.243V3.784C109.243 2.808 109.707 2.296 110.619 2.296C111.067 2.296 111.483 2.456 111.803 2.696L112.267 1.528C111.835 1.192 111.195 1.032 110.539 1.032C108.731 1.032 107.739 2.12 107.739 3.768ZM114.443 13H115.979V4.52H114.443V13ZM121.817 5.944V4.52H120.345V13H121.881V8.776C121.881 6.92 122.905 5.912 124.553 5.912C124.665 5.912 124.777 5.912 124.905 5.928V4.44C123.417 4.44 122.361 4.952 121.817 5.944ZM130.733 13.096C132.989 13.096 134.397 12.12 134.397 10.584C134.397 7.288 129.021 8.92 129.021 6.92C129.021 6.248 129.677 5.752 131.021 5.752C131.853 5.752 132.701 5.928 133.469 6.424L134.125 5.208C133.389 4.728 132.141 4.44 131.037 4.44C128.861 4.44 127.501 5.464 127.501 6.984C127.501 10.36 132.861 8.712 132.861 10.616C132.861 11.336 132.269 11.768 130.845 11.768C129.741 11.768 128.589 11.4 127.869 10.888L127.229 12.104C127.933 12.664 129.325 13.096 130.733 13.096ZM142.045 11.4C141.725 11.656 141.293 11.8 140.845 11.8C139.997 11.8 139.517 11.288 139.517 10.376V5.784H141.949V4.52H139.517V2.664H137.981V4.52H136.541V5.784H137.981V10.44C137.981 12.152 138.957 13.096 140.669 13.096C141.357 13.096 142.061 12.904 142.525 12.504L142.045 11.4ZM163.015 4.52L160.487 11.304L157.975 4.52H156.679L154.119 11.272L151.655 4.52H150.199L153.351 13H154.823L157.303 6.568L159.751 13H161.223L164.391 4.52H163.015ZM170.787 13.096C173.331 13.096 175.187 11.288 175.187 8.76C175.187 6.232 173.331 4.44 170.787 4.44C168.243 4.44 166.371 6.232 166.371 8.76C166.371 11.288 168.243 13.096 170.787 13.096ZM170.787 11.752C169.155 11.752 167.923 10.568 167.923 8.76C167.923 6.952 169.155 5.784 170.787 5.784C172.419 5.784 173.635 6.952 173.635 8.76C173.635 10.568 172.419 11.752 170.787 11.752ZM180.223 5.944V4.52H178.751V13H180.287V8.776C180.287 6.92 181.311 5.912 182.959 5.912C183.071 5.912 183.183 5.912 183.311 5.928V4.44C181.823 4.44 180.767 4.952 180.223 5.944ZM186.644 13H188.18V1.128H186.644V13ZM199.017 1.128V5.8C198.313 4.888 197.257 4.44 196.057 4.44C193.577 4.44 191.769 6.168 191.769 8.76C191.769 11.352 193.577 13.096 196.057 13.096C197.305 13.096 198.393 12.616 199.081 11.656V13H200.553V1.128H199.017ZM196.185 11.752C194.553 11.752 193.321 10.568 193.321 8.76C193.321 6.952 194.553 5.784 196.185 5.784C197.801 5.784 199.033 6.952 199.033 8.76C199.033 10.568 197.801 11.752 196.185 11.752ZM207.331 13.096C209.587 13.096 210.995 12.12 210.995 10.584C210.995 7.288 205.619 8.92 205.619 6.92C205.619 6.248 206.275 5.752 207.619 5.752C208.451 5.752 209.299 5.928 210.067 6.424L210.723 5.208C209.987 4.728 208.739 4.44 207.635 4.44C205.459 4.44 204.099 5.464 204.099 6.984C204.099 10.36 209.459 8.712 209.459 10.616C209.459 11.336 208.867 11.768 207.443 11.768C206.339 11.768 205.187 11.4 204.467 10.888L203.827 12.104C204.531 12.664 205.923 13.096 207.331 13.096ZM222.524 13.096C224.78 13.096 226.188 12.12 226.188 10.584C226.188 7.288 220.812 8.92 220.812 6.92C220.812 6.248 221.468 5.752 222.812 5.752C223.644 5.752 224.492 5.928 225.26 6.424L225.916 5.208C225.18 4.728 223.932 4.44 222.828 4.44C220.652 4.44 219.292 5.464 219.292 6.984C219.292 10.36 224.652 8.712 224.652 10.616C224.652 11.336 224.06 11.768 222.636 11.768C221.532 11.768 220.38 11.4 219.66 10.888L219.02 12.104C219.724 12.664 221.116 13.096 222.524 13.096ZM240.155 4.44C238.715 4.44 237.531 5.048 236.891 6.008C236.331 4.952 235.243 4.44 233.947 4.44C232.667 4.44 231.627 4.92 231.019 5.784V4.52H229.547V13H231.083V8.632C231.083 6.792 232.091 5.816 233.627 5.816C235.019 5.816 235.819 6.632 235.819 8.296V13H237.355V8.632C237.355 6.792 238.363 5.816 239.899 5.816C241.291 5.816 242.091 6.632 242.091 8.296V13H243.627V8.12C243.627 5.624 242.219 4.44 240.155 4.44ZM250.982 4.44C249.622 4.44 248.358 4.824 247.478 5.528L248.118 6.68C248.774 6.12 249.798 5.768 250.806 5.768C252.326 5.768 253.078 6.52 253.078 7.816V8.12H250.646C248.118 8.12 247.238 9.24 247.238 10.6C247.238 12.072 248.454 13.096 250.374 13.096C251.702 13.096 252.646 12.648 253.158 11.88V13H254.614V7.88C254.614 5.56 253.302 4.44 250.982 4.44ZM250.63 11.912C249.462 11.912 248.758 11.384 248.758 10.536C248.758 9.816 249.19 9.224 250.71 9.224H253.078V10.408C252.694 11.384 251.782 11.912 250.63 11.912ZM260.368 5.944V4.52H258.896V13H260.432V8.776C260.432 6.92 261.456 5.912 263.104 5.912C263.216 5.912 263.328 5.912 263.456 5.928V4.44C261.968 4.44 260.912 4.952 260.368 5.944ZM271.421 11.4C271.101 11.656 270.669 11.8 270.221 11.8C269.373 11.8 268.893 11.288 268.893 10.376V5.784H271.325V4.52H268.893V2.664H267.357V4.52H265.917V5.784H267.357V10.44C267.357 12.152 268.333 13.096 270.045 13.096C270.733 13.096 271.437 12.904 271.901 12.504L271.421 11.4ZM287.399 1.128V5.8C286.695 4.888 285.639 4.44 284.439 4.44C281.959 4.44 280.151 6.168 280.151 8.76C280.151 11.352 281.959 13.096 284.439 13.096C285.687 13.096 286.775 12.616 287.463 11.656V13H288.935V1.128H287.399ZM284.567 11.752C282.935 11.752 281.703 10.568 281.703 8.76C281.703 6.952 282.935 5.784 284.567 5.784C286.183 5.784 287.415 6.952 287.415 8.76C287.415 10.568 286.183 11.752 284.567 11.752ZM300.945 8.808C300.945 6.2 299.201 4.44 296.753 4.44C294.305 4.44 292.497 6.248 292.497 8.76C292.497 11.288 294.321 13.096 297.057 13.096C298.465 13.096 299.633 12.616 300.401 11.72L299.553 10.728C298.929 11.416 298.097 11.752 297.105 11.752C295.425 11.752 294.225 10.76 294.033 9.272H300.913C300.929 9.128 300.945 8.936 300.945 8.808ZM296.753 5.736C298.241 5.736 299.313 6.744 299.473 8.168H294.033C294.193 6.728 295.281 5.736 296.753 5.736ZM312.214 2.888C312.822 2.888 313.254 2.44 313.254 1.864C313.254 1.32 312.806 0.888 312.214 0.888C311.622 0.888 311.174 1.336 311.174 1.896C311.174 2.456 311.622 2.888 312.214 2.888ZM304.742 3.768V4.52H303.302V5.784H304.742V13H306.278V5.784H308.71V4.52H306.246V3.784C306.246 2.808 306.71 2.296 307.622 2.296C308.07 2.296 308.486 2.456 308.806 2.696L309.27 1.528C308.838 1.192 308.198 1.032 307.542 1.032C305.734 1.032 304.742 2.12 304.742 3.768ZM311.446 13H312.982V4.52H311.446V13ZM327.373 11.4C327.053 11.656 326.621 11.8 326.173 11.8C325.325 11.8 324.845 11.288 324.845 10.376V5.784H327.277V4.52H324.845V2.664H323.309V4.52H321.869V5.784H323.309V10.44C323.309 12.152 324.285 13.096 325.997 13.096C326.685 13.096 327.389 12.904 327.853 12.504L327.373 11.4ZM334.501 13.096C337.045 13.096 338.901 11.288 338.901 8.76C338.901 6.232 337.045 4.44 334.501 4.44C331.957 4.44 330.085 6.232 330.085 8.76C330.085 11.288 331.957 13.096 334.501 13.096ZM334.501 11.752C332.869 11.752 331.637 10.568 331.637 8.76C331.637 6.952 332.869 5.784 334.501 5.784C336.133 5.784 337.349 6.952 337.349 8.76C337.349 10.568 336.133 11.752 334.501 11.752ZM346.161 13.096C347.681 13.096 348.945 12.456 349.617 11.272L348.449 10.536C347.905 11.368 347.073 11.752 346.145 11.752C344.481 11.752 343.233 10.6 343.233 8.76C343.233 6.952 344.481 5.784 346.145 5.784C347.073 5.784 347.905 6.168 348.449 7L349.617 6.248C348.945 5.064 347.681 4.44 346.161 4.44C343.553 4.44 341.681 6.232 341.681 8.76C341.681 11.288 343.553 13.096 346.161 13.096ZM359.417 13H361.305L357.385 8.024L360.953 4.52H359.097L354.473 8.744V1.128H352.937V13H354.473V10.68L356.233 9.048L359.417 13ZM371.541 8.808C371.541 6.2 369.797 4.44 367.349 4.44C364.901 4.44 363.093 6.248 363.093 8.76C363.093 11.288 364.917 13.096 367.653 13.096C369.061 13.096 370.229 12.616 370.997 11.72L370.149 10.728C369.525 11.416 368.693 11.752 367.701 11.752C366.021 11.752 364.821 10.76 364.629 9.272H371.509C371.525 9.128 371.541 8.936 371.541 8.808ZM367.349 5.736C368.837 5.736 369.909 6.744 370.069 8.168H364.629C364.789 6.728 365.877 5.736 367.349 5.736ZM379.642 4.44C378.298 4.44 377.21 4.936 376.586 5.8V4.52H375.114V13H376.65V8.632C376.65 6.792 377.706 5.816 379.338 5.816C380.794 5.816 381.626 6.632 381.626 8.296V13H383.162V8.12C383.162 5.624 381.706 4.44 379.642 4.44ZM389.876 13.096C392.132 13.096 393.54 12.12 393.54 10.584C393.54 7.288 388.164 8.92 388.164 6.92C388.164 6.248 388.82 5.752 390.164 5.752C390.996 5.752 391.844 5.928 392.612 6.424L393.268 5.208C392.532 4.728 391.284 4.44 390.18 4.44C388.004 4.44 386.644 5.464 386.644 6.984C386.644 10.36 392.004 8.712 392.004 10.616C392.004 11.336 391.412 11.768 389.988 11.768C388.884 11.768 387.732 11.4 387.012 10.888L386.372 12.104C387.076 12.664 388.468 13.096 389.876 13.096ZM406.333 13.096C407.853 13.096 409.117 12.456 409.789 11.272L408.621 10.536C408.077 11.368 407.245 11.752 406.317 11.752C404.653 11.752 403.405 10.6 403.405 8.76C403.405 6.952 404.653 5.784 406.317 5.784C407.245 5.784 408.077 6.168 408.621 7L409.789 6.248C409.117 5.064 407.853 4.44 406.333 4.44C403.725 4.44 401.853 6.232 401.853 8.76C401.853 11.288 403.725 13.096 406.333 13.096ZM414.689 5.944V4.52H413.217V13H414.753V8.776C414.753 6.92 415.777 5.912 417.425 5.912C417.537 5.912 417.649 5.912 417.777 5.928V4.44C416.289 4.44 415.233 4.952 414.689 5.944ZM428.696 8.808C428.696 6.2 426.952 4.44 424.504 4.44C422.056 4.44 420.248 6.248 420.248 8.76C420.248 11.288 422.072 13.096 424.808 13.096C426.216 13.096 427.384 12.616 428.152 11.72L427.304 10.728C426.68 11.416 425.848 11.752 424.856 11.752C423.176 11.752 421.976 10.76 421.784 9.272H428.664C428.68 9.128 428.696 8.936 428.696 8.808ZM424.504 5.736C425.992 5.736 427.064 6.744 427.224 8.168H421.784C421.944 6.728 423.032 5.736 424.504 5.736ZM435.123 4.44C433.763 4.44 432.499 4.824 431.619 5.528L432.259 6.68C432.915 6.12 433.939 5.768 434.947 5.768C436.467 5.768 437.219 6.52 437.219 7.816V8.12H434.787C432.259 8.12 431.379 9.24 431.379 10.6C431.379 12.072 432.595 13.096 434.515 13.096C435.843 13.096 436.787 12.648 437.299 11.88V13H438.755V7.88C438.755 5.56 437.443 4.44 435.123 4.44ZM434.771 11.912C433.603 11.912 432.899 11.384 432.899 10.536C432.899 9.816 433.331 9.224 434.851 9.224H437.219V10.408C436.835 11.384 435.923 11.912 434.771 11.912ZM447.325 11.4C447.005 11.656 446.573 11.8 446.125 11.8C445.277 11.8 444.797 11.288 444.797 10.376V5.784H447.229V4.52H444.797V2.664H443.261V4.52H441.821V5.784H443.261V10.44C443.261 12.152 444.237 13.096 445.949 13.096C446.637 13.096 447.341 12.904 447.805 12.504L447.325 11.4ZM458.485 8.808C458.485 6.2 456.741 4.44 454.293 4.44C451.845 4.44 450.037 6.248 450.037 8.76C450.037 11.288 451.861 13.096 454.597 13.096C456.005 13.096 457.173 12.616 457.941 11.72L457.093 10.728C456.469 11.416 455.637 11.752 454.645 11.752C452.965 11.752 451.765 10.76 451.573 9.272H458.453C458.469 9.128 458.485 8.936 458.485 8.808ZM454.293 5.736C455.781 5.736 456.853 6.744 457.013 8.168H451.573C451.733 6.728 452.821 5.736 454.293 5.736ZM468.522 1.128V5.8C467.818 4.888 466.762 4.44 465.562 4.44C463.082 4.44 461.274 6.168 461.274 8.76C461.274 11.352 463.082 13.096 465.562 13.096C466.81 13.096 467.898 12.616 468.586 11.656V13H470.058V1.128H468.522ZM465.69 11.752C464.058 11.752 462.826 10.568 462.826 8.76C462.826 6.952 464.058 5.784 465.69 5.784C467.306 5.784 468.538 6.952 468.538 8.76C468.538 10.568 467.306 11.752 465.69 11.752ZM483.245 2.296C483.693 2.296 484.109 2.456 484.429 2.696L484.893 1.528C484.461 1.192 483.821 1.032 483.165 1.032C481.357 1.032 480.365 2.12 480.365 3.768V4.52H478.925V5.784H480.365V13H481.901V5.784H484.333V4.52H481.869V3.784C481.869 2.808 482.333 2.296 483.245 2.296ZM490.729 13.096C493.273 13.096 495.129 11.288 495.129 8.76C495.129 6.232 493.273 4.44 490.729 4.44C488.185 4.44 486.313 6.232 486.313 8.76C486.313 11.288 488.185 13.096 490.729 13.096ZM490.729 11.752C489.097 11.752 487.865 10.568 487.865 8.76C487.865 6.952 489.097 5.784 490.729 5.784C492.361 5.784 493.577 6.952 493.577 8.76C493.577 10.568 492.361 11.752 490.729 11.752ZM500.165 5.944V4.52H498.693V13H500.229V8.776C500.229 6.92 501.253 5.912 502.901 5.912C503.013 5.912 503.125 5.912 503.253 5.928V4.44C501.765 4.44 500.709 4.952 500.165 5.944ZM4.56 25.296C5.008 25.296 5.424 25.456 5.744 25.696L6.208 24.528C5.776 24.192 5.136 24.032 4.48 24.032C2.672 24.032 1.68 25.12 1.68 26.768V27.52H0.24V28.784H1.68V36H3.216V28.784H5.648V27.52H3.184V26.784C3.184 25.808 3.648 25.296 4.56 25.296ZM14.9046 27.52V31.904C14.9046 33.728 13.8806 34.72 12.2806 34.72C10.8246 34.72 9.99263 33.888 9.99263 32.224V27.52H8.45663V32.4C8.45663 34.896 9.91263 36.096 12.1046 36.096C13.3046 36.096 14.3606 35.6 14.9846 34.72V36H16.4406V27.52H14.9046ZM25.0928 34.4C24.7728 34.656 24.3408 34.8 23.8928 34.8C23.0448 34.8 22.5648 34.288 22.5648 33.376V28.784H24.9968V27.52H22.5648V25.664H21.0288V27.52H19.5888V28.784H21.0288V33.44C21.0288 35.152 22.0048 36.096 23.7168 36.096C24.4048 36.096 25.1088 35.904 25.5728 35.504L25.0928 34.4ZM35.2378 27.52V31.904C35.2378 33.728 34.2137 34.72 32.6137 34.72C31.1577 34.72 30.3257 33.888 30.3257 32.224V27.52H28.7897V32.4C28.7897 34.896 30.2457 36.096 32.4377 36.096C33.6378 36.096 34.6937 35.6 35.3177 34.72V36H36.7738V27.52H35.2378ZM42.6099 28.944V27.52H41.1379V36H42.6739V31.776C42.6739 29.92 43.6979 28.912 45.3459 28.912C45.4579 28.912 45.5699 28.912 45.6979 28.928V27.44C44.2099 27.44 43.1539 27.952 42.6099 28.944ZM56.6169 31.808C56.6169 29.2 54.8729 27.44 52.4249 27.44C49.9769 27.44 48.1689 29.248 48.1689 31.76C48.1689 34.288 49.9929 36.096 52.7289 36.096C54.1369 36.096 55.3049 35.616 56.0729 34.72L55.2249 33.728C54.6009 34.416 53.7689 34.752 52.7769 34.752C51.0969 34.752 49.8969 33.76 49.7049 32.272H56.5849C56.6009 32.128 56.6169 31.936 56.6169 31.808ZM52.4249 28.736C53.9129 28.736 54.9849 29.744 55.1449 31.168H49.7049C49.8649 29.728 50.9529 28.736 52.4249 28.736ZM69.6226 36.096C71.1426 36.096 72.4066 35.456 73.0786 34.272L71.9106 33.536C71.3666 34.368 70.5346 34.752 69.6066 34.752C67.9426 34.752 66.6946 33.6 66.6946 31.76C66.6946 29.952 67.9426 28.784 69.6066 28.784C70.5346 28.784 71.3666 29.168 71.9106 30L73.0786 29.248C72.4066 28.064 71.1426 27.44 69.6226 27.44C67.0146 27.44 65.1426 29.232 65.1426 31.76C65.1426 34.288 67.0146 36.096 69.6226 36.096ZM77.2753 25.888C77.8833 25.888 78.3153 25.44 78.3153 24.864C78.3153 24.32 77.8673 23.888 77.2753 23.888C76.6833 23.888 76.2353 24.336 76.2353 24.896C76.2353 25.456 76.6833 25.888 77.2753 25.888ZM76.5073 36H78.0433V27.52H76.5073V36ZM83.888 28.944V27.52H82.416V36H83.952V31.776C83.952 29.92 84.976 28.912 86.624 28.912C86.736 28.912 86.848 28.912 86.976 28.928V27.44C85.488 27.44 84.432 27.952 83.888 28.944ZM93.927 36.096C95.447 36.096 96.711 35.456 97.383 34.272L96.215 33.536C95.671 34.368 94.839 34.752 93.911 34.752C92.247 34.752 90.999 33.6 90.999 31.76C90.999 29.952 92.247 28.784 93.911 28.784C94.839 28.784 95.671 29.168 96.215 30L97.383 29.248C96.711 28.064 95.447 27.44 93.927 27.44C91.319 27.44 89.447 29.232 89.447 31.76C89.447 34.288 91.319 36.096 93.927 36.096ZM107.18 27.52V31.904C107.18 33.728 106.156 34.72 104.556 34.72C103.1 34.72 102.268 33.888 102.268 32.224V27.52H100.732V32.4C100.732 34.896 102.188 36.096 104.38 36.096C105.58 36.096 106.636 35.6 107.26 34.72V36H108.716V27.52H107.18ZM113.08 36H114.616V24.128H113.08V36ZM122.077 27.44C120.717 27.44 119.453 27.824 118.573 28.528L119.213 29.68C119.869 29.12 120.893 28.768 121.901 28.768C123.421 28.768 124.173 29.52 124.173 30.816V31.12H121.741C119.213 31.12 118.333 32.24 118.333 33.6C118.333 35.072 119.549 36.096 121.469 36.096C122.797 36.096 123.741 35.648 124.253 34.88V36H125.709V30.88C125.709 28.56 124.397 27.44 122.077 27.44ZM121.725 34.912C120.557 34.912 119.853 34.384 119.853 33.536C119.853 32.816 120.285 32.224 121.805 32.224H124.173V33.408C123.789 34.384 122.877 34.912 121.725 34.912ZM134.279 34.4C133.959 34.656 133.527 34.8 133.079 34.8C132.231 34.8 131.751 34.288 131.751 33.376V28.784H134.183V27.52H131.751V25.664H130.215V27.52H128.775V28.784H130.215V33.44C130.215 35.152 131.191 36.096 132.903 36.096C133.591 36.096 134.295 35.904 134.759 35.504L134.279 34.4ZM138.824 25.888C139.432 25.888 139.864 25.44 139.864 24.864C139.864 24.32 139.416 23.888 138.824 23.888C138.232 23.888 137.784 24.336 137.784 24.896C137.784 25.456 138.232 25.888 138.824 25.888ZM138.056 36H139.592V27.52H138.056V36ZM147.597 36.096C150.141 36.096 151.997 34.288 151.997 31.76C151.997 29.232 150.141 27.44 147.597 27.44C145.053 27.44 143.181 29.232 143.181 31.76C143.181 34.288 145.053 36.096 147.597 36.096ZM147.597 34.752C145.965 34.752 144.733 33.568 144.733 31.76C144.733 29.952 145.965 28.784 147.597 28.784C149.229 28.784 150.445 29.952 150.445 31.76C150.445 33.568 149.229 34.752 147.597 34.752ZM160.089 27.44C158.745 27.44 157.657 27.936 157.033 28.8V27.52H155.561V36H157.097V31.632C157.097 29.792 158.153 28.816 159.785 28.816C161.241 28.816 162.073 29.632 162.073 31.296V36H163.609V31.12C163.609 28.624 162.153 27.44 160.089 27.44ZM174.397 25.888C175.005 25.888 175.437 25.44 175.437 24.864C175.437 24.32 174.989 23.888 174.397 23.888C173.805 23.888 173.357 24.336 173.357 24.896C173.357 25.456 173.805 25.888 174.397 25.888ZM173.629 36H175.165V27.52H173.629V36ZM184.065 27.44C182.721 27.44 181.633 27.936 181.009 28.8V27.52H179.537V36H181.073V31.632C181.073 29.792 182.129 28.816 183.761 28.816C185.217 28.816 186.049 29.632 186.049 31.296V36H187.585V31.12C187.585 28.624 186.129 27.44 184.065 27.44ZM201.893 34.4C201.573 34.656 201.141 34.8 200.693 34.8C199.845 34.8 199.365 34.288 199.365 33.376V28.784H201.797V27.52H199.365V25.664H197.829V27.52H196.389V28.784H197.829V33.44C197.829 35.152 198.805 36.096 200.517 36.096C201.205 36.096 201.909 35.904 202.373 35.504L201.893 34.4ZM210.198 27.44C208.902 27.44 207.846 27.904 207.206 28.72V24.128H205.67V36H207.206V31.632C207.206 29.792 208.262 28.816 209.894 28.816C211.35 28.816 212.182 29.632 212.182 31.296V36H213.718V31.12C213.718 28.624 212.262 27.44 210.198 27.44ZM225.711 31.808C225.711 29.2 223.967 27.44 221.519 27.44C219.071 27.44 217.263 29.248 217.263 31.76C217.263 34.288 219.087 36.096 221.823 36.096C223.231 36.096 224.399 35.616 225.167 34.72L224.319 33.728C223.695 34.416 222.863 34.752 221.871 34.752C220.191 34.752 218.991 33.76 218.799 32.272H225.679C225.695 32.128 225.711 31.936 225.711 31.808ZM221.519 28.736C223.007 28.736 224.079 29.744 224.239 31.168H218.799C218.959 29.728 220.047 28.736 221.519 28.736ZM237.453 36.096C239.709 36.096 241.117 35.12 241.117 33.584C241.117 30.288 235.741 31.92 235.741 29.92C235.741 29.248 236.397 28.752 237.741 28.752C238.573 28.752 239.421 28.928 240.189 29.424L240.845 28.208C240.109 27.728 238.861 27.44 237.757 27.44C235.581 27.44 234.221 28.464 234.221 29.984C234.221 33.36 239.581 31.712 239.581 33.616C239.581 34.336 238.989 34.768 237.565 34.768C236.461 34.768 235.309 34.4 234.589 33.888L233.949 35.104C234.653 35.664 236.045 36.096 237.453 36.096ZM252.141 31.808C252.141 29.2 250.397 27.44 247.949 27.44C245.501 27.44 243.693 29.248 243.693 31.76C243.693 34.288 245.517 36.096 248.253 36.096C249.661 36.096 250.829 35.616 251.597 34.72L250.749 33.728C250.125 34.416 249.293 34.752 248.301 34.752C246.621 34.752 245.421 33.76 245.229 32.272H252.109C252.125 32.128 252.141 31.936 252.141 31.808ZM247.949 28.736C249.437 28.736 250.509 29.744 250.669 31.168H245.229C245.389 29.728 246.477 28.736 247.949 28.736ZM262.178 24.128V28.8C261.474 27.888 260.418 27.44 259.218 27.44C256.738 27.44 254.93 29.168 254.93 31.76C254.93 34.352 256.738 36.096 259.218 36.096C260.466 36.096 261.554 35.616 262.242 34.656V36H263.714V24.128H262.178ZM259.346 34.752C257.714 34.752 256.482 33.568 256.482 31.76C256.482 29.952 257.714 28.784 259.346 28.784C260.962 28.784 262.194 29.952 262.194 31.76C262.194 33.568 260.962 34.752 259.346 34.752ZM268.828 25.888C269.436 25.888 269.868 25.44 269.868 24.864C269.868 24.32 269.42 23.888 268.828 23.888C268.236 23.888 267.788 24.336 267.788 24.896C267.788 25.456 268.236 25.888 268.828 25.888ZM268.06 36H269.596V27.52H268.06V36ZM278.257 34.4C277.937 34.656 277.505 34.8 277.057 34.8C276.209 34.8 275.729 34.288 275.729 33.376V28.784H278.161V27.52H275.729V25.664H274.193V27.52H272.753V28.784H274.193V33.44C274.193 35.152 275.169 36.096 276.881 36.096C277.569 36.096 278.273 35.904 278.737 35.504L278.257 34.4ZM282.802 25.888C283.41 25.888 283.842 25.44 283.842 24.864C283.842 24.32 283.394 23.888 282.802 23.888C282.21 23.888 281.762 24.336 281.762 24.896C281.762 25.456 282.21 25.888 282.802 25.888ZM282.034 36H283.57V27.52H282.034V36ZM291.574 36.096C294.118 36.096 295.974 34.288 295.974 31.76C295.974 29.232 294.118 27.44 291.574 27.44C289.03 27.44 287.158 29.232 287.158 31.76C287.158 34.288 289.03 36.096 291.574 36.096ZM291.574 34.752C289.942 34.752 288.71 33.568 288.71 31.76C288.71 29.952 289.942 28.784 291.574 28.784C293.206 28.784 294.422 29.952 294.422 31.76C294.422 33.568 293.206 34.752 291.574 34.752ZM313.531 24.8V33.152L306.811 24.8H305.499V36H307.099V27.648L313.819 36H315.131V24.8H313.531ZM327.828 26.192V24.8H319.924V36H321.524V31.472H327.14V30.096H321.524V26.192H327.828ZM333.822 36H335.406V26.192H339.246V24.8H329.982V26.192H333.822V36ZM354.598 27.52V28.832C353.878 27.904 352.726 27.44 351.462 27.44C349.014 27.44 347.158 29.088 347.158 31.536C347.158 33.984 349.014 35.648 351.462 35.648C352.678 35.648 353.782 35.216 354.518 34.336V35.008C354.518 36.928 353.606 37.856 351.606 37.856C350.358 37.856 349.126 37.424 348.342 36.752L347.606 37.936C348.534 38.768 350.102 39.2 351.654 39.2C354.534 39.2 356.054 37.84 356.054 34.848V27.52H354.598ZM351.638 34.304C349.926 34.304 348.71 33.168 348.71 31.536C348.71 29.888 349.926 28.784 351.638 28.784C353.334 28.784 354.55 29.888 354.55 31.536C354.55 33.168 353.334 34.304 351.638 34.304ZM363.517 27.44C362.157 27.44 360.893 27.824 360.013 28.528L360.653 29.68C361.309 29.12 362.333 28.768 363.341 28.768C364.861 28.768 365.613 29.52 365.613 30.816V31.12H363.181C360.653 31.12 359.773 32.24 359.773 33.6C359.773 35.072 360.989 36.096 362.909 36.096C364.237 36.096 365.181 35.648 365.693 34.88V36H367.149V30.88C367.149 28.56 365.837 27.44 363.517 27.44ZM363.165 34.912C361.997 34.912 361.293 34.384 361.293 33.536C361.293 32.816 361.725 32.224 363.245 32.224H365.613V33.408C365.229 34.384 364.317 34.912 363.165 34.912ZM382.039 27.44C380.599 27.44 379.415 28.048 378.775 29.008C378.215 27.952 377.127 27.44 375.831 27.44C374.551 27.44 373.511 27.92 372.903 28.784V27.52H371.431V36H372.967V31.632C372.967 29.792 373.975 28.816 375.511 28.816C376.903 28.816 377.703 29.632 377.703 31.296V36H379.239V31.632C379.239 29.792 380.247 28.816 381.783 28.816C383.175 28.816 383.975 29.632 383.975 31.296V36H385.511V31.12C385.511 28.624 384.103 27.44 382.039 27.44ZM397.488 31.808C397.488 29.2 395.744 27.44 393.296 27.44C390.848 27.44 389.04 29.248 389.04 31.76C389.04 34.288 390.864 36.096 393.6 36.096C395.008 36.096 396.176 35.616 396.944 34.72L396.096 33.728C395.472 34.416 394.64 34.752 393.648 34.752C391.968 34.752 390.768 33.76 390.576 32.272H397.456C397.472 32.128 397.488 31.936 397.488 31.808ZM393.296 28.736C394.784 28.736 395.856 29.744 396.016 31.168H390.576C390.736 29.728 391.824 28.736 393.296 28.736ZM409.886 27.44C408.526 27.44 407.262 27.824 406.382 28.528L407.022 29.68C407.678 29.12 408.702 28.768 409.71 28.768C411.23 28.768 411.982 29.52 411.982 30.816V31.12H409.55C407.022 31.12 406.142 32.24 406.142 33.6C406.142 35.072 407.358 36.096 409.278 36.096C410.606 36.096 411.55 35.648 412.062 34.88V36H413.518V30.88C413.518 28.56 412.206 27.44 409.886 27.44ZM409.534 34.912C408.366 34.912 407.662 34.384 407.662 33.536C407.662 32.816 408.094 32.224 409.614 32.224H411.982V33.408C411.598 34.384 410.686 34.912 409.534 34.912ZM422.328 27.44C420.984 27.44 419.896 27.936 419.272 28.8V27.52H417.8V36H419.336V31.632C419.336 29.792 420.392 28.816 422.024 28.816C423.48 28.816 424.312 29.632 424.312 31.296V36H425.848V31.12C425.848 28.624 424.392 27.44 422.328 27.44ZM436.642 24.128V28.8C435.938 27.888 434.882 27.44 433.682 27.44C431.202 27.44 429.394 29.168 429.394 31.76C429.394 34.352 431.202 36.096 433.682 36.096C434.93 36.096 436.018 35.616 436.706 34.656V36H438.178V24.128H436.642ZM433.81 34.752C432.178 34.752 430.946 33.568 430.946 31.76C430.946 29.952 432.178 28.784 433.81 28.784C435.426 28.784 436.658 29.952 436.658 31.76C436.658 33.568 435.426 34.752 433.81 34.752ZM451.893 36.096C454.437 36.096 456.293 34.288 456.293 31.76C456.293 29.232 454.437 27.44 451.893 27.44C449.349 27.44 447.477 29.232 447.477 31.76C447.477 34.288 449.349 36.096 451.893 36.096ZM451.893 34.752C450.261 34.752 449.029 33.568 449.029 31.76C449.029 29.952 450.261 28.784 451.893 28.784C453.525 28.784 454.741 29.952 454.741 31.76C454.741 33.568 453.525 34.752 451.893 34.752ZM464.385 27.44C463.041 27.44 461.953 27.936 461.329 28.8V27.52H459.857V36H461.393V31.632C461.393 29.792 462.449 28.816 464.081 28.816C465.537 28.816 466.369 29.632 466.369 31.296V36H467.905V31.12C467.905 28.624 466.449 27.44 464.385 27.44ZM486.181 24.8V33.152L479.461 24.8H478.149V36H479.749V27.648L486.469 36H487.781V24.8H486.181ZM500.477 26.192V24.8H492.573V36H494.173V31.472H499.789V30.096H494.173V26.192H500.477ZM506.472 36H508.056V26.192H511.896V24.8H502.632V26.192H506.472V36ZM12.064 50.44C10.624 50.44 9.44 51.048 8.8 52.008C8.24 50.952 7.152 50.44 5.856 50.44C4.576 50.44 3.536 50.92 2.928 51.784V50.52H1.456V59H2.992V54.632C2.992 52.792 4 51.816 5.536 51.816C6.928 51.816 7.728 52.632 7.728 54.296V59H9.264V54.632C9.264 52.792 10.272 51.816 11.808 51.816C13.2 51.816 14 52.632 14 54.296V59H15.536V54.12C15.536 51.624 14.128 50.44 12.064 50.44ZM22.8903 50.44C21.5303 50.44 20.2663 50.824 19.3863 51.528L20.0263 52.68C20.6823 52.12 21.7063 51.768 22.7143 51.768C24.2343 51.768 24.9863 52.52 24.9863 53.816V54.12H22.5543C20.0263 54.12 19.1463 55.24 19.1463 56.6C19.1463 58.072 20.3623 59.096 22.2823 59.096C23.6103 59.096 24.5543 58.648 25.0663 57.88V59H26.5223V53.88C26.5223 51.56 25.2103 50.44 22.8903 50.44ZM22.5383 57.912C21.3703 57.912 20.6663 57.384 20.6663 56.536C20.6663 55.816 21.0983 55.224 22.6183 55.224H24.9863V56.408C24.6023 57.384 23.6903 57.912 22.5383 57.912ZM32.2768 51.944V50.52H30.8048V59H32.3408V54.776C32.3408 52.92 33.3648 51.912 35.0128 51.912C35.1248 51.912 35.2368 51.912 35.3648 51.928V50.44C33.8768 50.44 32.8208 50.952 32.2768 51.944ZM45.1779 59H47.0659L43.1459 54.024L46.7139 50.52H44.8579L40.2339 54.744V47.128H38.6979V59H40.2339V56.68L41.9939 55.048L45.1779 59ZM57.3019 54.808C57.3019 52.2 55.5579 50.44 53.1099 50.44C50.6619 50.44 48.8539 52.248 48.8539 54.76C48.8539 57.288 50.6779 59.096 53.4139 59.096C54.8219 59.096 55.9899 58.616 56.7579 57.72L55.9099 56.728C55.2859 57.416 54.4539 57.752 53.4619 57.752C51.7819 57.752 50.5819 56.76 50.3899 55.272H57.2699C57.2859 55.128 57.3019 54.936 57.3019 54.808ZM53.1099 51.736C54.5979 51.736 55.6699 52.744 55.8299 54.168H50.3899C50.5499 52.728 51.6379 51.736 53.1099 51.736ZM65.1628 57.4C64.8428 57.656 64.4108 57.8 63.9628 57.8C63.1148 57.8 62.6348 57.288 62.6348 56.376V51.784H65.0668V50.52H62.6348V48.664H61.0988V50.52H59.6588V51.784H61.0988V56.44C61.0988 58.152 62.0748 59.096 63.7868 59.096C64.4748 59.096 65.1788 58.904 65.6428 58.504L65.1628 57.4ZM73.4357 50.44C72.1877 50.44 71.0997 50.92 70.4117 51.864V50.52H68.9397V62.104H70.4757V57.72C71.1797 58.632 72.2357 59.096 73.4357 59.096C75.9157 59.096 77.7238 57.368 77.7238 54.76C77.7238 52.168 75.9157 50.44 73.4357 50.44ZM73.3077 57.752C71.6917 57.752 70.4597 56.568 70.4597 54.76C70.4597 52.968 71.6917 51.784 73.3077 51.784C74.9397 51.784 76.1718 52.968 76.1718 54.76C76.1718 56.568 74.9397 57.752 73.3077 57.752ZM81.286 59H82.822V47.128H81.286V59ZM90.2828 50.44C88.9228 50.44 87.6588 50.824 86.7788 51.528L87.4188 52.68C88.0748 52.12 89.0988 51.768 90.1068 51.768C91.6268 51.768 92.3788 52.52 92.3788 53.816V54.12H89.9468C87.4188 54.12 86.5388 55.24 86.5388 56.6C86.5388 58.072 87.7548 59.096 89.6748 59.096C91.0028 59.096 91.9468 58.648 92.4588 57.88V59H93.9148V53.88C93.9148 51.56 92.6028 50.44 90.2828 50.44ZM89.9308 57.912C88.7628 57.912 88.0588 57.384 88.0588 56.536C88.0588 55.816 88.4908 55.224 90.0108 55.224H92.3788V56.408C91.9948 57.384 91.0828 57.912 89.9308 57.912ZM101.94 59.096C103.46 59.096 104.724 58.456 105.396 57.272L104.228 56.536C103.684 57.368 102.852 57.752 101.924 57.752C100.26 57.752 99.0121 56.6 99.0121 54.76C99.0121 52.952 100.26 51.784 101.924 51.784C102.852 51.784 103.684 52.168 104.228 53L105.396 52.248C104.724 51.064 103.46 50.44 101.94 50.44C99.3321 50.44 97.4601 52.232 97.4601 54.76C97.4601 57.288 99.3321 59.096 101.94 59.096ZM116.364 54.808C116.364 52.2 114.62 50.44 112.172 50.44C109.724 50.44 107.916 52.248 107.916 54.76C107.916 57.288 109.74 59.096 112.476 59.096C113.884 59.096 115.052 58.616 115.82 57.72L114.972 56.728C114.348 57.416 113.516 57.752 112.524 57.752C110.844 57.752 109.644 56.76 109.452 55.272H116.332C116.348 55.128 116.364 54.936 116.364 54.808ZM112.172 51.736C113.66 51.736 114.732 52.744 114.892 54.168H109.452C109.612 52.728 110.7 51.736 112.172 51.736Z" fill="#E9E9E9"/>
</svg>
