<svg width="1358" height="70" viewBox="0 0 1358 70" fill="none" xmlns="http://www.w3.org/2000/svg">
<path d="M2.83122e-07 -4.76837e-06H74V20H48V70H26V20H2.83122e-07V-4.76837e-06ZM101.531 -4.76837e-06H123.531V25H134.931C141.465 25 147.665 26.1333 153.531 28.4V-4.76837e-06H175.531V70H153.531V53C149.531 47.6667 143.331 45 134.931 45H123.531V70H101.531V-4.76837e-06ZM203.063 -4.76837e-06H225.063V70H203.063V-4.76837e-06ZM252.543 -4.76837e-06H284.743L314.543 35.7V-4.76837e-06H336.543V70H314.543L274.543 22.1V70H252.543V-4.76837e-06ZM406.035 -4.76837e-06C416.435 -4.76837e-06 425.368 2.2 432.835 6.6C441.568 11.9333 446.568 19.7333 447.835 30H425.235C423.235 24.4 418.002 21.1333 409.535 20.2C408.335 20.0667 407.168 20 406.035 20C398.902 20 393.535 21.7667 389.935 25.3C387.335 27.8333 386.035 31.0667 386.035 35C386.035 37.0667 386.368 38.9333 387.035 40.6C387.768 42.2 388.635 43.5333 389.635 44.6C390.635 45.6 391.868 46.4667 393.335 47.2C394.802 47.9333 396.102 48.4667 397.235 48.8C398.435 49.1333 399.768 49.4 401.235 49.6C402.702 49.8 403.702 49.9333 404.235 50C404.835 50 405.435 50 406.035 50C413.035 49.9333 418.335 48.2667 421.935 45H406.435V35H448.135C448.135 50.4 441.068 60.8333 426.935 66.3C420.602 68.7667 413.635 70 406.035 70C394.435 70 384.868 67.4 377.335 62.2C368.535 56.0667 364.102 47 364.035 35C364.035 19.6667 371.102 9.23333 385.235 3.7C391.635 1.23333 398.568 -4.76837e-06 406.035 -4.76837e-06ZM502.327 -4.76837e-06H532.727C540.727 -4.76837e-06 547.227 1.96666 552.227 5.9C557.027 9.9 559.461 15.4333 559.527 22.5H537.527C537.461 21.2333 536.794 20.4333 535.527 20.1C535.327 20.0333 535.161 20 535.027 20H500.027C498.761 20 497.961 20.6 497.627 21.8C497.627 22.0667 497.594 22.3 497.527 22.5C497.527 23.7667 498.161 24.5667 499.427 24.9C499.627 24.9667 499.827 25 500.027 25H532.627C541.361 25 548.194 27.2 553.127 31.6C557.461 35.4667 559.627 40.7667 559.627 47.5C559.627 58.1 554.461 65.0333 544.127 68.3C540.527 69.4333 536.727 70 532.727 70H502.527C494.461 70 487.961 68.0333 483.027 64.1C478.161 60.1667 475.694 54.6333 475.627 47.5H497.727C497.727 48.6333 498.261 49.4 499.327 49.8C499.661 49.9333 499.927 50 500.127 50H535.127C536.394 50 537.194 49.4 537.527 48.2C537.594 47.9333 537.627 47.7 537.627 47.5C537.627 46.2333 537.027 45.4333 535.827 45.1C535.561 45.0333 535.327 45 535.127 45H502.527C493.861 45 487.061 42.8333 482.127 38.5C477.727 34.5667 475.527 29.2333 475.527 22.5C475.527 11.9 480.727 4.96667 491.127 1.7C494.661 0.566663 498.394 -4.76837e-06 502.327 -4.76837e-06ZM631.617 -4.76837e-06H705.617V20H679.617V70H657.617V20H631.617V-4.76837e-06ZM775.148 -4.76837e-06C785.548 -4.76837e-06 794.482 2.2 801.948 6.6C812.082 12.7333 817.182 22.2 817.248 35C817.248 50.4 810.182 60.8333 796.048 66.3C789.715 68.7667 782.748 70 775.148 70C763.548 70 753.982 67.4 746.448 62.2C737.648 56.0667 733.215 47 733.148 35C733.148 19.6667 740.215 9.23333 754.348 3.7C760.748 1.23333 767.682 -4.76837e-06 775.148 -4.76837e-06ZM775.148 20C768.015 20 762.648 21.7667 759.048 25.3C756.448 27.8333 755.148 31.0667 755.148 35C755.148 37.0667 755.482 38.9333 756.148 40.6C756.882 42.2 757.748 43.5333 758.748 44.6C759.748 45.6 760.982 46.4667 762.448 47.2C763.915 47.9333 765.215 48.4667 766.348 48.8C767.548 49.1333 768.882 49.4 770.348 49.6C771.815 49.8 772.815 49.9333 773.348 50C773.948 50 774.548 50 775.148 50C782.748 50 788.315 48.1 791.848 44.3C794.048 41.7667 795.182 38.6667 795.248 35C795.248 27.6667 791.048 22.9667 782.648 20.9C780.182 20.3 777.682 20 775.148 20ZM889.141 -4.76837e-06H911.141V30.4C914.274 30.7333 917.274 31.2 920.141 31.8L937.641 0.399996L937.941 -4.76837e-06H963.141L941.141 39.4C953.207 46.4 960.541 56.6 963.141 70H940.241C936.507 60.0667 927.774 53.7667 914.041 51.1C913.041 50.9 912.074 50.7333 911.141 50.6V70H889.141V-4.76837e-06ZM990.672 -4.76837e-06H1022.87L1052.67 35.7V-4.76837e-06H1074.67V70H1052.67L1012.67 22.1V70H990.672V-4.76837e-06ZM1144.16 -4.76837e-06C1154.56 -4.76837e-06 1163.5 2.2 1170.96 6.6C1181.1 12.7333 1186.2 22.2 1186.26 35C1186.26 50.4 1179.2 60.8333 1165.06 66.3C1158.73 68.7667 1151.76 70 1144.16 70C1132.56 70 1123 67.4 1115.46 62.2C1106.66 56.0667 1102.23 47 1102.16 35C1102.16 19.6667 1109.23 9.23333 1123.36 3.7C1129.76 1.23333 1136.7 -4.76837e-06 1144.16 -4.76837e-06ZM1144.16 20C1137.03 20 1131.66 21.7667 1128.06 25.3C1125.46 27.8333 1124.16 31.0667 1124.16 35C1124.16 37.0667 1124.5 38.9333 1125.16 40.6C1125.9 42.2 1126.76 43.5333 1127.76 44.6C1128.76 45.6 1130 46.4667 1131.46 47.2C1132.93 47.9333 1134.23 48.4667 1135.36 48.8C1136.56 49.1333 1137.9 49.4 1139.36 49.6C1140.83 49.8 1141.83 49.9333 1142.36 50C1142.96 50 1143.56 50 1144.16 50C1151.76 50 1157.33 48.1 1160.86 44.3C1163.06 41.7667 1164.2 38.6667 1164.26 35C1164.26 27.6667 1160.06 22.9667 1151.66 20.9C1149.2 20.3 1146.7 20 1144.16 20ZM1213.66 -4.76837e-06H1237.76L1261.66 54.1L1273.66 27.1L1261.66 -4.76837e-06H1285.76L1309.66 54.1L1333.56 -4.76837e-06H1357.66L1326.66 70H1292.66L1285.66 54.2L1278.66 70H1244.66L1213.66 -4.76837e-06Z" fill="white"/>
</svg>
