<svg width="1371" height="76" viewBox="0 0 1371 76" fill="none" xmlns="http://www.w3.org/2000/svg">
<path d="M1.2 10H23.4V16H15.6V31H9V16H1.2V10ZM43.3512 10C46.4712 10 49.1512 10.66 51.3912 11.98C54.4312 13.82 55.9612 16.66 55.9812 20.5C55.9812 25.12 53.8612 28.25 49.6212 29.89C47.7212 30.63 45.6312 31 43.3512 31C39.8712 31 37.0012 30.22 34.7412 28.66C32.1012 26.82 30.7712 24.1 30.7512 20.5C30.7512 15.9 32.8712 12.77 37.1112 11.11C39.0312 10.37 41.1112 10 43.3512 10ZM43.3512 16C41.2112 16 39.6012 16.53 38.5212 17.59C37.7412 18.35 37.3512 19.32 37.3512 20.5C37.3512 21.12 37.4512 21.68 37.6512 22.18C37.8712 22.66 38.1312 23.06 38.4312 23.38C38.7312 23.68 39.1012 23.94 39.5412 24.16C39.9812 24.38 40.3712 24.54 40.7112 24.64C41.0712 24.74 41.4712 24.82 41.9112 24.88C42.3512 24.94 42.6512 24.98 42.8112 25C42.9912 25 43.1712 25 43.3512 25C45.6312 25 47.3012 24.43 48.3612 23.29C49.0212 22.53 49.3612 21.6 49.3812 20.5C49.3812 18.3 48.1212 16.89 45.6012 16.27C44.8612 16.09 44.1112 16 43.3512 16ZM64.1988 10H70.7988V19.12C71.7388 19.22 72.6388 19.36 73.4988 19.54L78.7488 10.12L78.8388 10H86.3988L79.7988 21.82C83.4188 23.92 85.6188 26.98 86.3988 31H79.5288C78.4088 28.02 75.7888 26.13 71.6688 25.33C71.3688 25.27 71.0788 25.22 70.7988 25.18V31H64.1988V10ZM94.6582 10H116.858V16H101.258V17.5H116.858V23.5H101.258V25H116.858V31H94.6582V10ZM125.118 10H134.778L143.718 20.71V10H150.318V31H143.718L131.718 16.63V31H125.118V10ZM171.915 10H181.575L190.515 20.71V10H197.115V31H190.515L178.515 16.63V31H171.915V10ZM214.077 10H224.277L233.577 31H226.347C225.147 29.42 223.297 28.62 220.797 28.6H213.057L212.007 31H204.777L214.077 10ZM219.177 14.77L215.727 22.6H220.797C221.437 22.6 222.067 22.64 222.687 22.72L219.177 14.77ZM241.242 10H247.842L258.342 20.89L268.842 10H275.442V31H268.842V19.51L258.342 30.37L247.842 19.51V31H241.242V10ZM283.684 10H305.884V16H290.284V17.5H305.884V23.5H290.284V25H305.884V31H283.684V10Z" fill="white"/>
<path d="M5.008 70.192C4.12267 70.192 3.264 70.0747 2.432 69.84C1.61067 69.5947 0.949333 69.28 0.448 68.896L1.328 66.944C1.808 67.296 2.37867 67.5787 3.04 67.792C3.70133 68.0053 4.36267 68.112 5.024 68.112C5.76 68.112 6.304 68.0053 6.656 67.792C7.008 67.568 7.184 67.2747 7.184 66.912C7.184 66.6453 7.07733 66.4267 6.864 66.256C6.66133 66.0747 6.39467 65.9307 6.064 65.824C5.744 65.7173 5.30667 65.6 4.752 65.472C3.89867 65.2693 3.2 65.0667 2.656 64.864C2.112 64.6613 1.64267 64.336 1.248 63.888C0.864 63.44 0.672 62.8427 0.672 62.096C0.672 61.4453 0.848 60.8587 1.2 60.336C1.552 59.8027 2.08 59.3813 2.784 59.072C3.49867 58.7627 4.368 58.608 5.392 58.608C6.10667 58.608 6.80533 58.6933 7.488 58.864C8.17067 59.0347 8.768 59.28 9.28 59.6L8.48 61.568C7.44533 60.9813 6.41067 60.688 5.376 60.688C4.65067 60.688 4.112 60.8053 3.76 61.04C3.41867 61.2747 3.248 61.584 3.248 61.968C3.248 62.352 3.44533 62.64 3.84 62.832C4.24533 63.0133 4.85867 63.1947 5.68 63.376C6.53333 63.5787 7.232 63.7813 7.776 63.984C8.32 64.1867 8.784 64.5067 9.168 64.944C9.56267 65.3813 9.76 65.9733 9.76 66.72C9.76 67.36 9.57867 67.9467 9.216 68.48C8.864 69.0027 8.33067 69.4187 7.616 69.728C6.90133 70.0373 6.032 70.192 5.008 70.192ZM23.3231 67.92V70H14.6511V58.8H23.1151V60.88H17.2271V63.312H22.4271V65.328H17.2271V67.92H23.3231ZM28.5055 58.8H33.5935C34.8095 58.8 35.8815 59.0347 36.8095 59.504C37.7482 59.9627 38.4735 60.6133 38.9855 61.456C39.5082 62.2987 39.7695 63.28 39.7695 64.4C39.7695 65.52 39.5082 66.5013 38.9855 67.344C38.4735 68.1867 37.7482 68.8427 36.8095 69.312C35.8815 69.7707 34.8095 70 33.5935 70H28.5055V58.8ZM33.4655 67.872C34.5855 67.872 35.4762 67.5627 36.1375 66.944C36.8095 66.3147 37.1455 65.4667 37.1455 64.4C37.1455 63.3333 36.8095 62.4907 36.1375 61.872C35.4762 61.2427 34.5855 60.928 33.4655 60.928H31.0975V67.872H33.4655ZM44.8443 58.8H47.4363V70H44.8443V58.8ZM55.5342 60.912H51.9502V58.8H61.7102V60.912H58.1262V70H55.5342V60.912ZM66.2249 58.8H68.8169V70H66.2249V58.8ZM80.0189 70.192C78.8562 70.192 77.8055 69.9413 76.8669 69.44C75.9389 68.9387 75.2082 68.2507 74.6749 67.376C74.1522 66.4907 73.8909 65.4987 73.8909 64.4C73.8909 63.3013 74.1522 62.3147 74.6749 61.44C75.2082 60.5547 75.9389 59.8613 76.8669 59.36C77.8055 58.8587 78.8562 58.608 80.0189 58.608C81.1815 58.608 82.2269 58.8587 83.1549 59.36C84.0829 59.8613 84.8135 60.5547 85.3469 61.44C85.8802 62.3147 86.1469 63.3013 86.1469 64.4C86.1469 65.4987 85.8802 66.4907 85.3469 67.376C84.8135 68.2507 84.0829 68.9387 83.1549 69.44C82.2269 69.9413 81.1815 70.192 80.0189 70.192ZM80.0189 67.984C80.6802 67.984 81.2775 67.8347 81.8109 67.536C82.3442 67.2267 82.7602 66.8 83.0589 66.256C83.3682 65.712 83.5229 65.0933 83.5229 64.4C83.5229 63.7067 83.3682 63.088 83.0589 62.544C82.7602 62 82.3442 61.5787 81.8109 61.28C81.2775 60.9707 80.6802 60.816 80.0189 60.816C79.3575 60.816 78.7602 60.9707 78.2269 61.28C77.6935 61.5787 77.2722 62 76.9629 62.544C76.6642 63.088 76.5149 63.7067 76.5149 64.4C76.5149 65.0933 76.6642 65.712 76.9629 66.256C77.2722 66.8 77.6935 67.2267 78.2269 67.536C78.7602 67.8347 79.3575 67.984 80.0189 67.984Z" fill="#E9E9E9"/>
<path d="M409.2 10H431.4V16H423.6V31H417V16H409.2V10ZM451.351 10C454.471 10 457.151 10.66 459.391 11.98C462.431 13.82 463.961 16.66 463.981 20.5C463.981 25.12 461.861 28.25 457.621 29.89C455.721 30.63 453.631 31 451.351 31C447.871 31 445.001 30.22 442.741 28.66C440.101 26.82 438.771 24.1 438.751 20.5C438.751 15.9 440.871 12.77 445.111 11.11C447.031 10.37 449.111 10 451.351 10ZM451.351 16C449.211 16 447.601 16.53 446.521 17.59C445.741 18.35 445.351 19.32 445.351 20.5C445.351 21.12 445.451 21.68 445.651 22.18C445.871 22.66 446.131 23.06 446.431 23.38C446.731 23.68 447.101 23.94 447.541 24.16C447.981 24.38 448.371 24.54 448.711 24.64C449.071 24.74 449.471 24.82 449.911 24.88C450.351 24.94 450.651 24.98 450.811 25C450.991 25 451.171 25 451.351 25C453.631 25 455.301 24.43 456.361 23.29C457.021 22.53 457.361 21.6 457.381 20.5C457.381 18.3 456.121 16.89 453.601 16.27C452.861 16.09 452.111 16 451.351 16ZM470.998 10H493.198V16H485.398V31H478.798V16H470.998V10ZM505.366 10H515.566L524.866 31H517.636C516.436 29.42 514.586 28.62 512.086 28.6H504.346L503.296 31H496.066L505.366 10ZM510.466 14.77L507.016 22.6H512.086C512.726 22.6 513.356 22.64 513.976 22.72L510.466 14.77ZM532.532 10H539.132V25H554.732V31H532.532V10ZM584.381 10H593.501C595.901 10 597.851 10.59 599.351 11.77C600.791 12.97 601.521 14.63 601.541 16.75H594.941C594.921 16.37 594.721 16.13 594.341 16.03C594.281 16.01 594.231 16 594.191 16H583.691C583.311 16 583.071 16.18 582.971 16.54C582.971 16.62 582.961 16.69 582.941 16.75C582.941 17.13 583.131 17.37 583.511 17.47C583.571 17.49 583.631 17.5 583.691 17.5H593.471C596.091 17.5 598.141 18.16 599.621 19.48C600.921 20.64 601.571 22.23 601.571 24.25C601.571 27.43 600.021 29.51 596.921 30.49C595.841 30.83 594.701 31 593.501 31H584.441C582.021 31 580.071 30.41 578.591 29.23C577.131 28.05 576.391 26.39 576.371 24.25H583.001C583.001 24.59 583.161 24.82 583.481 24.94C583.581 24.98 583.661 25 583.721 25H594.221C594.601 25 594.841 24.82 594.941 24.46C594.961 24.38 594.971 24.31 594.971 24.25C594.971 23.87 594.791 23.63 594.431 23.53C594.351 23.51 594.281 23.5 594.221 23.5H584.441C581.841 23.5 579.801 22.85 578.321 21.55C577.001 20.37 576.341 18.77 576.341 16.75C576.341 13.57 577.901 11.49 581.021 10.51C582.081 10.17 583.201 10 584.381 10ZM609.818 10H616.418V20.5C616.418 22.74 617.668 24.15 620.168 24.73C620.888 24.91 621.638 25 622.418 25C624.698 25 626.368 24.43 627.428 23.29C628.088 22.55 628.428 21.62 628.448 20.5L628.418 10H635.018L635.048 20.5C635.048 25.12 632.928 28.26 628.688 29.92C626.788 30.64 624.698 31 622.418 31C618.938 31 616.068 30.23 613.808 28.69C611.168 26.85 609.838 24.12 609.818 20.5V10ZM643.266 10H656.466C659.006 10 661.106 10.6 662.766 11.8C664.546 13.12 665.446 15.02 665.466 17.5C665.466 21 663.796 23.3 660.456 24.4C659.216 24.8 657.886 25 656.466 25H649.866V31H643.266V10ZM649.866 16V19H657.366C658.006 19 658.456 18.71 658.716 18.13C658.816 17.93 658.866 17.73 658.866 17.53C658.886 16.87 658.596 16.4 657.996 16.12C657.796 16.04 657.596 16 657.396 16H649.866ZM673.696 10H686.896C689.436 10 691.536 10.6 693.196 11.8C694.976 13.12 695.876 15.02 695.896 17.5C695.896 21 694.226 23.3 690.886 24.4C689.646 24.8 688.316 25 686.896 25H680.296V31H673.696V10ZM680.296 16V19H687.796C688.436 19 688.886 18.71 689.146 18.13C689.246 17.93 689.296 17.73 689.296 17.53C689.316 16.87 689.026 16.4 688.426 16.12C688.226 16.04 688.026 16 687.826 16H680.296ZM704.126 10H710.726V25H726.326V31H704.126V10ZM722.573 10H731.003L737.843 18.55L744.653 10H753.113L741.143 25V31H734.543V25L722.573 10Z" fill="white"/>
<path d="M412.944 58.8V70H410.352V60.88H408.112V58.8H412.944ZM428.685 60.912H425.101V58.8H434.861V60.912H431.277V70H428.685V60.912ZM446.512 70L444.352 66.88H444.224H441.968V70H439.376V58.8H444.224C445.216 58.8 446.074 58.9653 446.8 59.296C447.536 59.6267 448.101 60.096 448.496 60.704C448.89 61.312 449.088 62.032 449.088 62.864C449.088 63.696 448.885 64.416 448.48 65.024C448.085 65.6213 447.52 66.08 446.784 66.4L449.296 70H446.512ZM446.464 62.864C446.464 62.2347 446.261 61.7547 445.856 61.424C445.45 61.0827 444.858 60.912 444.08 60.912H441.968V64.816H444.08C444.858 64.816 445.45 64.6453 445.856 64.304C446.261 63.9627 446.464 63.4827 446.464 62.864ZM454.261 58.8H456.853V70H454.261V58.8ZM462.631 58.8H465.223V67.888H470.839V70H462.631V58.8ZM475.407 58.8H477.999V67.888H483.615V70H475.407V58.8ZM488.184 58.8H490.776V70H488.184V58.8ZM501.978 70.192C500.815 70.192 499.764 69.9413 498.826 69.44C497.898 68.9387 497.167 68.2507 496.634 67.376C496.111 66.4907 495.85 65.4987 495.85 64.4C495.85 63.3013 496.111 62.3147 496.634 61.44C497.167 60.5547 497.898 59.8613 498.826 59.36C499.764 58.8587 500.815 58.608 501.978 58.608C503.14 58.608 504.186 58.8587 505.114 59.36C506.042 59.8613 506.772 60.5547 507.306 61.44C507.839 62.3147 508.106 63.3013 508.106 64.4C508.106 65.4987 507.839 66.4907 507.306 67.376C506.772 68.2507 506.042 68.9387 505.114 69.44C504.186 69.9413 503.14 70.192 501.978 70.192ZM501.978 67.984C502.639 67.984 503.236 67.8347 503.77 67.536C504.303 67.2267 504.719 66.8 505.018 66.256C505.327 65.712 505.482 65.0933 505.482 64.4C505.482 63.7067 505.327 63.088 505.018 62.544C504.719 62 504.303 61.5787 503.77 61.28C503.236 60.9707 502.639 60.816 501.978 60.816C501.316 60.816 500.719 60.9707 500.186 61.28C499.652 61.5787 499.231 62 498.922 62.544C498.623 63.088 498.474 63.7067 498.474 64.4C498.474 65.0933 498.623 65.712 498.922 66.256C499.231 66.8 499.652 67.2267 500.186 67.536C500.719 67.8347 501.316 67.984 501.978 67.984ZM523.446 58.8V70H521.318L515.734 63.2V70H513.174V58.8H515.318L520.886 65.6V58.8H523.446Z" fill="#E9E9E9"/>
<path d="M864.24 10H873.36C875.76 10 877.71 10.59 879.21 11.77C880.65 12.97 881.38 14.63 881.4 16.75H874.8C874.78 16.37 874.58 16.13 874.2 16.03C874.14 16.01 874.09 16 874.05 16H863.55C863.17 16 862.93 16.18 862.83 16.54C862.83 16.62 862.82 16.69 862.8 16.75C862.8 17.13 862.99 17.37 863.37 17.47C863.43 17.49 863.49 17.5 863.55 17.5H873.33C875.95 17.5 878 18.16 879.48 19.48C880.78 20.64 881.43 22.23 881.43 24.25C881.43 27.43 879.88 29.51 876.78 30.49C875.7 30.83 874.56 31 873.36 31H864.3C861.88 31 859.93 30.41 858.45 29.23C856.99 28.05 856.25 26.39 856.23 24.25H862.86C862.86 24.59 863.02 24.82 863.34 24.94C863.44 24.98 863.52 25 863.58 25H874.08C874.46 25 874.7 24.82 874.8 24.46C874.82 24.38 874.83 24.31 874.83 24.25C874.83 23.87 874.65 23.63 874.29 23.53C874.21 23.51 874.14 23.5 874.08 23.5H864.3C861.7 23.5 859.66 22.85 858.18 21.55C856.86 20.37 856.2 18.77 856.2 16.75C856.2 13.57 857.76 11.49 860.88 10.51C861.94 10.17 863.06 10 864.24 10ZM886.689 10H895.119L901.959 18.55L908.769 10H917.229L905.259 25V31H898.659V25L886.689 10ZM924.853 10H931.453L941.953 20.89L952.453 10H959.053V31H952.453V19.51L941.953 30.37L931.453 19.51V31H924.853V10ZM967.295 10H983.405C984.765 10.04 986.015 10.43 987.155 11.17C988.695 12.19 989.475 13.67 989.495 15.61C989.495 16.35 989.405 17.03 989.225 17.65C989.065 18.25 988.855 18.72 988.595 19.06C988.355 19.4 988.105 19.69 987.845 19.93C987.605 20.15 987.395 20.3 987.215 20.38L986.975 20.5C986.975 20.5 987.195 20.64 987.635 20.92C988.855 21.9 989.475 23.38 989.495 25.36C989.495 27.92 988.215 29.65 985.655 30.55C984.755 30.85 983.935 31 983.195 31H967.295V10ZM973.895 16V17.5H982.145C982.445 17.48 982.665 17.34 982.805 17.08C982.905 16.84 982.905 16.61 982.805 16.39C982.645 16.15 982.425 16.02 982.145 16H973.895ZM973.895 23.5V25C973.935 25 975.595 25 978.875 25C980.155 25 981.245 25 982.145 25C982.385 24.98 982.585 24.88 982.745 24.7C982.925 24.4 982.915 24.09 982.715 23.77C982.555 23.61 982.365 23.52 982.145 23.5H982.115H982.085H982.055H982.025H981.995H981.965H981.935H981.905H981.875H981.845H981.815H981.785H981.755H981.725H981.695H981.665H981.635H981.605H981.575H981.545H981.515H981.485H981.455H981.425H981.395H981.365H981.335H981.305H981.275H981.245H981.215H981.185H981.155H981.125H981.095H981.065H981.035H981.005H980.975H980.945H980.915H980.885H980.855H980.825H980.795H980.765H980.735H980.705H980.675H980.645H980.615H980.585H980.555H980.525H980.495H980.465H980.435H980.405H980.375H980.345H980.315H980.285H980.255H980.225H980.195H980.165H980.135H980.105H980.075H980.045H980.015H979.985H979.955H979.925H979.895H979.865H979.835H979.805H979.775H979.745H979.715H979.685H979.655H979.625H979.595H979.565H979.535H979.505H979.475H979.445H979.415H979.385H979.355H979.325H979.295H979.265H979.235H979.205H979.175H979.145H979.115H979.085H979.055H979.025H978.995H978.965H978.935H978.905H978.875H978.845H978.815H978.785H978.755H978.725H978.695H978.665H978.635H978.605H978.575H978.545H978.515H978.485H978.455H978.425H978.395H978.365H978.335H978.305H978.275H978.245H978.215H978.185H978.155H978.125H978.095H978.065H978.035H978.005H977.975H977.945H977.915H977.885H977.855H977.825H977.795H977.765H977.735H977.705H977.675H977.645H977.615H977.585H977.555H977.525H977.495H977.465H977.435H977.405H977.375H977.345H977.315H977.285H977.255H977.225H977.195H977.165H977.135H977.105H977.075H977.045H977.015H976.985H976.955H976.925H976.895H976.865H976.835H976.805H976.775H976.745H976.715H976.685H976.655H976.625H976.595H976.565H976.535H976.505H976.475H976.445H976.415H976.385H976.355H976.325H976.295H976.265H976.235H976.205H976.175H976.145H976.115H976.085H976.055H976.025H975.995H975.965H975.935H975.905H975.875H975.845H975.815H975.785H975.755H975.725H975.695H975.665H975.635H975.605H975.575H975.545H975.515H975.485H975.455H975.425H975.395H975.365H975.335H975.305H975.275H975.245H975.215H975.185H975.155H975.125H975.095H975.065H975.035H975.005H974.975H974.945H974.915H974.885H974.855H974.825H974.795H974.765H974.735H974.705H974.675H974.645H974.615H974.585H974.555H974.525H974.495H974.465H974.435H974.405H974.375H974.345H974.315H974.285H974.255H974.225H974.195H974.165H974.135H974.105H974.075H974.045H974.015H973.985H973.955H973.925H973.895ZM1010.03 10C1013.15 10 1015.83 10.66 1018.07 11.98C1021.11 13.82 1022.64 16.66 1022.66 20.5C1022.66 25.12 1020.54 28.25 1016.3 29.89C1014.4 30.63 1012.31 31 1010.03 31C1006.55 31 1003.68 30.22 1001.42 28.66C998.782 26.82 997.452 24.1 997.432 20.5C997.432 15.9 999.552 12.77 1003.79 11.11C1005.71 10.37 1007.79 10 1010.03 10ZM1010.03 16C1007.89 16 1006.28 16.53 1005.2 17.59C1004.42 18.35 1004.03 19.32 1004.03 20.5C1004.03 21.12 1004.13 21.68 1004.33 22.18C1004.55 22.66 1004.81 23.06 1005.11 23.38C1005.41 23.68 1005.78 23.94 1006.22 24.16C1006.66 24.38 1007.05 24.54 1007.39 24.64C1007.75 24.74 1008.15 24.82 1008.59 24.88C1009.03 24.94 1009.33 24.98 1009.49 25C1009.67 25 1009.85 25 1010.03 25C1012.31 25 1013.98 24.43 1015.04 23.29C1015.7 22.53 1016.04 21.6 1016.06 20.5C1016.06 18.3 1014.8 16.89 1012.28 16.27C1011.54 16.09 1010.79 16 1010.03 16ZM1030.88 10H1037.48V25H1053.08V31H1030.88V10Z" fill="white"/>
<path d="M860.008 70.192C859.123 70.192 858.264 70.0747 857.432 69.84C856.611 69.5947 855.949 69.28 855.448 68.896L856.328 66.944C856.808 67.296 857.379 67.5787 858.04 67.792C858.701 68.0053 859.363 68.112 860.024 68.112C860.76 68.112 861.304 68.0053 861.656 67.792C862.008 67.568 862.184 67.2747 862.184 66.912C862.184 66.6453 862.077 66.4267 861.864 66.256C861.661 66.0747 861.395 65.9307 861.064 65.824C860.744 65.7173 860.307 65.6 859.752 65.472C858.899 65.2693 858.2 65.0667 857.656 64.864C857.112 64.6613 856.643 64.336 856.248 63.888C855.864 63.44 855.672 62.8427 855.672 62.096C855.672 61.4453 855.848 60.8587 856.2 60.336C856.552 59.8027 857.08 59.3813 857.784 59.072C858.499 58.7627 859.368 58.608 860.392 58.608C861.107 58.608 861.805 58.6933 862.488 58.864C863.171 59.0347 863.768 59.28 864.28 59.6L863.48 61.568C862.445 60.9813 861.411 60.688 860.376 60.688C859.651 60.688 859.112 60.8053 858.76 61.04C858.419 61.2747 858.248 61.584 858.248 61.968C858.248 62.352 858.445 62.64 858.84 62.832C859.245 63.0133 859.859 63.1947 860.68 63.376C861.533 63.5787 862.232 63.7813 862.776 63.984C863.32 64.1867 863.784 64.5067 864.168 64.944C864.563 65.3813 864.76 65.9733 864.76 66.72C864.76 67.36 864.579 67.9467 864.216 68.48C863.864 69.0027 863.331 69.4187 862.616 69.728C861.901 70.0373 861.032 70.192 860.008 70.192ZM878.323 67.92V70H869.651V58.8H878.115V60.88H872.227V63.312H877.427V65.328H872.227V67.92H878.323ZM883.505 58.8H888.594C889.81 58.8 890.882 59.0347 891.81 59.504C892.748 59.9627 893.474 60.6133 893.986 61.456C894.508 62.2987 894.77 63.28 894.77 64.4C894.77 65.52 894.508 66.5013 893.986 67.344C893.474 68.1867 892.748 68.8427 891.81 69.312C890.882 69.7707 889.81 70 888.594 70H883.505V58.8ZM888.465 67.872C889.586 67.872 890.476 67.5627 891.137 66.944C891.81 66.3147 892.146 65.4667 892.146 64.4C892.146 63.3333 891.81 62.4907 891.137 61.872C890.476 61.2427 889.586 60.928 888.465 60.928H886.097V67.872H888.465Z" fill="#E9E9E9"/>
<path d="M1156.2 10H1168.8C1172.04 10 1174.79 10.7 1177.05 12.1C1179.93 13.94 1181.38 16.74 1181.4 20.5C1181.4 25.12 1179.29 28.25 1175.07 29.89C1173.17 30.63 1171.08 31 1168.8 31H1156.2V10ZM1162.8 16V25H1168.8C1171.06 25 1172.72 24.43 1173.78 23.29C1174.46 22.53 1174.8 21.6 1174.8 20.5C1174.8 18.28 1173.55 16.87 1171.05 16.27C1170.31 16.09 1169.56 16 1168.8 16H1162.8ZM1189.65 10H1211.85V16H1196.25V17.5H1211.85V23.5H1196.25V25H1211.85V31H1189.65V10ZM1232.71 10C1235.83 10 1238.51 10.66 1240.75 11.98C1243.37 13.58 1244.87 15.92 1245.25 19H1238.47C1237.87 17.32 1236.3 16.34 1233.76 16.06C1233.4 16.02 1233.05 16 1232.71 16C1230.57 16 1228.96 16.53 1227.88 17.59C1227.1 18.35 1226.71 19.32 1226.71 20.5C1226.71 21.12 1226.81 21.68 1227.01 22.18C1227.23 22.66 1227.49 23.06 1227.79 23.38C1228.09 23.68 1228.46 23.94 1228.9 24.16C1229.34 24.38 1229.73 24.54 1230.07 24.64C1230.43 24.74 1230.83 24.82 1231.27 24.88C1231.71 24.94 1232.01 24.98 1232.17 25C1232.35 25 1232.53 25 1232.71 25C1234.97 25 1236.63 24.43 1237.69 23.29C1238.05 22.91 1238.32 22.48 1238.5 22H1245.25C1244.79 26.04 1242.48 28.75 1238.32 30.13C1236.58 30.71 1234.71 31 1232.71 31C1229.23 31 1226.36 30.22 1224.1 28.66C1221.46 26.82 1220.13 24.1 1220.11 20.5C1220.11 15.9 1222.23 12.77 1226.47 11.11C1228.39 10.37 1230.47 10 1232.71 10ZM1253.47 10H1260.07V31H1253.47V10ZM1268.31 10H1274.91L1285.41 20.89L1295.91 10H1302.51V31H1295.91V19.51L1285.41 30.37L1274.91 19.51V31H1268.31V10ZM1319.47 10H1329.67L1338.97 31H1331.74C1330.54 29.42 1328.69 28.62 1326.19 28.6H1318.45L1317.4 31H1310.17L1319.47 10ZM1324.57 14.77L1321.12 22.6H1326.19C1326.83 22.6 1327.46 22.64 1328.08 22.72L1324.57 14.77ZM1346.63 10H1353.23V25H1368.83V31H1346.63V10Z" fill="white"/>
<path d="M1159.94 58.8V70H1157.35V60.88H1155.11V58.8H1159.94ZM1172.67 64.112C1173.23 64.3893 1173.65 64.752 1173.94 65.2C1174.24 65.648 1174.39 66.1653 1174.39 66.752C1174.39 67.4453 1174.19 68.0533 1173.79 68.576C1173.4 69.088 1172.84 69.488 1172.13 69.776C1171.41 70.0533 1170.59 70.192 1169.65 70.192C1168.71 70.192 1167.88 70.0533 1167.17 69.776C1166.47 69.488 1165.92 69.088 1165.52 68.576C1165.14 68.0533 1164.95 67.4453 1164.95 66.752C1164.95 66.1653 1165.09 65.648 1165.38 65.2C1165.68 64.752 1166.1 64.3893 1166.64 64.112C1166.23 63.856 1165.91 63.536 1165.68 63.152C1165.46 62.7573 1165.35 62.3093 1165.35 61.808C1165.35 61.1573 1165.53 60.592 1165.89 60.112C1166.25 59.632 1166.76 59.264 1167.41 59.008C1168.06 58.7413 1168.81 58.608 1169.65 58.608C1170.5 58.608 1171.25 58.7413 1171.91 59.008C1172.57 59.264 1173.08 59.632 1173.44 60.112C1173.8 60.592 1173.99 61.1573 1173.99 61.808C1173.99 62.3093 1173.87 62.7573 1173.65 63.152C1173.43 63.536 1173.1 63.856 1172.67 64.112ZM1169.65 60.512C1169.13 60.512 1168.71 60.64 1168.39 60.896C1168.08 61.1413 1167.92 61.4827 1167.92 61.92C1167.92 62.3467 1168.08 62.6827 1168.39 62.928C1168.69 63.1733 1169.12 63.296 1169.65 63.296C1170.18 63.296 1170.61 63.1733 1170.93 62.928C1171.25 62.6827 1171.41 62.3467 1171.41 61.92C1171.41 61.4827 1171.25 61.1413 1170.93 60.896C1170.61 60.64 1170.18 60.512 1169.65 60.512ZM1169.65 68.288C1170.3 68.288 1170.81 68.144 1171.19 67.856C1171.57 67.5573 1171.76 67.1627 1171.76 66.672C1171.76 66.1813 1171.57 65.792 1171.19 65.504C1170.81 65.216 1170.3 65.072 1169.65 65.072C1169.01 65.072 1168.5 65.216 1168.13 65.504C1167.76 65.792 1167.57 66.1813 1167.57 66.672C1167.57 67.1733 1167.76 67.568 1168.13 67.856C1168.5 68.144 1169.01 68.288 1169.65 68.288Z" fill="#E9E9E9"/>
</svg>
