<svg width="1197" height="70" viewBox="0 0 1197 70" fill="none" xmlns="http://www.w3.org/2000/svg">
<path d="M0.34375 -4.76837e-06H74.3438V20H48.3438V70H26.3438V20H0.34375V-4.76837e-06ZM162.875 -4.76837e-06C173.275 -4.76837e-06 182.208 2.2 189.675 6.6C199.808 12.7333 204.908 22.2 204.975 35C204.975 50.4 197.908 60.8333 183.775 66.3C177.442 68.7667 170.475 70 162.875 70C151.275 70 141.708 67.4 134.175 62.2C125.375 56.0667 120.942 47 120.875 35C120.875 19.6667 127.942 9.23333 142.075 3.7C148.475 1.23333 155.408 -4.76837e-06 162.875 -4.76837e-06ZM162.875 20C155.742 20 150.375 21.7667 146.775 25.3C144.175 27.8333 142.875 31.0667 142.875 35C142.875 37.0667 143.208 38.9333 143.875 40.6C144.608 42.2 145.475 43.5333 146.475 44.6C147.475 45.6 148.708 46.4667 150.175 47.2C151.642 47.9333 152.942 48.4667 154.075 48.8C155.275 49.1333 156.608 49.4 158.075 49.6C159.542 49.8 160.542 49.9333 161.075 50C161.675 50 162.275 50 162.875 50C170.475 50 176.042 48.1 179.575 44.3C181.775 41.7667 182.908 38.6667 182.975 35C182.975 27.6667 178.775 22.9667 170.375 20.9C167.908 20.3 165.408 20 162.875 20ZM251.367 -4.76837e-06H273.367V30.4C276.501 30.7333 279.501 31.2 282.367 31.8L299.867 0.399996L300.167 -4.76837e-06H325.367L303.367 39.4C315.434 46.4 322.767 56.6 325.367 70H302.467C298.734 60.0667 290.001 53.7667 276.267 51.1C275.267 50.9 274.301 50.7333 273.367 50.6V70H251.367V-4.76837e-06ZM371.898 -4.76837e-06H445.898V20H393.898V25H445.898V45H393.898V50H445.898V70H371.898V-4.76837e-06ZM492.43 -4.76837e-06H524.63L554.43 35.7V-4.76837e-06H576.43V70H554.43L514.43 22.1V70H492.43V-4.76837e-06ZM664.922 -4.76837e-06C675.322 -4.76837e-06 684.255 2.2 691.722 6.6C701.855 12.7333 706.955 22.2 707.022 35C707.022 50.4 699.955 60.8333 685.822 66.3C679.489 68.7667 672.522 70 664.922 70C653.322 70 643.755 67.4 636.222 62.2C627.422 56.0667 622.989 47 622.922 35C622.922 19.6667 629.989 9.23333 644.122 3.7C650.522 1.23333 657.455 -4.76837e-06 664.922 -4.76837e-06ZM664.922 20C657.789 20 652.422 21.7667 648.822 25.3C646.222 27.8333 644.922 31.0667 644.922 35C644.922 37.0667 645.255 38.9333 645.922 40.6C646.655 42.2 647.522 43.5333 648.522 44.6C649.522 45.6 650.755 46.4667 652.222 47.2C653.689 47.9333 654.989 48.4667 656.122 48.8C657.322 49.1333 658.655 49.4 660.122 49.6C661.589 49.8 662.589 49.9333 663.122 50C663.722 50 664.322 50 664.922 50C672.522 50 678.089 48.1 681.622 44.3C683.822 41.7667 684.955 38.6667 685.022 35C685.022 27.6667 680.822 22.9667 672.422 20.9C669.955 20.3 667.455 20 664.922 20ZM753.414 -4.76837e-06H775.414L810.414 36.3L845.414 -4.76837e-06H867.414V70H845.414V31.7L810.414 67.9L775.414 31.7V70H753.414V-4.76837e-06ZM913.887 -4.76837e-06H935.887V70H913.887V-4.76837e-06ZM1024.37 -4.76837e-06C1034.77 -4.76837e-06 1043.7 2.2 1051.17 6.6C1059.9 11.9333 1064.9 19.7333 1066.17 30H1043.57C1041.57 24.4 1036.33 21.1333 1027.87 20.2C1026.67 20.0667 1025.5 20 1024.37 20C1017.23 20 1011.87 21.7667 1008.27 25.3C1005.67 27.8333 1004.37 31.0667 1004.37 35C1004.37 37.0667 1004.7 38.9333 1005.37 40.6C1006.1 42.2 1006.97 43.5333 1007.97 44.6C1008.97 45.6 1010.2 46.4667 1011.67 47.2C1013.13 47.9333 1014.43 48.4667 1015.57 48.8C1016.77 49.1333 1018.1 49.4 1019.57 49.6C1021.03 49.8 1022.03 49.9333 1022.57 50C1023.17 50 1023.77 50 1024.37 50C1031.9 50 1037.43 48.1 1040.97 44.3C1042.17 43.0333 1043.07 41.6 1043.67 40H1066.17C1064.63 53.4667 1056.93 62.5 1043.07 67.1C1037.27 69.0333 1031.03 70 1024.37 70C1012.77 70 1003.2 67.4 995.667 62.2C986.867 56.0667 982.434 47 982.367 35C982.367 19.6667 989.434 9.23333 1003.57 3.7C1009.97 1.23333 1016.9 -4.76837e-06 1024.37 -4.76837e-06ZM1139.37 -4.76837e-06H1169.77C1177.77 -4.76837e-06 1184.27 1.96666 1189.27 5.9C1194.07 9.9 1196.5 15.4333 1196.57 22.5H1174.57C1174.5 21.2333 1173.83 20.4333 1172.57 20.1C1172.37 20.0333 1172.2 20 1172.07 20H1137.07C1135.8 20 1135 20.6 1134.67 21.8C1134.67 22.0667 1134.63 22.3 1134.57 22.5C1134.57 23.7667 1135.2 24.5667 1136.47 24.9C1136.67 24.9667 1136.87 25 1137.07 25H1169.67C1178.4 25 1185.23 27.2 1190.17 31.6C1194.5 35.4667 1196.67 40.7667 1196.67 47.5C1196.67 58.1 1191.5 65.0333 1181.17 68.3C1177.57 69.4333 1173.77 70 1169.77 70H1139.57C1131.5 70 1125 68.0333 1120.07 64.1C1115.2 60.1667 1112.73 54.6333 1112.67 47.5H1134.77C1134.77 48.6333 1135.3 49.4 1136.37 49.8C1136.7 49.9333 1136.97 50 1137.17 50H1172.17C1173.43 50 1174.23 49.4 1174.57 48.2C1174.63 47.9333 1174.67 47.7 1174.67 47.5C1174.67 46.2333 1174.07 45.4333 1172.87 45.1C1172.6 45.0333 1172.37 45 1172.17 45H1139.57C1130.9 45 1124.1 42.8333 1119.17 38.5C1114.77 34.5667 1112.57 29.2333 1112.57 22.5C1112.57 11.9 1117.77 4.96667 1128.17 1.7C1131.7 0.566663 1135.43 -4.76837e-06 1139.37 -4.76837e-06Z" fill="white"/>
</svg>
