<svg width="634" height="71" viewBox="0 0 634 71" fill="none" xmlns="http://www.w3.org/2000/svg">
<path d="M2.83122e-07 0.613276H74V20.6133H48V70.6133H26V20.6133H2.83122e-07V0.613276ZM101.531 0.613276H145.531C153.998 0.613276 160.998 2.61328 166.531 6.61328C172.531 11.0133 175.531 17.3466 175.531 25.6133C175.465 35.6133 171.231 42.7133 162.831 46.9133C169.431 53.3133 173.665 61.2133 175.531 70.6133H152.631C148.898 60.6799 140.165 54.3799 126.431 51.7133C125.431 51.5133 124.465 51.3466 123.531 51.2133V70.6133H101.531V0.613276ZM123.531 20.6133V30.6133H148.531C150.665 30.6133 152.198 29.6466 153.131 27.7133C153.398 27.0466 153.531 26.3799 153.531 25.7133C153.598 23.5133 152.631 21.9466 150.631 21.0133C149.965 20.7466 149.298 20.6133 148.631 20.6133H123.531ZM234.063 0.613276H268.063L299.062 70.6133H274.963C270.963 65.3466 264.796 62.6799 256.463 62.6133H230.663L227.163 70.6133H203.063L234.063 0.613276ZM251.063 16.5133L239.563 42.6133H256.463C258.596 42.6133 260.696 42.7466 262.763 43.0133L251.063 16.5133ZM326.566 0.613276H358.766L388.566 36.3133V0.613276H410.566V70.6133H388.566L348.566 22.7133V70.6133H326.566V0.613276ZM438.059 0.613276H480.059C490.859 0.613276 500.025 2.94661 507.559 7.61328C517.159 13.7466 521.992 23.0799 522.059 35.6133C522.059 51.0133 515.025 61.4466 500.959 66.9133C494.625 69.3799 487.659 70.6133 480.059 70.6133H438.059V0.613276ZM460.059 20.6133V50.6133H480.059C487.592 50.6133 493.125 48.7133 496.659 44.9133C498.925 42.3799 500.059 39.2799 500.059 35.6133C500.059 28.2133 495.892 23.5133 487.559 21.5133C485.092 20.9133 482.592 20.6133 480.059 20.6133H460.059ZM576.351 0.613276H606.751C614.751 0.613276 621.251 2.57994 626.251 6.51328C631.051 10.5133 633.484 16.0466 633.551 23.1133H611.551C611.484 21.8466 610.817 21.0466 609.551 20.7133C609.351 20.6466 609.184 20.6133 609.051 20.6133H574.051C572.784 20.6133 571.984 21.2133 571.651 22.4133C571.651 22.6799 571.617 22.9133 571.551 23.1133C571.551 24.3799 572.184 25.1799 573.451 25.5133C573.651 25.5799 573.851 25.6133 574.051 25.6133H606.651C615.384 25.6133 622.217 27.8133 627.151 32.2133C631.484 36.0799 633.651 41.3799 633.651 48.1133C633.651 58.7133 628.484 65.6466 618.151 68.9133C614.551 70.0466 610.751 70.6133 606.751 70.6133H576.551C568.484 70.6133 561.984 68.6466 557.051 64.7133C552.184 60.7799 549.717 55.2466 549.651 48.1133H571.751C571.751 49.2466 572.284 50.0133 573.351 50.4133C573.684 50.5466 573.951 50.6133 574.151 50.6133H609.151C610.417 50.6133 611.217 50.0133 611.551 48.8133C611.617 48.5466 611.651 48.3133 611.651 48.1133C611.651 46.8466 611.051 46.0466 609.851 45.7133C609.584 45.6466 609.351 45.6133 609.151 45.6133H576.551C567.884 45.6133 561.084 43.4466 556.151 39.1133C551.751 35.1799 549.551 29.8466 549.551 23.1133C549.551 12.5133 554.751 5.57995 565.151 2.31328C568.684 1.17994 572.417 0.613276 576.351 0.613276Z" fill="#1E2832"/>
</svg>
