<svg width="612" height="70" viewBox="0 0 612 70" fill="none" xmlns="http://www.w3.org/2000/svg">
<path d="M0 0H74V20H48V70H26V20H0V0Z" fill="#1E2832"/>
<path d="M101.531 0H145.531C153.998 0 160.998 2 166.531 6C172.531 10.4 175.531 16.7333 175.531 25C175.465 35 171.231 42.1 162.831 46.3C169.431 52.7 173.665 60.6 175.531 70H152.631C148.898 60.0667 140.165 53.7667 126.431 51.1C125.431 50.9 124.465 50.7333 123.531 50.6V70H101.531V0ZM123.531 20V30H148.531C150.665 30 152.198 29.0333 153.131 27.1C153.398 26.4333 153.531 25.7667 153.531 25.1C153.598 22.9 152.631 21.3333 150.631 20.4C149.965 20.1333 149.298 20 148.631 20H123.531Z" fill="#1E2832"/>
<path d="M203.062 0H277.062V20H225.062V25H277.062V45H225.062V50H277.062V70H203.062V0Z" fill="#1E2832"/>
<path d="M304.594 0H336.794L366.594 35.7V0H388.594V70H366.594L326.594 22.1V70H304.594V0Z" fill="#1E2832"/>
<path d="M416.086 0H458.086C468.886 0 478.053 2.33333 485.586 7C495.186 13.1333 500.019 22.4667 500.086 35C500.086 50.4 493.053 60.8333 478.986 66.3C472.653 68.7667 465.686 70 458.086 70H416.086V0ZM438.086 20V50H458.086C465.619 50 471.153 48.1 474.686 44.3C476.953 41.7667 478.086 38.6667 478.086 35C478.086 27.6 473.919 22.9 465.586 20.9C463.119 20.3 460.619 20 458.086 20H438.086Z" fill="#1E2832"/>
<path d="M554.378 0H584.778C592.778 0 599.278 1.96667 604.278 5.9C609.078 9.9 611.511 15.4333 611.578 22.5H589.578C589.511 21.2333 588.845 20.4333 587.578 20.1C587.378 20.0333 587.211 20 587.078 20H552.078C550.811 20 550.011 20.6 549.678 21.8C549.678 22.0667 549.645 22.3 549.578 22.5C549.578 23.7667 550.211 24.5667 551.478 24.9C551.678 24.9667 551.878 25 552.078 25H584.678C593.411 25 600.245 27.2 605.178 31.6C609.511 35.4667 611.678 40.7667 611.678 47.5C611.678 58.1 606.511 65.0333 596.178 68.3C592.578 69.4333 588.778 70 584.778 70H554.578C546.511 70 540.011 68.0333 535.078 64.1C530.211 60.1667 527.745 54.6333 527.678 47.5H549.778C549.778 48.6333 550.311 49.4 551.378 49.8C551.711 49.9333 551.978 50 552.178 50H587.178C588.445 50 589.245 49.4 589.578 48.2C589.645 47.9333 589.678 47.7 589.678 47.5C589.678 46.2333 589.078 45.4333 587.878 45.1C587.611 45.0333 587.378 45 587.178 45H554.578C545.911 45 539.111 42.8333 534.178 38.5C529.778 34.5667 527.578 29.2333 527.578 22.5C527.578 11.9 532.778 4.96667 543.178 1.7C546.711 0.566667 550.445 0 554.378 0Z" fill="#1E2832"/>
</svg>
